<?xml version="1.0" encoding="UTF-8" standalone="no"?>
<!-- Created with Inkscape (http://www.inkscape.org/) -->

<svg
   xmlns:svg="http://www.w3.org/2000/svg"
   xmlns="http://www.w3.org/2000/svg"
   version="1.1"
   width="360"
   height="56"
   id="svg3026">
  <defs
     id="defs3028" />
  <g
     transform="translate(-285.8625,-516.63718)"
     id="layer1">
    <path
       d="m 340.8375,528.13718 0,35.7 19.95,0 -2.7,6.9 -25.95,0 0,-42.6 8.7,0"
       id="path14"
       style="fill:#000000;fill-opacity:1;fill-rule:nonzero;stroke:none" />
    <path
       d="m 508.8375,547.48718 c 5.55,-2.1 12,-6.9 12,-14.85 0,-9.9 -8.55,-14.85 -20.7,-14.85 -15.9,0 -15.9,0 -15.9,0 0,52.95 0,52.95 0,52.95 9.45,0 9.45,0 9.45,0 0,-21.75 0,-21.75 0,-21.75 5.55,0 5.55,0 5.55,0 14.7,21.75 14.7,21.75 14.7,21.75 10.65,0 10.65,0 10.65,0 l -15.75,-23.25 z m -10.5,-5.25 c -4.65,0 -4.65,0 -4.65,0 0,-18.15 0,-18.15 0,-18.15 5.85,0 5.85,0 5.85,0 7.65,0 11.85,2.4 11.85,9 0,7.05 -5.1,9.15 -13.05,9.15"
       id="path16"
       style="fill:#000000;fill-opacity:1;fill-rule:nonzero;stroke:none" />
    <path
       d="m 377.4375,528.13718 1.35,3.3 -16.5,39.3 8.1,0 3.6,-8.7 18.75,0 3.75,8.7 9.6,0 -18.9,-42.6 -9.75,0 z m -0.75,27.45 6.45,-15.75 6.6,15.75 -13.05,0"
       id="path18"
       style="fill:#000000;fill-opacity:1;fill-rule:nonzero;stroke:none" />
    <path
       d="m 315.6375,542.38718 c 4.65,-1.5 9.15,-5.1 9.15,-11.7 0,-12.9 -15.6,-12.9 -20.55,-12.9 -16.65,0 -16.65,0 -16.65,0 0,52.95 0,52.95 0,52.95 15.9,0 15.9,0 15.9,0 9.3,0 24.3,-2.25 24.3,-15.3 0,-7.2 -4.35,-11.85 -12.15,-13.05 z m -12.6,-18.15 c 7.05,0 11.85,0.75 11.85,7.05 0,8.55 -8.7,8.1 -12.9,8.1 -4.8,0 -4.8,0 -4.8,0 0,-15.3 0,-15.3 0,-15.3 l 5.85,0.15 z m 0.15,39.6 c -6,-0.15 -6,-0.15 -6,-0.15 0,-17.4 0,-17.4 0,-17.4 5.55,0 5.55,0 5.55,0 8.4,0 15.15,1.2 15.15,8.7 0,7.35 -5.55,8.85 -14.7,8.85"
       id="path28"
       style="fill:#000000;fill-opacity:1;fill-rule:nonzero;stroke:none" />
    <path
       d="m 444.0375,528.13718 8.85,0 0,42.6 -8.85,0 0,-42.6 z m 27.3,0 -18,20.4 18.15,22.2 10.05,0 -18.3,-22.65 16.95,-19.95 -8.85,0"
       id="path30"
       style="fill:#000000;fill-opacity:1;fill-rule:nonzero;stroke:none" />
    <path
       d="m 404.1375,548.08718 c 0,13.95 8.7,23.4 20.55,23.4 6.15,0 10.2,-1.5 14.25,-4.35 -2.1,-4.2 -2.1,-4.2 -2.1,-4.2 -3.45,1.65 -6.45,2.55 -9.9,2.55 -7.65,0 -13.2,-5.55 -13.2,-17.1 0,-9.3 3.45,-14.85 10.05,-14.85 3.6,0 6.6,1.2 7.8,4.8 7.65,-1.95 7.65,-1.95 7.65,-1.95 -0.75,-3 -4.8,-8.85 -15.9,-8.85 -10.2,0 -19.2,6.9 -19.2,20.55"
       id="path40"
       style="fill:#000000;fill-opacity:1;fill-rule:nonzero;stroke:none" />
    <path
       d="m 606.4875,528.13718 8.7,0 0,42.6 -8.7,0 0,-42.6 z m 27.3,0 -18.15,20.4 18.15,22.2 10.35,0 -18.45,-22.65 16.95,-19.95 -8.85,0"
       id="path50"
       style="fill:#000000;fill-opacity:1;fill-rule:nonzero;stroke:none" />
    <path
       d="m 566.4375,548.08718 c 0,13.95 8.55,23.4 20.25,23.4 6.3,0 10.5,-1.5 14.4,-4.35 -2.1,-4.2 -2.1,-4.2 -2.1,-4.2 -3.45,1.65 -6.45,2.55 -10.05,2.55 -7.65,0 -13.05,-5.55 -13.05,-17.1 0,-9.3 3.45,-14.85 10.2,-14.85 3.45,0 6.45,1.2 7.8,4.8 7.5,-1.95 7.5,-1.95 7.5,-1.95 -0.75,-3 -4.65,-8.85 -15.75,-8.85 -10.35,0 -19.2,6.9 -19.2,20.55"
       id="path52"
       style="fill:#000000;fill-opacity:1;fill-rule:nonzero;stroke:none" />
    <path
       d="m 542.8875,527.53718 c -11.55,0 -19.95,6.9 -19.95,21.9 0,15 7.95,22.05 19.95,22.05 12,0 19.95,-7.05 19.95,-22.05 0,-15 -8.4,-21.9 -19.95,-21.9 z m 0,37.95 c -8.85,0 -10.95,-7.2 -10.95,-16.05 0,-8.7 2.1,-16.2 10.95,-16.2 8.85,0 10.95,7.5 10.95,16.2 0,8.85 -2.1,16.05 -10.95,16.05"
       id="path54"
       style="fill:#000000;fill-opacity:1;fill-rule:nonzero;stroke:none" />
  </g>
</svg>
