<?xml version="1.0" encoding="utf-8"?>
<!-- Generator: Adobe Illustrator 18.0.0, SVG Export Plug-In . SVG Version: 6.00 Build 0)  -->
<!DOCTYPE svg PUBLIC "-//W3C//DTD SVG 1.1//EN" "http://www.w3.org/Graphics/SVG/1.1/DTD/svg11.dtd">
<svg version="1.1" id="Stripe_Logo_1_" xmlns="http://www.w3.org/2000/svg" xmlns:xlink="http://www.w3.org/1999/xlink" x="0px"
	 y="0px" viewBox="0 0 540 250" enable-background="new 0 0 540 250" xml:space="preserve">
<path id="Stripe_Logo" d="M471.8,118.3c1.1-17.6,5.9-25.8,14.9-25.8c8.9,0,13.5,8.4,14.1,25.8H471.8z M537.7,128.8
	c0-19.6-4.3-35.2-12.7-46.1c-8.6-11.1-21.4-16.8-37.7-16.8c-33.4,0-54.2,24.7-54.2,64.3c0,22.2,5.5,38.8,16.5,49.4
	c9.8,9.5,23.9,14.3,42.1,14.3c16.8,0,32.3-4,42.1-10.5l-4.3-26.9c-9.7,5.2-20.9,8.1-33.6,8.1c-7.6,0-12.8-1.6-16.6-4.9
	c-4.1-3.5-6.5-9.2-7.3-17.3h65.1C537.4,140.5,537.7,131.6,537.7,128.8z M380.5,155.4c-3.2,6-8.1,9.2-13.8,9.2c-4,0-7.4-0.8-10.6-2.4
	v-58.6c6.7-7,12.7-7.8,14.9-7.8c10,0,14.9,10.8,14.9,31.8C385.9,139.7,384.2,149.1,380.5,155.4z M413.2,79.4c-7-9-16.6-13.5-29-13.5
	c-11.4,0-21.4,4.8-30.7,14.7l-2.1-12.4h-34.5v168.9l39.3-6.5V191c6,1.9,12.2,2.9,17.7,2.9c9.8,0,24.1-2.5,35.2-14.6
	c10.6-11.6,16-29.5,16-53.1C425,105.3,421.1,89.5,413.2,79.4z M261.9,68.3h39.4v123.3h-39.4V68.3z M281.7,56.1
	c11.4,0,20.6-9.3,20.6-20.8c0-11.6-9.2-20.8-20.6-20.8c-11.6,0-20.8,9.2-20.8,20.8C261,46.7,270.2,56.1,281.7,56.1z M245,66.6
	c-11.1,0-20,5.8-23.4,16.3l-2.4-14.6h-34.4v123.3h39.3v-80c4.9-6,11.9-8.2,21.4-8.2c2.1,0,4.3,0,7,0.5V67.5
	C249.7,66.9,247.3,66.6,245,66.6z M169.6,97.4l4.8-29.2h-25.1V32.9l-33.7,5.6l-4.9,29.8l-11.9,1.9l-4.4,27.2h16.3v57.2
	c0,14.9,3.8,25.2,11.6,31.5c6.5,5.2,15.8,7.8,29,7.8c10.1,0,16.3-1.7,20.6-2.9v-30.9c-2.4,0.6-7.8,1.7-11.4,1.7
	c-7.8,0-11.1-4-11.1-13V97.4H169.6z M57.1,114.7c-11.6-4.3-17.9-7.6-17.9-12.8c0-4.4,3.6-7,10.1-7c11.9,0,24.1,4.6,32.5,8.7
	l4.8-29.3c-6.7-3.2-20.3-8.4-39.1-8.4c-13.3,0-24.4,3.5-32.3,10C6.9,82.7,2.6,92.5,2.6,104.4c0,21.5,13.1,30.7,34.5,38.5
	c13.8,4.9,18.4,8.4,18.4,13.8c0,5.2-4.4,8.2-12.5,8.2c-10,0-26.5-4.9-37.2-11.2L1,183.3c9.2,5.2,26.3,10.6,44,10.6
	c14.1,0,25.8-3.3,33.7-9.7c8.9-7,13.5-17.3,13.5-30.6C92.2,131.6,78.8,122.4,57.1,114.7L57.1,114.7z"/>
</svg>
