<svg xmlns="http://www.w3.org/2000/svg" viewBox="0 0 268.63 69.3"><defs><style>.cls-1{fill:#00a971;}.cls-2{fill:#3e3d49;}</style></defs><g id="图层_2" data-name="图层 2"><g id="图层_1-2" data-name="图层 1"><polygon class="cls-1" points="28.75 62.8 40.01 56.3 40.01 69.3 28.75 62.8"/><polygon class="cls-1" points="41.79 40.21 53.06 46.71 41.79 53.22 41.79 40.21"/><polygon class="cls-1" points="42.68 38.68 53.94 32.18 53.94 45.17 42.68 38.68"/><polygon class="cls-1" points="41.79 24.12 53.06 30.63 41.79 37.14 41.79 24.12"/><polygon class="cls-1" points="0.89 14.54 12.15 8.04 12.15 21.05 0.89 14.54"/><polygon class="cls-1" points="0 16.09 11.26 22.59 0 29.09 0 16.09"/><polygon class="cls-1" points="0 32.17 11.27 38.68 0 45.18 0 32.17"/><polygon class="cls-1" points="41.79 8.04 53.06 14.54 41.79 21.05 41.79 8.04"/><polygon class="cls-1" points="42.68 22.59 53.94 16.09 53.94 29.09 42.68 22.59"/><polygon class="cls-1" points="28.75 14.54 40.01 8.04 40.01 21.05 28.75 14.54"/><polygon class="cls-1" points="28.75 46.71 40.01 40.21 40.01 53.22 28.75 46.71"/><polygon class="cls-1" points="14.82 6.51 26.08 0 26.08 13 14.82 6.51"/><polygon class="cls-1" points="27.86 0 39.13 6.51 27.86 13.01 27.86 0"/><polygon class="cls-1" points="27.86 48.26 39.13 54.76 27.86 61.27 27.86 48.26"/><polygon class="cls-1" points="13.93 40.21 25.19 46.71 13.93 53.22 13.93 40.21"/><polygon class="cls-1" points="13.93 8.03 25.19 14.54 13.93 21.05 13.93 8.03"/><polygon class="cls-1" points="0.89 30.63 12.15 24.13 12.15 37.13 0.89 30.63"/><polygon class="cls-1" points="0.89 46.71 12.15 40.22 12.15 53.22 0.89 46.71"/><polygon class="cls-1" points="14.82 54.76 26.08 48.26 26.08 61.27 14.82 54.76"/><path class="cls-2" d="M89.61,39.58c0,2.35-3,5.2-5.55,6.57a40,40,0,0,1,4.53,2.5c.82.51,1.08,1,.77,1.83-.2.66-1.23,2.13-2,2.13s-1-.2-1.89-.85A55.73,55.73,0,0,0,77,47.23c-3.27-1.34-7.34-4.85-7.34-7.65V21.65c0-3.51,6.52-8.25,9.93-8.25s10,4.74,10,8.25Zm-14.92-.66c0,1.78,3.31,4.22,4.89,4.22s5-2.44,5-4.22V22.32c0-1.79-3.25-4.23-5-4.23-1.58,0-4.89,2.44-4.89,4.23Z"/><path class="cls-2" d="M100.51,46.26a1.09,1.09,0,0,1-1.12,1.11h-2.8a1.13,1.13,0,0,1-1.12-1.11V15a1.13,1.13,0,0,1,1.12-1.12h2.8A1.09,1.09,0,0,1,100.51,15Z"/><path class="cls-2" d="M111.81,24.86v21.4a1.12,1.12,0,0,1-1.22,1.11h-2.54a1.14,1.14,0,0,1-1.17-1.11V15a1.18,1.18,0,0,1,1.17-1.12h2.14c.81,0,1.17.4,1.58,1.12l10.29,21.6V15a1.06,1.06,0,0,1,1.11-1.12h2.6A1.11,1.11,0,0,1,126.94,15V46.26a1.11,1.11,0,0,1-1.17,1.11h-2.09a1.9,1.9,0,0,1-1.58-1.11Z"/><path class="cls-2" d="M143.7,29.29a1.18,1.18,0,0,1,1.17-1.12h6.21a2.08,2.08,0,0,1,1.64,1.58v9.83c0,3.41-6.42,8.25-9.94,8.25s-10-4.84-10-8.25V21.65c0-3.51,6.62-8.25,10-8.25,2.2,0,5.45,1.68,7.84,3.16a1.26,1.26,0,0,1,.52,1.68l-.87,1.68a1.32,1.32,0,0,1-1.79.4c-1.83-1-4.33-2.23-5.7-2.23-1.53,0-4.94,2.44-4.94,4.23v16.6c0,1.73,3.36,4.22,4.94,4.22s4.89-2.54,4.89-4.22V32.6h-2.8a1.18,1.18,0,0,1-1.17-1.12Z"/><path class="cls-2" d="M162.39,38.92c0,1.83,3.52,4.27,4.88,4.27s3.52-1.11,5.35-2.13a1.36,1.36,0,0,1,1.89.51l.82,1.68a1.27,1.27,0,0,1-.46,1.68c-2.35,1.42-5.2,2.9-7.6,2.9-3.3,0-9.93-4.53-9.93-8.25V21.65c0-3.61,6.57-8.25,10-8.25,2.14,0,5.1,1.48,7.48,2.85a1.25,1.25,0,0,1,.47,1.74l-.77,1.62a1.28,1.28,0,0,1-1.78.46c-1.83-.91-4-2-5.4-2s-4.94,2.44-4.94,4.28Z"/><path class="cls-2" d="M179.6,45.28V15a1.18,1.18,0,0,1,1.17-1.12h2.65A1.2,1.2,0,0,1,184.65,15v28h9.57a1.14,1.14,0,0,1,1.17,1.12v2.2a1.13,1.13,0,0,1-1.17,1.11H181.59C180.88,47.37,179.6,46,179.6,45.28Z"/><path class="cls-2" d="M217.5,39.58c0,3.51-6.53,8.25-10,8.25s-9.93-4.69-9.93-8.25V21.65c0-3.51,6.52-8.25,9.93-8.25s10,4.74,10,8.25Zm-14.93-.66c0,1.78,3.31,4.22,4.89,4.22s5-2.44,5-4.22V22.32c0-1.79-3.26-4.23-5-4.23s-4.89,2.44-4.89,4.23Z"/><path class="cls-2" d="M233,47.83c-3.37,0-9.93-4.53-9.93-8.19V15a1.17,1.17,0,0,1,1.17-1.12H227A1.15,1.15,0,0,1,228.14,15V39c0,1.78,3.31,4.22,4.89,4.22s4.89-2.44,4.89-4.22V15A1.08,1.08,0,0,1,239,13.86h2.8A1.18,1.18,0,0,1,243,15V39.64C243,43.19,236.38,47.83,233,47.83Z"/><path class="cls-2" d="M268.63,39.48c0,3.05-5.71,7.89-9.17,7.89h-7.95c-1.42,0-2.44-.87-2.44-1.88V15.84a2.28,2.28,0,0,1,2.44-2h7.85c3.56,0,9.27,4.48,9.27,7.89Zm-5-17c0-1.68-3.06-4.23-4.89-4.23h-4.59V43h4.69c1.78,0,4.79-2.59,4.79-4.23Z"/></g></g></svg>