<?xml version="1.0" encoding="UTF-8" standalone="no"?>
<!-- Created with Inkscape (http://www.inkscape.org/) -->

<svg
   xmlns:dc="http://purl.org/dc/elements/1.1/"
   xmlns:cc="http://creativecommons.org/ns#"
   xmlns:rdf="http://www.w3.org/1999/02/22-rdf-syntax-ns#"
   xmlns:svg="http://www.w3.org/2000/svg"
   xmlns="http://www.w3.org/2000/svg"
   xmlns:sodipodi="http://sodipodi.sourceforge.net/DTD/sodipodi-0.dtd"
   xmlns:inkscape="http://www.inkscape.org/namespaces/inkscape"
   version="1.1"
   id="svg10"
   xml:space="preserve"
   width="792"
   height="109"
   viewBox="0 0 792 109"
   sodipodi:docname="Western Digital 2018 Annual Report.svg"
   inkscape:version="0.92.4 (5da689c313, 2019-01-14)"><metadata
     id="metadata16"><rdf:RDF><cc:Work
         rdf:about=""><dc:format>image/svg+xml</dc:format><dc:type
           rdf:resource="http://purl.org/dc/dcmitype/StillImage" /><dc:title></dc:title></cc:Work></rdf:RDF></metadata><defs
     id="defs14"><clipPath
       clipPathUnits="userSpaceOnUse"
       id="clipPath100"><path
         d="M 7,0 H 594 V 774 H 7 Z"
         id="path98"
         inkscape:connector-curvature="0" /></clipPath><clipPath
       clipPathUnits="userSpaceOnUse"
       id="clipPath124"><path
         d="M 7,0 H 594 V 774 H 7 Z"
         id="path122"
         inkscape:connector-curvature="0" /></clipPath><clipPath
       clipPathUnits="userSpaceOnUse"
       id="clipPath160"><path
         d="M 7,0 H 594 V 774 H 7 Z"
         id="path158"
         inkscape:connector-curvature="0" /></clipPath><clipPath
       clipPathUnits="userSpaceOnUse"
       id="clipPath176"><path
         d="M 7,0 H 594 V 774 H 7 Z"
         id="path174"
         inkscape:connector-curvature="0" /></clipPath><clipPath
       clipPathUnits="userSpaceOnUse"
       id="clipPath208"><path
         d="M 7,0 H 594 V 774 H 7 Z"
         id="path206"
         inkscape:connector-curvature="0" /></clipPath><clipPath
       clipPathUnits="userSpaceOnUse"
       id="clipPath382"><path
         d="M 7,0 H 594 V 774 H 7 Z"
         id="path380"
         inkscape:connector-curvature="0" /></clipPath><clipPath
       clipPathUnits="userSpaceOnUse"
       id="clipPath406"><path
         d="M 7,0 H 594 V 774 H 7 Z"
         id="path404"
         inkscape:connector-curvature="0" /></clipPath></defs><sodipodi:namedview
     pagecolor="#ffffff"
     bordercolor="#666666"
     borderopacity="1"
     objecttolerance="10"
     gridtolerance="10"
     guidetolerance="10"
     inkscape:pageopacity="0"
     inkscape:pageshadow="2"
     inkscape:window-width="1366"
     inkscape:window-height="705"
     id="namedview12"
     showgrid="false"
     inkscape:zoom="0.85430425"
     inkscape:cx="409.25147"
     inkscape:cy="150.71603"
     inkscape:window-x="-8"
     inkscape:window-y="-8"
     inkscape:window-maximized="1"
     inkscape:current-layer="g18" /><g
     id="g18"
     inkscape:groupmode="layer"
     inkscape:label="Western Digital 2018 Annual Report"
     transform="matrix(1.3333333,0,0,-1.3333333,0,109)"><g
       id="g430"
       style="fill:#000000"
       transform="matrix(2.1992047,0,0,2.1985118,-369.63108,-1000.3165)"><g
         style="fill:#000000"
         id="g94"><g
           style="fill:#000000"
           clip-path="url(#clipPath100)"
           id="g96"><g
             style="fill:#000000"
             transform="translate(266.944,479.183)"
             id="g102"><path
               inkscape:connector-curvature="0"
               id="path104"
               style="fill:#000000;fill-opacity:1;fill-rule:nonzero;stroke:none"
               d="M 0,0 C 2.555,0 3.913,-1.831 4.129,-4.212 H -4.176 C -3.95,-1.989 -2.725,0 0,0 m 4.589,-10.296 c -0.268,-0.493 -1.23,-2.526 -4.334,-2.526 -2.492,0 -4.258,1.947 -4.431,4.667 H 9.821 v 1.736 C 9.821,-1.221 6.712,4.067 0,4.067 c -6.038,0 -9.854,-4.531 -9.854,-10.487 0,-5.857 3.744,-10.488 10.089,-10.488 5.562,0 7.693,3.309 8.197,4.401 z M -50.848,0 c 2.556,0 3.916,-1.831 4.131,-4.212 h -8.304 c 0.225,2.223 1.45,4.212 4.173,4.212 m 4.59,-10.296 c -0.266,-0.493 -1.23,-2.526 -4.332,-2.526 -2.494,0 -4.258,1.947 -4.431,4.667 h 13.995 v 1.736 c 0,5.198 -3.108,10.486 -9.822,10.486 -6.037,0 -9.853,-4.531 -9.853,-10.487 0,-5.857 3.744,-10.488 10.089,-10.488 5.563,0 7.693,3.309 8.197,4.401 z m -18.293,22.445 -5.173,-20.287 -5.174,20.287 h -7.124 l -5.321,-20.867 -5.322,20.867 h -6.032 l 7.355,-28.466 h 7.56 l 5.142,20.173 5.144,-20.173 h 7.135 l 7.355,28.466 z m 37.63,-14.236 3.647,2.466 c -0.472,0.798 -2.414,3.69 -8.095,3.69 -4.243,0 -7.766,-2.184 -7.766,-6.035 0,-3.596 2.607,-5.309 5.478,-6.193 0.859,-0.262 1.708,-0.51 2.472,-0.752 1.537,-0.492 2.726,-0.917 2.726,-2.106 0,-1.056 -1.176,-1.806 -3.233,-1.806 -2.663,0 -3.883,1.61 -4.328,2.293 l -3.827,-2.15 c 0.372,-0.923 2.437,-4.229 8.509,-4.229 4.631,0 8.569,1.952 8.569,6.29 0,3.612 -2.577,5.309 -5.621,6.237 -0.771,0.238 -1.526,0.471 -2.22,0.683 -1.384,0.418 -2.836,0.796 -2.836,2.108 0,0.963 0.915,1.572 2.601,1.572 2.638,0 3.538,-1.517 3.924,-2.068 m 51.294,6.156 c -5.149,0 -6.355,-2.895 -6.748,-3.808 h -0.08 l -0.002,3.216 h -5.115 v -19.794 h 5.709 v 9.823 c 0,4.262 2.834,6.009 6.236,6.009 z m 7.604,-0.592 h -5.665 v -19.794 h 5.706 V -4.41 c 0,2.376 1.269,3.95 3.527,3.95 2.55,0 3.575,-1.878 3.575,-3.95 v -11.907 h 5.706 v 13.236 c 0,4.087 -2.277,7.146 -7.091,7.146 -3.924,0 -5.297,-2.337 -5.676,-2.995 h -0.082 z m -52.386,4.969 h 5.666 V 3.477 h 4.459 v -3.944 h -4.459 v -9.662 c 0,-1.71 1.026,-2.896 2.744,-2.896 0.919,0 1.439,0.096 1.598,0.125 v -3.417 c -0.29,-0.094 -1.837,-0.592 -3.926,-0.592 -4.616,0 -6.082,2.954 -6.082,6.703 V 8.446" /></g><g
             style="fill:#000000"
             transform="translate(384.472,491.805)"
             id="g106"><path
               inkscape:connector-curvature="0"
               id="path108"
               style="fill:#000000;fill-opacity:1;fill-rule:nonzero;stroke:none"
               d="m 0,0 c -1.76,0 -3.19,-1.427 -3.19,-3.187 0,-1.759 1.43,-3.186 3.19,-3.186 1.76,0 3.189,1.427 3.189,3.186 C 3.189,-1.427 1.76,0 0,0 M -2.926,-9.149 H 2.927 V -28.941 H -2.926 Z M -31.774,0 c -1.762,0 -3.188,-1.427 -3.188,-3.187 0,-1.759 1.426,-3.186 3.188,-3.186 1.76,0 3.186,1.427 3.186,3.186 0,1.76 -1.426,3.187 -3.186,3.187 M -34.7,-9.149 h 5.855 V -28.941 H -34.7 Z m 58.307,-13.628 c 0,-1.654 1.226,-2.668 2.881,-2.668 2.472,0 3.485,2.049 3.492,4.377 v 1.197 h -2.249 c -2.983,0 -4.124,-1.246 -4.124,-2.906 m -5.142,10.704 c 0.545,0.698 2.526,3.516 7.774,3.516 4.912,0 9.433,-2.186 9.433,-7.837 v -12.545 h -5.533 v 1.979 h -0.074 c -0.299,-0.398 -1.67,-2.571 -5.669,-2.571 -3.708,0 -6.471,2.554 -6.471,6.418 0,4.547 3.765,6.676 9.542,6.676 h 2.513 v 0.44 c 0,2.142 -1.595,3.37 -4.149,3.37 -2.263,0 -3.542,-1.248 -4.069,-1.971 z m -34.718,-12.21 c -3.237,0 -3.827,3.168 -3.827,5.732 0,2.918 0.817,5.733 3.827,5.733 2.999,0 3.825,-2.815 3.825,-5.733 0,-2.564 -0.664,-5.732 -3.825,-5.732 m 3.825,15.134 v -2.127 h -0.079 c -0.342,0.611 -1.749,2.719 -5.424,2.719 -6.06,0 -8.266,-4.947 -8.266,-9.994 0,-5.054 2.208,-9.995 8.266,-9.995 3.747,0 5.134,2.193 5.424,2.721 h 0.079 v -2.263 c 0,-2.722 -1.934,-4.423 -4.197,-4.423 -2.59,0 -3.952,1.731 -4.326,2.404 -0.508,-0.259 -3.822,-2.241 -3.822,-2.241 0.406,-0.836 2.107,-4.4 8.33,-4.4 6.551,0 9.684,4.185 9.684,10.042 v 17.557 z m 63.471,-17.717 c 0.349,0 0.511,0.212 0.511,0.433 0,0.216 -0.151,0.437 -0.511,0.437 h -0.436 v -0.87 z m -0.436,-0.405 v -1.21 h -0.492 v 2.884 h 0.902 c 0.579,0 1.035,-0.227 1.035,-0.795 0,-0.43 -0.273,-0.613 -0.545,-0.672 v -0.012 c 0.292,-0.068 0.419,-0.253 0.456,-0.568 0.035,-0.3 0.098,-0.837 0.098,-0.837 h -0.483 c 0,0 -0.039,0.34 -0.061,0.517 -0.063,0.512 -0.23,0.693 -0.603,0.693 z m 2.467,0.2 c 0,1.109 -0.902,2.018 -2.018,2.018 -1.123,0 -2.031,-0.909 -2.031,-2.018 0,-1.123 0.908,-2.03 2.031,-2.03 1.116,0 2.018,0.907 2.018,2.03 m -4.481,0 c 0,1.352 1.099,2.448 2.463,2.448 1.36,0 2.45,-1.096 2.45,-2.448 0,-1.365 -1.09,-2.46 -2.45,-2.46 -1.364,0 -2.463,1.095 -2.463,2.46 m -9.024,26.598 h 5.851 v -28.466 h -5.851 z m -95.264,-23.735 h 3.239 c 7.41,0 8.486,4.968 8.486,9.501 0,4.533 -1.14,9.502 -8.486,9.502 h -3.239 z m -6.115,23.735 h 9.706 c 8.855,0 14.405,-4.337 14.405,-14.234 0,-9.897 -5.357,-14.232 -14.405,-14.232 H -61.81 Z M 6.611,-4.176 h 5.666 v -4.971 h 4.46 v -3.942 h -4.46 v -9.662 c 0,-1.71 1.027,-2.896 2.742,-2.896 0.923,0 1.441,0.096 1.598,0.125 v -3.417 c -0.287,-0.096 -1.836,-0.592 -3.922,-0.592 -4.618,0 -6.084,2.953 -6.084,6.701 v 18.654" /></g></g></g></g></g></svg>