<?xml version="1.0" encoding="utf-8"?>
<!-- Generator: Adobe Illustrator 18.0.0, SVG Export Plug-In . SVG Version: 6.00 Build 0)  -->
<!DOCTYPE svg PUBLIC "-//W3C//DTD SVG 1.1//EN" "http://www.w3.org/Graphics/SVG/1.1/DTD/svg11.dtd">
<svg version="1.1" id="Layer_1" xmlns="http://www.w3.org/2000/svg" xmlns:xlink="http://www.w3.org/1999/xlink" x="0px" y="0px"
	 viewBox="0 0 504 144" enable-background="new 0 0 504 144" xml:space="preserve">
<g>
	<path fill="#0F0D0E" d="M97.5,62.2H55.2c-1.1,0-2,0.9-2,2v20.7c0,1.1,0.9,2,2,2h16.5v25.7c0,0-3.7,1.3-13.9,1.3
		c-12.1,0-28.9-4.4-28.9-41.5c0-37.1,17.6-42,34-42c14.3,0,20.4,2.5,24.3,3.7c1.2,0.4,2.4-0.8,2.4-1.9l4.7-20c0-0.5-0.2-1.1-0.8-1.5
		C92,9.5,82.3,4,57.8,4C29.6,4,0.7,16,0.7,73.7c0,57.7,33.1,66.3,61,66.3c23.1,0,37.1-9.9,37.1-9.9c0.6-0.3,0.6-1.1,0.6-1.5V64.2
		C99.5,63.1,98.6,62.2,97.5,62.2z"/>
	<path fill="#0F0D0E" d="M315.2,10.9c0-1.1-0.9-2-2-2h-23.8c-1.1,0-2,0.9-2,2c0,0,0,46,0,46h-37.1v-46c0-1.1-0.9-2-2-2h-23.8
		c-1.1,0-2,0.9-2,2v124.4c0,1.1,0.9,2,2,2h23.8c1.1,0,2-0.9,2-2V82.2h37.1c0,0-0.1,53.2-0.1,53.2c0,1.1,0.9,2,2,2h23.8
		c1.1,0,2-0.9,2-2V10.9z"/>
	<g>
		<g>
			<path fill="#0F0D0E" d="M142.4,27.3c0-8.6-6.9-15.5-15.3-15.5c-8.5,0-15.3,6.9-15.3,15.5c0,8.6,6.9,15.5,15.3,15.5
				C135.5,42.8,142.4,35.8,142.4,27.3z"/>
			<path fill="#0F0D0E" d="M140.7,109.1c0-3.2,0-57.4,0-57.4c0-1.1-0.9-2-2-2H115c-1.1,0-2.1,1.1-2.1,2.2c0,0,0,69.1,0,82.3
				c0,2.4,1.5,3.1,3.5,3.1c0,0,10.1,0,21.4,0c2.3,0,2.9-1.2,2.9-3.2C140.7,129.8,140.7,112.5,140.7,109.1z"/>
		</g>
	</g>
	<path fill="#0F0D0E" d="M405.6,49.9H382c-1.1,0-2,0.9-2,2v61c0,0-6,4.4-14.5,4.4c-8.5,0-10.8-3.9-10.8-12.2c0-8.3,0-53.2,0-53.2
		c0-1.1-0.9-2-2-2h-24c-1.1,0-2,0.9-2,2c0,0,0,32.5,0,57.2c0,24.7,13.8,30.8,32.8,30.8c15.6,0,28.1-8.6,28.1-8.6s0.6,4.5,0.9,5.1
		c0.3,0.5,1,1.1,1.7,1.1l15.2-0.1c1.1,0,2-0.9,2-2l0-83.5C407.5,50.8,406.6,49.9,405.6,49.9z"/>
	<path fill="#0F0D0E" d="M470.1,47.1c-13.4,0-22.5,6-22.5,6V10.9c0-1.1-0.9-2-2-2h-23.9c-1.1,0-2,0.9-2,2v124.4c0,1.1,0.9,2,2,2
		c0,0,16.5,0,16.5,0c0.7,0,1.3-0.4,1.7-1.1c0.4-0.7,1-5.7,1-5.7s9.8,9.2,28.2,9.2c21.7,0,34.1-11,34.1-49.4
		C503.3,52.1,483.5,47.1,470.1,47.1z M460.7,117.2c-8.2-0.2-13.7-4-13.7-4V73.8c0,0,5.5-3.4,12.2-4c8.5-0.8,16.7,1.8,16.7,22.1
		C475.9,113.3,472.2,117.6,460.7,117.2z"/>
	<path fill="#0F0D0E" d="M209,49.7h-17.8c0,0,0-23.6,0-23.6c0-0.9-0.5-1.3-1.5-1.3h-24.3c-0.9,0-1.5,0.4-1.5,1.3v24.4
		c0,0-12.2,2.9-13,3.2c-0.8,0.2-1.4,1-1.4,1.9v15.3c0,1.1,0.9,2,2,2h12.5c0,0,0,16,0,36.8c0,27.3,19.2,30,32.1,30
		c5.9,0,13-1.9,14.2-2.3c0.7-0.3,1.1-1,1.1-1.8l0-16.8c0-1.1-0.9-2-2-2c-1,0-3.7,0.4-6.4,0.4c-8.8,0-11.7-4.1-11.7-9.3
		c0-5.3,0-35,0-35H209c1.1,0,2-0.9,2-2V51.7C211,50.6,210.1,49.7,209,49.7z"/>
</g>
</svg>
