<?xml version="1.0" encoding="UTF-8"?>
<svg width="94.61mm" height="66.22mm" version="1.1" viewBox="0 0 94.61 66.22" xmlns="http://www.w3.org/2000/svg">
<title>Deutsche Bahn AG logo</title>
 <g transform="translate(-17.71 -29.54)">
  <g transform="matrix(3.218 0 0 -3.218 -661.3 1901)">
   <g transform="translate(237.4 581.6)">
    <path d="m0 0h-23.52c-1.616 0-2.954-1.278-2.954-2.93v-14.68c0-1.652 1.338-2.961 2.954-2.961h23.52c1.587 0 2.925 1.309 2.925 2.961v14.68c0 1.652-1.338 2.93-2.925 2.93" style="fill:#e30613"/>
   </g>
   <g transform="translate(238.2 564)">
    <path d="m0 0c0-0.468-0.31-0.843-0.778-0.843h-23.52c-0.466 0-0.808 0.375-0.808 0.843v14.68c0 0.468 0.342 0.842 0.808 0.842h23.52c0.468 0 0.778-0.374 0.778-0.842" style="fill:#fff"/>
   </g>
   <g transform="translate(232 564.6)" style="fill:#e30613">
    <path d="m0 0h-5.225v13.47h5.474c2.582 0 3.982-1.06 3.982-3.586 0-1.31-1.09-2.245-2.27-2.837 1.648-0.466 2.768-1.467 2.768-3.148 0-2.744-2.303-3.899-4.729-3.899m-2.022 8.138h1.121c1.057 0 1.835 0.467 1.835 1.622 0 1.278-0.997 1.622-2.053 1.622h-0.903zm3.328-4.176c0 1.371-0.87 1.683-2.145 1.683h-1.183v-3.462h1.152c1.152 0 2.176 0.375 2.176 1.779" style="fill:#e30613"/>
   </g>
   <g transform="translate(220 564.6)" style="fill:#e30613">
    <path d="m0 0h-4.946v13.47h4.946c3.484 0 5.349-2.183 5.349-6.672 0-3.898-1.244-6.765-5.349-6.798m2.147 6.518c0 2.712-0.282 4.832-3.204 4.832h-0.655v-9.167h1.151c1.711 0 2.708 1.372 2.708 4.335" style="fill:#e30613"/>
   </g>
  </g>
 </g>
</svg>