<svg xmlns="http://www.w3.org/2000/svg" viewBox="0 0 420 152" width="420" height="152"><path fill="#4285F4" d="M57 67.34V53h48c.49 2.53.78 5.53.78 8.79 0 10.75-2.94 24.06-12.42 33.54-9.22 9.6-20.99 14.72-36.61 14.72-28.93 0-53.25-23.55-53.25-52.48 0-28.93 24.32-52.48 53.25-52.48 16 0 27.39 6.27 35.97 14.46L82.61 29.66c-6.14-5.76-14.46-10.24-25.86-10.24-21.12 0-37.63 17.02-37.63 38.15s16.51 38.15 37.63 38.15c13.7 0 21.5-5.5 26.5-10.5 4.07-4.07 6.75-9.9 7.79-17.88H57z"/><path fill="#EA4335" d="M178.92 76.25c0 19.46-15.23 33.79-33.92 33.79s-33.92-14.34-33.92-33.79c0-19.58 15.23-33.79 33.92-33.79s33.92 14.21 33.92 33.79zm-14.85 0c0-12.16-8.83-20.48-19.07-20.48s-19.07 8.32-19.07 20.48c0 12.03 8.83 20.48 19.07 20.48 10.24.01 19.07-8.44 19.07-20.48z"/><path fill="#FBBC05" d="M251.92 76.25c0 19.46-15.23 33.79-33.92 33.79s-33.92-14.34-33.92-33.79c0-19.58 15.23-33.79 33.92-33.79s33.92 14.21 33.92 33.79zm-14.85 0c0-12.16-8.83-20.48-19.07-20.48s-19.07 8.32-19.07 20.48c0 12.03 8.83 20.48 19.07 20.48 10.24.01 19.07-8.44 19.07-20.48z"/><path fill="#4285F4" d="M322 44.49v60.69c0 24.96-14.72 35.2-32.13 35.2-16.38 0-26.24-11.01-29.95-19.97l12.93-5.38c2.3 5.5 7.94 12.03 17.02 12.03 11.14 0 18.05-6.91 18.05-19.84v-4.86h-.51c-3.33 4.1-9.73 7.68-17.79 7.68-16.9 0-32.39-14.72-32.39-33.67 0-19.07 15.49-33.92 32.39-33.92 8.06 0 14.46 3.58 17.79 7.55h.51v-5.52H322zm-13.06 31.89c0-11.91-7.94-20.61-18.05-20.61-10.24 0-18.82 8.7-18.82 20.61 0 11.78 8.58 20.35 18.82 20.35 10.12.01 18.05-8.57 18.05-20.35z"/><path fill="#34A853" d="M347 9v99h-14.85V9H347z"/><path fill="#EA4335" d="M403.34 87.39l11.52 7.68c-3.71 5.5-12.67 14.98-28.16 14.98-19.2 0-33.54-14.85-33.54-33.79 0-20.1 14.46-33.79 31.87-33.79 17.54 0 26.11 13.95 28.93 21.5l1.54 3.84-45.19 18.69c3.46 6.78 8.83 10.24 16.38 10.24 7.56 0 12.81-3.72 16.65-9.35zm-35.46-12.16l30.21-12.54c-1.66-4.22-6.66-7.17-12.54-7.17-7.56 0-18.05 6.65-17.67 19.71z"/></svg>