<?xml version="1.0" encoding="UTF-8" standalone="no"?>
<svg
   xmlns:dc="http://purl.org/dc/elements/1.1/"
   xmlns:cc="http://creativecommons.org/ns#"
   xmlns:rdf="http://www.w3.org/1999/02/22-rdf-syntax-ns#"
   xmlns:svg="http://www.w3.org/2000/svg"
   xmlns="http://www.w3.org/2000/svg"
   viewBox="0 0 695.96533 221.38933"
   height="221.38933"
   width="695.96533"
   xml:space="preserve"
   id="svg2"
   version="1.1"><metadata
     id="metadata8"><rdf:RDF><cc:Work
         rdf:about=""><dc:format>image/svg+xml</dc:format><dc:type
           rdf:resource="http://purl.org/dc/dcmitype/StillImage" /></cc:Work></rdf:RDF></metadata><defs
     id="defs6"><clipPath
       id="clipPath18"
       clipPathUnits="userSpaceOnUse"><path
         id="path16"
         d="M 0,166.042 H 521.974 V 0 H 0 Z" /></clipPath></defs><g
     transform="matrix(1.3333333,0,0,-1.3333333,0,221.38933)"
     id="g10"><g
       id="g12"><g
         clip-path="url(#clipPath18)"
         id="g14"><g
           transform="translate(454.6426,49.1611)"
           id="g20"><path
             id="path22"
             style="fill:#2164f3;fill-opacity:1;fill-rule:evenodd;stroke:none"
             d="m 0,0 c -1.678,-3.595 -3.906,-6.263 -6.63,-7.996 -2.792,-1.737 -5.832,-2.6 -9.179,-2.6 h -0.054 c -3.352,0 -6.392,0.927 -9.184,2.724 -2.787,1.856 -5.015,4.589 -6.629,8.184 -1.609,3.659 -2.417,8.06 -2.417,13.268 0,4.897 0.743,9.234 2.293,12.893 1.49,3.718 3.655,6.574 6.387,8.554 2.787,2.05 5.891,2.976 9.421,2.976 h 0.183 c 3.288,0 6.323,-0.99 9.115,-2.911 C -3.906,33.171 -1.678,30.374 0,26.72 1.673,23.062 2.48,18.66 2.48,13.58 2.48,8.124 1.673,3.595 0,0 m 19.278,77.982 c -1.613,1.861 -3.777,2.796 -6.693,2.796 -2.916,0 -5.145,-0.994 -6.698,-3.044 C 4.342,75.754 3.534,72.778 3.534,68.872 V 40.603 c -3.594,3.97 -7.316,6.822 -11.094,8.743 -2.362,1.174 -5.149,2.04 -8.249,2.48 -1.801,0.247 -3.658,0.376 -5.698,0.376 -9.486,0 -17.17,-3.351 -23.061,-10.046 -5.827,-6.698 -8.743,-15.996 -8.743,-27.953 0,-5.648 0.747,-10.916 2.228,-15.753 1.494,-4.832 3.594,-9.046 6.45,-12.644 2.852,-3.599 6.263,-6.318 10.169,-8.308 3.902,-1.916 8.12,-2.906 12.709,-2.906 2.105,0 4.085,0.178 5.946,0.55 1.243,0.192 2.416,0.5 3.6,0.876 2.911,0.985 5.639,2.411 8.119,4.208 2.54,1.862 5.085,4.278 7.624,7.194 v -1.862 c 0,-3.535 0.867,-6.199 2.54,-8.12 1.738,-1.856 3.906,-2.846 6.511,-2.846 2.668,0 4.832,0.926 6.511,2.722 1.668,1.862 2.54,4.585 2.54,8.244 v 84.304 c 0,3.539 -0.812,6.263 -2.358,8.12" /></g><g
           transform="translate(350.8067,83.3818)"
           id="g24"><path
             id="path26"
             style="fill:#2164f3;fill-opacity:1;fill-rule:evenodd;stroke:none"
             d="m 0,0 c 3.04,3.287 6.946,4.896 11.719,4.896 h 0.064 c 4.956,0 8.987,-1.609 12.026,-4.832 3.04,-3.228 4.836,-8.125 5.268,-14.694 H -5.575 C -4.96,-8.184 -3.095,-3.283 0,0 m 44.633,-35.027 c -1.174,1.054 -2.787,1.613 -4.773,1.613 -1.797,0 -3.159,-0.436 -4.149,-1.237 -2.421,-2.234 -4.342,-4.026 -5.832,-5.332 -1.481,-1.244 -3.158,-2.481 -4.956,-3.655 -1.733,-1.119 -3.595,-1.99 -5.451,-2.485 -1.926,-0.555 -3.966,-0.802 -6.263,-0.802 -0.495,0 -0.995,0 -1.426,0.064 -2.856,0.183 -5.515,0.99 -7.931,2.48 -2.857,1.674 -5.085,4.145 -6.828,7.373 -1.672,3.347 -2.535,7.189 -2.599,11.526 h 37.38 c 5.015,0 8.922,0.748 11.654,2.113 2.792,1.486 4.154,4.585 4.154,9.358 0,5.208 -1.362,10.292 -4.03,15.308 -2.668,4.966 -6.634,9.056 -12.025,12.214 -5.337,3.159 -11.719,4.714 -19.22,4.714 H 11.783 C 6.268,18.165 1.179,17.229 -3.342,15.496 c -4.713,-1.861 -8.683,-4.525 -11.971,-7.932 -3.154,-3.47 -5.634,-7.623 -7.308,-12.46 -1.673,-4.842 -2.544,-10.106 -2.544,-15.745 0,-12.03 3.411,-21.452 10.232,-28.453 6.443,-6.638 15.373,-10.109 26.716,-10.476 0.619,-0.059 1.298,-0.059 1.985,-0.059 5.333,0 10.1,0.678 14.254,2.1 4.154,1.429 7.565,3.168 10.297,5.272 2.719,2.168 4.769,4.397 6.126,6.694 1.366,2.292 2.049,4.336 2.049,6.015 0,1.921 -0.619,3.466 -1.861,4.521" /></g><g
           transform="translate(274.251,83.3818)"
           id="g28"><path
             id="path30"
             style="fill:#2164f3;fill-opacity:1;fill-rule:evenodd;stroke:none"
             d="m 0,0 c 3.039,3.287 6.941,4.896 11.719,4.896 h 0.063 c 4.956,0 8.987,-1.609 12.027,-4.832 3.094,-3.228 4.832,-8.125 5.327,-14.694 H -5.58 C -4.892,-8.184 -3.03,-3.283 0,0 m 39.924,-33.414 c -1.861,0 -3.223,-0.436 -4.213,-1.237 -2.358,-2.234 -4.338,-4.026 -5.828,-5.332 -1.489,-1.244 -3.099,-2.481 -4.901,-3.655 -1.793,-1.119 -3.594,-1.99 -5.515,-2.485 -1.862,-0.555 -3.971,-0.802 -6.263,-0.802 -0.491,0 -0.986,0 -1.422,0.064 -2.855,0.183 -5.519,0.99 -7.94,2.48 -2.783,1.674 -5.08,4.145 -6.749,7.373 -1.742,3.347 -2.609,7.189 -2.673,11.526 h 37.444 c 4.96,0 8.866,0.748 11.655,2.113 2.727,1.486 4.093,4.585 4.093,9.358 0,5.208 -1.301,10.292 -3.97,15.308 -2.664,4.966 -6.694,9.056 -12.021,12.214 -5.342,3.159 -11.778,4.714 -19.215,4.714 h -0.624 c -5.519,-0.06 -10.54,-0.996 -15.125,-2.729 -4.718,-1.861 -8.683,-4.525 -11.906,-7.932 -3.223,-3.47 -5.703,-7.623 -7.372,-12.46 -1.679,-4.842 -2.545,-10.106 -2.545,-15.745 0,-12.03 3.476,-21.452 10.293,-28.453 6.446,-6.638 15.313,-10.109 26.655,-10.476 0.684,-0.059 1.298,-0.059 1.982,-0.059 5.391,0 10.109,0.678 14.254,2.1 4.153,1.429 7.569,3.168 10.292,5.272 2.788,2.168 4.773,4.397 6.139,6.694 1.362,2.292 2.049,4.336 2.049,6.015 0,1.921 -0.623,3.466 -1.802,4.521 -1.237,1.054 -2.856,1.613 -4.772,1.613" /></g><g
           transform="translate(59.8311,36.457)"
           id="g32"><path
             id="path34"
             style="fill:#2164f3;fill-opacity:1;fill-rule:evenodd;stroke:none"
             d="m 0,0 v 45.622 c 1.298,-0.119 2.54,-0.183 3.842,-0.183 6.199,0 12.031,1.673 16.987,4.649 L 20.829,0 c 0,-4.278 -0.99,-7.436 -2.916,-9.55 -1.917,-2.104 -4.461,-3.154 -7.56,-3.154 -3.041,0 -5.457,1.05 -7.442,3.218 C 0.99,-7.377 0,-4.214 0,0" /></g><g
           transform="translate(220.6914,49.1611)"
           id="g36"><path
             id="path38"
             style="fill:#2164f3;fill-opacity:1;fill-rule:evenodd;stroke:none"
             d="m 0,0 c -1.673,-3.595 -3.906,-6.263 -6.688,-7.996 -2.733,-1.737 -5.832,-2.6 -9.12,-2.6 h -0.059 c -3.343,0 -6.387,0.927 -9.175,2.724 -2.851,1.856 -5.019,4.589 -6.634,8.184 -1.609,3.659 -2.416,8.06 -2.416,13.268 0,4.897 0.747,9.234 2.233,12.893 1.55,3.718 3.654,6.574 6.446,8.554 2.729,2.05 5.887,2.976 9.362,2.976 h 0.243 c 3.288,0 6.323,-0.99 9.055,-2.911 C -3.906,33.171 -1.673,30.374 0,26.72 1.609,23.062 2.48,18.66 2.48,13.58 2.48,8.124 1.609,3.595 0,0 m 19.22,77.982 c -1.615,1.861 -3.842,2.796 -6.634,2.796 -2.916,0 -5.149,-0.994 -6.699,-3.044 C 4.282,75.754 3.53,72.778 3.53,68.872 V 40.603 c -3.593,3.97 -7.307,6.822 -11.094,8.743 -2.411,1.174 -5.145,2.04 -8.244,2.48 -1.792,0.247 -3.654,0.376 -5.699,0.376 -9.485,0 -17.234,-3.351 -23.061,-10.046 -5.827,-6.698 -8.743,-15.996 -8.743,-27.953 0,-5.648 0.748,-10.916 2.168,-15.753 1.491,-4.832 3.659,-9.046 6.515,-12.644 2.848,-3.599 6.259,-6.318 10.169,-8.308 3.906,-1.916 8.115,-2.906 12.705,-2.906 2.044,0 4.029,0.178 5.946,0.55 1.243,0.192 2.421,0.5 3.599,0.876 2.911,0.985 5.64,2.411 8.12,4.208 2.54,1.862 5.025,4.278 7.619,7.194 v -1.862 c 0,-3.535 0.876,-6.199 2.545,-8.12 1.674,-1.856 3.907,-2.846 6.511,-2.846 2.535,0 4.772,0.926 6.45,2.722 1.669,1.862 2.476,4.585 2.476,8.244 v 84.304 c 0,3.539 -0.739,6.263 -2.292,8.12" /></g><g
           transform="translate(111.2217,90.9463)"
           id="g40"><path
             id="path42"
             style="fill:#2164f3;fill-opacity:1;fill-rule:evenodd;stroke:none"
             d="m 0,0 v -2.361 c 3.406,4.465 7.065,7.689 11.031,9.797 4.03,2.045 8.619,3.105 13.822,3.105 5.026,0 9.551,-1.119 13.517,-3.292 3.97,-2.164 6.882,-5.269 8.862,-9.298 1.307,-2.352 2.109,-4.896 2.485,-7.625 0.372,-2.663 0.554,-6.13 0.554,-10.347 v -35.528 c 0,-3.842 -0.93,-6.748 -2.668,-8.674 -1.733,-1.98 -4.03,-2.97 -6.817,-2.97 -2.848,0 -5.144,0.99 -6.941,3.034 -1.802,1.985 -2.664,4.892 -2.664,8.61 v 31.81 c 0,6.317 -0.871,11.154 -2.609,14.501 -1.733,3.342 -5.267,5.02 -10.471,5.02 -3.412,0 -6.511,-1.055 -9.303,-3.035 C 6.011,-9.303 3.901,-12.085 2.6,-15.685 1.669,-18.536 1.233,-23.804 1.233,-31.681 v -23.868 c 0,-3.901 -0.922,-6.748 -2.723,-8.738 -1.797,-1.916 -4.09,-2.906 -6.942,-2.906 -2.787,0 -5.024,0.99 -6.822,3.034 -1.797,1.985 -2.668,4.892 -2.668,8.61 v 55.238 c 0,3.654 0.807,6.381 2.421,8.12 1.55,1.792 3.718,2.732 6.511,2.732 1.673,0 3.158,-0.372 4.524,-1.184 C -3.1,8.556 -1.99,7.373 -1.179,5.764 -0.376,4.154 0,2.229 0,0" /></g><g
           transform="translate(59.9502,145.8027)"
           id="g44"><path
             id="path46"
             style="fill:#2164f3;fill-opacity:1;fill-rule:evenodd;stroke:none"
             d="m 0,0 c 12.898,4.649 27.591,4.402 38.622,-5.144 2.05,-1.92 4.402,-4.336 5.332,-7.188 1.114,-3.596 -3.901,0.375 -4.589,0.865 -3.594,2.358 -7.189,4.338 -11.218,5.704 -21.696,6.695 -42.217,-5.396 -54.986,-24.174 -5.327,-8.309 -8.803,-17.047 -11.654,-26.657 -0.308,-1.054 -0.555,-2.421 -1.114,-3.342 -0.56,-1.064 -0.248,2.842 -0.248,2.971 0.431,3.966 1.238,7.808 2.233,11.65 C -31.735,-24.854 -18.715,-7.808 0,0" /></g><g
           transform="translate(76.7539,95.0361)"
           id="g48"><path
             id="path50"
             style="fill:#2164f3;fill-opacity:1;fill-rule:evenodd;stroke:none"
             d="m 0,0 c -7.749,-3.966 -17.239,-0.871 -21.141,6.877 -3.97,7.753 -0.866,17.234 6.882,21.141 7.748,3.965 17.238,0.871 21.14,-6.882 C 10.847,13.388 7.748,3.906 0,0" /></g></g></g></g></svg>