<?xml version="1.0" encoding="utf-8"?>
<!-- Generator: Adobe Illustrator 17.1.0, SVG Export Plug-In . SVG Version: 6.00 Build 0)  -->
<!DOCTYPE svg PUBLIC "-//W3C//DTD SVG 1.0//EN" "http://www.w3.org/TR/2001/REC-SVG-20010904/DTD/svg10.dtd">
<svg version="1.0" xmlns="http://www.w3.org/2000/svg" xmlns:xlink="http://www.w3.org/1999/xlink" x="0px" y="0px"
	 viewBox="0 0 272.347 54.8" enable-background="new 0 0 272.347 54.8" xml:space="preserve">
	<g>
		<path fill="#26303D" d="M87.33,14.79h-5.4l-0.107,0.295l-9.201,25.322h3.391c0.902,0,1.592-0.111,2.148-0.504
			c0.555-0.396,0.877-1,1.164-1.811l1.426-4.021h7.723l1.428,4.02c0.289,0.814,0.621,1.422,1.186,1.814
			c0.562,0.391,1.258,0.502,2.16,0.502h3.355L87.33,14.79z M84.611,21.749c0.176,0.686,0.385,1.459,0.584,2.059l1.922,5.607h-5.014
			l1.922-5.605C84.226,23.208,84.437,22.435,84.611,21.749z"/>
		<path fill="#26303D" d="M47.183,35.103l-0.402,0.193l0.398-0.201l-3.131-6.303c-0.422-0.826-0.883-1.312-1.244-1.59
			c0.334-0.307,0.775-0.807,1.199-1.58l5.936-10.832H43.9l-5.105,9.498c-0.162,0.269-0.314,0.377-0.555,0.463
			c-0.242,0.082-0.594,0.104-1.035,0.101h-2.189v-7.246c0-0.873-0.186-1.602-0.686-2.111c-0.506-0.508-1.238-0.705-2.131-0.705
			h-2.715v5.078v3.975v16.566h5.531V29.614h1.91c0.482,0,0.885,0.016,1.16,0.1c0.279,0.09,0.438,0.197,0.601,0.496l4.035,8.103
			c0.416,0.844,0.887,1.41,1.535,1.729c0.646,0.315,1.375,0.365,2.314,0.367h3.35l-0.342-0.656
			C49.576,39.747,47.521,35.812,47.183,35.103z"/>
		<path fill="#26303D" d="M70.628,14.792h-2.191c-0.877-0.002-1.607,0.195-2.115,0.701c-0.504,0.506-0.705,1.236-0.701,2.113v7.664
			h-8.207v-7.664c0-0.873-0.184-1.602-0.685-2.111c-0.508-0.508-1.238-0.705-2.133-0.703h-2.641v5.078v4.723v15.816h5.459V30.034
			h8.207v10.375h5.457V24.89v-5.02v-5.078H70.628z"/>
		<path fill="#26303D" d="M117.613,14.79h-2.193c-0.895,0-1.627,0.197-2.129,0.705c-0.504,0.51-0.689,1.238-0.689,2.111v11.316
			c0,0.379,0.018,0.797,0.043,1.209c-0.338-0.656-0.725-1.354-1.104-1.91l-8.139-13.432h-5.258v18.023v2.516v5.08h2.642
			c0.002,0,0.006,0,0.008,0c0.887,0,1.615-0.186,2.119-0.69c0.506-0.508,0.689-1.236,0.689-2.129V26.312
			c0-0.373-0.016-0.785-0.039-1.191c0.336,0.658,0.725,1.352,1.105,1.899l8.17,13.391h5.221V23.843V19.87v-5.08H117.613z"/>
		<path fill="#26303D" d="M129.529,14.939h2.713l9.652,25.434h-0.752c-1.809,0-2.301-0.361-2.953-2.098l-2.258-6.006h-10.092
			l-2.295,6.006c-0.65,1.736-1.105,2.098-2.918,2.098h-0.734L129.529,14.939z M135.244,30.062l-3.363-9.082
			c-0.436-1.193-0.977-3.291-0.977-3.291h-0.072c0,0-0.543,2.098-0.977,3.291l-3.33,9.082H135.244z"/>
		<path fill="#26303D" d="M172.968,14.939h2.713l9.652,25.434h-0.752c-1.809,0-2.301-0.361-2.951-2.098l-2.258-6.006h-10.094
			l-2.295,6.006c-0.65,1.736-1.105,2.098-2.916,2.098h-0.738L172.968,14.939z M178.685,30.062l-3.365-9.082
			c-0.434-1.193-0.977-3.291-0.977-3.291h-0.072c0,0-0.543,2.098-0.979,3.291l-3.328,9.082H178.685z"/>
		<path fill="#26303D" d="M228.783,14.939h2.568l6.729,14.797c0.615,1.303,1.268,3.002,1.268,3.002h0.072
			c0,0,0.65-1.699,1.229-3.002l6.73-14.797h2.568l2.215,25.434h-0.73c-1.557,0-2.1-0.652-2.207-2.207l-1.193-15.447
			c-0.111-1.377-0.111-3.547-0.111-3.547h-0.072c0,0-0.688,2.244-1.303,3.547l-6.039,12.914h-2.277l-6.008-12.914
			c-0.58-1.268-1.338-3.619-1.338-3.619h-0.072c0,0,0,2.242-0.109,3.619l-1.195,15.447c-0.107,1.555-0.65,2.207-2.207,2.207h-0.592
			L228.783,14.939z"/>
		<path fill="#26303D" d="M260.961,29.302l-8.857-14.363h0.752c1.736,0,2.387,0.252,3.473,2.025l4.307,7.199
			c0.795,1.338,1.553,2.859,1.553,2.859h0.074c0,0,0.76-1.521,1.555-2.859l4.305-7.199c1.086-1.774,1.736-2.025,3.475-2.025h0.752
			l-8.855,14.363v11.07h-2.531V29.302z"/>
		<path fill="#26303D" d="M160.849,21.114c-0.98-2.088-3.752-4.477-7.818-4.477c-5.643,0-9.982,4.414-9.982,10.564
			c0,6.078,4.305,10.963,10.094,10.963c2.756,0,4.965-0.916,6.34-1.93c1.672-1.23,3.428,0.193,3.428,0.193s-3.51,4.121-9.805,4.121
			c-7.453,0-12.699-5.932-12.699-13.348c0-7.344,5.391-12.951,12.555-12.951c3.617,0,8.078,1.606,9.768,5.441
			c0.791,1.74,0.893,2.566,0.893,2.566S161.507,22.513,160.849,21.114z"/>
		<path fill="#26303D" d="M194.796,14.939h-7.851v2.242v2.152v18.832c0,1.555,0.652,2.207,2.207,2.207h5.644
			c7.67,0,12.772-4.633,12.772-12.736C207.568,19.607,202.466,14.939,194.796,14.939z M194.545,38.128h-4.27
			c-0.506,0-0.795-0.252-0.795-0.797v-20.15h5.064c6.223,0,10.383,3.691,10.383,10.455
			C204.927,34.439,200.802,38.128,194.545,38.128z"/>
		<path fill="#26303D" d="M221.943,38.128h-2.617h-6.316c-0.508,0-0.797-0.252-0.797-0.797v-8.645h9.551v-2.242h-9.551v-9.264h6.479
			h2.203h3.186v-0.033c0-1.559-0.652-2.209-2.209-2.209h-12.191v2.242v2.916v18.068c0,1.555,0.652,2.207,2.207,2.207h11
			c1.553,0,2.205-0.652,2.205-2.207v-0.037H221.943z"/>
	</g>
	<path fill="#9DB63B" d="M1.127,38.792c0,0-4.051-9.692,3.21-16.919c6.597-6.561,16.55-7.575,18.277-7.623c0,0,2.673,8.773-4,18.717
		c-6.666,9.947-15.912,7.249-15.912,7.249s9.134-11.644,8.03-11.574C9.965,28.689,5.171,33.965,1.127,38.792z"/>
</svg>
