<?xml version="1.0" encoding="utf-8"?>
<!-- Generator: Adobe Illustrator 11.0, SVG Export Plug-In  -->
<!DOCTYPE svg PUBLIC "-//W3C//DTD SVG 1.0//EN"    "http://www.w3.org/TR/2001/REC-SVG-20010904/DTD/svg10.dtd" [
	<!ENTITY ns_flows "http://ns.adobe.com/Flows/1.0/">
	<!ENTITY ns_svg "http://www.w3.org/2000/svg">
	<!ENTITY ns_xlink "http://www.w3.org/1999/xlink">
]>
<svg  xmlns="&ns_svg;" xmlns:xlink="&ns_xlink;" xmlns:a="http://ns.adobe.com/AdobeSVGViewerExtensions/3.0/"
	 width="1001" height="165" viewBox="-0.714 -0.432 1001 165" xml:space="preserve">
	<defs>
	</defs>
	<g>
		<path fill-rule="evenodd" clip-rule="evenodd" fill="#E2001A" d="M118.271,156.034c-13.232-8.288-22.98-36.89-22.98-70.873
			c0-1.247,0.008-2.476,0.036-3.705l0,0l0.016,0.018l0,0C58.54,75.69,31.949,59.844,31.268,41.106l0,0l-0.108,0.216l0,0
			c-9.005,11.191-14.145,24.13-14.145,37.917c0,40.569,44.533,73.81,101.018,76.75l0,0L118.271,156.034L118.271,156.034
			L118.271,156.034z M0,82.199C0,36.805,56.49,0,126.179,0c69.687,0,126.179,36.805,126.179,82.199
			c0,45.394-56.493,82.2-126.179,82.2C56.49,164.399,0,127.592,0,82.199L0,82.199L0,82.199L0,82.199z M126.179,11.863
			c13.453,0,24.896,20.407,29.135,48.881l0,0l0.016-0.043l0,0c26.172-4.074,44.497-13.472,44.497-24.408
			c0-14.678-32.977-26.563-73.648-26.563c-40.674,0-73.648,11.886-73.648,26.563c0,10.936,18.322,20.334,44.497,24.408l0,0
			l0.016,0.043l0,0C101.283,32.271,112.729,11.863,126.179,11.863L126.179,11.863L126.179,11.863L126.179,11.863z M134.323,155.988
			c56.485-2.939,101.024-36.181,101.024-76.75c0-13.786-5.146-26.725-14.15-37.917l0,0l-0.11-0.216l0,0
			c-0.681,18.738-27.265,34.584-64.072,40.368l0,0l0.016-0.018l0,0c0.025,1.229,0.038,2.458,0.038,3.705
			c0,33.983-9.755,62.585-22.979,70.873l0,0L134.323,155.988L134.323,155.988L134.323,155.988z M126.179,62.86
			c6.027,0,11.886-0.257,17.492-0.751l0,0l-0.008,0.009l0,0c-2.79-18.253-9.566-31.135-17.484-31.135
			c-7.918,0-14.693,12.882-17.487,31.135l0,0l-0.007-0.009l0,0C114.291,62.603,120.152,62.86,126.179,62.86L126.179,62.86
			L126.179,62.86L126.179,62.86z M126.179,130.454c10.128,0,18.39-21.077,18.831-47.513l0,0l0.054,0.019l0,0
			c-6.105,0.565-12.42,0.86-18.884,0.86c-6.47,0-12.779-0.295-18.884-0.86l0,0l0.057-0.019l0,0
			C107.787,109.376,116.047,130.454,126.179,130.454L126.179,130.454L126.179,130.454L126.179,130.454z"/>
		<path fill-rule="evenodd" clip-rule="evenodd" fill="#E2001A" d="M643.849,82.199c0-34.696,28.133-62.824,62.821-62.824
			c34.706,0,62.835,28.127,62.835,62.824c0,34.7-28.129,62.824-62.835,62.824C671.982,145.023,643.849,116.899,643.849,82.199
			L643.849,82.199L643.849,82.199L643.849,82.199z M706.67,121.986c19.379,0,35.087-17.815,35.087-39.787
			c0-21.971-15.708-39.788-35.087-39.788c-19.365,0-35.07,17.817-35.07,39.788C671.6,104.17,687.305,121.986,706.67,121.986
			L706.67,121.986L706.67,121.986L706.67,121.986z"/>
		<polygon fill-rule="evenodd" clip-rule="evenodd" fill="#E2001A" points="840.788,45.551 840.788,142.171 814.319,142.171 
			814.319,45.551 814.406,45.551 777.388,45.551 777.388,23.707 877.713,23.707 877.713,45.551 840.875,45.551 840.788,45.551 
			840.788,45.551 "/>
		<path fill-rule="evenodd" clip-rule="evenodd" fill="#E2001A" d="M909.736,115.517l-0.026,0.025l-10.154,26.629h-30.912
			l48.873-118.465h16.479h16.463l48.878,118.465h-30.918l-10.155-26.629l-0.025-0.025h-24.242H909.736L909.736,115.517
			L909.736,115.517z M933.995,95.523h16.653l-0.01,0.005l-16.53-43.359h-0.232l-16.54,43.359l-0.006-0.005H933.995L933.995,95.523
			L933.995,95.523z"/>
		<polygon fill-rule="evenodd" clip-rule="evenodd" fill="#E2001A" points="352.844,45.551 352.844,142.171 326.373,142.171 
			326.373,45.551 326.463,45.551 289.442,45.551 289.442,23.707 389.771,23.707 389.771,45.551 352.936,45.551 352.844,45.551 
			352.844,45.551 "/>
		<path fill-rule="evenodd" clip-rule="evenodd" fill="#E2001A" d="M396.541,82.199c0-34.696,28.132-62.824,62.832-62.824
			c34.698,0,62.827,28.127,62.827,62.824c0,34.7-28.129,62.824-62.827,62.824C424.673,145.023,396.541,116.899,396.541,82.199
			L396.541,82.199L396.541,82.199L396.541,82.199z M459.373,121.986c19.369,0,35.078-17.815,35.078-39.787
			c0-21.971-15.708-39.788-35.078-39.788c-19.372,0-35.081,17.817-35.081,39.788C424.292,104.17,440.001,121.986,459.373,121.986
			L459.373,121.986L459.373,121.986L459.373,121.986z"/>
		<polygon fill-rule="evenodd" clip-rule="evenodd" fill="#E2001A" points="583.024,142.171 596.446,142.171 596.446,97.742 
			596.446,97.188 642.625,23.707 611.718,23.707 583.024,73.5 554.334,23.707 523.417,23.707 569.601,97.188 569.601,97.742 
			569.601,142.171 583.024,142.171 583.024,142.171 "/>
	</g>
</svg>
