<svg xmlns="http://www.w3.org/2000/svg" id="图层_1" data-name="图层 1" viewBox="0 0 400 245"><defs><style>.cls-1{fill:none}.cls-2{fill:#fff;fill-opacity:0}.cls-3{clip-path:url(#clip-path)}.cls-4{fill:#2b284d}</style><clipPath id="clip-path"><path class="cls-1" d="M-470.034-286.856H869.468v820.445H-470.034z"/></clipPath></defs><title>walmart-labs</title><path id="ee-background" class="cls-2" d="M-1 1h400v245H-1z"/><g class="cls-3"><path class="cls-4" d="M218.607 122.278a5.696 5.696 0 0 1-.204 1.65 5.78 5.78 0 0 1-5.555 3.899 3.76 3.76 0 0 1-4.096-4.032c0-4.19 4.598-5.348 9.855-5.318zm8.7-7.294c0-6.901-2.95-12.98-12.912-12.98a23.592 23.592 0 0 0-11.393 2.72l1.618 5.549a16.722 16.722 0 0 1 8.318-2.338c5.05-.013 5.88 2.863 5.88 4.705v.439c-11.03-.017-18 3.797-18 11.573 0 4.749 3.55 9.2 9.732 9.2a11.045 11.045 0 0 0 8.864-3.942h.191s1.253 5.27 8.191 3.255a44.461 44.461 0 0 1-.489-7.344zm40.547-5.03v-7.758h-7.17v-9.591h-8.127v29.92c0 4.126.784 7.016 2.448 8.781a9.14 9.14 0 0 0 6.7 2.545 19.566 19.566 0 0 0 5.962-.884l-.11-6.436a12.414 12.414 0 0 1-3.122.372c-2.81 0-3.75-1.795-3.75-5.5v-11.448zm-28.873-1.513h-.217v-5.75h-7.471v30.474h8.505v-15.602a11.034 11.034 0 0 1 .188-2.25 6.41 6.41 0 0 1 6.718-5.358 15.527 15.527 0 0 1 2.447.217v-7.976a8.352 8.352 0 0 0-1.868-.191 8.993 8.993 0 0 0-8.302 6.436zm-51.169-6.436a11.009 11.009 0 0 0-6.01 1.657 12.87 12.87 0 0 0-3.862 3.791h-.124a8.679 8.679 0 0 0-8.392-5.448 9.569 9.569 0 0 0-8.867 4.829h-.124v-4.143h-7.863v30.474h8.285v-17.872a7.013 7.013 0 0 1 .392-2.492 5.588 5.588 0 0 1 5.023-3.905c3.342 0 4.909 2.823 4.909 6.902v17.367h8.271v-18.087a8.414 8.414 0 0 1 .345-2.471 5.21 5.21 0 0 1 4.973-3.71c3.376 0 5.007 2.776 5.007 7.574v16.694h8.268v-17.946c0-9.467-4.802-13.214-10.23-13.214zm-61.44 20.273a5.696 5.696 0 0 1-.204 1.65 5.786 5.786 0 0 1-5.569 3.899 3.756 3.756 0 0 1-4.082-4.032c0-4.19 4.602-5.348 9.856-5.318zm8.704-7.294c0-6.901-2.95-12.98-12.916-12.98a23.618 23.618 0 0 0-11.396 2.72l1.621 5.549a16.709 16.709 0 0 1 8.315-2.338c5.053-.013 5.884 2.863 5.884 4.705v.439c-11.031-.017-17.99 3.797-17.99 11.573 0 4.749 3.547 9.2 9.705 9.2a11.028 11.028 0 0 0 8.867-3.942h.188s1.27 5.27 8.208 3.255a44.854 44.854 0 0 1-.486-7.344zm-32.737-22.38l-3.66 17.535c-.985 5.103-1.872 9.095-2.562 13.763h-.124c-.623-4.624-1.42-8.452-2.418-13.425l-3.808-17.872H80.75l-4.072 17.42c-1.152 5.294-2.233 9.57-2.92 14.081h-.124c-.703-4.246-1.64-9.62-2.655-14.744 0 0-2.418-12.464-3.265-16.757H58.6s7.2 29.509 8.351 34.298c1.34 5.589 3.754 7.652 10.726 6.262l4.494-18.301c1.142-4.541 1.906-7.78 2.64-12.404h.13a120.7 120.7 0 0 0 2.183 12.424s1.832 8.305 2.766 12.668c.945 4.36 3.557 7.106 10.385 5.613l10.712-40.56zm37.224 40.56h8.235v-40.56h-8.235zM293.281 92.605h-7.759v40.637h24.342v-6.42h-16.583V92.605M329.16 122.278a5.583 5.583 0 0 1-.208 1.65 5.776 5.776 0 0 1-5.552 3.899 3.758 3.758 0 0 1-4.096-4.032c0-4.19 4.595-5.348 9.856-5.318zm8.7-7.294c0-6.901-2.95-12.98-12.913-12.98a23.592 23.592 0 0 0-11.392 2.72l1.614 5.549a16.732 16.732 0 0 1 8.318-2.338c5.053-.013 5.884 2.863 5.884 4.705v.439c-11.031-.017-18 3.797-18 11.573 0 4.749 3.547 9.2 9.728 9.2a11.047 11.047 0 0 0 8.868-3.942h.187s1.256 5.27 8.191 3.255a44.853 44.853 0 0 1-.485-7.344v-10.837M357.765 127.854a7.162 7.162 0 0 1-6.915-5.318 8.133 8.133 0 0 1-.191-1.788v-4.886a8.834 8.834 0 0 1 .254-1.98 7.265 7.265 0 0 1 6.916-5.565c5.204 0 7.806 4.33 7.806 9.644 0 6.062-2.98 9.893-7.87 9.893zm2.92-25.47c-4.631 0-7.993 1.915-9.899 4.821h-.127V92.82h-7.806v31.884c0 .917.013 1.62.023 2.226a41.476 41.476 0 0 1-.468 6.152c6.178 1.795 7.993-2.177 8.318-3.07a10.862 10.862 0 0 0 8.817 3.84c6.979 0 14.025-5.378 14.025-16.198.06-9.148-5.332-15.27-12.883-15.27M388.875 115.182c-3.935-1.36-5.395-2.29-5.395-4.206 0-1.855 1.524-3.155 4.313-3.155a14.122 14.122 0 0 1 6.537 1.735l1.524-5.378a18.535 18.535 0 0 0-8.185-1.795c-7.173 0-11.677 4.143-11.677 9.46-.063 3.523 2.475 6.738 8.506 8.777 3.804 1.3 5.073 2.348 5.073 4.39 0 1.98-1.523 3.34-4.95 3.34a17.803 17.803 0 0 1-7.932-2.164l-1.52 5.502a20.368 20.368 0 0 0 9.39 2.1c8.184 0 12.564-3.955 12.564-9.397-.064-4.45-2.666-7.233-8.248-9.209M9.699 126.42l9.728-36.186h1.447l-9.36 34.787h20.558a.702.702 0 0 1 .7.7.7.7 0 0 1-.7.7zm34.94-7.916H21.216l8.452-31.763H12.461l-9.815 36.917c-1.466 5.552 2.033 10.093 7.776 10.096h10.676L14.27 159.61a.304.304 0 0 0 .536.261l30.433-40.155a.755.755 0 0 0-.6-1.212"/></g></svg>
