<?xml version="1.0" encoding="utf-8"?>
<!-- Generator: Adobe Illustrator 18.0.0, SVG Export Plug-In . SVG Version: 6.00 Build 0)  -->
<!DOCTYPE svg PUBLIC "-//W3C//DTD SVG 1.1//EN" "http://www.w3.org/Graphics/SVG/1.1/DTD/svg11.dtd">
<svg version="1.1" id="Layer_1" xmlns="http://www.w3.org/2000/svg" xmlns:xlink="http://www.w3.org/1999/xlink" x="0px" y="0px"
	 viewBox="0 0 500 450" enable-background="new 0 0 500 450" xml:space="preserve">
<path fill="#5FA9DD" d="M496.7,71.6c-18.2,8.1-37.8,13.5-58.3,16c21-12.6,37-32.5,44.6-56.1C463.4,43,441.7,51.5,418.6,56
	C400.1,36.3,373.7,24,344.5,24C288.4,24,243,69.4,243,125.5c0,8,0.9,15.7,2.6,23.1c-84.3-4.2-159.1-44.6-209.2-106
	c-8.7,15-13.7,32.4-13.7,51c0,35.2,17.9,66.3,45.1,84.5c-16.6-0.5-32.3-5.1-46-12.7c0,0.4,0,0.8,0,1.3c0,49.2,35,90.2,81.4,99.5
	c-8.5,2.3-17.5,3.6-26.7,3.6c-6.5,0-12.9-0.6-19.1-1.8c12.9,40.3,50.4,69.7,94.8,70.5c-34.7,27.2-78.5,43.4-126,43.4
	c-8.2,0-16.3-0.5-24.2-1.4c44.9,28.8,98.3,45.6,155.6,45.6c186.7,0,288.8-154.6,288.8-288.8c0-4.4-0.1-8.8-0.3-13.1
	C465.9,109.8,483.1,91.9,496.7,71.6z"/>
</svg>
