<?xml version="1.0" encoding="UTF-8" standalone="no"?>
<svg height="12.459" version="1.1" width="72" xmlns="http://www.w3.org/2000/svg">
  <path d="m16.182 0-6.3109 4.8555c-0.6473-2.4274-2.7505-4.209-5.3399-4.209h-4.5312v11.166h4.5312c2.5892 0 4.8544-1.7797 5.3398-4.207l6.3105 4.8535 6.3125-4.8535v4.207h7.1191v-2.2656h-4.6914v-8.9004h-2.5898v4.207l-5.988 4.8579-1.295-1.1328 2.914-2.2676 3.074-2.4257-1.779-1.4551-5.988 4.6914-1.295-1.1328 5.9883-4.5312-1.7812-1.4551v-0.0019531zm-13.754 2.9121h1.9414c0.40456 0 0.79992 0.090936 1.1641 0.25781 0.36411 0.16688 0.69727 0.40947 0.98047 0.71289 0.28319 0.30342 0.51591 0.66652 0.67773 1.0762 0.16183 0.40962 0.25195 0.86605 0.25195 1.3516 0 0.44502-0.081281 0.87927-0.23047 1.2812-0.1494 0.402-0.36557 0.77244-0.63867 1.0859-0.2731 0.3136-0.60291 0.5705-0.97461 0.75-0.3717 0.1796-0.78537 0.2793-1.2305 0.2793h-1.9414v-6.7949zm35.277 6.6353v2.2656h-7.1202v-11.166h2.5892v8.9h4.5311z" fill="#007db8" />
  <path d="m67.687 12.018c2.1905 0 3.9703-1.0953 4.3126-3.4911l-0.13691-0.1369h-0.61608l-0.13691 0.1369c-0.34227 1.7113-1.4375 2.6697-3.3542 2.6697-2.3959 0-4.1072-1.7798-4.1072-4.9287s1.7798-4.9286 4.1072-4.9286c1.9167 0 3.012 0.95834 3.3542 2.5328l0.13691 0.13692h0.61608l0.137-0.1367c-0.342-2.1905-2.054-3.3542-4.313-3.3542-2.6697 0-5.0656 1.9167-5.0656 5.6816 0 3.9019 2.3959 5.8186 5.0656 5.8186zm-6.9823-0.34226v-10.816l-0.13691-0.1369h-1.0953l-0.13691 0.1369-4.1072 9.652h-0.13691l-4.2441-9.652-0.13691-0.1369h-1.0953l-0.13691 0.1369v10.816l0.13691 0.1369h0.61608l0.13691-0.1369v-9.1728h0.13691l3.9703 9.1728 0.13691 0.1369h0.82144l0.13691-0.1369 3.9703-9.1728h0.20536v9.1728l0.13691 0.1369h0.61608l0.20536-0.1369zm-13.348 0v-0.47918l-0.13691-0.1369h-5.887l-0.13691-0.13692v-4.1072l0.13691-0.1369h5.5447l0.13691-0.1369v-0.54763l-0.13691-0.1369h-5.5447l-0.13691-0.13692v-4.0388l0.13691-0.1369h5.887l0.13691-0.1369v-0.54763l-0.13691-0.1369h-6.8454l-0.13691 0.1369v10.816l0.13691 0.1369h6.8454l0.13691-0.1369z" fill="#808080" />
</svg>
