<?xml version="1.0" encoding="UTF-8" standalone="no"?>
<!-- Created with Inkscape (http://www.inkscape.org/) -->
<svg
   xmlns:svg="http://www.w3.org/2000/svg"
   xmlns="http://www.w3.org/2000/svg"
   xmlns:xlink="http://www.w3.org/1999/xlink"
   version="1.0"
   width="642.85999"
   height="228.06799"
   viewBox="0 0 680.026 332.961"
   id="圖層_1"
   xml:space="preserve"><defs
   id="defs40" />
<rect
   width="217.97041"
   height="325.35919"
   x="-129.24904"
   y="5.5272455"
   style="fill:#ffffff"
   id="rect3" />
<polygon
   points="0.76,3.795 0.76,155 97.98,86.133 150.063,123.021 150.063,3.795 0.76,3.795 "
   transform="matrix(1.4599199,0,0,1.4599199,-130.3542,-8.7712726e-3)"
   style="fill:#009ce1"
   id="polygon5" />
<polygon
   points="97.98,114.312 0.757,183.182 0.757,226.66 150.061,226.66 150.061,151.196 97.98,114.312 "
   transform="matrix(1.4599199,0,0,1.4599199,-130.3542,-8.7712726e-3)"
   style="fill:#6eb329"
   id="polygon7" />
<rect
   width="42.140587"
   height="58.640602"
   x="-8.4231567"
   y="225.40724"
   style="fill:#ffffff"
   id="rect9" />
<g
   transform="matrix(1.4599199,0,0,1.4599199,-130.3542,-8.7712726e-3)"
   id="g11">
	<defs
   id="defs13">
		<polyline
   id="SVGID_1_"
   points="680.026,332.961 680.026,0 0,0 0,332.961   " />
	</defs>
	<clipPath
   id="SVGID_2_">
		<use
   style="overflow:visible"
   id="use17"
   x="0"
   y="0"
   width="680.026"
   height="332.961"
   xlink:href="#SVGID_1_" />
	</clipPath>
	<path
   d="M 189.018,22.041 C 189.018,11.41 189.693,8.331 177.872,8.331 C 176.163,8.331 172.491,8.144 172.491,5.92 C 172.491,4.219 173.873,3.711 175.405,3.711 C 180.883,3.711 186.033,4.365 191.514,4.365 C 211.064,4.365 230.62,3.711 250.345,3.711 C 253.762,3.711 253.09,7.139 253.09,9.69 L 253.09,21.697 C 253.09,23.06 253.944,28.391 251.38,28.391 C 249.655,28.391 248.969,25.986 248.626,24.782 C 243.997,8.504 233.702,8.332 218.454,8.332 C 215.534,8.332 206.613,8.332 203.868,9.509 C 201.301,10.719 201.638,15.517 201.638,17.753 L 201.638,42.1 C 201.638,50.158 203.182,50.158 210.217,50.158 C 215.361,50.158 224.28,50.321 230.974,49.478 C 235.251,48.957 236.109,42.621 236.97,37.634 C 237.147,36.599 237.641,34.723 239.2,34.723 C 240.049,34.723 241.085,35.078 241.085,36.441 C 240.919,41.245 240.57,46.378 240.224,51.193 C 240.57,56.674 240.919,61.813 241.085,67.315 C 241.085,70.06 240.049,70.403 239.2,70.403 C 237.641,70.403 237.147,68.513 236.97,67.483 C 236.109,62.511 234.734,57.379 230.974,56.506 C 224.28,54.962 215.361,54.962 210.217,54.962 C 203.372,54.962 201.638,54.962 201.638,60.801 L 201.638,92.686 C 201.638,103.669 200.955,106.769 212.787,106.929 C 214.331,106.929 217.245,106.769 217.245,108.988 C 217.245,110.861 215.887,111.207 214.331,111.207 C 207.811,111.207 201.638,110.52 195.133,110.52 C 188.608,110.52 182.076,111.207 175.571,111.207 C 174.05,111.207 172.663,110.861 172.663,108.988 C 172.663,106.77 176.34,106.929 177.872,106.929 C 189.867,106.929 189.018,103.497 189.018,92.686 L 189.018,22.041 L 189.018,22.041 z "
   clip-path="url(#SVGID_2_)"
   id="path19" />
	<path
   d="M 264.425,64.838 C 264.425,62.62 264.585,56.464 262.851,54.734 C 261.899,53.636 259.523,53.48 258.257,53.48 L 256.21,53.48 C 255.266,53.48 254.332,53.164 254.332,52.208 C 254.332,50.312 256.551,50.013 257.961,49.531 C 261.742,48.41 268.539,44.331 271.065,41.319 C 271.834,40.538 272.639,39.272 273.905,39.272 C 275.482,39.272 275.313,40.704 275.313,41.787 L 275.313,49.531 C 275.313,50.146 274.991,52.832 276.1,52.832 C 277.674,52.832 283.824,40.219 294.697,40.219 C 299.448,40.219 303.707,43.041 303.707,47.798 C 303.707,51.723 300.864,54.092 297.084,54.092 C 291.718,54.092 291.396,48.111 286.991,48.111 C 283.521,48.111 280.824,51.406 278.939,53.77 C 275.147,59.139 275.312,63.256 275.312,69.563 L 275.312,94.494 C 275.312,101.265 273.904,106.634 282.4,107.427 C 283.985,107.577 286.834,107.427 286.834,109.462 C 286.834,110.733 286.047,111.201 284.932,111.201 C 279.886,111.201 274.839,110.571 270.1,110.571 C 265.054,110.571 260.007,111.201 255.12,111.201 C 254.023,111.201 252.902,110.893 252.902,109.627 C 252.902,107.263 255.585,107.577 257.319,107.426 C 265.835,106.633 264.424,101.264 264.424,94.493 L 264.424,64.838 L 264.425,64.838 z "
   clip-path="url(#SVGID_2_)"
   id="path21" />
	<path
   d="M 320.348,67.657 C 315.447,67.657 313.87,67.379 313.87,72.558 C 313.87,90.224 325.383,105.532 344.466,105.532 C 359.945,105.532 365.779,95.288 367.825,95.288 C 368.612,95.288 369.08,95.9 369.08,96.53 C 369.08,98.438 364.033,102.674 362.933,103.635 C 355.52,109.936 347.787,112.468 338.015,112.468 C 317.344,112.468 302.042,95.9 302.042,76.187 C 302.042,65.458 305.038,57.101 313.395,49.851 C 321.281,42.885 331.072,39.267 341.813,39.267 C 350.32,39.267 358.999,42.261 364.495,49.046 C 367.667,52.971 370.033,59.775 370.033,64.984 C 370.033,66.244 369.714,67.655 368.128,67.655 L 320.348,67.655 L 320.348,67.657 z M 333.275,63.889 C 338.165,63.889 347.006,63.732 351.574,62.617 C 355.041,61.836 357.425,60.103 357.425,56.292 C 357.425,52.973 355.52,49.374 353.314,46.998 C 349.835,43.365 344.628,43.049 339.588,43.049 C 331.542,43.049 323.806,46.898 319.082,53.535 C 317.65,55.263 315.145,59.309 315.145,61.836 C 315.145,64.344 318.748,63.889 320.499,63.889 L 333.275,63.889 L 333.275,63.889 z "
   clip-path="url(#SVGID_2_)"
   id="path23" />
	<path
   d="M 593.922,67.657 C 589.035,67.657 587.45,67.379 587.45,72.558 C 587.45,90.224 598.95,105.532 618.048,105.532 C 633.525,105.532 639.359,95.288 641.405,95.288 C 642.21,95.288 642.659,95.9 642.659,96.53 C 642.659,98.438 637.618,102.674 636.518,103.635 C 629.111,109.936 621.372,112.468 611.587,112.468 C 590.916,112.468 575.616,95.9 575.616,76.187 C 575.616,65.458 578.622,57.101 586.97,49.851 C 594.867,42.885 604.647,39.267 615.385,39.267 C 623.893,39.267 632.595,42.261 638.068,49.046 C 641.245,52.971 643.617,59.775 643.617,64.984 C 643.617,66.244 643.286,67.655 641.713,67.655 L 593.922,67.655 L 593.922,67.657 z M 606.849,63.889 C 611.742,63.889 620.58,63.732 625.148,62.617 C 628.632,61.836 630.993,60.103 630.993,56.292 C 630.993,52.973 629.112,49.374 626.893,46.998 C 623.42,43.365 618.203,43.049 613.167,43.049 C 605.121,43.049 597.389,46.898 592.656,53.535 C 591.242,55.263 588.727,59.309 588.727,61.836 C 588.727,64.344 592.336,63.889 594.076,63.889 L 606.849,63.889 L 606.849,63.889 z "
   clip-path="url(#SVGID_2_)"
   id="path25" />
	<path
   d="M 565.324,94.49 C 565.324,101.27 563.916,106.636 572.435,107.423 C 574.008,107.576 576.831,107.423 576.831,109.461 C 576.831,110.739 576.074,111.203 574.991,111.203 C 569.903,111.203 564.863,110.573 560.13,110.573 C 555.077,110.573 550.043,111.203 545.151,111.203 C 544.039,111.203 542.926,110.895 542.926,109.629 C 542.926,107.265 545.623,107.576 547.345,107.422 C 555.87,106.635 554.439,101.269 554.439,94.489 L 554.439,64.835 C 554.439,62.617 554.617,56.464 552.866,54.736 C 551.919,53.638 549.553,53.482 548.299,53.482 L 546.252,53.482 C 545.305,53.482 544.335,53.163 544.335,52.21 C 544.335,50.314 546.565,50.009 547.98,49.527 C 551.766,48.412 558.545,44.33 561.078,41.318 C 561.859,40.534 562.652,39.268 563.918,39.268 C 565.481,39.268 565.326,40.7 565.326,41.789 L 565.326,94.49 L 565.324,94.49 z M 553.006,17.97 C 553.006,13.873 555.869,10.075 560.129,10.075 C 564.229,10.075 566.737,13.873 566.737,17.648 C 566.737,21.919 564.388,25.543 559.809,25.543 C 555.562,25.543 553.006,22.076 553.006,17.97"
   clip-path="url(#SVGID_2_)"
   id="path27" />
	<path
   d="M 234.753,204.415 L 267.236,129.945 C 268.188,127.901 269.774,127.901 271.501,127.901 L 289.016,127.901 C 290.741,127.901 293.595,127.108 293.595,129.629 C 293.595,131.841 291.397,132.155 289.803,132.155 C 287.762,132.155 284.289,131.681 282.872,133.409 C 280.976,135.622 281.594,141.757 281.594,144.605 L 281.594,209.762 C 281.594,212.294 281.437,218.601 283.345,220.808 C 284.907,222.719 287.27,222.872 289.486,222.872 C 291.057,222.872 294.37,222.541 294.37,224.919 C 294.37,226.647 292.637,226.807 291.397,226.807 C 286.33,226.807 281.298,226.186 276.252,226.186 C 269.939,226.186 263.621,226.807 257.453,226.807 C 256.199,226.807 254.448,226.647 254.448,224.919 C 254.448,222.541 257.785,222.872 259.362,222.872 C 261.725,222.872 265.038,222.061 266.784,220.659 C 269.455,218.441 269.138,212.62 269.138,209.762 L 269.138,138.298 L 268.043,138.298 L 233.014,220.34 C 232.535,221.446 232.05,223.168 230.65,223.168 C 229.077,223.168 228.597,221.287 228.29,220.204 L 197.204,140.2 L 196.198,140.2 L 196.198,205.195 C 196.343,215.098 195.509,222.872 206.705,222.872 C 208.273,222.872 211.598,222.719 211.598,224.919 C 211.598,226.807 209.545,226.807 208.117,226.807 C 203.39,226.807 198.648,226.186 193.933,226.186 C 189.197,226.186 184.458,226.807 179.879,226.807 C 178.474,226.807 177.353,226.494 177.353,224.919 C 177.353,223.026 180.06,222.872 181.468,222.872 C 190.307,222.872 190.833,218.767 191.301,211.04 L 191.301,141.132 C 191.426,132.598 191.354,132.154 182.85,132.154 C 181.262,132.154 179.064,131.84 179.064,129.628 C 179.064,127.107 181.892,127.9 183.637,127.9 L 201.933,127.9 C 204.912,127.9 205.083,129.944 206.033,132.464 L 234.753,204.415 z "
   clip-path="url(#SVGID_2_)"
   id="path29" />
	<path
   d="M 334.062,187.826 C 339.75,185.17 339.907,185.01 339.907,179.016 L 339.907,172.059 C 339.907,164.33 339.599,158.75 329.826,158.75 C 320.188,158.75 315.281,163.069 311.675,171.13 C 310.569,173.484 309.785,175.697 307.27,176.81 C 305.667,177.579 302.372,178.851 300.46,178.851 C 299.209,178.851 298.419,178.538 298.419,176.952 C 298.419,172.847 302.037,168.285 305.054,165.753 C 312.464,159.121 323.193,154.873 333.271,154.873 C 338.173,154.873 344.021,155.66 347.645,158.958 C 351.419,162.126 350.792,166.232 350.792,170.492 L 350.792,207.716 C 350.792,211.195 350.638,220.341 356.306,220.341 C 360.27,220.341 361.997,216.402 363.435,216.402 C 364.044,216.402 364.518,217.029 364.518,217.662 C 364.518,219.401 361.837,221.62 360.732,222.543 C 357.59,224.762 353.621,227.122 349.526,227.122 C 341.791,227.122 341.016,216.083 338.809,216.083 C 337.38,216.083 327.131,228.074 313.414,228.074 C 305.986,228.074 298.577,223.489 298.577,215.615 C 298.577,204.416 313.252,197.778 321.907,193.518 L 334.062,187.826 z M 322.708,196.683 C 316.564,199.83 310.408,203.93 310.408,211.502 C 310.408,217.661 315.454,220.489 321.294,220.489 C 326.82,220.489 332.177,217.957 335.969,214.182 C 339.75,210.236 339.907,207.881 339.907,202.663 L 339.907,193.197 C 339.907,192.582 340.392,188.795 338.809,188.795 C 338.345,188.795 337.555,189.269 337.079,189.417 L 322.708,196.683 z "
   clip-path="url(#SVGID_2_)"
   id="path31" />
	<path
   d="M 421.828,175.059 C 416.769,175.059 413.947,157.985 401.175,157.985 C 395.65,157.985 389.331,160.713 385.248,164.176 C 377.96,170.498 373.878,180.117 373.878,189.737 C 373.878,205.835 385.692,222.246 403.376,222.246 C 410.149,222.246 416.616,220.033 421.526,215.295 C 421.975,214.839 423.093,213.396 423.869,213.396 C 424.502,213.396 424.981,214.035 424.981,214.68 C 424.981,216.253 421.348,219.395 420.242,220.335 C 413.788,225.548 405.901,228.073 397.377,228.073 C 377.96,228.073 362.033,211.981 362.033,192.902 C 362.033,171.591 381.906,154.873 403.044,154.873 C 409.055,154.873 417.408,156.603 422.461,160.076 C 424.502,161.499 423.715,164.972 423.715,167.018 C 423.714,168.285 424.673,175.059 421.828,175.059"
   clip-path="url(#SVGID_2_)"
   id="path33" />
	<path
   d="M 459.673,101.424 C 458.241,101.424 456.496,105.373 452.538,105.373 C 447.503,105.373 447.172,97.644 447.172,95.898 L 447.172,2.5 C 447.172,1.252 447.344,0.006 445.752,0.006 C 444.657,0.006 443.214,1.089 442.445,1.725 C 438.664,4.251 432.671,5.828 428.252,6.603 C 427.317,6.777 426.033,7.239 426.033,8.348 C 426.033,10.395 428.708,9.94 430.151,9.94 C 437.712,9.94 436.292,16.865 436.292,22.692 L 436.292,37.692 C 436.292,38.633 436.925,43.52 435.015,43.52 C 434.245,43.52 432.82,42.89 432.015,42.57 C 426.821,40.535 420.988,39.097 415.148,39.275 C 402.316,39.657 395.27,43.854 388.188,50.628 C 381.089,57.411 377.131,66.087 377.131,76.035 C 377.131,94.954 391.17,112.475 411.208,112.475 C 423.986,112.475 433.133,101.909 435.499,101.909 C 437.238,101.909 438.333,106.154 438.706,107.071 C 440.149,111.195 442.107,112.147 445.769,112.147 C 449.851,112.147 453.821,109.795 456.974,107.58 C 458.069,106.651 460.748,104.436 460.748,102.697 C 460.75,102.065 460.289,101.424 459.673,101.424 M 434.695,98.261 C 430.294,103.47 422.567,105.683 416.095,105.683 C 398.595,105.683 388.81,89.44 388.81,73.659 C 388.81,57.872 399.08,44.386 416.26,42.812 C 421.454,42.333 428.708,44.235 432.506,47.864 C 436.606,51.662 436.292,56.93 436.292,61.832 L 436.292,90.38 C 436.292,93.534 436.766,95.735 434.695,98.261"
   clip-path="url(#SVGID_2_)"
   id="path35" />
	<path
   d="M 539.625,101.424 C 538.181,101.424 536.453,105.373 532.483,105.373 C 527.461,105.373 527.129,97.644 527.129,95.898 L 527.129,2.5 C 527.129,1.252 527.282,0.006 525.697,0.006 C 524.596,0.006 523.171,1.089 522.395,1.725 C 518.609,4.251 512.61,5.828 508.197,6.603 C 507.256,6.777 505.972,7.239 505.972,8.348 C 505.972,10.395 508.658,9.94 510.083,9.94 C 517.656,9.94 516.242,16.865 516.242,22.692 L 516.242,37.692 C 516.242,38.633 516.869,43.52 514.964,43.52 C 514.184,43.52 512.77,42.89 511.971,42.57 C 506.771,40.535 500.925,39.097 495.092,39.275 C 482.272,39.657 475.226,43.854 468.132,50.628 C 461.027,57.411 457.074,66.087 457.074,76.035 C 457.074,94.954 471.113,112.475 491.151,112.475 C 503.93,112.475 513.077,101.909 515.449,101.909 C 517.177,101.909 518.277,106.154 518.649,107.071 C 520.093,111.195 522.051,112.147 525.708,112.147 C 529.802,112.147 533.766,109.795 536.913,107.58 C 538.037,106.651 540.687,104.436 540.687,102.697 C 540.689,102.065 540.24,101.424 539.625,101.424 M 514.658,98.261 C 510.239,103.47 502.512,105.683 496.057,105.683 C 478.534,105.683 468.76,89.44 468.76,73.659 C 468.76,57.872 479.013,44.386 496.199,42.812 C 501.411,42.333 508.658,44.235 512.457,47.864 C 516.551,51.662 516.243,56.93 516.243,61.832 L 516.243,90.38 C 516.244,93.534 516.716,95.735 514.658,98.261"
   clip-path="url(#SVGID_2_)"
   id="path37" />
</g>
</svg>