<?xml version="1.0" encoding="UTF-8" standalone="no"?>
<!-- Created with Inkscape (http://www.inkscape.org/) -->

<svg
   xmlns:dc="http://purl.org/dc/elements/1.1/"
   xmlns:cc="http://creativecommons.org/ns#"
   xmlns:rdf="http://www.w3.org/1999/02/22-rdf-syntax-ns#"
   xmlns:svg="http://www.w3.org/2000/svg"
   xmlns="http://www.w3.org/2000/svg"
   xmlns:sodipodi="http://sodipodi.sourceforge.net/DTD/sodipodi-0.dtd"
   xmlns:inkscape="http://www.inkscape.org/namespaces/inkscape"
   version="1.1"
   id="svg850"
   xml:space="preserve"
   width="429.60001"
   height="245.86667"
   viewBox="0 0 429.60001 245.86667"
   sodipodi:docname="DellTech_Logo_Stk_Blue_Gry_rgb.svg"
   inkscape:version="0.92.4 5da689c313, 2019-01-14"><metadata
     id="metadata856"><rdf:RDF><cc:Work
         rdf:about=""><dc:format>image/svg+xml</dc:format><dc:type
           rdf:resource="http://purl.org/dc/dcmitype/StillImage" /><dc:title></dc:title></cc:Work></rdf:RDF></metadata><defs
     id="defs854" /><sodipodi:namedview
     pagecolor="#ffffff"
     bordercolor="#666666"
     borderopacity="1"
     objecttolerance="10"
     gridtolerance="10"
     guidetolerance="10"
     inkscape:pageopacity="0"
     inkscape:pageshadow="2"
     inkscape:window-width="3440"
     inkscape:window-height="1382"
     id="namedview852"
     showgrid="false"
     inkscape:zoom="4.8603579"
     inkscape:cx="214.8"
     inkscape:cy="122.93333"
     inkscape:window-x="0"
     inkscape:window-y="27"
     inkscape:window-maximized="1"
     inkscape:current-layer="g858" /><g
     id="g858"
     inkscape:groupmode="layer"
     inkscape:label="ink_ext_XXXXXX"
     transform="matrix(1.3333333,0,0,-1.3333333,0,245.86667)"><g
       id="g860"
       transform="scale(0.1)"><path
         d="m 216,1017.46 v 573 h 169.496 c 143.32,0 259.504,-128.27 259.504,-286.5 0,-158.23 -116.184,-286.5 -259.504,-286.5 z M 385.496,828.461 c 221.285,0 407.258,151.152 460.32,355.839 L 1383.83,763.961 1921.5,1184.04 V 828.461 H 2535 v 188.999 h -397.5 v 762 h -216 v -355.58 l -515.75,-402.95 -115.34,90.12 246.91,192.91 268.84,210.04 -153.49,119.92 -515.76,-402.95 -115.34,90.12 515.75,402.95 -153.49,119.92 -538.014,-420.34 c -53.062,204.68 -239.035,355.84 -460.32,355.84 H 0 V 828.461 Z M 3222,1017.46 V 828.461 h -613.5 v 950.999 h 216 v -762 H 3222"
         style="fill:#3d70c0;fill-opacity:1;fill-rule:nonzero;stroke:none"
         id="path862"
         inkscape:connector-curvature="0" /><path
         d="m 341.211,549.68 v 18.968 l -6.309,6.313 H 6.33984 L 0,568.648 V 549.68 l 6.33984,-6.309 H 145.332 l 6.313,-6.312 V 138.988 l 6.339,-6.308 h 25.274 l 6.312,6.308 v 398.071 l 6.309,6.312 H 334.902 Z M 511.461,309.59 H 321.918 l -6.309,6.32 c 0,44.231 25.274,107.41 101.067,107.41 75.847,0 101.121,-63.179 101.121,-107.41 z m 37.926,-31.61 6.336,6.34 v 18.942 c 0,88.468 -50.571,151.668 -139.047,151.668 -88.418,0 -138.988,-63.2 -138.988,-151.668 v -12.633 c 0,-88.438 44.23,-164.258 145.332,-164.258 88.441,0 120.027,56.859 126.367,94.777 l -6.34,6.313 h -25.25 l -6.336,-6.313 C 498.84,183.23 473.563,157.949 423.02,157.949 c -82.137,0 -107.411,75.821 -107.411,113.723 l 6.309,6.308 z m 69.511,12.649 c 0,88.48 44.207,132.691 107.407,132.691 63.168,0 88.441,-37.898 94.754,-75.8 l 6.312,-6.34 h 25.301 l 6.312,6.34 c -6.312,63.171 -56.89,107.41 -132.679,107.41 -82.133,0 -145.309,-50.578 -145.309,-164.301 0,-113.719 63.176,-164.258 145.309,-164.258 75.789,0 126.367,44.231 132.679,107.399 l -6.312,6.308 h -25.301 l -6.312,-6.308 c -6.313,-37.891 -31.586,-75.821 -94.754,-75.821 -63.2,0 -107.407,44.242 -107.407,132.68 M 1162.25,138.988 v 189.571 c 0,82.132 -44.24,126.371 -113.72,126.371 -44.24,0 -82.139,-18.989 -101.104,-50.578 h -6.309 v 164.296 l -6.312,6.313 h -25.274 l -6.34,-6.313 v -429.66 l 6.34,-6.308 h 25.274 l 6.312,6.308 V 309.59 c 0,69.519 31.613,113.73 101.093,113.73 50.55,0 82.14,-31.59 82.14,-94.761 V 138.988 l 6.31,-6.308 h 25.3 z m 322.24,0 v 189.571 c 0,82.132 -44.21,126.371 -113.71,126.371 -44.24,0 -82.17,-18.989 -101.1,-50.578 h -6.34 l -6.28,37.949 -6.34,6.32 h -18.97 l -6.31,-6.32 V 138.988 l 6.31,-6.308 h 25.31 l 6.28,6.308 V 309.59 c 0,69.519 31.61,113.73 101.09,113.73 50.56,0 82.14,-31.59 82.14,-94.761 V 138.988 l 6.34,-6.308 h 25.27 z m 183.23,-12.617 c 82.13,0 145.33,56.859 145.33,164.258 0,107.41 -63.2,164.301 -145.33,164.301 -82.13,0 -145.33,-56.891 -145.33,-164.301 0,-107.399 63.2,-164.258 145.33,-164.258 m 0,296.949 c 63.17,0 107.41,-50.55 107.41,-132.691 0,-82.129 -44.24,-132.68 -107.41,-132.68 -63.19,0 -107.43,50.551 -107.43,132.68 0,82.141 44.24,132.691 107.43,132.691 m 227.44,-284.332 v 429.66 l -6.31,6.313 h -25.28 l -6.33,-6.313 v -429.66 l 6.33,-6.308 h 25.28 z m 189.57,-12.617 c 82.13,0 145.3,56.859 145.3,164.258 0,107.41 -63.17,164.301 -145.3,164.301 -82.16,0 -145.34,-56.891 -145.34,-164.301 0,-107.399 63.18,-164.258 145.34,-164.258 m 0,296.949 c 63.17,0 107.38,-50.55 107.38,-132.691 0,-82.129 -44.21,-132.68 -107.38,-132.68 -63.2,0 -107.44,50.551 -107.44,132.68 0,82.141 44.24,132.691 107.44,132.691 M 2495.4,176.91 c 0,-82.1287 -18.97,-145.3319 -94.79,-145.3319 -56.86,0 -75.82,25.2813 -82.13,56.8633 l -6.31,6.3399 h -25.28 l -6.31,-6.3399 C 2286.89,37.8984 2324.79,0 2400.61,0 c 82.16,0 132.68,50.5508 132.68,176.91 v 265.391 l -6.31,6.32 h -18.96 l -6.31,-6.32 -6.31,-37.949 h -6.34 c -12.63,25.277 -44.21,50.578 -101.1,50.578 -88.44,0 -132.68,-69.508 -132.68,-164.301 0,-94.75 44.24,-164.258 132.68,-164.258 56.89,0 88.47,25.25 101.1,50.539 z m -101.07,-18.961 c -63.2,0 -101.13,44.242 -101.13,132.68 0,88.48 37.93,132.691 101.13,132.691 63.14,0 101.07,-44.211 101.07,-132.691 0,-88.438 -37.93,-132.68 -101.07,-132.68 m 240.06,347.52 v 37.902 l -6.31,6.309 h -25.28 l -6.31,-6.309 v -37.902 l 6.31,-6.328 h 25.28 z m 0,-366.481 v 303.313 l -6.31,6.32 h -25.28 l -6.31,-6.32 V 138.988 l 6.31,-6.308 h 25.28 z M 2912.4,309.59 h -189.54 l -6.34,6.32 c 0,44.231 25.28,107.41 101.1,107.41 75.82,0 101.09,-63.179 101.09,-107.41 z m 37.93,-31.61 6.28,6.34 v 18.942 c 0,88.468 -50.55,151.668 -138.99,151.668 -88.45,0 -139,-63.2 -139,-151.668 v -12.633 c 0,-88.438 44.24,-164.258 145.34,-164.258 88.44,0 120.03,56.859 126.37,94.777 l -6.34,6.313 h -25.28 l -6.31,-6.313 c -12.65,-37.918 -37.92,-63.199 -88.44,-63.199 -82.16,0 -107.44,75.821 -107.44,113.723 l 6.34,6.308 z M 3222,214.809 c 0,56.863 -31.61,82.14 -94.81,94.781 -63.18,12.629 -101.07,18.969 -101.07,63.18 0,31.582 25.28,50.55 69.51,50.55 56.86,0 75.83,-25.281 75.83,-56.859 l 6.3,-6.32 h 25.28 l 6.34,6.32 c 0,63.168 -50.58,88.469 -113.75,88.469 -69.51,0 -107.41,-37.93 -107.41,-82.16 0,-50.551 37.9,-75.821 101.07,-88.45 63.2,-12.648 94.78,-18.961 94.78,-69.511 0,-31.579 -18.93,-56.86 -82.13,-56.86 -56.86,0 -82.14,31.621 -82.14,69.512 l -6.3,6.309 h -25.28 l -6.31,-6.309 c 0,-56.859 44.21,-101.09 120.03,-101.09 82.13,0 120.06,37.891 120.06,88.438"
         style="fill:#7a7b7c;fill-opacity:1;fill-rule:nonzero;stroke:none"
         id="path864"
         inkscape:connector-curvature="0" /></g></g></svg>