<?xml version="1.0" encoding="utf-8"?>
<!-- Generator: Adobe Illustrator 23.0.3, SVG Export Plug-In . SVG Version: 6.00 Build 0)  -->
<svg version="1.1" id="Layer_1" xmlns="http://www.w3.org/2000/svg" xmlns:xlink="http://www.w3.org/1999/xlink" x="0px" y="0px"
	 viewBox="0 0 400 245" style="enable-background:new 0 0 400 245;" xml:space="preserve">
<style type="text/css">
	.st0{fill:#0047BA;}
</style>
<g>
	<path class="st0" d="M107.9,59h-5.2c-1,0-1.9,0.9-1.9,1.9v21.8c0,6.8-4.2,11.6-11.3,11.6c-7.3,0-10.9-4.6-10.9-11.7V61
		c0-1.1-0.9-1.9-1.9-1.9h-5.2c-1,0-2,0.9-2,1.9v23.2c0,10.8,6.7,18.1,17.7,18.1c6.6,0,11-2.6,13.6-6.5v3.5c0,1.1,1,1.8,1.9,1.8h5.2
		c1,0,2-0.9,2-1.9V61C110,59.9,109,59,107.9,59"/>
	<path class="st0" d="M31.9,37.9C14.2,37.9,0,51.7,0,70.1s14.2,32.2,31.9,32.2c3,0,5.9-0.4,8.7-1.2l3.4,9c0.3,1,1,1.6,2.4,1.6h5.5
		c1.3,0,2.3-0.9,1.7-2.5l-4.5-11.7c8.9-5.6,14.7-15.5,14.7-27.3C63.8,51.7,49.6,37.9,31.9,37.9 M45.8,88.7l-4-10.5
		c-0.3-0.9-1-1.7-2.6-1.7h-5.2c-1.3,0-2.4,0.9-1.8,2.5l5.3,13.8c-1.8,0.4-3.6,0.7-5.6,0.7C19,93.6,9.8,83.4,9.8,70.1
		c0-13.3,9.2-23.5,22.1-23.5S54,56.7,54,70.1C54,77.8,50.9,84.5,45.8,88.7"/>
	<path class="st0" d="M399.8,99l-14.6-38.3c-0.4-1.1-1.2-1.7-2.3-1.7h-6.3c-1,0-1.8,0.5-2.3,1.7l-10.2,28l-10.5-28
		c-0.4-1.1-1.2-1.7-2.3-1.7h-6.2c-1,0-1.8,0.5-2.3,1.7l-10.3,28l-10.3-28c-0.4-1.1-1.2-1.7-2.3-1.7h-6.2c-1,0-1.8,0.5-2.3,1.7
		l-10.4,28l-10.3-28c-0.4-1.1-1.2-1.7-2.3-1.7h-6.3c-1,0-1.8,0.5-2.3,1.7L265.4,99c-0.4,1.1,0.1,2.1,1.4,2.1h5.6
		c1,0,1.9-0.5,2.3-1.6l10.8-28.9l10.8,28.9c0.4,1.1,1.2,1.6,2.3,1.6h5.2c1,0,1.8-0.4,2.3-1.6l11-28.9l10.7,28.9
		c0.4,1.1,1.2,1.6,2.3,1.6h5.4c1,0,1.8-0.5,2.3-1.6l10.8-28.9l10.9,28.9c0.4,1.1,1.2,1.6,2.3,1.6h5.2c1,0,1.8-0.4,2.3-1.6l10.8-28.8
		l10.7,28.8c0.3,1.1,1.2,1.6,2.3,1.6h5.8C399.8,101.1,400.3,100.1,399.8,99"/>
	<path class="st0" d="M157.9,59h-5.2c-1,0-2,0.9-2,2v3.5c-2.6-3.9-7.7-6.7-13.7-6.7c-11.4,0-21.2,9-21.2,22.2
		c0,13.3,9.8,22.3,21.1,22.3c6.1,0,11.1-2.8,13.8-6.7v3.7c0,1.1,1,1.9,2,1.9h5.2c1,0,1.9-0.9,1.9-1.9V61C159.9,59.9,159,59,157.9,59
		 M138,93.8c-7.5,0-12.8-6.1-12.8-13.8c0-7.7,5.3-13.7,12.8-13.7c7.4,0,12.8,6,12.8,13.7C150.9,87.7,145.4,93.8,138,93.8"/>
	<path class="st0" d="M216.8,91.8c-1-1.4-2.1-1-3.1-0.4c-2.3,1.3-4.8,2.5-8,2.5c-7.6,0-12.7-6-12.7-13.9c0-7.8,5.1-13.9,12.7-13.9
		c3.1,0,5.9,1.1,8.1,2.5c1,0.6,2.1,1,3.1-0.3l2.4-3.4c1.1-1.5,0.2-2.5-0.4-2.9c-3.6-2.7-8.3-4.2-13.5-4.2c-13,0-21.7,9.6-21.7,22.3
		c0,12.6,8.7,22.2,21.7,22.2c5.2,0,9.9-1.5,13.5-4.2c0.6-0.4,1.6-1.5,0.4-2.9L216.8,91.8z"/>
	<path class="st0" d="M243.8,57.9c-12.2,0-22,9.6-22,22.2c0,12.6,9.8,22.2,22,22.2c12.2,0,22-9.6,22-22.2
		C265.8,67.5,256,57.9,243.8,57.9 M243.8,93.8c-7.5,0-12.8-6.1-12.8-13.7c0-7.7,5.3-13.7,12.8-13.7c7.5,0,12.8,6,12.8,13.7
		C256.6,87.7,251.3,93.8,243.8,93.8"/>
	<path class="st0" d="M176,39h-5.2c-1,0-2,1-2,2v58c0,1.1,1,2,2,2h5.2c1.1,0,1.9-1,1.9-2v-58C178,40,177.2,39,176,39"/>
	<path class="st0" d="M13.6,155.9c0.7,0,1.4-0.1,2-0.2l-1.9-5c-0.3-0.7,0.2-1.1,0.7-1.1h2.9c0.7,0,1,0.3,1.1,0.7l1.1,3
		c1.5-1.6,2.4-3.8,2.4-6.3c0-5-3.5-8.8-8.4-8.8c-4.9,0-8.4,3.9-8.4,8.8C5.2,152.1,8.7,155.9,13.6,155.9 M22.8,164.4h-3.1
		c-0.6,0-0.8-0.3-1-0.7l-1.4-3.7c-1.2,0.3-2.4,0.5-3.7,0.5c-7.5,0-13.5-5.8-13.5-13.4c0-7.6,6-13.4,13.5-13.4
		c7.6,0,13.5,5.8,13.5,13.4c0,4.6-2.2,8.6-5.7,11l2,5.2C23.7,164,23.3,164.4,22.8,164.4"/>
	<path class="st0" d="M34.5,152.1c0,2.6,1.3,4.3,4,4.3c2.6,0,4.1-1.8,4.1-4.2v-9.3c0-0.4,0.4-0.7,0.7-0.7h3.2c0.4,0,0.8,0.3,0.8,0.8
		v16.2c0,0.4-0.3,0.7-0.8,0.7h-3.2c-0.4,0-0.7-0.3-0.7-0.7v-1.4c-1.1,1.5-2.7,2.6-5.5,2.6c-4.5,0-7.3-3.1-7.3-7.5v-10
		c0-0.4,0.4-0.7,0.8-0.7h3.2c0.4,0,0.8,0.3,0.8,0.7V152.1z"/>
	<path class="st0" d="M59.5,156.1c2.7,0,4.7-2.2,4.7-5c0-2.8-2-5-4.7-5c-2.7,0-4.8,2.2-4.8,5C54.7,153.9,56.8,156.1,59.5,156.1
		 M58.8,141.7c2.5,0,4.5,1.1,5.4,2.7V143c0-0.4,0.4-0.8,0.7-0.8h3.2c0.4,0,0.7,0.3,0.7,0.8v16.2c0,0.4-0.3,0.7-0.7,0.7H65
		c-0.4,0-0.7-0.3-0.7-0.7v-1.4c-0.9,1.5-2.9,2.7-5.4,2.7c-4.6,0-8.9-3.7-8.9-9.4C49.9,145.4,54.1,141.7,58.8,141.7"/>
	<path class="st0" d="M72.4,155.6V135c0-0.4,0.3-0.8,0.8-0.8h3.2c0.4,0,0.8,0.4,0.8,0.8v19.6c0,0.8,0.4,1.4,1.3,1.4h1.1
		c0.4,0,0.7,0.2,0.7,0.7v2.3c0,0.8-0.6,0.9-1,0.9h-2.4C73.8,160,72.4,158.2,72.4,155.6"/>
	<path class="st0" d="M90.7,160.5c-5.3,0-9.5-4.1-9.5-9.4c0-5.3,4.1-9.4,9.5-9.4c3.6,0,6.5,1.8,8,4.2c0.3,0.5,0.1,1-0.3,1.3
		l-1.8,1.4c-0.6,0.5-1.2,0.3-1.5-0.2c-1.2-1.4-2.3-2.3-4.2-2.3c-2.8,0-4.7,2.2-4.7,5c0,2.8,2,5,4.7,5c1.9,0,3.1-0.8,4.2-2.3
		c0.4-0.5,0.9-0.7,1.5-0.2l1.8,1.4c0.4,0.3,0.6,0.8,0.3,1.3C97.2,158.7,94.3,160.5,90.7,160.5"/>
	<path class="st0" d="M109.7,156.1c2.7,0,4.7-2.2,4.7-5c0-2.8-2-5-4.7-5c-2.7,0-4.7,2.2-4.7,5C105,153.9,107,156.1,109.7,156.1
		 M109.7,141.7c5.3,0,9.5,4.1,9.5,9.4c0,5.3-4.2,9.3-9.5,9.3c-5.3,0-9.5-4.1-9.5-9.3C100.2,145.9,104.4,141.7,109.7,141.7"/>
	<path class="st0" d="M126.6,159.3c0,0.4-0.4,0.7-0.8,0.7h-3.2c-0.4,0-0.7-0.3-0.7-0.7V143c0-0.4,0.3-0.8,0.7-0.8h3.2
		c0.4,0,0.8,0.3,0.8,0.7v1.4c1-1.5,3.1-2.6,5.5-2.6c2.6,0,4.7,1.2,5.7,3.1c1.7-2.2,4-3.1,6.3-3.1c5.2,0,7.6,3.7,7.6,7.5v10
		c0,0.4-0.4,0.7-0.8,0.7h-3.2c-0.4,0-0.8-0.3-0.8-0.7v-8.9c0-2.4-1.2-4.3-3.8-4.3s-4,1.9-4,4.3v8.9c0,0.4-0.4,0.7-0.8,0.7h-3.2
		c-0.4,0-0.8-0.3-0.8-0.7v-8.9c0-2.4-1.2-4.3-3.8-4.3c-2.6,0-4,1.9-4,4.3V159.3z"/>
	<path class="st0" d="M159.7,159.3c0,0.4-0.4,0.7-0.8,0.7h-3.2c-0.4,0-0.7-0.3-0.7-0.7V143c0-0.4,0.3-0.8,0.7-0.8h3.2
		c0.4,0,0.8,0.3,0.8,0.7v1.4c1-1.5,3.1-2.6,5.5-2.6c2.6,0,4.7,1.2,5.7,3.1c1.7-2.2,4-3.1,6.3-3.1c5.2,0,7.6,3.7,7.6,7.5v10
		c0,0.4-0.4,0.7-0.8,0.7h-3.2c-0.4,0-0.8-0.3-0.8-0.7v-8.9c0-2.4-1.2-4.3-3.8-4.3s-4,1.9-4,4.3v8.9c0,0.4-0.4,0.7-0.8,0.7h-3.2
		c-0.4,0-0.8-0.3-0.8-0.7v-8.9c0-2.4-1.2-4.3-3.8-4.3c-2.6,0-4,1.9-4,4.3V159.3z"/>
	<path class="st0" d="M2.7,173.7c0-0.4,0.3-0.8,0.8-0.8h20.4c0.4,0,0.8,0.4,0.8,0.8v2.9c0,0.4-0.3,0.8-0.8,0.8h-7.6v20.4
		c0,0.4-0.4,0.8-0.8,0.8h-3.5c-0.4,0-0.8-0.4-0.8-0.8v-20.4H3.5c-0.4,0-0.8-0.3-0.8-0.8V173.7z"/>
	<path class="st0" d="M31.6,184.2c-2.1,0-3.9,1.5-4.4,3.7H36C35.5,185.5,33.7,184.2,31.6,184.2 M40.6,189.3v0.9
		c0,0.4-0.2,0.8-0.8,0.8H27.1c0.3,2.5,2.2,4.2,4.6,4.2c1.9,0,3.1-0.7,4.2-1.9c0.3-0.3,0.6-0.5,1-0.2l2.3,1.6
		c0.4,0.3,0.4,0.8,0.1,1.1c-1.5,1.9-3.8,3.4-7.7,3.4c-5.6,0-9.4-4-9.4-9.3c0-5.3,3.9-9.4,9.3-9.4C37.1,180.4,40.6,184.6,40.6,189.3"
		/>
	<path class="st0" d="M51.6,199.2c-5.3,0-9.5-4.1-9.5-9.4c0-5.3,4.1-9.4,9.5-9.4c3.6,0,6.5,1.8,8,4.2c0.3,0.5,0.1,1-0.3,1.3
		l-1.8,1.4c-0.6,0.5-1.2,0.3-1.5-0.2c-1.2-1.4-2.3-2.3-4.2-2.3c-2.8,0-4.7,2.2-4.7,5c0,2.8,2,5,4.7,5c1.9,0,3.1-0.8,4.2-2.3
		c0.4-0.5,0.9-0.7,1.5-0.2l1.8,1.4c0.4,0.3,0.6,0.8,0.3,1.3C58.1,197.4,55.2,199.2,51.6,199.2"/>
	<path class="st0" d="M75.6,189.4c0-2.8-1.6-4.6-4.3-4.6c-2.7,0-4.5,1.9-4.5,4.6v8.6c0,0.4-0.4,0.7-0.8,0.7h-3.2
		c-0.4,0-0.7-0.3-0.7-0.7v-24.3c0-0.4,0.3-0.7,0.7-0.7h3.2c0.4,0,0.8,0.3,0.8,0.7v9.4c1-1.4,3.1-2.6,5.9-2.6c4.7,0,7.6,3.3,7.6,7.7
		v9.9c0,0.4-0.4,0.7-0.8,0.7h-3.2c-0.4,0-0.8-0.3-0.8-0.7V189.4z"/>
	<path class="st0" d="M97.2,189.4c0-2.8-1.6-4.6-4.3-4.6c-2.7,0-4.5,1.9-4.5,4.6v8.6c0,0.4-0.4,0.7-0.8,0.7h-3.2
		c-0.4,0-0.7-0.3-0.7-0.7v-16.2c0-0.4,0.3-0.8,0.7-0.8h3.2c0.4,0,0.8,0.3,0.8,0.7v1.4c1-1.4,3.1-2.6,5.9-2.6c4.7,0,7.6,3.3,7.6,7.7
		v9.9c0,0.4-0.4,0.7-0.8,0.7h-3.2c-0.4,0-0.8-0.3-0.8-0.7V189.4z"/>
	<path class="st0" d="M113.9,194.7c2.7,0,4.7-2.2,4.7-5c0-2.8-2-5-4.7-5c-2.7,0-4.7,2.2-4.7,5C109.1,192.5,111.1,194.7,113.9,194.7
		 M113.9,180.4c5.3,0,9.5,4.1,9.5,9.4c0,5.3-4.2,9.3-9.5,9.3c-5.3,0-9.5-4.1-9.5-9.3C104.3,184.5,108.6,180.4,113.9,180.4"/>
	<path class="st0" d="M125.9,194.2v-20.6c0-0.4,0.3-0.8,0.8-0.8h3.2c0.4,0,0.8,0.4,0.8,0.8v19.6c0,0.8,0.4,1.4,1.3,1.4h1.1
		c0.4,0,0.7,0.2,0.7,0.7v2.3c0,0.8-0.6,0.9-1,0.9h-2.4C127.3,198.6,125.9,196.9,125.9,194.2"/>
	<path class="st0" d="M144.4,194.7c2.7,0,4.7-2.2,4.7-5c0-2.8-2-5-4.7-5c-2.7,0-4.7,2.2-4.7,5C139.6,192.5,141.7,194.7,144.4,194.7
		 M144.4,180.4c5.3,0,9.5,4.1,9.5,9.4c0,5.3-4.2,9.3-9.5,9.3c-5.3,0-9.5-4.1-9.5-9.3C134.9,184.5,139.1,180.4,144.4,180.4"/>
	<path class="st0" d="M165.2,194.6c2.7,0,4.7-2.1,4.7-4.9c0-2.8-2-4.9-4.7-4.9c-2.7,0-4.7,2.1-4.7,4.9
		C160.4,192.5,162.5,194.6,165.2,194.6 M170,198.6v-2.4c-0.9,1.4-2.9,2.5-5.4,2.5c-4.9,0-8.9-3.5-8.9-9.2c0-5.7,4.1-9.2,8.8-9.2
		c2.5,0,4.6,1.2,5.6,2.7v-1.4c0-0.4,0.3-0.7,0.7-0.7h3.2c0.4,0,0.8,0.3,0.8,0.7v17.1c0,4.9-3.6,8.3-9.5,8.3c-4.7,0-8.2-2.1-9-5.5
		c-0.1-0.3,0-0.6,0.4-0.7l3.4-0.9c0.4-0.1,0.7,0,0.8,0.3c0.5,1.3,1.8,2.7,4.4,2.7C168.4,203,170,201.2,170,198.6"/>
	<path class="st0" d="M179,198.6c-0.4,0-0.8-0.4-0.8-0.8v-16.2c0-0.4,0.3-0.8,0.8-0.8h3.2c0.4,0,0.8,0.3,0.8,0.8v16.2
		c0,0.4-0.3,0.8-0.8,0.8H179z M177.8,175.7c0-1.5,1.2-2.8,2.8-2.8c1.5,0,2.8,1.2,2.8,2.8c0,1.5-1.2,2.8-2.8,2.8
		C179.1,178.4,177.8,177.2,177.8,175.7"/>
	<path class="st0" d="M195,184.2c-2.1,0-3.9,1.5-4.4,3.7h8.7C198.9,185.5,197,184.2,195,184.2 M204,189.3v0.9c0,0.4-0.2,0.8-0.8,0.8
		h-12.7c0.3,2.5,2.2,4.2,4.6,4.2c1.9,0,3.1-0.7,4.2-1.9c0.3-0.3,0.6-0.5,1-0.2l2.3,1.6c0.4,0.3,0.4,0.8,0.1,1.1
		c-1.5,1.9-3.8,3.4-7.7,3.4c-5.6,0-9.4-4-9.4-9.3c0-5.3,3.9-9.4,9.3-9.4C200.4,180.4,204,184.6,204,189.3"/>
	<path class="st0" d="M220.1,182.6c0.5,0.4,0.4,1,0,1.5l-1.2,1.4c-0.4,0.5-1,0.6-1.7,0.1c-1.1-0.8-2.6-1.5-4.2-1.5
		c-1.6,0-2.6,0.7-2.6,1.6c0,0.8,0.6,1.4,2.2,1.7l2.9,0.6c3.1,0.6,5.4,2,5.4,5.2c0,3.4-3.2,6-7.9,6c-3.1,0-5.4-1-6.8-2.1
		c-1.4-1-1.3-1.9-0.6-2.5l1.4-1.1c0.7-0.6,1.2-0.3,1.7,0.1c1.2,1,2.6,1.8,4.5,1.8c1.9,0,2.8-0.8,2.8-1.8c0-1-1-1.3-2.8-1.7l-2.8-0.6
		c-2.9-0.6-4.7-2.4-4.7-5.2c0-3.2,2.9-5.8,7.4-5.8C216.6,180.4,219,181.7,220.1,182.6"/>
	<path class="st0" d="M225.9,193.9c0.1-0.4,0.3-0.6,0.8-0.6h3.8c0.5,0,0.6,0.5,0.5,0.8l-3.2,8.3c-0.1,0.4-0.3,0.6-0.8,0.6h-2.8
		c-0.5,0-0.6-0.5-0.5-0.8L225.9,193.9z"/>
	<path class="st0" d="M243.4,198.6c-0.4,0-0.8-0.4-0.8-0.8v-24.2c0-0.4,0.3-0.8,0.8-0.8h3.4c0.4,0,0.8,0.4,0.8,0.8v24.2
		c0,0.4-0.3,0.8-0.8,0.8H243.4z"/>
	<path class="st0" d="M265.2,189.4c0-2.8-1.6-4.6-4.3-4.6c-2.7,0-4.5,1.9-4.5,4.6v8.6c0,0.4-0.4,0.7-0.8,0.7h-3.2
		c-0.4,0-0.7-0.3-0.7-0.7v-16.2c0-0.4,0.3-0.8,0.7-0.8h3.2c0.4,0,0.8,0.3,0.8,0.7v1.4c1-1.4,3.1-2.6,5.9-2.6c4.7,0,7.6,3.3,7.6,7.7
		v9.9c0,0.4-0.4,0.7-0.8,0.7H266c-0.4,0-0.8-0.3-0.8-0.7V189.4z"/>
	<path class="st0" d="M281.8,199.2c-5.3,0-9.5-4.1-9.5-9.4c0-5.3,4.1-9.4,9.5-9.4c3.6,0,6.5,1.8,8,4.2c0.3,0.5,0.1,1-0.3,1.3
		l-1.8,1.4c-0.6,0.5-1.2,0.3-1.5-0.2c-1.2-1.4-2.3-2.3-4.2-2.3c-2.8,0-4.7,2.2-4.7,5c0,2.8,2,5,4.7,5c1.9,0,3.1-0.8,4.2-2.3
		c0.4-0.5,0.9-0.7,1.5-0.2l1.8,1.4c0.4,0.3,0.6,0.8,0.3,1.3C288.3,197.4,285.5,199.2,281.8,199.2"/>
	<path class="st0" d="M291.8,195.9c0-1.7,1.4-3.1,3.1-3.1c1.7,0,3.1,1.4,3.1,3.1s-1.4,3.1-3.1,3.1
		C293.2,199,291.8,197.6,291.8,195.9"/>
</g>
</svg>
