<?xml version="1.0" encoding="UTF-8" standalone="no"?>
<svg
   xmlns:dc="http://purl.org/dc/elements/1.1/"
   xmlns:cc="http://creativecommons.org/ns#"
   xmlns:rdf="http://www.w3.org/1999/02/22-rdf-syntax-ns#"
   xmlns:svg="http://www.w3.org/2000/svg"
   xmlns="http://www.w3.org/2000/svg"
   viewBox="0 0 85.333336 57.333332"
   height="57.333332"
   width="85.333336"
   xml:space="preserve"
   id="svg2"
   version="1.1"><metadata
     id="metadata8"><rdf:RDF><cc:Work
         rdf:about=""><dc:format>image/svg+xml</dc:format><dc:type
           rdf:resource="http://purl.org/dc/dcmitype/StillImage" /></cc:Work></rdf:RDF></metadata><defs
     id="defs6"><clipPath
       id="clipPath18"
       clipPathUnits="userSpaceOnUse"><path
         id="path16"
         d="M 0,43 H 64 V 0 H 0 Z" /></clipPath></defs><g
     transform="matrix(1.3333333,0,0,-1.3333333,0,57.333333)"
     id="g10"><g
       id="g12"><g
         clip-path="url(#clipPath18)"
         id="g14"><g
           transform="translate(62.7256,30.3281)"
           id="g20"><path
             id="path22"
             style="fill:#0071c5;fill-opacity:1;fill-rule:nonzero;stroke:none"
             d="M 0,0 C -2.908,14.189 -30.455,15.087 -48.211,4.278 V 3.085 c 17.736,9.117 42.893,9.062 45.186,-4.007 0.765,-4.321 -1.668,-8.828 -6.018,-11.418 v -3.389 C -3.809,-13.811 1.561,-7.603 0,0 m -32.273,-24.83 c -12.254,-1.132 -25.022,0.647 -26.81,10.223 -0.876,4.719 1.276,9.724 4.129,12.833 v 1.662 c -5.137,-4.506 -7.923,-10.206 -6.319,-16.943 2.049,-8.638 13.006,-13.531 29.735,-11.906 6.618,0.643 15.278,2.773 21.304,6.078 v 4.696 c -5.467,-3.254 -14.508,-5.945 -22.039,-6.643" /></g><g
           transform="translate(51.499,32.3936)"
           id="g24"><path
             id="path26"
             style="fill:#0071c5;fill-opacity:1;fill-rule:nonzero;stroke:none"
             d="m 0,0 h -3.213 v -14.302 c 0,-1.679 0.815,-3.136 3.213,-3.368 z" /></g><g
           transform="translate(13.251,27.1719)"
           id="g28"><path
             id="path30"
             style="fill:#0071c5;fill-opacity:1;fill-rule:nonzero;stroke:none"
             d="m 0,0 h -3.217 l -0.002,-9.347 c 0,-1.678 0.815,-3.138 3.219,-3.369 z" /></g><path
           id="path32"
           style="fill:#0071c5;fill-opacity:1;fill-rule:nonzero;stroke:none"
           d="m 10.034,28.913 h 3.208 v 3.047 h -3.208 z" /><g
           transform="translate(32.4893,14.6055)"
           id="g34"><path
             id="path36"
             style="fill:#0071c5;fill-opacity:1;fill-rule:nonzero;stroke:none"
             d="m 0,0 c -2.598,0 -3.7,1.807 -3.7,3.59 v 12.406 h 3.184 v -3.43 H 1.881 V 9.995 H -0.516 V 3.788 c 0,-0.728 0.346,-1.134 1.104,-1.134 H 1.881 V 0 H 0" /></g><g
           transform="translate(40.9385,24.75)"
           id="g38"><path
             id="path40"
             style="fill:#0071c5;fill-opacity:1;fill-rule:nonzero;stroke:none"
             d="M 0,0 C -1.09,0 -1.932,-0.56 -2.283,-1.319 -2.492,-1.774 -2.564,-2.125 -2.588,-2.685 H 2.314 C 2.252,-1.319 1.633,0 0,0 m -2.588,-4.854 c 0,-1.63 1.014,-2.828 2.822,-2.828 1.409,0 2.108,0.389 2.922,1.198 l 1.967,-1.877 c -1.26,-1.246 -2.582,-2.002 -4.912,-2.002 -3.051,0 -5.973,1.664 -5.973,6.512 0,4.143 2.551,6.487 5.901,6.487 3.396,0 5.355,-2.744 5.355,-6.342 v -1.148 h -8.082" /></g><g
           transform="translate(21.9014,24.6006)"
           id="g42"><path
             id="path44"
             style="fill:#0071c5;fill-opacity:1;fill-rule:nonzero;stroke:none"
             d="m 0,0 c 0.934,0 1.322,-0.462 1.322,-1.211 v -8.802 h 3.184 v 8.818 c 0,1.789 -0.954,3.76 -3.749,3.76 l -6.578,0.006 v -12.584 h 3.185 l 0,10.013 z" /></g><g
           transform="translate(55.2119,31.4443)"
           id="g46"><path
             id="path48"
             style="fill:#0071c5;fill-opacity:1;fill-rule:nonzero;stroke:none"
             d="M 0,0 C 0,0.155 -0.092,0.205 -0.301,0.205 H -0.445 -0.5 v -0.439 c 0.029,0 0.176,-0.006 0.199,-0.006 0.209,0 0.301,0.068 0.301,0.215 z M 0.313,-1.094 H 0.074 c -0.021,0 -0.041,0.014 -0.049,0.033 l -0.326,0.549 c -0.004,0.012 -0.033,0.025 -0.045,0.025 H -0.438 -0.49 v -0.546 c 0,-0.028 -0.022,-0.061 -0.059,-0.061 h -0.213 c -0.029,0 -0.054,0.033 -0.054,0.061 v 1.381 c 0,0.079 0.029,0.113 0.099,0.123 0.074,0.009 0.279,0.016 0.393,0.016 C 0.07,0.487 0.309,0.371 0.309,0 v -0.025 c 0,-0.231 -0.114,-0.352 -0.291,-0.411 l 0.336,-0.57 c 0.003,-0.01 0.009,-0.027 0.009,-0.039 0,-0.022 -0.013,-0.049 -0.05,-0.049 m -0.567,1.83 c -0.584,0 -1.055,-0.48 -1.055,-1.065 0,-0.583 0.471,-1.058 1.055,-1.058 0.584,0 1.063,0.475 1.063,1.058 0,0.585 -0.479,1.065 -1.063,1.065 m 0,-2.343 c -0.709,0 -1.275,0.574 -1.275,1.278 0,0.704 0.566,1.278 1.275,1.278 0.705,0 1.283,-0.574 1.283,-1.278 0,-0.704 -0.578,-1.278 -1.283,-1.278" /></g></g></g></g></svg>