<?xml version="1.0" encoding="UTF-8" standalone="no"?>
<svg
   xmlns:dc="http://purl.org/dc/elements/1.1/"
   xmlns:cc="http://creativecommons.org/ns#"
   xmlns:rdf="http://www.w3.org/1999/02/22-rdf-syntax-ns#"
   xmlns:svg="http://www.w3.org/2000/svg"
   xmlns="http://www.w3.org/2000/svg"
   viewBox="0 0 764.22668 233.8"
   height="233.8"
   width="764.22668"
   xml:space="preserve"
   id="svg2"
   version="1.1"><metadata
     id="metadata8"><rdf:RDF><cc:Work
         rdf:about=""><dc:format>image/svg+xml</dc:format><dc:type
           rdf:resource="http://purl.org/dc/dcmitype/StillImage" /></cc:Work></rdf:RDF></metadata><defs
     id="defs6" /><g
     transform="matrix(1.3333333,0,0,-1.3333333,0,233.8)"
     id="g10"><g
       transform="scale(0.1)"
       id="g12"><path
         id="path14"
         style="fill:#1f2150;fill-opacity:1;fill-rule:nonzero;stroke:none"
         d="m 3758.81,1751.61 c -38.46,0 -69.73,-31.29 -69.73,-69.74 V 1060.34 L 3164.9,1725.5 c -18.47,23.06 -49.6,31.94 -77.53,22.2 -27.91,-9.82 -46.65,-36.25 -46.65,-65.79 V 861.773 c 0,-38.476 31.28,-69.726 69.74,-69.726 38.48,0 69.74,31.25 69.74,69.726 v 627.707 l 524.19,-671.308 c 13.33,-16.613 33.15,-26.125 54.42,-26.125 7.84,0 15.61,1.32 23.08,3.918 27.89,9.785 46.64,36.23 46.64,65.808 v 820.097 c 0,38.45 -31.28,69.74 -69.72,69.74" /><path
         id="path16"
         style="fill:#1f2150;fill-opacity:1;fill-rule:nonzero;stroke:none"
         d="m 752.445,960.359 c -12,15.024 -29.597,23.282 -49.554,23.282 -9.93,0 -24.887,-1.942 -39.45,-11.036 -53.894,-32.597 -112.906,-48.457 -180.343,-48.457 -202.864,0 -339.157,139.962 -339.157,348.232 0,205.01 132.547,348.21 322.368,348.21 69.492,0 127.379,-12.98 177.046,-39.74 l 0.352,-0.17 c 12.246,-6.13 24.754,-9.23 37.199,-9.23 23.082,0 40.926,10.06 52.864,29.42 6.386,9.63 10.07,21.33 10.07,32.2 0,21.97 -11.895,41.7 -33.727,55.73 -65.039,39.91 -154.398,62.8 -245.101,62.8 C 191.23,1751.6 0,1554.55 0,1272.38 0,985.734 189.977,793.141 472.766,793.141 c 96.316,0 191.582,28.261 261.531,77.64 18.613,13.567 30.219,34.692 30.219,55.11 0,13.082 -4.246,25.062 -12.071,34.468" /><path
         id="path18"
         style="fill:#1f2150;fill-opacity:1;fill-rule:nonzero;stroke:none"
         d="m 4525.07,792.039 c 109.21,0 236.36,41.211 316.3,102.399 11.07,8.324 36.84,32 36.84,72.421 v 282.481 c 0,37.95 -30.88,68.85 -68.82,68.85 h -301.3 c -35.2,0 -64.97,-30.35 -64.97,-66.27 0,-35.93 29.77,-66.28 64.97,-66.28 H 4745.7 V 996.457 c -46.21,-41.254 -138.39,-71.871 -218.05,-71.871 -200.73,0 -330.45,136.304 -330.45,347.244 0,207.68 131.25,347.24 326.57,347.24 61.35,0 120.65,-14.17 171.28,-40.82 12.81,-7.11 26.88,-10.88 40.65,-10.88 23.46,0 44.1,11.41 55.32,30.61 6.4,11.24 9.68,22.8 9.68,34.37 0,21.95 -13.24,43.15 -34.31,55.19 -71.83,42.51 -157.8,64.05 -255.55,64.05 -266.01,0 -459.08,-201.75 -459.08,-479.76 0,-291.471 185.79,-479.791 473.31,-479.791" /><path
         id="path20"
         style="fill:#1f2150;fill-opacity:1;fill-rule:nonzero;stroke:none"
         d="m 5661.98,934.41 h -420.62 v 265.76 h 339.18 c 37.17,0 67.42,30.25 67.42,67.45 0,37.2 -28.99,67.44 -67.42,67.44 H 5240.9 v 271.51 h 421.08 c 38.46,0 69.74,31.28 69.74,69.72 0,38.45 -31.28,69.73 -69.74,69.73 h -490.8 c -38.46,0 -69.73,-31.28 -69.73,-69.73 V 1265.35 1237.8 864.676 c 0,-38.438 31.27,-69.707 69.73,-69.707 h 490.8 c 38.46,0 69.74,31.269 69.74,69.707 0,38.457 -31.28,69.734 -69.74,69.734" /><path
         id="path22"
         style="fill:#1f2150;fill-opacity:1;fill-rule:nonzero;stroke:none"
         d="M 1708.38,863.277 V 1682.8 c 0,37.31 -32.11,68.81 -70.15,68.81 -39.38,0 -71.43,-30.86 -71.43,-68.81 v -347.97 h -451.49 v 347.97 c 0,37.31 -32.14,68.81 -70.13,68.81 -39.4,0 -71.45,-30.86 -71.45,-68.81 V 863.277 c 0,-38.66 32.05,-70.136 71.45,-70.136 38.68,0 70.13,31.476 70.13,70.136 V 1199.88 H 1566.8 V 863.277 c 0,-38.66 32.05,-70.136 71.43,-70.136 38.67,0 70.15,31.476 70.15,70.136" /><path
         id="path24"
         style="fill:#ee1d4a;fill-opacity:1;fill-rule:nonzero;stroke:none"
         d="m 2434.01,1718.41 c -11.14,21.55 -33.35,35.05 -57.55,35.07 h -0.07 c -24.21,0 -46.41,-13.48 -57.55,-34.96 L 1888.08,889.582 c -10.47,-20.113 -9.67,-44.203 2.11,-63.59 11.76,-19.363 32.77,-31.191 55.44,-31.191 h 313.43 c 35.83,0 64.87,29.035 64.87,64.863 0,35.82 -29.04,64.867 -64.87,64.867 h -206.63 l 323.81,623.159 322.24,-623.159 h -206.87 c -35.84,0 -64.87,-29.047 -64.87,-64.867 0,-35.828 29.03,-64.863 64.87,-64.863 h 313.45 c 22.62,0 43.61,11.808 55.37,31.125 11.81,19.336 12.64,43.437 2.23,63.543 l -428.65,828.941" /><path
         id="path26"
         style="fill:#ee1d4a;fill-opacity:1;fill-rule:nonzero;stroke:none"
         d="m 1068.4,444.332 c -24.58,0 -43.83,-19.242 -43.83,-43.82 V 269.602 H 846.82 v 130.91 c 0,24.578 -19.246,43.82 -43.828,43.82 -24.91,0 -44.402,-19.242 -44.402,-43.82 V 45.6406 c 0,-24.582 19.492,-43.83201 44.402,-43.83201 24.582,0 43.828,19.25001 43.828,43.83201 V 186.148 h 177.75 V 45.6406 c 0,-24.582 19.25,-43.83201 43.83,-43.83201 24.56,0 43.81,19.25001 43.81,43.83201 V 400.512 c 0,24.578 -19.25,43.82 -43.81,43.82" /><path
         id="path28"
         style="fill:#ee1d4a;fill-opacity:1;fill-rule:nonzero;stroke:none"
         d="m 1490.03,90.082 h -134.48 v 94.27 h 110.46 c 22.88,0 40.83,18.457 40.83,42 0,23.269 -17.95,41.457 -40.83,41.457 h -110.46 v 90.062 h 128.49 c 22.89,0 40.8,18.481 40.8,42.027 0,23.231 -17.91,41.434 -40.8,41.434 h -175.96 c -22.49,0 -40.79,-18.312 -40.79,-40.82 V 47.4414 c 0,-22.5117 18.3,-40.83984 40.79,-40.83984 h 181.95 c 22.89,0 40.84,18.48824 40.84,42.04684 0,23.2305 -17.95,41.4336 -40.84,41.4336" /><path
         id="path30"
         style="fill:#ee1d4a;fill-opacity:1;fill-rule:nonzero;stroke:none"
         d="M 1888.33,192.75 H 1786.7 l 51.06,124.449 z m -1.32,217.23 c -12.34,28.391 -32.27,34.352 -46.85,34.352 -21.94,0 -38.1,-11.562 -48.04,-34.402 L 1642.65,58.7109 c -2.33,-5.4023 -3.59,-11.1093 -3.59,-16.0625 0,-22.9101 18.2,-40.83981 41.41,-40.83981 18.3,0 32.34,9.12111 38.5,24.90231 l 33.59,82.5591 h 169.87 l 32.97,-80.0981 c 4.07,-10.2227 15.06,-27.36331 42.71,-27.36331 22.84,0 41.41,18.30081 41.41,40.83981 0,5.1836 -1.13,10.7305 -3.57,17.2227 L 1887.01,409.98" /><path
         id="path32"
         style="fill:#ee1d4a;fill-opacity:1;fill-rule:nonzero;stroke:none"
         d="m 2395.7,90.082 h -145.3 v 310.43 c 0,24.57 -19.26,43.808 -43.84,43.808 -24.91,0 -44.42,-19.238 -44.42,-43.808 V 50.4414 c 0,-24.582 19.27,-43.83984 43.85,-43.83984 h 189.71 c 24.18,0 43.85,18.85934 43.85,42.04684 0,22.461 -20.08,41.4336 -43.85,41.4336" /><path
         id="path34"
         style="fill:#ee1d4a;fill-opacity:1;fill-rule:nonzero;stroke:none"
         d="m 2793.29,441.34 h -279.21 c -22.9,0 -40.81,-18.199 -40.81,-41.442 0,-23.558 17.91,-42.019 40.81,-42.019 h 95.49 V 45.6289 c 0,-24.5781 19.51,-43.82812 44.44,-43.82812 24.56,0 43.81,19.25002 43.81,43.82812 V 357.879 h 95.47 c 22.9,0 40.83,18.461 40.83,42.019 0,23.243 -17.93,41.442 -40.83,41.442" /><path
         id="path36"
         style="fill:#ee1d4a;fill-opacity:1;fill-rule:nonzero;stroke:none"
         d="m 3270.73,444.332 c -24.55,0 -43.81,-19.242 -43.81,-43.82 v -130.91 h -177.74 v 130.91 c 0,24.578 -19.28,43.82 -43.86,43.82 -24.91,0 -44.4,-19.242 -44.4,-43.82 V 45.6406 c 0,-24.582 19.49,-43.83201 44.4,-43.83201 24.58,0 43.86,19.25001 43.86,43.83201 V 186.148 h 177.74 V 45.6406 c 0,-24.582 19.26,-43.83201 43.81,-43.83201 24.58,0 43.84,19.25001 43.84,43.83201 V 400.512 c 0,24.578 -19.26,43.82 -43.84,43.82" /><path
         id="path38"
         style="fill:#ee1d4a;fill-opacity:1;fill-rule:nonzero;stroke:none"
         d="m 3737.24,98.9609 c -21.43,-10.4218 -42.41,-15.4921 -64.08,-15.4921 -82.59,0 -138.12,56.4612 -138.12,140.5112 0,84.032 52.14,140.508 129.69,140.508 20.24,0 39.56,-4.207 60.68,-13.168 7.18,-3.269 14.63,-4.851 22.79,-4.851 15.35,0 28.05,7.222 35.88,20.793 3.86,7.687 5.56,14.078 5.56,20.636 0,15.512 -10.05,29.633 -26.74,37.641 -27.73,14.231 -63.52,22.402 -98.17,22.402 -132.86,0 -222.13,-89.992 -222.13,-223.961 C 3442.6,90.0195 3532.57,0 3666.53,0 c 50.95,0 86.23,8.98828 118.02,29.9805 12.37,8.0195 20.09,21.6093 20.09,35.4804 0,8.5704 -2.45,16.4297 -7.42,23.5196 -13.09,17.3785 -31.04,22.3985 -59.98,9.9804" /><path
         id="path40"
         style="fill:#ee1d4a;fill-opacity:1;fill-rule:nonzero;stroke:none"
         d="m 4136.9,192.75 h -101.62 l 51.06,124.449 z m -1.31,217.23 c -12.32,28.391 -32.27,34.352 -46.83,34.352 -21.96,0 -38.12,-11.562 -48.06,-34.402 L 3891.23,58.7109 c -2.33,-5.4023 -3.59,-11.1093 -3.59,-16.0625 0,-22.9101 18.17,-40.83981 41.38,-40.83981 18.31,0 32.37,9.12111 38.56,24.90231 l 33.56,82.5591 h 169.89 l 32.94,-80.0981 c 4.09,-10.2227 15.07,-27.36331 42.72,-27.36331 22.84,0 41.41,18.30081 41.41,40.83981 0,5.1836 -1.13,10.7305 -3.58,17.2227 L 4135.59,409.98" /><path
         id="path42"
         style="fill:#ee1d4a;fill-opacity:1;fill-rule:nonzero;stroke:none"
         d="m 4483.98,358.09 1.99,0.039 c 15.89,0.512 29.63,0.953 41.24,0.953 47.68,0 70.88,-17.691 70.88,-54.051 0,-42.531 -39.48,-57.64 -73.29,-57.64 h -40.82 z m 129.81,-175.77 c 38.63,16.899 76.74,56.852 76.74,123.301 0,62.469 -27.72,136.918 -159.72,136.918 -8.41,0 -55.92,-0.617 -91.27,-1.207 -24.58,0 -43.83,-19.25 -43.83,-43.812 V 45.6289 c 0,-24.5781 19.51,-43.83984 44.43,-43.83984 24.58,0 43.84,19.26174 43.84,43.83984 V 163.93 h 40.81 l 101.7,-138.1917 c 10.62,-14.3672 21.48,-23.94924 40,-23.94924 23.92,0 42.65,17.96094 42.65,40.83984 0,9.3203 -3.19,18.4805 -9.26,26.5899 L 4613.79,182.32" /><path
         id="path44"
         style="fill:#ee1d4a;fill-opacity:1;fill-rule:nonzero;stroke:none"
         d="m 5056.92,90.082 h -134.49 v 94.27 h 110.46 c 22.88,0 40.83,18.457 40.83,42 0,23.269 -17.95,41.457 -40.83,41.457 h -110.46 v 90.062 h 128.48 c 22.9,0 40.81,18.481 40.81,42.027 0,23.231 -17.91,41.434 -40.81,41.434 h -175.95 c -22.49,0 -40.81,-18.312 -40.81,-40.82 V 47.4414 c 0,-22.5117 18.32,-40.83984 40.81,-40.83984 h 181.96 c 22.88,0 40.81,18.48824 40.81,42.04684 0,23.2305 -17.93,41.4336 -40.81,41.4336" /></g></g></svg>