<?xml version="1.0" encoding="UTF-8" standalone="no"?>
<!-- Created with Inkscape (http://www.inkscape.org/) -->

<svg
   xmlns:dc="http://purl.org/dc/elements/1.1/"
   xmlns:cc="http://creativecommons.org/ns#"
   xmlns:rdf="http://www.w3.org/1999/02/22-rdf-syntax-ns#"
   xmlns:svg="http://www.w3.org/2000/svg"
   xmlns="http://www.w3.org/2000/svg"
   xmlns:sodipodi="http://sodipodi.sourceforge.net/DTD/sodipodi-0.dtd"
   xmlns:inkscape="http://www.inkscape.org/namespaces/inkscape"
   version="1.0"
   width="687.95319"
   height="137.39151"
   id="svg2479"
   inkscape:version="0.48.2 r9819"
   sodipodi:docname="AJAX1.svg">
  <metadata
     id="metadata17">
    <rdf:RDF>
      <cc:Work
         rdf:about="">
        <dc:format>image/svg+xml</dc:format>
        <dc:type
           rdf:resource="http://purl.org/dc/dcmitype/StillImage" />
      </cc:Work>
    </rdf:RDF>
  </metadata>
  <sodipodi:namedview
     pagecolor="#ffffff"
     bordercolor="#666666"
     borderopacity="1"
     objecttolerance="10"
     gridtolerance="10"
     guidetolerance="10"
     inkscape:pageopacity="0"
     inkscape:pageshadow="2"
     inkscape:window-width="1280"
     inkscape:window-height="1004"
     id="namedview15"
     showgrid="false"
     fit-margin-top="0"
     fit-margin-left="0"
     fit-margin-right="0"
     fit-margin-bottom="0"
     inkscape:zoom="0.43274074"
     inkscape:cx="-6.1622388"
     inkscape:cy="68.695705"
     inkscape:window-x="-8"
     inkscape:window-y="-8"
     inkscape:window-maximized="1"
     inkscape:current-layer="g3367" />
  <defs
     id="defs2481" />
  <g
     transform="translate(-628.22132,610.65657)"
     id="layer1">
    <g
       transform="matrix(3.2804812,0,0,3.2804812,-1374.5281,1137.5363)"
       id="g3367">
      <path
         d="m 711.50598,-532.54326 -6.61607,0 c 0,0 -0.78907,0.48557 -0.78907,1.69954 0,1.45675 0.78907,1.76023 0.78907,1.76023 l 5.88769,0 c 8.49771,0 13.89981,5.7056 13.89981,16.93471 0,12.07887 -5.28071,17.29888 -14.68888,17.29888 l -3.82396,0 c -0.54628,0 -1.03186,-0.66767 -1.03186,-1.03186 0,-2.24582 0,-16.44912 0,-17.60238 0,-5.82699 -4.00607,-9.04398 -10.44004,-9.04398 -4.37024,0 -7.46583,1.94233 -9.22606,5.28072 0,-1.09257 0,-3.0956 0,-3.64187 0,-0.54628 -0.36419,-0.84978 -0.78907,-0.84978 -0.48559,0 -10.92562,0 -10.92562,0 0,0 -0.72837,0.60698 -0.72837,1.76024 0,1.21396 0.66768,1.69954 0.66768,1.69954 0,0 1.69954,0 2.48861,0 0.60697,0 1.33535,0.66768 1.33535,1.45675 0,0.66768 0,20.94076 0,20.94076 0,0.48558 -0.60698,0.97116 -1.03186,0.97116 l -2.36722,0 -1.03186,3.03489 c 7.10164,0 15.59934,0 15.59934,0 0,0 0.54627,-0.48558 0.54627,-1.57815 0,-1.03186 -0.54627,-1.45674 -0.54627,-1.45674 l -1.88163,0 c -0.54628,0 -0.91047,-0.42488 -0.91047,-0.91047 l 0,-16.32771 c 1.51744,-4.18815 4.49164,-6.61607 6.98025,-6.61607 2.30652,0 3.76327,1.76023 3.76327,4.37024 0,1.33536 0,15.90284 0,18.33075 0,0.66768 -0.48559,1.15326 -0.91047,1.15326 l -2.24582,0 c 0,0 -0.60698,0.42488 -0.60698,1.45674 0,1.09257 0.60698,1.57815 0.60698,1.57815 l 18.39144,0 c 18.27006,0 23.00449,-10.9863 23.00449,-20.27307 0,-14.74958 -10.19724,-20.39448 -23.36867,-20.39448"
         style="fill:#ec1b24;fill-opacity:1;fill-rule:nonzero;stroke:none"
         id="path3926"
         inkscape:connector-curvature="0" />
      <path
         d="m 670.41355,-494.9106 c -2.00304,-0.18209 -2.24583,-1.33535 -2.24583,-2.6707 l 0,-16.02424 c 0,-2.30651 -0.84977,-5.03792 -2.7921,-6.67676 -2.48861,-2.06372 -6.06978,-2.61 -9.16538,-2.61 -4.06675,0 -7.22304,0.48557 -10.50072,1.57814 -0.36419,0.18209 -0.48559,0.48558 -0.48559,0.97116 0,1.63884 0,2.54931 0,4.43095 0,0.36419 0.2428,0.60697 0.54628,0.60697 0,0 1.51745,0 1.69954,0 0.36419,0 0.72838,-0.18209 0.97117,-0.54628 0.97116,-1.27465 2.12443,-2.30651 3.09559,-2.8528 0.84977,-0.42488 2.24583,-0.97116 3.64187,-0.97116 3.33839,0 4.73443,2.42792 4.73443,5.28071 l 0,4.43094 c -12.56446,-0.72837 -17.72377,2.9742 -17.72377,8.86189 0,6.79816 4.67374,9.65096 9.28677,9.65096 4.12745,0 7.28375,-1.57814 8.98329,-4.00606 0.36418,2.12442 1.63884,3.58117 3.27768,3.58117 0.84977,0 3.39908,0 6.55537,0 l 1.09256,-3.03489 -0.97116,0 z m -10.50074,-4.43095 c -1.27465,1.69954 -3.33838,3.0956 -5.58419,3.0956 -2.85281,0 -4.49165,-1.39606 -4.49165,-4.61304 0,-3.76327 1.76024,-5.76629 10.07584,-5.76629 l 0,7.28373"
         style="fill:#ec1b24;fill-opacity:1;fill-rule:nonzero;stroke:none"
         id="path3928"
         inkscape:connector-curvature="0" />
      <path
         d="m 755.08703,-494.9106 -3.45978,0 c -0.54627,0 -0.84977,-0.30349 -0.84977,-0.78907 0,0 0,-24.21844 0,-24.88612 0,-0.72837 -0.24278,-1.15326 -1.09256,-1.15326 -0.84976,0 -10.62212,0 -10.62212,0 0,0 -0.72838,0.66767 -0.72838,1.69954 0,0.97117 0.72838,1.69954 0.72838,1.69954 0,0 2.73141,0 2.9742,0 0.18209,0 0.36419,0.1214 0.36419,0.42489 0,0.30349 0,22.15471 0,22.15471 0,0.48558 -0.42489,0.84977 -0.78908,0.84977 l -3.39907,0 c 0,0 -0.66769,0.42488 -0.66769,1.45674 0,0.97118 0.66769,1.57815 0.66769,1.57815 l 16.87399,0 c 0,0 0.54629,-0.60697 0.54629,-1.57815 0,-0.97116 -0.54629,-1.45674 -0.54629,-1.45674"
         style="fill:#ec1b24;fill-opacity:1;fill-rule:nonzero;stroke:none"
         id="path3930"
         inkscape:connector-curvature="0" />
      <path
         d="m 624.22248,-517.85438 c -5.827,-2.00303 -6.98026,-3.70257 -6.98026,-6.06978 0,-2.54932 2.36723,-5.15933 7.46584,-5.15933 1.76024,0 3.58118,0.60698 5.34141,1.69954 1.03187,0.66768 2.18513,1.76025 3.45978,3.94536 0.1214,0.24279 0.42489,0.36419 0.60698,0.36419 0.48558,0 1.82093,0 1.82093,0 0.24279,0 0.36419,-0.18209 0.36419,-0.48559 0,-1.27464 0,-4.79512 0,-6.91954 0,-0.36419 -0.24279,-0.60698 -0.60698,-0.78907 -3.45977,-1.09257 -6.85885,-1.63885 -11.35049,-1.63885 -8.31561,0 -13.83911,4.73443 -13.83911,11.95747 0,7.10166 5.4021,10.07584 12.38236,12.26097 4.49164,1.33535 9.77235,3.21699 9.77235,7.58723 0,2.61001 -2.42791,5.6449 -7.22304,5.6449 -3.64188,0 -6.06978,-1.33535 -7.46584,-2.7921 -1.45674,-1.45674 -2.79209,-2.8528 -4.06675,-5.5235 -0.1214,-0.3035 -0.36419,-0.60698 -0.66768,-0.60698 -0.72838,0 -2.12442,-0.0607 -2.12442,-0.0607 -0.3035,0.0607 -0.54629,0.2428 -0.54629,0.66769 0,1.69954 0,6.19118 0,8.07281 0,0.30349 0.1821,0.78907 0.48559,0.97117 4.18815,2.36721 9.59025,3.27768 14.0819,3.27768 8.01211,-0.0607 14.1426,-5.34141 14.1426,-13.83911 0,-9.10468 -8.3763,-10.25793 -15.05307,-12.56445"
         style="fill:#ec1b24;fill-opacity:1;fill-rule:nonzero;stroke:none"
         id="path3932"
         inkscape:connector-curvature="0" />
      <path
         d="m 771.96103,-510.75274 c -6.06978,-1.45675 -7.34444,-2.5493 -7.34444,-4.67373 0,-1.82093 1.57814,-3.76326 4.79513,-3.76326 3.15629,0 6.06978,1.88162 7.46584,4.00605 0.18209,0.30349 0.42488,0.42489 0.78907,0.42489 0.54628,0 1.21395,0 1.51744,0 0.3035,0 0.42489,-0.1821 0.42489,-0.36419 0,-0.1821 0,-3.70257 0,-5.28071 0,-0.36419 -0.1821,-0.72838 -0.60698,-0.84977 -2.30652,-0.66768 -5.82699,-1.15327 -9.65096,-1.15327 -5.15931,0 -10.74352,2.9742 -10.74352,9.28678 0,5.4628 4.37025,8.437 8.13351,9.40816 6.43398,1.76023 8.31561,2.6707 8.31561,5.40211 0,2.36721 -1.88163,3.82396 -5.09862,3.82396 -3.27768,0 -6.31257,-2.36722 -8.07281,-6.67676 -0.30349,-0.42489 -0.48558,-0.54628 -0.78908,-0.54628 -0.84976,-0.0607 -1.76023,0 -2.00302,0 -0.30349,0 -0.54628,0.12139 -0.54628,0.54628 0,1.51745 0,5.827 0,6.25188 0,0.48558 0.66768,0.97117 0.66768,0.97117 0,0 1.82093,1.15325 3.88466,1.88163 1.76023,0.54628 3.88466,1.03186 6.85885,1.03186 7.58723,0 11.1684,-4.67373 11.1684,-10.19724 0,-4.91653 -2.79209,-8.01211 -9.16537,-9.52956"
         style="fill:#ec1b24;fill-opacity:1;fill-rule:nonzero;stroke:none"
         id="path3934"
         inkscape:connector-curvature="0" />
      <path
         d="m 743.06886,-525.9272 7.58723,0 c 0.42489,0 0.72837,-0.18209 0.84977,-0.54628 l 1.76024,-5.46281 c 0.12139,-0.42488 -0.1821,-0.66768 -0.60698,-0.66768 l -7.95142,0 c -0.42488,0 -0.66767,0.2428 -0.72837,0.60699 l -1.45676,4.97722 c -0.24278,0.60698 0.0607,1.09256 0.54629,1.09256"
         style="fill:#ec1b24;fill-opacity:1;fill-rule:nonzero;stroke:none"
         id="path3936"
         inkscape:connector-curvature="0" />
      <path
         d="m 818.63768,-494.8499 c -1.82094,0 -3.15629,-0.60698 -3.94536,-1.76024 -0.36419,-0.54628 -9.83305,-14.99236 -10.07584,-15.35655 2.4279,-3.27769 3.64187,-4.55234 5.76629,-5.6449 1.39604,-0.72838 4.00605,-1.27466 5.94838,-1.27466 0,0 0.42489,-0.36419 0.42489,-1.39605 0,-1.09256 -0.42489,-1.51744 -0.42489,-1.51744 l -9.52956,0.0607 c -0.36418,0 -0.78907,0.24279 -1.15325,0.72838 -0.1821,0.30348 -7.64793,10.98631 -9.65096,13.83911 0,-10.37934 0,-24.09704 0,-24.33984 0,-0.60698 -0.36419,-1.03186 -1.03186,-1.03186 -0.72838,0 -11.89678,-0.0607 -11.89678,-0.0607 0,0 -0.60697,0.48559 -0.60697,1.45675 0,1.03187 0.60697,1.57816 0.60697,1.57816 0,0 3.39908,0 3.82396,0 0.48558,0 0.66767,0.24278 0.66767,0.72836 0,0.48559 0,33.20173 0,33.20173 0,0.48557 -0.24278,0.72837 -0.54628,0.72837 l -3.64187,0 c 0,0 -0.60697,0.48558 -0.60697,1.45674 0,0.97118 0.60697,1.57815 0.60697,1.57815 l 15.84214,0 c 0,0 0.48559,-0.66768 0.48559,-1.57815 0,-0.91046 -0.48559,-1.45674 -0.48559,-1.45674 l -2.5493,0 c -0.36419,0 -0.66768,-0.30349 -0.66768,-0.66768 0,0 0,-3.21698 0,-7.70863 0.72837,-0.78907 2.12442,-2.18511 2.24582,-2.36721 0.48558,-0.48559 1.03186,-0.30349 1.27466,0.1214 0.36419,0.48558 6.37326,9.77235 6.49466,10.01515 0.3035,0.42488 0.12139,0.66767 -0.18209,0.66767 l -1.88163,0 c 0,0 -0.48559,0.72837 -0.48559,1.45675 0,0.78907 0.42489,1.51744 0.42489,1.51744 l 15.84213,0 c 0,0 0.48559,-0.60697 0.48559,-1.45675 0,-0.84976 -0.60698,-1.51744 -0.60698,-1.51744 0,0 -0.42488,0 -0.97116,0"
         style="fill:#ec1b24;fill-opacity:1;fill-rule:nonzero;stroke:none"
         id="path3938"
         inkscape:connector-curvature="0" />
    </g>
  </g>
</svg>
