<svg id="Layer_1" data-name="Layer 1" xmlns="http://www.w3.org/2000/svg" viewBox="0 0 72 37.03"><defs><style>.cls-1{fill:#f76902;}</style></defs><title>RIT_1505_hor_k</title><path class="cls-1" d="M39.57,8.7c.43-1.12,1.85-1.12,3-1.12h.21V6s-4.44.1-5.8.1S31.42,6,31.42,6V7.58h.21c1.14,0,2.56,0,3,1.12A21.15,21.15,0,0,1,35,13.55v9.91a21.15,21.15,0,0,1-.36,4.85c-.43,1.13-1.85,1.13-3,1.13h-.21V31S35,30.84,37,30.84c2.26,0,5.79.15,5.79.15V29.44h-.21c-1.14,0-2.56,0-3-1.13a21.74,21.74,0,0,1-.35-4.85V13.55A21.74,21.74,0,0,1,39.57,8.7Z"/><path class="cls-1" d="M46.14,6.05v6.47h1.54v-.2c.14-4.21,1.75-4.39,5.39-4.39h.37c.9,0,1.75,0,2.09.32a.62.62,0,0,1,.16.47v17c0,2.53-.35,3.57-3.91,3.72h-.2V31s4.15-.15,6.55-.15c1.83,0,5.92.15,5.92.15V29.47h-.21c-3.55-.15-3.91-1.19-3.91-3.72v-17a.56.56,0,0,1,.17-.42c.41-.41,1.54-.39,2.44-.38h.51c3.55,0,4.69,1,4.9,4.4v.19H69.5V6.05s-9,.06-11.68.06S46.14,6.05,46.14,6.05Z"/><path class="cls-1" d="M28,29.44a4.43,4.43,0,0,1-3.5-1.85L17.1,19.13c3.88-.51,6.27-3.07,6.27-6.78A5.45,5.45,0,0,0,20.6,7.18,12.2,12.2,0,0,0,14.67,6c-.78,0-2.65.08-4.71.08S3.38,6,3.38,6V7.57h.31c1.18,0,2.5,0,2.85,1.12a22.5,22.5,0,0,1,.32,4.59V23.46a38.67,38.67,0,0,1-.14,4,5.78,5.78,0,0,1-.18.86c-.36,1.12-1.79,1.12-2.95,1.12H3.38V31s3.46-.16,5.77-.16c2,0,5.44.15,5.44.16V29.44h-.31c-1.16,0-2.47,0-2.85-1.12a4.74,4.74,0,0,1-.18-.86,35.71,35.71,0,0,1-.15-3.73V19.57c1.38,0,1.5.16,2.21,1,.13.16.28.34.46.54l6.15,7.63L21.73,31s2-.09,2.95-.09c1.4,0,3.47.09,3.47.09V29.47ZM11.1,17.87V8.81c0-.36,0-.86.29-1a18.09,18.09,0,0,1,2.32,0c3.16,0,5,1.85,5,5.07,0,2.35-.63,3.7-2,4.38S11.1,17.87,11.1,17.87Z"/></svg>