<?xml version="1.0" encoding="UTF-8" standalone="no"?>
<!-- Created with Inkscape (http://www.inkscape.org/) -->

<svg
   xmlns:dc="http://purl.org/dc/elements/1.1/"
   xmlns:cc="http://creativecommons.org/ns#"
   xmlns:rdf="http://www.w3.org/1999/02/22-rdf-syntax-ns#"
   xmlns:svg="http://www.w3.org/2000/svg"
   xmlns="http://www.w3.org/2000/svg"
   xmlns:sodipodi="http://sodipodi.sourceforge.net/DTD/sodipodi-0.dtd"
   xmlns:inkscape="http://www.inkscape.org/namespaces/inkscape"
   width="158.22057"
   height="91.904953"
   viewBox="0 0 41.862524 24.31652"
   version="1.1"
   id="svg8"
   inkscape:version="0.92.3 (2405546, 2018-03-11)"
   sodipodi:docname="Scania.svg">
  <defs
     id="defs2" />
  <sodipodi:namedview
     id="base"
     pagecolor="#00ffff"
     bordercolor="#666666"
     borderopacity="1.0"
     inkscape:pageopacity="0"
     inkscape:pageshadow="2"
     inkscape:zoom="2.8"
     inkscape:cx="233.06569"
     inkscape:cy="-7.7178849"
     inkscape:document-units="mm"
     inkscape:current-layer="layer1"
     showgrid="false"
     fit-margin-left="0.1"
     fit-margin-top="0.1"
     fit-margin-right="0.1"
     fit-margin-bottom="0.1"
     units="px"
     inkscape:window-width="1920"
     inkscape:window-height="1001"
     inkscape:window-x="-9"
     inkscape:window-y="-9"
     inkscape:window-maximized="1" />
  <metadata
     id="metadata5">
    <rdf:RDF>
      <cc:Work
         rdf:about="">
        <dc:format>image/svg+xml</dc:format>
        <dc:type
           rdf:resource="http://purl.org/dc/dcmitype/StillImage" />
        <dc:title></dc:title>
      </cc:Work>
    </rdf:RDF>
  </metadata>
  <g
     inkscape:label="Layer 1"
     inkscape:groupmode="layer"
     id="layer1"
     transform="translate(-21.134188,-129.50247)">
    <g
       id="g10"
       transform="matrix(0.23789477,0,0,-0.23789477,19.075815,165.60948)">
      <g
         id="g12"
         transform="scale(0.1)">
        <path
           d="m 969.832,1447.03 c 76.038,0 151.558,9.21 224.518,27.65 l 9.22,2.3 6.91,-6.4 c 52.22,-48.39 88.06,-110.85 103.94,-180.74 l 2.04,-9.22 -6.65,-6.91 C 1204.34,1164.91 1127.02,1030.5 1086.32,885.605 l -2.56,-9.214 -9.22,-2.817 c -33.28,-10.238 -68.61,-15.617 -104.708,-15.617 -35.328,0 -70.656,5.379 -104.961,16.129 l -8.961,2.816 -2.558,8.957 C 812.391,1030.5 735.078,1164.65 629.348,1273.71 l -6.657,6.91 2.047,9.22 c 15.871,69.63 52.227,132.35 104.961,181.25 l 6.914,6.4 9.215,-2.3 c 74.754,-18.69 150.02,-28.16 224.004,-28.16"
           style="fill:#112c5c;fill-opacity:1;fill-rule:evenodd;stroke:none"
           id="path16"
           inkscape:connector-curvature="0" />
        <path
           d="m 664.676,1211.5 c 0,81.67 31.746,158.21 89.344,215.82 57.605,57.59 134.148,89.34 215.558,89.34 81.672,0 158.212,-31.75 215.812,-89.34 57.6,-57.61 89.35,-134.15 89.35,-215.82 0,-167.94 -136.97,-304.902 -305.162,-304.902 -81.41,0 -157.953,31.742 -215.558,89.347 -57.598,57.595 -89.344,134.145 -89.344,215.555"
           style="fill:#112c5c;fill-opacity:1;fill-rule:evenodd;stroke:none"
           id="path18"
           inkscape:connector-curvature="0" />
        <path
           d="m 744.25,1447.65 c -22.437,-21.45 -41.863,-46.06 -57.496,-73.11 -15.277,-26.44 -26.945,-55.21 -34.289,-85.63 52.617,-54.99 98.66,-116.12 136.828,-182.27 37.41,-64.82 67.332,-134.593 88.531,-208.206 14.035,-4.106 28.531,-7.375 43.43,-9.664 15.824,-2.434 32.047,-3.739 48.578,-3.739 16.852,0 33.278,1.223 49.258,3.602 14.55,2.168 28.72,5.277 42.5,9.289 21.24,73.773 51.18,143.798 88.64,208.878 38.06,66.1 83.96,127.23 136.46,182.11 -7.35,30.41 -18.92,59.18 -34.11,85.65 -15.4,26.83 -34.49,51.25 -56.66,72.58 -35.83,-8.81 -72.46,-15.61 -109.71,-20.24 -38.18,-4.74 -77.03,-7.2 -116.378,-7.2 -39.773,0 -78.973,2.66 -117.594,7.66 -36.804,4.77 -72.781,11.62 -107.988,20.29 z m -74.184,-63.45 c 17.481,30.23 39.414,57.59 64.844,81.15 l 3.856,3.58 5.05,-1.28 c 36.387,-9.16 73.329,-16.33 110.84,-21.19 37.473,-4.85 75.848,-7.43 115.176,-7.43 38.588,0 76.658,2.41 114.038,7.05 38.31,4.76 75.88,11.85 112.49,21.06 l 5.07,1.28 3.84,-3.58 c 25.25,-23.52 46.86,-50.7 64.07,-80.69 16.92,-29.49 29.61,-61.77 37.32,-96.04 l 1.15,-5.07 -3.6,-3.72 c -52.82,-54.61 -98.99,-115.78 -137.22,-182.19 -37.61,-65.33 -67.45,-135.591 -88.28,-209.521 l -1.42,-5.054 -5.04,-1.551 c -16.39,-5.063 -33.19,-8.91 -50.36,-11.469 -16.99,-2.535 -34.359,-3.836 -52.058,-3.836 -17.477,0 -34.66,1.387 -51.445,3.969 -17.481,2.687 -34.598,6.707 -51.227,11.848 l -5.031,1.554 -1.422,5.051 c -20.793,73.77 -50.613,143.769 -88.176,208.859 -38.34,66.43 -84.656,127.62 -137.59,182.34 l -3.589,3.71 1.14,5.08 c 7.68,34.25 20.504,66.55 37.574,96.09"
           style="fill:#deddde;fill-opacity:1;fill-rule:nonzero;stroke:none"
           id="path20"
           inkscape:connector-curvature="0" />
        <path
           d="m 672.418,1211.5 c 0,82.12 33.266,156.45 87.031,210.26 53.809,53.85 128.114,87.16 210.129,87.16 82.152,0 156.512,-33.28 210.322,-87.09 53.81,-53.82 87.09,-128.17 87.09,-210.33 0,-82.02 -33.3,-156.32 -87.15,-210.13 -53.82,-53.765 -128.14,-87.03 -210.262,-87.03 -82.027,0 -156.32,33.281 -210.101,87.06 -53.782,53.78 -87.059,128.07 -87.059,210.1 z m 100.695,196.67 c -50.265,-50.31 -81.363,-119.83 -81.363,-196.67 0,-76.7 31.109,-146.15 81.395,-196.44 50.281,-50.275 119.738,-81.388 196.433,-81.388 76.832,0 146.362,31.101 196.672,81.368 50.3,50.26 81.41,119.73 81.41,196.46 0,76.82 -31.11,146.35 -81.42,196.66 -50.32,50.32 -119.84,81.43 -196.662,81.43 -76.734,0 -146.203,-31.11 -196.465,-81.42"
           style="fill:#deddde;fill-opacity:1;fill-rule:nonzero;stroke:none"
           id="path22"
           inkscape:connector-curvature="0" />
        <path
           d="m 868.574,1226.22 c 9.586,1.86 19.149,1.23 27.633,-1.87 8.297,-3.02 15.543,-8.38 20.777,-16.02 l 4.68,-10.98 -10.945,4.02 c -16.278,8.79 -32.664,3.92 -48.762,-0.87 -20.48,-6.08 -40.547,-12.04 -61.492,5.66 -4.262,3.01 -7.766,7.57 -10.547,12.22 -2.699,4.51 -4.715,9.07 -6.047,12.26 l -6.75,16.2 14.074,-10.48 c 0.082,-0.06 29.164,-22.42 77.094,-10.19 l 0.285,0.05"
           style="fill:#deddde;fill-opacity:1;fill-rule:nonzero;stroke:none"
           id="path24"
           inkscape:connector-curvature="0" />
        <path
           d="m 963.176,1306.23 c -20.477,0 -39.422,-3.85 -46.848,-14.34 0,0 -8.191,-7.68 -9.726,-14.34 0,0 -52.481,35.59 -68.864,-41.73 0,0 31.742,22.79 49.918,7.94 0,0 9.215,-13.06 26.114,-17.41 23.039,-6.15 20.48,-10.75 21.503,-15.62 0,0 -3.074,-7.16 -23.039,-19.71 -19.711,-12.8 -30.976,-6.66 -49.152,-0.77 0,0 -1.281,-26.88 34.813,-26.37 0,0 5.89,-0.51 13.058,0.26 0,0 -43.265,-18.18 -26.883,-62.72 0,0 14.848,17.92 31.235,22.02 0,0 -46.848,-53.25 15.105,-105.23 0,0 0,47.62 17.664,62.22 0,0 9.727,-37.89 6.656,-58.63 0,0 -0.769,-18.17 -6.402,-27.648 0,0 73.472,1.536 52.482,89.858 0,0 29.44,-9.99 23.3,-50.18 0,0 66.05,33.03 22.53,100.87 0,0 24.83,0 32.51,-29.7 0,0 35.33,54.53 -23.04,106.5 0,0 22.02,5.38 34.05,-12.8 0,0 -1.54,41.48 -40.71,61.7 -8.96,4.86 5.12,19.2 1.54,27.14 l -87.814,18.69"
           style="fill:#ce0f3e;fill-opacity:1;fill-rule:evenodd;stroke:none"
           id="path26"
           inkscape:connector-curvature="0" />
        <path
           d="m 1008.75,1274.48 c 0,0 23.8,30.21 59.39,26.11 0,0 -9.98,-44.54 -49.15,-52.73 l -10.24,26.62"
           style="fill:#ce0f3e;fill-opacity:1;fill-rule:evenodd;stroke:none"
           id="path28"
           inkscape:connector-curvature="0" />
        <path
           d="m 1020.27,1270.13 c 0,0 13.57,13.31 29.95,16.12 0,0 -8.19,-19.2 -26.88,-23.04 l -3.07,6.92"
           style="fill:#deddde;fill-opacity:1;fill-rule:evenodd;stroke:none"
           id="path30"
           inkscape:connector-curvature="0" />
        <path
           d="m 950.121,1227.12 c -4.351,3.07 -9.984,4.35 -14.594,2.04 14.082,-0.5 16.387,-20.48 31.746,-16.38 2.817,0.77 5.379,2.05 7.68,3.59 -9.984,-4.1 -18.176,5.11 -24.832,10.75"
           style="fill:#deddde;fill-opacity:1;fill-rule:evenodd;stroke:none"
           id="path32"
           inkscape:connector-curvature="0" />
        <path
           d="m 1030.23,1169.98 c -1.77,8.25 -4.58,14.49 -8.53,19.39 -5.08,6.3 -12.06,10.38 -21.15,13.68 2.02,-8.82 4.45,-17.62 4.51,-26.73 0.06,-8.5 -1.79,-15.82 -5.529,-21.91 -2.73,-4.37 -6.179,-7.54 -9.5,-9.83 3.176,8.42 3.383,15.6 2.367,21.31 -1.898,10.66 -7.988,16.24 -14.882,23.59 -0.297,-6.55 -0.192,-13.28 -1.844,-19.68 -2.102,-8.14 -6.152,-13.07 -10.297,-16.07 2.984,9.19 0.836,17.83 -1.43,22.19 l -8.703,-4.61 c 0.137,-0.42 4.028,-8.27 -0.359,-17.24 -2.922,-5.98 -8.836,-10.64 -13.465,-15.27 17.609,1.05 33.582,2.91 41.785,22.59 0.805,-13.19 -7.254,-23.7 -14.394,-33.86 15.738,3.15 28.964,6.34 38.651,21.51 6.06,9.36 8.24,20.75 6.9,34.28 9.09,-12.2 7.95,-28.08 7.95,-42.48 11.96,14.49 20.85,28.14 20.71,48.48 -0.1,13.51 -4.97,29.23 -20.45,44.71 l -3.32,-10.24 c 17.44,-22.16 15.39,-41.72 10.98,-53.81"
           style="fill:#deddde;fill-opacity:1;fill-rule:evenodd;stroke:none"
           id="path34"
           inkscape:connector-curvature="0" />
        <path
           d="m 890.848,1215.98 c -6.258,1.86 -13.211,2.14 -20.25,0.81 -31.879,-8.12 -56.457,-2 -70.836,4.05 1.886,-2.77 4.035,-5.28 6.406,-6.91 l 0.23,-0.16 0.145,-0.13 c 17.039,-14.48 34.684,-9.24 52.695,-3.89 10.356,3.08 20.821,6.19 31.61,6.23"
           style="fill:#ce0f3e;fill-opacity:1;fill-rule:nonzero;stroke:none"
           id="path36"
           inkscape:connector-curvature="0" />
        <path
           d="m 979.816,1332.85 c 6.145,-10.24 16.129,-23.81 28.674,-23.81 12.8,0 20.48,5.63 26.63,15.87 -3.59,-0.51 -4.61,-0.51 -8.2,0.52 -7.93,2.81 -11.77,10.75 -10.24,20.99 2.57,8.96 11.52,14.08 20.23,11.52 3.07,-1.03 5.63,-2.56 7.42,-4.61 -2.04,3.84 -2.81,8.71 -1.54,13.05 2.57,8.96 13.06,16.14 22.28,14.6 l -35.84,-88.32 H 910.953 l -36.098,84.22 c 8.961,1.54 19.458,-5.63 22.016,-14.59 1.281,-4.35 0.516,-7.68 -1.535,-11.27 1.793,2.05 4.609,5.89 7.426,6.92 8.703,2.56 18.687,-5.12 21.246,-13.83 1.539,-10.24 -1.789,-16.64 -9.727,-19.45 -3.586,-0.77 -6.656,-0.26 -10.238,0.25 6.141,-10.24 15.359,-15.87 28.156,-15.87 12.547,0 21.762,13.57 27.906,23.81 -2.816,-2.05 -6.144,-3.08 -9.73,-3.08 -9.215,0 -16.383,7.43 -16.383,16.65 0,9.21 7.168,16.89 16.383,16.89 2.82,0 5.891,-0.77 8.195,-2.3 -3.07,3.07 -5.121,7.42 -5.121,12.03 0,9.22 7.426,16.64 16.383,16.64 9.219,0 16.645,-7.42 16.645,-16.64 0,-4.61 -2.305,-9.22 -5.379,-12.29 2.562,1.54 5.379,2.56 8.449,2.56 9.219,0 16.383,-7.68 16.383,-16.89 0,-9.22 -7.164,-16.65 -16.383,-16.65 -3.586,0 -9.731,3.08 -9.731,3.08"
           style="fill:#e2ad25;fill-opacity:1;fill-rule:evenodd;stroke:none"
           id="path38"
           inkscape:connector-curvature="0" />
        <path
           d="m 940.754,1270.65 c -1.492,0.12 -3.227,0.15 -5.238,0 -0.239,-4.87 -3.993,-8.46 -8.946,-8.46 -4.394,0 -8.027,2.83 -8.976,6.86 -1.813,0.2 -3.438,0.54 -4.879,0.97 1.133,-5.28 4.086,-11.54 11.644,-12.96 0.028,-0.01 10.668,-2.26 15.207,10.76 l 0.016,0.06 c 0.371,1.02 0.762,1.94 1.172,2.77 z m -17.035,21.98 c -1.367,-1.07 -2.531,-2.24 -3.446,-3.54 l -0.265,-0.37 -0.34,-0.33 c -0.012,-0.01 -4.469,-4.21 -6.938,-8.51 2.481,-1.33 7.606,-2.84 16.543,-0.6 l 0.368,0.07 c 11.773,1.99 19.136,-0.65 22.656,-2.55 5,-1.53 9.219,-6.32 9.238,-6.34 l -6.957,-6.3 c -0.012,0.02 -4.547,5.13 -6.207,0.54 v 0 c -7.25,-20.71 -25.68,-16.84 -25.734,-16.83 -16.442,3.09 -19.43,18.84 -19.91,26.42 -6.942,4.09 -41.93,21.75 -57.418,-28.4 11.898,6.05 31.558,12.9 45.386,1.61 l 0.547,-0.45 0.321,-0.44 c 0.023,-0.04 8.242,-11.68 23.394,-15.58 l 0.039,-0.02 c 23.387,-6.23 24.094,-12.06 24.801,-17.93 0.062,-0.52 0.133,-1.05 0.195,-1.37 l 0.313,-1.48 -0.594,-1.38 c -0.012,-0.03 -3.668,-8.56 -24.914,-21.91 v 0.01 c -18.684,-12.12 -30.281,-9 -45.555,-3.85 2.438,-6.33 9.309,-14.65 28.598,-14.39 h 0.34 c 0.015,0 5.691,-0.48 12.261,0.22 l 31.731,3.4 -29.313,-12.63 c -0.105,-0.04 -34.015,-14.3 -26.519,-48.89 6.203,5.99 16.578,14.5 27.797,17.31 l 14.66,3.66 -9.832,-11.48 c -0.113,-0.14 -39.68,-45.1 7.078,-91.59 1.145,15.52 5.117,44 18.953,55.43 l 5.84,4.83 1.898,-7.33 c 0.028,-0.12 9.864,-38.43 6.825,-60.16 -0.071,-1.35 -0.68,-12.07 -3.582,-21.527 17.168,3.317 55.563,18.027 40.132,82.947 l -2.054,8.65 8.375,-2.99 c 0.09,-0.03 28.12,-9.56 27.34,-45.47 15.11,10.97 44.06,40.29 12.8,89 l -4.84,7.57 8.96,-0.12 c 0.07,-0.01 21.85,-0.02 33.06,-22.34 6.66,17.1 13.95,54.37 -26.85,90.7 l -6.92,6.15 9.02,2.15 c 0.05,0.01 14.69,3.59 27.81,-4 -3.72,13 -12.91,32.21 -35.56,43.91 l -0.1,0.06 c -0.1,0.06 -0.2,0.11 -0.29,0.17 -7.08,-6 -15.91,-10.91 -26.89,-13.21 l -1.97,9.44 c 21.81,4.56 40.14,30.64 43.8,43.57 -29.69,0.18 -49.24,-24.61 -49.3,-24.68 l -7.51,6.04 c 0.08,0.09 25.45,32.29 63.7,27.89 l 5.4,-0.62 -1.25,-5.27 c -0.02,-0.09 -4.43,-19.74 -18.81,-36.09 39.38,-21.95 40.95,-64.36 40.96,-64.48 l 0.89,-17.61 -9.74,14.72 c -5.2,7.85 -12.63,10.48 -18.66,11.19 49.78,-52.24 15.85,-104.64 15.75,-104.79 l -5.95,-9.44 -2.8,10.79 c -3.66,14.17 -11.55,20.64 -18.01,23.59 34.19,-65.67 -29.98,-97.75 -30.17,-97.85 l -8.39,-4.31 1.42,9.33 c 3.36,21.94 -4.71,33.76 -11.62,39.68 13.92,-83.355 -59.015,-84.906 -59.23,-84.91 l -8.808,-0.297 4.504,7.582 c 5.008,8.415 5.719,25.325 5.722,25.365 l 0.008,0.19 0.047,0.34 c 2.012,13.56 -1.785,35.09 -4.387,47.35 -10.308,-17.63 -10.324,-51.54 -10.324,-51.65 l -0.074,-10.27 -7.855,6.59 c -45.04,37.78 -35.774,76.31 -25.438,96.88 -8.207,-5.97 -14.098,-13.06 -14.121,-13.1 l -5.348,-6.34 -2.863,7.8 c -11.027,29.98 2.531,49.05 14.687,59.33 -37.402,1.33 -35.984,31.27 -35.984,31.35 l 0.254,6.36 6.051,-1.96 c 2.367,-0.77 4.043,-1.34 5.672,-1.89 13.793,-4.68 23.742,-8.05 39.386,2.11 l 0.055,0.04 c 14.305,8.98 19.113,14.46 20.582,16.55 -0.008,0.1 -0.023,0.2 -0.035,0.3 -0.316,2.6 -0.633,5.19 -17.629,9.73 l -0.004,-0.01 c -16.566,4.26 -26.433,16.11 -28.441,18.72 -15.414,11.7 -43.547,-8.46 -43.629,-8.51 l -10.035,-7.06 2.543,12 c 9.359,44.16 29.785,54.37 47.14,54.06 8.477,-0.15 16.672,-2.8 24.242,-6.45 1.676,2.91 3.707,5.62 5.895,8.2 h 13.426"
           style="fill:#deddde;fill-opacity:1;fill-rule:nonzero;stroke:none"
           id="path40"
           inkscape:connector-curvature="0" />
        <path
           d="m 1736.06,770.914 h -154.88 l -81.16,-200.453 0.26,200.711 h -104.19 v -269.32 h 182.27 l 16.39,40.961 h 130.05 l 18.68,-40.961 h 101.64 z M 1273.97,626.27 1163.89,771.172 h -132.1 V 571.23 L 948.844,770.914 H 796.008 L 732.004,610.91 h -95.492 c -7.934,-33.535 -26.11,-48.387 -59.137,-48.387 -37.887,0 -63.488,28.165 -63.488,70.149 0,54.527 21.508,82.691 62.722,82.691 33.793,0 52.993,-15.105 58.879,-46.597 h 108.293 l 0.254,4.101 c 0,65.024 -65.789,107.774 -165.89,107.774 -107.012,0 -157.7,-41.727 -166.407,-137.473 -15.355,16.641 -40.445,29.699 -59.39,31.23 l -40.45,3.586 -59.648,1.024 c -25.602,0.512 -40.195,9.472 -40.195,24.578 0,17.152 14.847,26.625 41.988,26.625 31.23,0 43.777,-11.52 43.777,-39.938 h 113.918 v 3.582 c 0,55.555 -53.758,86.278 -151.297,86.278 -108.289,0 -161.2847,-29.699 -161.2847,-89.86 0,-51.457 38.9137,-79.105 113.4137,-81.152 l 44.289,-1.027 c 32.512,-1.024 47.106,-8.961 47.106,-26.114 0,-14.593 -20.481,-28.414 -41.731,-28.414 -37.121,0 -56.578,12.797 -56.578,36.864 H 87.6367 v -2.559 c 0,-58.371 58.8833,-90.371 165.8943,-90.371 103.168,0 153.86,22.527 170.242,76.035 33.028,-56.324 76.036,-76.805 159.75,-76.805 53.247,0 80.899,7.426 115.457,32.516 l -11.011,-27.394 h 100.613 l 18.434,41.988 h 132.097 l 17.664,-41.477 h 172.543 v 159.492 l 122.63,-160.003 h 122.12 v 269.062 h -100.1 V 626.27 Z m 348.68,-15.872 35.58,89.09 40.45,-88.578 z m -787.986,0 35.84,91.907 40.961,-91.907 h -76.801"
           style="fill:#112c5c;fill-opacity:1;fill-rule:evenodd;stroke:none"
           id="path42"
           inkscape:connector-curvature="0" />
      </g>
    </g>
  </g>
</svg>
