<?xml version="1.0" encoding="UTF-8" standalone="no"?>
<!-- Created with Inkscape (http://www.inkscape.org/) -->

<svg
   width="200.85258mm"
   height="123.0222mm"
   viewBox="0 0 200.85258 123.0222"
   version="1.1"
   id="svg5"
   inkscape:version="1.1 (ce6663b3b7, 2021-05-25)"
   sodipodi:docname="logo_walmart_labs.svg"
   xmlns:inkscape="http://www.inkscape.org/namespaces/inkscape"
   xmlns:sodipodi="http://sodipodi.sourceforge.net/DTD/sodipodi-0.dtd"
   xmlns="http://www.w3.org/2000/svg"
   xmlns:svg="http://www.w3.org/2000/svg">
  <sodipodi:namedview
     id="namedview7"
     pagecolor="#ffffff"
     bordercolor="#666666"
     borderopacity="1.0"
     inkscape:pageshadow="2"
     inkscape:pageopacity="0.0"
     inkscape:pagecheckerboard="0"
     inkscape:document-units="mm"
     showgrid="false"
     fit-margin-top="0"
     fit-margin-left="0"
     fit-margin-right="0"
     fit-margin-bottom="0"
     inkscape:zoom="0.75187991"
     inkscape:cx="-76.474979"
     inkscape:cy="284.61992"
     inkscape:window-width="2560"
     inkscape:window-height="1043"
     inkscape:window-x="0"
     inkscape:window-y="0"
     inkscape:window-maximized="1"
     inkscape:current-layer="layer1" />
  <defs
     id="defs2">
    <style
       id="style9">.cls-1{fill:none}.cls-2{fill:#fff;fill-opacity:0}.cls-3{clip-path:url(#clip-path)}.cls-4{fill:#2b284d}</style>
    <clipPath
       id="clip-path">
      <path
         class="cls-1"
         d="M -470.034,-286.856 H 869.468 V 533.589 H -470.034 Z"
         id="path11" />
    </clipPath>
  </defs>
  <g
     inkscape:label="Layer 1"
     inkscape:groupmode="layer"
     id="layer1"
     transform="translate(-4.191041,-73.157262)">
    <g
       id="g32"
       transform="matrix(0.50213145,0,0,0.50213145,4.6931725,72.655131)">
      <path
         id="ee-background"
         class="cls-2"
         d="M -1,1 H 399 V 246 H -1 Z" />
      <g
         class="cls-3"
         clip-path="url(#clip-path)"
         id="g21">
        <path
           class="cls-4"
           d="m 218.607,122.278 a 5.696,5.696 0 0 1 -0.204,1.65 5.78,5.78 0 0 1 -5.555,3.899 3.76,3.76 0 0 1 -4.096,-4.032 c 0,-4.19 4.598,-5.348 9.855,-5.318 z m 8.7,-7.294 c 0,-6.901 -2.95,-12.98 -12.912,-12.98 a 23.592,23.592 0 0 0 -11.393,2.72 l 1.618,5.549 a 16.722,16.722 0 0 1 8.318,-2.338 c 5.05,-0.013 5.88,2.863 5.88,4.705 v 0.439 c -11.03,-0.017 -18,3.797 -18,11.573 0,4.749 3.55,9.2 9.732,9.2 a 11.045,11.045 0 0 0 8.864,-3.942 h 0.191 c 0,0 1.253,5.27 8.191,3.255 a 44.461,44.461 0 0 1 -0.489,-7.344 z m 40.547,-5.03 v -7.758 h -7.17 v -9.591 h -8.127 v 29.92 c 0,4.126 0.784,7.016 2.448,8.781 a 9.14,9.14 0 0 0 6.7,2.545 19.566,19.566 0 0 0 5.962,-0.884 l -0.11,-6.436 a 12.414,12.414 0 0 1 -3.122,0.372 c -2.81,0 -3.75,-1.795 -3.75,-5.5 v -11.448 z m -28.873,-1.513 h -0.217 v -5.75 h -7.471 v 30.474 h 8.505 v -15.602 a 11.034,11.034 0 0 1 0.188,-2.25 6.41,6.41 0 0 1 6.718,-5.358 15.527,15.527 0 0 1 2.447,0.217 v -7.976 a 8.352,8.352 0 0 0 -1.868,-0.191 8.993,8.993 0 0 0 -8.302,6.436 z m -51.169,-6.436 a 11.009,11.009 0 0 0 -6.01,1.657 12.87,12.87 0 0 0 -3.862,3.791 h -0.124 a 8.679,8.679 0 0 0 -8.392,-5.448 9.569,9.569 0 0 0 -8.867,4.829 h -0.124 v -4.143 h -7.863 v 30.474 h 8.285 v -17.872 a 7.013,7.013 0 0 1 0.392,-2.492 5.588,5.588 0 0 1 5.023,-3.905 c 3.342,0 4.909,2.823 4.909,6.902 v 17.367 h 8.271 v -18.087 a 8.414,8.414 0 0 1 0.345,-2.471 5.21,5.21 0 0 1 4.973,-3.71 c 3.376,0 5.007,2.776 5.007,7.574 v 16.694 h 8.268 v -17.946 c 0,-9.467 -4.802,-13.214 -10.23,-13.214 z m -61.44,20.273 a 5.696,5.696 0 0 1 -0.204,1.65 5.786,5.786 0 0 1 -5.569,3.899 3.756,3.756 0 0 1 -4.082,-4.032 c 0,-4.19 4.602,-5.348 9.856,-5.318 z m 8.704,-7.294 c 0,-6.901 -2.95,-12.98 -12.916,-12.98 a 23.618,23.618 0 0 0 -11.396,2.72 l 1.621,5.549 a 16.709,16.709 0 0 1 8.315,-2.338 c 5.053,-0.013 5.884,2.863 5.884,4.705 v 0.439 c -11.031,-0.017 -17.99,3.797 -17.99,11.573 0,4.749 3.547,9.2 9.705,9.2 a 11.028,11.028 0 0 0 8.867,-3.942 h 0.188 c 0,0 1.27,5.27 8.208,3.255 a 44.854,44.854 0 0 1 -0.486,-7.344 z m -32.737,-22.38 -3.66,17.535 c -0.985,5.103 -1.872,9.095 -2.562,13.763 h -0.124 c -0.623,-4.624 -1.42,-8.452 -2.418,-13.425 L 89.767,92.605 H 80.75 l -4.072,17.42 c -1.152,5.294 -2.233,9.57 -2.92,14.081 h -0.124 c -0.703,-4.246 -1.64,-9.62 -2.655,-14.744 0,0 -2.418,-12.464 -3.265,-16.757 H 58.6 c 0,0 7.2,29.509 8.351,34.298 1.34,5.589 3.754,7.652 10.726,6.262 l 4.494,-18.301 c 1.142,-4.541 1.906,-7.78 2.64,-12.404 h 0.13 a 120.7,120.7 0 0 0 2.183,12.424 c 0,0 1.832,8.305 2.766,12.668 0.945,4.36 3.557,7.106 10.385,5.613 l 10.712,-40.56 z m 37.224,40.56 h 8.235 v -40.56 h -8.235 z M 293.281,92.605 h -7.759 v 40.637 h 24.342 v -6.42 H 293.281 V 92.605 m 35.879,29.673 a 5.583,5.583 0 0 1 -0.208,1.65 5.776,5.776 0 0 1 -5.552,3.899 3.758,3.758 0 0 1 -4.096,-4.032 c 0,-4.19 4.595,-5.348 9.856,-5.318 z m 8.7,-7.294 c 0,-6.901 -2.95,-12.98 -12.913,-12.98 a 23.592,23.592 0 0 0 -11.392,2.72 l 1.614,5.549 a 16.732,16.732 0 0 1 8.318,-2.338 c 5.053,-0.013 5.884,2.863 5.884,4.705 v 0.439 c -11.031,-0.017 -18,3.797 -18,11.573 0,4.749 3.547,9.2 9.728,9.2 a 11.047,11.047 0 0 0 8.868,-3.942 h 0.187 c 0,0 1.256,5.27 8.191,3.255 a 44.853,44.853 0 0 1 -0.485,-7.344 v -10.837 m 19.905,12.87 a 7.162,7.162 0 0 1 -6.915,-5.318 8.133,8.133 0 0 1 -0.191,-1.788 v -4.886 a 8.834,8.834 0 0 1 0.254,-1.98 7.265,7.265 0 0 1 6.916,-5.565 c 5.204,0 7.806,4.33 7.806,9.644 0,6.062 -2.98,9.893 -7.87,9.893 z m 2.92,-25.47 c -4.631,0 -7.993,1.915 -9.899,4.821 h -0.127 V 92.82 h -7.806 v 31.884 c 0,0.917 0.013,1.62 0.023,2.226 a 41.476,41.476 0 0 1 -0.468,6.152 c 6.178,1.795 7.993,-2.177 8.318,-3.07 a 10.862,10.862 0 0 0 8.817,3.84 c 6.979,0 14.025,-5.378 14.025,-16.198 0.06,-9.148 -5.332,-15.27 -12.883,-15.27 m 28.19,12.798 c -3.935,-1.36 -5.395,-2.29 -5.395,-4.206 0,-1.855 1.524,-3.155 4.313,-3.155 a 14.122,14.122 0 0 1 6.537,1.735 l 1.524,-5.378 a 18.535,18.535 0 0 0 -8.185,-1.795 c -7.173,0 -11.677,4.143 -11.677,9.46 -0.063,3.523 2.475,6.738 8.506,8.777 3.804,1.3 5.073,2.348 5.073,4.39 0,1.98 -1.523,3.34 -4.95,3.34 a 17.803,17.803 0 0 1 -7.932,-2.164 l -1.52,5.502 a 20.368,20.368 0 0 0 9.39,2.1 c 8.184,0 12.564,-3.955 12.564,-9.397 -0.064,-4.45 -2.666,-7.233 -8.248,-9.209 M 9.699,126.42 19.427,90.234 h 1.447 l -9.36,34.787 h 20.558 a 0.702,0.702 0 0 1 0.7,0.7 0.7,0.7 0 0 1 -0.7,0.7 z m 34.94,-7.916 H 21.216 L 29.668,86.741 H 12.461 l -9.815,36.917 c -1.466,5.552 2.033,10.093 7.776,10.096 H 21.098 L 14.27,159.61 a 0.304,0.304 0 0 0 0.536,0.261 l 30.433,-40.155 a 0.755,0.755 0 0 0 -0.6,-1.212"
           id="path19" />
      </g>
    </g>
  </g>
</svg>
