<svg id="Layer_1" data-name="Layer 1" xmlns="http://www.w3.org/2000/svg" viewBox="0 0 500 171.38"><defs><style>.cls-1{fill:#fff;}.cls-2{fill:#fec514;}.cls-3{fill:#00bfb3;}.cls-4{fill:#f04e98;}.cls-5{fill:#1ba9f5;}.cls-6{fill:#93c90e;}.cls-7{fill:#07c;}.cls-8{fill:#1c1e23;}</style></defs><title>logo-elastic-horizontal-color</title><g id="logo-elastic-horizontal-color"><path class="cls-1" d="M172.05,89.79a33.85,33.85,0,0,0-22.39-31.93,48.11,48.11,0,0,0,.9-9.25,48.59,48.59,0,0,0-88-28.45,25.81,25.81,0,0,0-40,29.4A34.31,34.31,0,0,0,0,81.62a33.88,33.88,0,0,0,22.5,32,49.73,49.73,0,0,0-.89,9.24,48.46,48.46,0,0,0,87.86,28.26,25.77,25.77,0,0,0,40-29.29,34.29,34.29,0,0,0,22.57-32.06"/><path class="cls-2" d="M67.64,73.81,105.29,91l38-33.28a42,42,0,0,0,.81-8.34,42.46,42.46,0,0,0-77.48-24L60.29,58.12Z"/><path class="cls-3" d="M28.67,113.68a43.14,43.14,0,0,0-.83,8.47,42.57,42.57,0,0,0,77.77,23.94l6.27-32.67-8.37-16L65.72,80.2Z"/><path class="cls-4" d="M28.44,48.53l25.8,6.09,5.65-29.34A20.38,20.38,0,0,0,28.44,48.53"/><path class="cls-5" d="M26.2,54.67a28.74,28.74,0,0,0-19.55,27A28.44,28.44,0,0,0,25,108.28l36.2-32.72-6.65-14.2Z"/><path class="cls-6" d="M112.23,146.09a20.35,20.35,0,0,0,31.39-23.2l-25.78-6Z"/><path class="cls-7" d="M117.47,110.1l28.38,6.63a28.7,28.7,0,0,0,19.55-27,28.41,28.41,0,0,0-18.34-26.54L109.94,95.69Z"/><path class="cls-8" d="M240.56,120.4l3.44-.35.24,7a171,171,0,0,1-23.12,1.9q-12.8,0-18.14-7.41t-5.33-23.06q0-31.17,24.78-31.18,12,0,17.9,6.7t5.92,21l-.47,6.76H206.66q0,9.84,3.56,14.58t12.38,4.74Q231.44,121.11,240.56,120.4Zm-3.2-25.72q0-10.91-3.49-15.41t-11.38-4.51q-7.89,0-11.86,4.74t-4.09,15.18Z"/><path class="cls-8" d="M258.65,128.48v-78h8.89v78Z"/><path class="cls-8" d="M323.53,86.38v29.9c0,3,7.38,2.84,7.38,2.84l-.45,7.86c-6.25,0-11.42.52-14.52-2.49a51.71,51.71,0,0,1-21.33,4.45q-8.17,0-12.45-4.63T277.89,111q0-8.66,4.39-12.75t13.75-5l18.61-1.77v-5.1q0-6-2.6-8.66a9.65,9.65,0,0,0-7.12-2.6l-23.36,0V67.29h22.77q10.08,0,14.64,4.63T323.53,86.38ZM287,110.56q0,10.91,9,10.91a47.93,47.93,0,0,0,15.89-2.73l2.72-.95V98.23L297.1,99.89q-5.34.48-7.71,3.08T287,110.56Z"/><path class="cls-8" d="M358.24,75.24q-12.93,0-12.93,9,0,4.16,3,5.87t13.51,3.56q10.56,1.85,14.94,5.16t4.39,12.44q0,9.14-5.87,13.4t-17.13,4.27c-4.9,0-21.26-1.82-21.26-1.82l.48-7.7c9.4.9,16.19,1.57,20.78,1.57s8.08-.73,10.49-2.19,3.61-3.91,3.61-7.35-1-5.77-3.08-7-6.56-2.39-13.51-3.5-11.9-2.73-14.82-4.86-4.39-6.09-4.39-11.86,2-10,6.11-12.8,9.15-4.15,15.23-4.15c4.82,0,21.55,1.23,21.55,1.23v7.75C370.51,75.87,363.29,75.24,358.24,75.24Z"/><path class="cls-8" d="M424,76.18H405.15v28.34q0,10.19,1.48,13.39c1,2.14,3.34,3.2,7.05,3.2l10.55-.71.6,7.35a81.28,81.28,0,0,1-12.1,1.31q-9.24,0-12.8-4.51t-3.55-17.19V76.18H388v-7.7h8.42V50.34h8.77V68.48H424Z"/><path class="cls-8" d="M436.36,60.91V50.59h8.89V60.91Zm0,67.57v-60h8.89v60Z"/><path class="cls-8" d="M483.76,67.29A102.62,102.62,0,0,1,497,68.72l2.84.35-.35,7.23a139.18,139.18,0,0,0-14-1.06q-10.08,0-13.69,4.8t-3.62,17.78q0,13,3.38,18.08T485.66,121l14-1.06.36,7.35a122.94,122.94,0,0,1-16.48,1.66q-13.86,0-19.14-7.12t-5.28-24q0-16.89,5.69-23.71T483.76,67.29Z"/></g></svg>