<svg id="Layer_1" data-name="Layer 1" xmlns="http://www.w3.org/2000/svg" viewBox="0 0 217.251 122.79"><defs><style>.cls-1{fill:#002e6d}</style></defs><path class="cls-1" d="m137.119 90.362-5.691 5.69a1.211 1.211 0 0 0 1.71 1.71l5.61-5.61a5.101 5.101 0 0 1-.724-.606 5.792 5.792 0 0 1-.905-1.184Zm-6.12-66.502h4.287c0-.182-.027-.364-.027-.536a5.927 5.927 0 0 1 .3-1.86h-4.726a5.943 5.943 0 0 1 .166 2.396Zm-53.003-2.245a1.751 1.751 0 0 0-.241 0 5.841 5.841 0 0 1 .086 2.38.766.766 0 0 0 .155 0h12.86a5.986 5.986 0 0 1 0-2.418ZM53.137 43.64l15.7-15.675a5.734 5.734 0 0 1-.969-.766 5.568 5.568 0 0 1-.766-.943L51.46 41.898a24.49 24.49 0 0 1 1.677 1.741Zm23.835-23.83 5.675-5.676a5.568 5.568 0 0 1-.948-.766 5.735 5.735 0 0 1-.766-.943l-5.665 5.664a5.733 5.733 0 0 1 .943.766 5.569 5.569 0 0 1 .761.954Zm42.404 4.249a5.927 5.927 0 0 1 .08-2.417h-17.035a6.12 6.12 0 0 1 .118 1.184 5.83 5.83 0 0 1-.134 1.233ZM12.196 82.447a5.734 5.734 0 0 1 .943.766 5.567 5.567 0 0 1 .767.943l5.594-5.594a22.43 22.43 0 0 1-1.811-1.608Zm133.224 0a5.734 5.734 0 0 1 .942.766 5.567 5.567 0 0 1 .767.943l4.989-4.989q-.98-.723-1.881-1.537ZM19.27 40.896l-5.359-5.36a5.895 5.895 0 0 1-1.71 1.71l5.284 5.284a23.531 23.531 0 0 1 1.785-1.634Zm181.928 17.528h-10.342q.032.61.032 1.238c0 .396 0 .788-.027 1.179h10.337a5.739 5.739 0 0 1 0-2.417Zm-53.276-14.356-17.813-17.812a5.568 5.568 0 0 1-.766.943 5.734 5.734 0 0 1-.943.766l18.059 18.064a23.887 23.887 0 0 1 1.463-1.961ZM57.67 59.662a22.935 22.935 0 0 0-5.514-15.037 23.469 23.469 0 0 0-1.677-1.747 22.732 22.732 0 0 0-15.68-6.087 22.823 22.823 0 0 0-14.554 5.096 22.26 22.26 0 0 0-1.784 1.608 23.176 23.176 0 0 0 .198 32.468 21.316 21.316 0 0 0 1.811 1.608 23.46 23.46 0 0 0 26.767 1.34l.493.492.504.504 4.244 4.244a5.568 5.568 0 0 1 .766-.943 5.735 5.735 0 0 1 .943-.766l-3.976-3.976-.493-.493-.482-.488a22.694 22.694 0 0 0 8.434-17.823ZM34.8 71.45c-6.967 0-10.83-5.155-10.83-11.79s3.868-11.853 10.83-11.853c6.826 0 10.824 5.22 10.824 11.854s-3.998 11.794-10.825 11.794Zm28.411-20.421c0 7.99 5.418 12.373 13.215 13.145.45.064 1.072.128 1.543.193 5.927.707 7.797 2.384 7.797 5.026 0 2.964-2.063 4.32-6.505 4.32a8.332 8.332 0 0 1-7.797-5.22c-.08-.322-.113-.445-.263-.445a1.8 1.8 0 0 0-.45.123l-7.926 3.216c-.45.193-.535.536-.257 1.221 2.192 6.318 7.669 9.86 16.435 9.86 10.112 0 18.3-4.383 18.3-14.302 0-8.038-4.769-12.437-13.016-13.6-.841-.129-1.549-.258-2.143-.322-5.804-.964-8.183-2.192-8.183-5.155 0-2.385 1.414-4.056 5.927-4.056a8.038 8.038 0 0 1 7.218 5.09c.085.215.203.349.412.349a1.002 1.002 0 0 0 .36-.091l7.54-3.028c.385-.129.642-.391.45-1.099-1.678-5.412-6.967-9.469-15.541-9.469-11.377.006-17.116 5.868-17.116 14.244Zm61.025-13.338h-19.463c-.225 0-.45.043-.45.579v42.516c0 .536 0 .584.338.584h10.68c.536 0 .584-.064.584-.584V70.422s7.277-.064 9.147-.257c8.247-.965 14.5-5.155 14.5-15.723 0-9.924-5.733-16.75-15.336-16.75Zm-2.883 23.07-5.412.192v-13.66h5.284c3.928 0 6.43 2.444 6.43 6.764-.005 3.686-1.811 6.51-6.302 6.703Zm45.281-23.971a22.474 22.474 0 0 0-19.168 10.236 23.043 23.043 0 0 0-3.708 12.63 22.539 22.539 0 0 0 9.346 18.52 22.967 22.967 0 0 0 13.53 4.287A22.56 22.56 0 0 0 189.48 60.83c0-.391.032-.782.032-1.179s0-.83-.032-1.238a22.614 22.614 0 0 0-22.845-21.622Zm0 34.666c-6.966 0-10.824-5.155-10.824-11.789s3.863-11.853 10.824-11.853c6.833 0 10.825 5.22 10.825 11.853s-3.992 11.79-10.825 11.79ZM62.349 90.603a5.568 5.568 0 0 1-.767.943 5.734 5.734 0 0 1-.943.766l5.445 5.45a1.211 1.211 0 0 0 1.709-1.71Z"/><path d="M147.129 84.156a5.567 5.567 0 0 0-.767-.943 5.734 5.734 0 0 0-.943-.766 5.895 5.895 0 0 0-8.3 7.915 5.793 5.793 0 0 0 .905 1.184 5.102 5.102 0 0 0 .724.606 5.895 5.895 0 0 0 8.38-7.996Zm-50.485-67.23a5.895 5.895 0 0 0-5.771 4.689 5.986 5.986 0 0 0 0 2.417 5.895 5.895 0 0 0 11.532 0 5.83 5.83 0 0 0 .134-1.233 6.12 6.12 0 0 0-.118-1.184 5.895 5.895 0 0 0-5.777-4.689Z" style="fill:#febe85"/><path d="M141.18 17.414a5.895 5.895 0 0 0-5.894 5.894 3.452 3.452 0 0 0 .027.536 5.895 5.895 0 1 0 5.894-6.43ZM13.14 83.213a5.734 5.734 0 0 0-.944-.766 5.895 5.895 0 1 0 1.71 1.71 5.567 5.567 0 0 0-.767-.944Zm-.944-45.967a5.895 5.895 0 1 0-6.45 0 5.895 5.895 0 0 0 6.45 0Zm117.147-18.38a5.895 5.895 0 1 0-.943 9.11 5.733 5.733 0 0 0 .943-.777 5.568 5.568 0 0 0 .766-.943 5.825 5.825 0 0 0 .89-2.396 5.943 5.943 0 0 0-.155-2.417 5.82 5.82 0 0 0-1.5-2.577Z" style="fill:#4ac1e0"/><path d="M81.699 5.03a5.895 5.895 0 0 0-.766 7.395 5.734 5.734 0 0 0 .766.943 5.567 5.567 0 0 0 .943.766 5.895 5.895 0 1 0-.943-9.11Zm-4.727 14.78a5.568 5.568 0 0 0-.766-.944 5.733 5.733 0 0 0-.938-.777 5.895 5.895 0 0 0-8.161 8.156 5.567 5.567 0 0 0 .761.954 5.734 5.734 0 0 0 .97.766 5.892 5.892 0 0 0 8.134-8.156Zm129.965 33.925a5.895 5.895 0 0 0-5.739 4.689 5.739 5.739 0 0 0 0 2.417 5.895 5.895 0 1 0 5.766-7.106ZM54.187 82.447a5.733 5.733 0 0 0-.943.766 5.568 5.568 0 0 0-.766.943 5.895 5.895 0 0 0 8.161 8.156 5.734 5.734 0 0 0 .943-.766 5.568 5.568 0 0 0 .766-.943 5.895 5.895 0 0 0-8.16-8.156Z" style="fill:#2ed9c3"/><path class="cls-1" d="M79.878 96.199h-.113l-3.024 2.16a2.743 2.743 0 0 1-1.597.638 1.548 1.548 0 0 1-1.559-1.578 2.388 2.388 0 0 1 1.296-1.897l3.55-2.555a5.245 5.245 0 0 1 3.062-1.24 2.531 2.531 0 0 1 2.592 2.725v20.981a2.113 2.113 0 1 1-4.207 0Zm11.421 8.001c0-7.72 3.513-12.81 9.486-12.81s9.448 5.053 9.448 12.81v1.09c0 7.72-3.55 12.791-9.505 12.791-5.954 0-9.429-5.034-9.429-12.792Zm4.264 1.052c0 5.786 1.972 9.28 5.203 9.28 3.212 0 5.203-3.494 5.203-9.28v-1.033c0-5.785-1.991-9.298-5.222-9.298-3.212 0-5.184 3.513-5.184 9.298Zm25.707-9.053h-.113l-3.024 2.16a2.743 2.743 0 0 1-1.597.638 1.548 1.548 0 0 1-1.559-1.578 2.388 2.388 0 0 1 1.297-1.897l3.55-2.555a5.245 5.245 0 0 1 3.061-1.24 2.531 2.531 0 0 1 2.592 2.725v20.981a2.113 2.113 0 1 1-4.207 0Z"/></svg>