<svg width="282" height="158" viewBox="0 0 282 158" fill="none" xmlns="http://www.w3.org/2000/svg"><path d="M40.838 157.528h-14.25v-23.494h3.906v20.103h10.344v3.391Zm5.277 0 8.09-23.494h4.354l8.09 23.494h-4.131l-2.083-6.506h-8.244l-2.083 6.506h-3.993Zm10.12-19.432-3.166 9.931h6.488l-3.15-9.931h-.171Zm16.947 19.432v-23.494h3.442l10.964 16.868h.172v-16.868h3.752v23.494h-3.425l-10.999-16.919h-.154v16.919h-3.752Zm35.277-23.494a11.323 11.323 0 0 1 5.808 1.36 8.347 8.347 0 0 1 3.46 3.967 18.396 18.396 0 0 1-.008 12.797 8.436 8.436 0 0 1-3.469 4.002 11.224 11.224 0 0 1-5.791 1.368h-8.107v-23.494h8.107Zm-4.2 20.206h3.769a7.992 7.992 0 0 0 3.029-.524 5.109 5.109 0 0 0 2.126-1.584 7.227 7.227 0 0 0 1.257-2.633c.299-1.207.441-2.448.422-3.692a13.05 13.05 0 0 0-.741-4.716 5.597 5.597 0 0 0-2.254-2.831 7.174 7.174 0 0 0-3.839-.938h-3.769v16.918Zm24.468-2.891c.088.496.278.968.559 1.386.293.43.667.798 1.102 1.084a5.413 5.413 0 0 0 1.583.706 7.453 7.453 0 0 0 1.988.249 6.79 6.79 0 0 0 2.634-.456 3.742 3.742 0 0 0 1.66-1.274c.39-.563.592-1.234.577-1.919a2.639 2.639 0 0 0-.912-2.108 6.83 6.83 0 0 0-2.823-1.248l-3.855-.964a9.736 9.736 0 0 1-3.081-1.273 5.812 5.812 0 0 1-1.979-2.118 6.083 6.083 0 0 1-.689-2.943 6.185 6.185 0 0 1 1.093-3.632 7.272 7.272 0 0 1 3.003-2.443 11.513 11.513 0 0 1 8.735-.035 7.26 7.26 0 0 1 2.892 2.289 6.197 6.197 0 0 1 1.196 3.253h-3.786a3.61 3.61 0 0 0-.801-1.661 4.138 4.138 0 0 0-1.592-1.119 5.988 5.988 0 0 0-2.289-.404 5.138 5.138 0 0 0-3.296.981 3.11 3.11 0 0 0-1.231 2.548c-.008.362.064.721.21 1.052.145.332.362.627.634.866a5.42 5.42 0 0 0 2.41 1.145l3.837.947a12.29 12.29 0 0 1 3.374 1.308 5.784 5.784 0 0 1 2.125 2.1c.514.956.767 2.03.732 3.115a6.684 6.684 0 0 1-1.084 3.795 7.039 7.039 0 0 1-3.116 2.522 13.595 13.595 0 0 1-8.502.395 8.13 8.13 0 0 1-2.702-1.402 6.414 6.414 0 0 1-1.73-2.117 6.888 6.888 0 0 1-.714-2.625h3.838Zm24.674-3.941c-.035 1.338.19 2.671.663 3.924a5.22 5.22 0 0 0 1.936 2.461 5.422 5.422 0 0 0 3.064.844 5.702 5.702 0 0 0 2.538-.535c.7-.33 1.302-.837 1.747-1.47a4.614 4.614 0 0 0 .792-2.161h3.804v.275a7.178 7.178 0 0 1-1.334 3.753 8.013 8.013 0 0 1-3.141 2.564 11.22 11.22 0 0 1-4.856.923 11.218 11.218 0 0 1-4.782-1.25 8.064 8.064 0 0 1-3.27-3.623 13.247 13.247 0 0 1-1.119-5.705v-3.15a13.273 13.273 0 0 1 1.135-5.723 8.301 8.301 0 0 1 3.288-3.683 9.936 9.936 0 0 1 5.181-1.282 10.465 10.465 0 0 1 3.434.542 8.419 8.419 0 0 1 2.762 1.557 7.806 7.806 0 0 1 1.893 2.401c.478.952.753 1.992.809 3.055v.258h-3.804a5.094 5.094 0 0 0-.8-2.297 4.6 4.6 0 0 0-1.764-1.575 5.408 5.408 0 0 0-2.513-.568 5.234 5.234 0 0 0-3.038.869 5.508 5.508 0 0 0-1.945 2.504 10.36 10.36 0 0 0-.68 3.976v3.116Zm20.01 10.12 8.09-23.494h4.354l8.089 23.494h-4.13l-2.083-6.506h-8.244l-2.083 6.506h-3.993Zm10.121-19.432-3.167 9.931h6.489l-3.15-9.931h-.172Zm30.104-3.072a6.818 6.818 0 0 1 2.66 2.702 8.607 8.607 0 0 1-.009 7.797 6.82 6.82 0 0 1-2.669 2.694 8.288 8.288 0 0 1-4.156.98h-5.077v8.331h-3.908v-23.494h9.02a8.198 8.198 0 0 1 4.139.99Zm-1.54 3.382a4.3 4.3 0 0 0-3.185-1.136h-4.543v8.726h4.543a4.863 4.863 0 0 0 2.324-.516 3.531 3.531 0 0 0 1.48-1.489 4.998 4.998 0 0 0 .517-2.367 4.361 4.361 0 0 0-1.136-3.218Zm26.825 19.122h-14.664v-23.494h14.664v3.288h-10.774v6.695h10.138v3.15h-10.138v7.073h10.774v3.288Zm-58.737-40.5-7.65 7.65a1.63 1.63 0 0 0 .069 2.229 1.625 1.625 0 0 0 2.229.069l7.542-7.542a6.816 6.816 0 0 1-.973-.814 7.823 7.823 0 0 1-1.217-1.592Zm-8.226-89.394h5.763c0-.244-.037-.49-.037-.72a7.98 7.98 0 0 1 .404-2.5h-6.333a7.988 7.988 0 0 1 .203 3.22Zm-71.355-1.144c.001.116 0 .233-.005.35a7.246 7.246 0 0 1-.04.487c-.016.162-.031.325-.057.486l-.001.002c.07.007.14.007.209 0h17.288a8.078 8.078 0 0 1 0-3.25l-17.288.051a2.336 2.336 0 0 0-.324 0c.077.323.133.65.169.98.007.065.011.13.017.194.021.233.032.466.032.7ZM65.038 51.881a32.891 32.891 0 0 1 2.255 2.341l21.106-21.07a7.489 7.489 0 0 1-2.334-2.298L65.038 51.882Zm34.295-29.692 7.626-7.626-.004-.003a7.498 7.498 0 0 1-1.268-1.03 7.646 7.646 0 0 1-1.03-1.268l-7.614 7.614a7.75 7.75 0 0 1 1.268 1.03c.386.389.73.819 1.022 1.283Zm34.367 4.037.001.018a7.887 7.887 0 0 1-.18 1.657h22.813a8.039 8.039 0 0 1-.106-1.19c-.002-.098-.006-.195-.005-.293a7.944 7.944 0 0 1 .177-1.546c.016-.073.024-.147.042-.22h-22.894c.1.513.151 1.034.153 1.556l-.001.018ZM19.642 99.006l-7.383 7.383a7.75 7.75 0 0 1 1.268 1.03c.388.384.734.809 1.03 1.268l7.52-7.52a30.16 30.16 0 0 1-2.435-2.161Zm178.176.907-6.476 6.476a7.75 7.75 0 0 1 1.268 1.03c.389.384.734.809 1.03 1.268l6.706-6.706a33.119 33.119 0 0 1-2.528-2.068ZM12.266 45.628l7.103 7.103a31.66 31.66 0 0 1 2.398-2.197l-7.203-7.203a7.926 7.926 0 0 1-2.298 2.297Zm254.056 28.468H252.42c.028.548.043 1.102.043 1.664 0 .533 0 1.06-.036 1.585h13.895a7.734 7.734 0 0 1 0-3.249Zm-97.85-40.936 24.268 24.275a32.119 32.119 0 0 1 1.966-2.636l-23.944-23.944a7.459 7.459 0 0 1-1.03 1.267c-.382.39-.804.738-1.26 1.038ZM67.437 107.412c.385-.388.81-.733 1.268-1.03l-5.345-5.345-.663-.663-.648-.655A30.506 30.506 0 0 0 73.387 75.76a30.83 30.83 0 0 0-7.412-20.213A31.536 31.536 0 0 0 63.72 53.2a31.296 31.296 0 0 0-40.642-1.332 29.905 29.905 0 0 0-2.398 2.16 31.155 31.155 0 0 0 .266 43.646c.77.766 1.583 1.487 2.435 2.16a31.538 31.538 0 0 0 35.98 1.802l.664.662.677.677 5.705 5.706a7.488 7.488 0 0 1 1.03-1.268ZM42.643 91.615v-.007c-9.365 0-14.558-6.93-14.558-15.848 0-8.918 5.2-15.934 14.558-15.934 9.177 0 14.55 7.016 14.55 15.934s-5.373 15.855-14.55 15.855Zm59.766 3.032a11.2 11.2 0 0 1-10.48-7.016c-.109-.432-.152-.597-.354-.597a2.426 2.426 0 0 0-.605.165l-10.654 4.322c-.605.26-.72.72-.345 1.643 2.946 8.492 10.308 13.254 22.092 13.254 13.593 0 24.6-5.893 24.6-19.226 0-10.805-6.411-16.719-17.497-18.282-1.131-.173-2.082-.346-2.881-.432-7.802-1.297-11-2.947-11-6.93 0-3.206 1.902-5.453 7.967-5.453a10.807 10.807 0 0 1 9.703 6.843c.115.288.274.468.555.468.167-.01.33-.051.482-.122l10.135-4.07c.519-.173.865-.526.605-1.477-2.254-7.275-9.364-12.728-20.889-12.728-15.293.007-23.008 7.888-23.008 19.147 0 10.74 7.283 16.632 17.764 17.67.605.086 1.44.172 2.074.259 7.967.95 10.481 3.205 10.481 6.757 0 3.983-2.773 5.805-8.745 5.805Zm34.295-48.421c-.302 0-.605.058-.605.778v57.152c0 .72 0 .785.454.785h14.357c.72 0 .785-.086.785-.785V90.225s9.782-.087 12.296-.346c11.086-1.297 19.492-6.93 19.492-21.135 0-13.34-7.707-22.518-20.616-22.518h-26.163Zm30.759 22c-.007 4.955-2.435 8.752-8.471 9.01l-7.276.26V59.135h7.103c5.28 0 8.644 3.285 8.644 9.09Zm52.397-23.21a30.21 30.21 0 0 0-25.766 13.759 30.974 30.974 0 0 0-4.985 16.978 30.296 30.296 0 0 0 12.563 24.895 30.877 30.877 0 0 0 18.188 5.763 30.325 30.325 0 0 0 30.708-29.08c0-.526.044-1.052.044-1.585 0-.533 0-1.117-.044-1.664a30.397 30.397 0 0 0-30.708-29.066Zm0 46.599c-9.364 0-14.55-6.93-14.55-15.848 0-8.917 5.193-15.933 14.55-15.933 9.185 0 14.551 7.016 14.551 15.933 0 8.918-5.366 15.848-14.551 15.848ZM79.675 117.353a7.447 7.447 0 0 1-1.03 1.267c-.385.388-.81.733-1.267 1.031l7.318 7.325a1.624 1.624 0 0 0 2.229-.069 1.627 1.627 0 0 0 .069-2.229l-7.319-7.325Z" fill="#002E6D"/><path d="M191.342 106.389a7.929 7.929 0 0 0-9.782.912 7.92 7.92 0 0 0-1.376 9.728c.336.58.745 1.115 1.218 1.591.298.301.623.574.972.814a7.919 7.919 0 0 0 10.084-.708 7.922 7.922 0 0 0 1.182-10.039 7.468 7.468 0 0 0-1.03-1.268 7.75 7.75 0 0 0-1.268-1.03Zm-73.323-78.524a7.932 7.932 0 0 0 8.576 6.21 7.929 7.929 0 0 0 7.105-7.85l.001-.017a8.292 8.292 0 0 0-.153-1.556l-.006-.036a7.928 7.928 0 0 0-12.761-4.529 7.933 7.933 0 0 0-2.762 4.53 8.043 8.043 0 0 0 0 3.248Z" fill="#FEBE85"/><path d="M177.757 27.613a7.92 7.92 0 0 0 5.357 6.787 7.924 7.924 0 1 0 2.566-15.431h-.036a7.925 7.925 0 0 0-7.923 7.924c-.007.24.005.481.036.72ZM12.259 106.389a7.923 7.923 0 0 0-12.248 7.042 7.925 7.925 0 1 0 12.248-7.042ZM3.59 45.629a7.924 7.924 0 1 0 8.67-13.266 7.924 7.924 0 0 0-8.67 13.266Zm152.633-19.211c-.001.098.003.195.005.294a7.916 7.916 0 0 0 4.216 6.833 7.906 7.906 0 0 0 8.02-.378l.008-.007a7.69 7.69 0 0 0 1.26-1.037 7.825 7.825 0 0 0 2.226-4.488 7.988 7.988 0 0 0-.203-3.22l-.006-.03a7.903 7.903 0 0 0-13.423-3.243 7.906 7.906 0 0 0-1.987 4.055c-.07.403-.109.812-.116 1.221Z" fill="#4AC1E0"/><path d="m106.955 14.56.004.003a7.923 7.923 0 1 0-1.272-12.248v.007a7.922 7.922 0 0 0 0 11.208c.384.389.809.734 1.268 1.03Zm-8.652 17.562a7.918 7.918 0 0 0 2.198-4.31c.026-.16.041-.323.057-.486.017-.162.033-.324.04-.487a8.18 8.18 0 0 0 .005-.35c0-.234-.011-.466-.032-.7-.006-.064-.01-.129-.017-.193a7.97 7.97 0 0 0-1.22-3.407 7.488 7.488 0 0 0-1.03-1.268 7.711 7.711 0 0 0-1.261-1.045A7.925 7.925 0 0 0 86.072 30.84c.293.463.636.893 1.023 1.282.396.39.833.735 1.304 1.03a7.923 7.923 0 0 0 9.904-1.03ZM281.832 74.09a7.924 7.924 0 0 0-7.759-6.297h-.036a7.923 7.923 0 0 0-7.715 6.303 7.734 7.734 0 0 0 0 3.25 7.924 7.924 0 0 0 15.51-3.257ZM79.675 117.353a7.926 7.926 0 0 0-1.034-9.936 7.922 7.922 0 0 0-11.204.002 7.923 7.923 0 0 0 9.94 12.231 7.645 7.645 0 0 0 1.268-1.03 7.437 7.437 0 0 0 1.03-1.267Z" fill="#2ED9C3"/></svg>