<svg width="151" height="59" viewBox="0 0 151 59" fill="none" xmlns="http://www.w3.org/2000/svg">
<path d="M29.17 58.4798C45.1683 58.4798 58.1375 45.5106 58.1375 29.5122C58.1375 13.5139 45.1683 0.544678 29.17 0.544678C13.1716 0.544678 0.202393 13.5139 0.202393 29.5122C0.202393 45.5106 13.1716 58.4798 29.17 58.4798Z" fill="#A1D33C"/>
<path d="M22.0593 40.8717C21.5975 42.3801 20.9818 43.2112 18.9809 43.2112C17.257 43.2112 16.5182 42.5648 16.5182 41.4873C16.5182 41.1487 16.5798 40.7793 16.7029 40.4099L23.5985 16.2138C24.0602 14.6746 24.6759 13.8743 26.6461 13.8743C28.4007 13.8743 29.1703 14.5207 29.1703 15.5674C29.1703 15.9368 29.0472 16.3062 28.9548 16.7064L22.0593 40.8717Z" fill="white"/>
<path d="M35.2963 40.8717C34.8345 42.3801 34.2188 43.2112 32.2179 43.2112C30.494 43.2112 29.7552 42.5648 29.7552 41.4873C29.7552 41.1487 29.8168 40.7793 29.9399 40.4099L36.8355 16.2138C37.2972 14.6746 37.9129 13.8743 39.8831 13.8743C41.6377 13.8743 42.4073 14.5207 42.4073 15.5674C42.4073 15.9368 42.2842 16.3062 42.1918 16.7064L35.2963 40.8717Z" fill="white"/>
<path d="M76.762 39.5484C76.762 39.9178 76.762 40.1948 76.6081 40.4411C76.4542 40.6874 76.0848 40.8413 75.623 40.8413C75.1305 40.8413 74.7611 40.6874 74.6071 40.4411C74.4532 40.1948 74.4532 39.9178 74.4532 39.5484V25.3878H69.7433C69.4047 25.3878 69.1276 25.357 68.8813 25.2031C68.6659 25.0492 68.5427 24.7722 68.5427 24.372C68.5427 23.941 68.6659 23.6639 68.8813 23.51C69.1276 23.3561 69.4047 23.3253 69.7433 23.3253H81.4411C81.7798 23.3253 82.0568 23.3561 82.3031 23.51C82.5186 23.6639 82.6417 23.941 82.6417 24.3412C82.6417 24.7722 82.5186 25.0492 82.3031 25.2031C82.0568 25.357 81.7798 25.3878 81.4411 25.3878H76.762V39.5484Z" fill="white"/>
<path d="M96.5556 22.8936C102.035 22.8936 105.452 26.68 105.452 31.944C105.452 37.3004 101.943 41.056 96.4632 41.056C90.9837 41.056 87.5667 37.2696 87.5667 32.0056C87.5667 26.6492 91.0761 22.8936 96.5556 22.8936ZM96.5556 39.0551C100.527 39.0551 103.051 36.4692 103.051 31.9748C103.051 27.4496 100.465 24.8329 96.494 24.8329C92.5229 24.8329 89.9986 27.4188 89.9986 31.9132C89.9986 36.4692 92.5537 39.0551 96.5556 39.0551Z" fill="white"/>
<path d="M123.307 39.1171C121.152 40.5331 118.412 40.8409 116.011 40.8409C114.411 40.8409 113.087 40.7178 112.41 40.5023C111.732 40.2868 111.64 39.9174 111.64 39.1478V24.8642C111.64 24.0022 111.856 23.6328 112.902 23.4173C113.672 23.2634 114.995 23.1403 116.504 23.1403C119.305 23.1403 121.706 23.5097 123.584 24.8334C125.431 26.1263 126.847 28.3735 126.847 31.8829C126.816 35.7 125.154 37.8857 123.307 39.1171ZM113.98 38.7169C113.98 38.7169 114.872 38.84 116.381 38.84C118.751 38.84 124.415 38.5322 124.415 32.0368C124.415 29.3278 123.43 27.6039 122.045 26.5573C120.69 25.5106 118.936 25.1412 116.565 25.1412C114.903 25.1412 113.949 25.3259 113.949 25.3259V38.7169H113.98Z" fill="white"/>
<path d="M141.9 22.8936C147.38 22.8936 150.797 26.68 150.797 31.944C150.797 37.3004 147.288 41.056 141.808 41.056C136.329 41.056 132.912 37.2696 132.912 32.0056C132.942 26.6492 136.452 22.8936 141.9 22.8936ZM141.9 39.0551C145.872 39.0551 148.396 36.4692 148.396 31.9748C148.396 27.4496 145.81 24.8329 141.839 24.8329C137.868 24.8329 135.344 27.4188 135.344 31.9132C135.344 36.4692 137.929 39.0551 141.9 39.0551Z" fill="white"/>
</svg>
