<svg width="131" height="52" viewBox="0 0 131 52" fill="none" xmlns="http://www.w3.org/2000/svg">
<path d="M25.3231 51.0146C39.1472 51.0146 50.3537 39.808 50.3537 25.984C50.3537 12.16 39.1472 0.953369 25.3231 0.953369C11.4991 0.953369 0.292542 12.16 0.292542 25.984C0.292542 39.808 11.4991 51.0146 25.3231 51.0146Z" fill="#A1D33C"/>
<path d="M19.1786 35.7994C18.7796 37.1028 18.2476 37.821 16.5186 37.821C15.029 37.821 14.3906 37.2624 14.3906 36.3314C14.3906 36.0388 14.4438 35.7196 14.5502 35.4004L20.5086 14.4928C20.9076 13.1628 21.4396 12.4712 23.142 12.4712C24.6582 12.4712 25.3232 13.0298 25.3232 13.9342C25.3232 14.2534 25.2168 14.5726 25.137 14.9184L19.1786 35.7994Z" fill="white"/>
<path d="M30.6166 35.7994C30.2176 37.1028 29.6856 37.821 27.9566 37.821C26.467 37.821 25.8286 37.2624 25.8286 36.3314C25.8286 36.0388 25.8818 35.7196 25.9882 35.4004L31.9466 14.4928C32.3456 13.1628 32.8776 12.4712 34.58 12.4712C36.0962 12.4712 36.7612 13.0298 36.7612 13.9342C36.7612 14.2534 36.6548 14.5726 36.575 14.9184L30.6166 35.7994Z" fill="white"/>
<path d="M66.4469 34.6557C66.4469 34.9749 66.4469 35.2142 66.3139 35.427C66.1809 35.6398 65.8617 35.7729 65.4627 35.7729C65.0371 35.7729 64.7179 35.6398 64.5849 35.427C64.4519 35.2142 64.4519 34.9749 64.4519 34.6557V22.4197H60.3821C60.0895 22.4197 59.8501 22.3931 59.6373 22.2601C59.4511 22.1271 59.3447 21.8877 59.3447 21.5419C59.3447 21.1695 59.4511 20.9301 59.6373 20.7971C59.8501 20.6641 60.0895 20.6375 60.3821 20.6375H70.4901C70.7827 20.6375 71.0221 20.6641 71.2349 20.7971C71.4211 20.9301 71.5275 21.1694 71.5275 21.5152C71.5275 21.8876 71.4211 22.1271 71.2349 22.2601C71.0221 22.3931 70.7827 22.4197 70.4901 22.4197H66.4469V34.6557Z" fill="#231F20"/>
<path d="M83.5505 20.2649C88.2853 20.2649 91.2379 23.5367 91.2379 28.0853C91.2379 32.7137 88.2055 35.9589 83.4707 35.9589C78.7359 35.9589 75.7833 32.6871 75.7833 28.1385C75.7833 23.5101 78.8157 20.2649 83.5505 20.2649ZM83.5505 34.2299C86.9819 34.2299 89.1631 31.9955 89.1631 28.1119C89.1631 24.2017 86.9287 21.9407 83.4973 21.9407C80.0659 21.9407 77.8847 24.1751 77.8847 28.0587C77.8847 31.9955 80.0925 34.2299 83.5505 34.2299Z" fill="#231F20"/>
<path d="M106.666 34.2834C104.804 35.507 102.437 35.773 100.362 35.773C98.9786 35.773 97.8348 35.6666 97.2496 35.4804C96.6644 35.2942 96.5846 34.975 96.5846 34.31V21.9676C96.5846 21.2228 96.7708 20.9036 97.6752 20.7174C98.3402 20.5844 99.484 20.478 100.787 20.478C103.208 20.478 105.283 20.7972 106.905 21.941C108.501 23.0582 109.725 25 109.725 28.0324C109.698 31.3308 108.262 33.2194 106.666 34.2834ZM98.6062 33.9376C98.6062 33.9376 99.3776 34.044 100.681 34.044C102.729 34.044 107.624 33.778 107.624 28.1654C107.624 25.8246 106.772 24.335 105.575 23.4306C104.405 22.5262 102.889 22.207 100.841 22.207C99.4042 22.207 98.5796 22.3666 98.5796 22.3666V33.9376H98.6062Z" fill="#231F20"/>
<path d="M122.732 20.2649C127.467 20.2649 130.42 23.5367 130.42 28.0853C130.42 32.7137 127.387 35.9589 122.653 35.9589C117.918 35.9589 114.965 32.6871 114.965 28.1385C114.992 23.5101 118.024 20.2649 122.732 20.2649ZM122.732 34.2299C126.164 34.2299 128.345 31.9955 128.345 28.1119C128.345 24.2017 126.111 21.9407 122.679 21.9407C119.248 21.9407 117.067 24.1751 117.067 28.0587C117.067 31.9955 119.301 34.2299 122.732 34.2299Z" fill="#231F20"/>
</svg>
