<svg fill="none" height="57" viewBox="0 0 131 57" width="131" xmlns="http://www.w3.org/2000/svg"><path d="m25.3231 51.0146c13.8241 0 25.0306-11.2066 25.0306-25.0306s-11.2065-25.030631-25.0306-25.030631c-13.824 0-25.030558 11.206631-25.030558 25.030631s11.206558 25.0306 25.030558 25.0306z" fill="#a1d33c"/><path d="m19.1786 35.7994c-.399 1.3034-.931 2.0216-2.66 2.0216-1.4896 0-2.128-.5586-2.128-1.4896 0-.2926.0532-.6118.1596-.931l5.9584-20.9076c.399-1.33.931-2.0216 2.6334-2.0216 1.5162 0 2.1812.5586 2.1812 1.463 0 .3192-.1064.6384-.1862.9842z" fill="#fff"/><path d="m30.6166 35.7994c-.399 1.3034-.931 2.0216-2.66 2.0216-1.4896 0-2.128-.5586-2.128-1.4896 0-.2926.0532-.6118.1596-.931l5.9584-20.9076c.399-1.33.931-2.0216 2.6334-2.0216 1.5162 0 2.1812.5586 2.1812 1.463 0 .3192-.1064.6384-.1862.9842z" fill="#fff"/><g fill="#231f20"><path d="m66.4469 34.6557c0 .3192 0 .5585-.133.7713s-.4522.3459-.8512.3459c-.4256 0-.7448-.1331-.8778-.3459s-.133-.4521-.133-.7713v-12.236h-4.0698c-.2926 0-.532-.0266-.7448-.1596-.1862-.133-.2926-.3724-.2926-.7182 0-.3724.1064-.6118.2926-.7448.2128-.133.4522-.1596.7448-.1596h10.108c.2926 0 .532.0266.7448.1596.1862.133.2926.3723.2926.7181 0 .3724-.1064.6119-.2926.7449-.2128.133-.4522.1596-.7448.1596h-4.0432z"/><path d="m83.5505 20.2649c4.7348 0 7.6874 3.2718 7.6874 7.8204 0 4.6284-3.0324 7.8736-7.7672 7.8736s-7.6874-3.2718-7.6874-7.8204c0-4.6284 3.0324-7.8736 7.7672-7.8736zm0 13.965c3.4314 0 5.6126-2.2344 5.6126-6.118 0-3.9102-2.2344-6.1712-5.6658-6.1712s-5.6126 2.2344-5.6126 6.118c0 3.9368 2.2078 6.1712 5.6658 6.1712z"/><path d="m106.666 34.2834c-1.862 1.2236-4.229 1.4896-6.304 1.4896-1.3834 0-2.5272-.1064-3.1124-.2926s-.665-.5054-.665-1.1704v-12.3424c0-.7448.1862-1.064 1.0906-1.2502.665-.133 1.8088-.2394 3.1118-.2394 2.421 0 4.496.3192 6.118 1.463 1.596 1.1172 2.82 3.059 2.82 6.0914-.027 3.2984-1.463 5.187-3.059 6.251zm-8.0598-.3458s.7714.1064 2.0748.1064c2.048 0 6.943-.266 6.943-5.8786 0-2.3408-.852-3.8304-2.049-4.7348-1.17-.9044-2.686-1.2236-4.734-1.2236-1.4368 0-2.2614.1596-2.2614.1596v11.571z"/><path d="m122.732 20.2649c4.735 0 7.688 3.2718 7.688 7.8204 0 4.6284-3.033 7.8736-7.767 7.8736-4.735 0-7.688-3.2718-7.688-7.8204.027-4.6284 3.059-7.8736 7.767-7.8736zm0 13.965c3.432 0 5.613-2.2344 5.613-6.118 0-3.9102-2.234-6.1712-5.666-6.1712-3.431 0-5.612 2.2344-5.612 6.118 0 3.9368 2.234 6.1712 5.665 6.1712z"/></g></svg>