<svg width="132" height="58" viewBox="0 0 132 58" fill="none" xmlns="http://www.w3.org/2000/svg">
<path d="M25.3231 52.0146C39.1472 52.0146 50.3537 40.808 50.3537 26.984C50.3537 13.16 39.1472 1.95337 25.3231 1.95337C11.4991 1.95337 0.292542 13.16 0.292542 26.984C0.292542 40.808 11.4991 52.0146 25.3231 52.0146Z" fill="#A1D33C"/>
<path d="M19.1786 36.7994C18.7796 38.1028 18.2476 38.821 16.5186 38.821C15.029 38.821 14.3906 38.2624 14.3906 37.3314C14.3906 37.0388 14.4438 36.7196 14.5502 36.4004L20.5086 15.4928C20.9076 14.1628 21.4396 13.4712 23.142 13.4712C24.6582 13.4712 25.3232 14.0298 25.3232 14.9342C25.3232 15.2534 25.2168 15.5726 25.137 15.9184L19.1786 36.7994Z" fill="white"/>
<path d="M30.6166 36.7994C30.2176 38.1028 29.6856 38.821 27.9566 38.821C26.467 38.821 25.8286 38.2624 25.8286 37.3314C25.8286 37.0388 25.8818 36.7196 25.9882 36.4004L31.9466 15.4928C32.3456 14.1628 32.8776 13.4712 34.58 13.4712C36.0962 13.4712 36.7612 14.0298 36.7612 14.9342C36.7612 15.2534 36.6548 15.5726 36.575 15.9184L30.6166 36.7994Z" fill="white"/>
<path d="M66.4469 35.6557C66.4469 35.9749 66.4469 36.2142 66.3139 36.427C66.1809 36.6398 65.8617 36.7729 65.4627 36.7729C65.0371 36.7729 64.7179 36.6398 64.5849 36.427C64.4519 36.2142 64.4519 35.9749 64.4519 35.6557V23.4197H60.3821C60.0895 23.4197 59.8501 23.3931 59.6373 23.2601C59.4511 23.1271 59.3447 22.8877 59.3447 22.5419C59.3447 22.1695 59.4511 21.9301 59.6373 21.7971C59.8501 21.6641 60.0895 21.6375 60.3821 21.6375H70.4901C70.7827 21.6375 71.0221 21.6641 71.2349 21.7971C71.4211 21.9301 71.5275 22.1694 71.5275 22.5152C71.5275 22.8876 71.4211 23.1271 71.2349 23.2601C71.0221 23.3931 70.7827 23.4197 70.4901 23.4197H66.4469V35.6557Z" fill="#231F20"/>
<path d="M83.5505 21.2649C88.2853 21.2649 91.2379 24.5367 91.2379 29.0853C91.2379 33.7137 88.2055 36.9589 83.4707 36.9589C78.7359 36.9589 75.7833 33.6871 75.7833 29.1385C75.7833 24.5101 78.8157 21.2649 83.5505 21.2649ZM83.5505 35.2299C86.9819 35.2299 89.1631 32.9955 89.1631 29.1119C89.1631 25.2017 86.9287 22.9407 83.4973 22.9407C80.0659 22.9407 77.8847 25.1751 77.8847 29.0587C77.8847 32.9955 80.0925 35.2299 83.5505 35.2299Z" fill="#231F20"/>
<path d="M106.666 35.2834C104.804 36.507 102.437 36.773 100.362 36.773C98.9786 36.773 97.8348 36.6666 97.2496 36.4804C96.6644 36.2942 96.5846 35.975 96.5846 35.31V22.9676C96.5846 22.2228 96.7708 21.9036 97.6752 21.7174C98.3402 21.5844 99.484 21.478 100.787 21.478C103.208 21.478 105.283 21.7972 106.905 22.941C108.501 24.0582 109.725 26 109.725 29.0324C109.698 32.3308 108.262 34.2194 106.666 35.2834ZM98.6062 34.9376C98.6062 34.9376 99.3776 35.044 100.681 35.044C102.729 35.044 107.624 34.778 107.624 29.1654C107.624 26.8246 106.772 25.335 105.575 24.4306C104.405 23.5262 102.889 23.207 100.841 23.207C99.4042 23.207 98.5796 23.3666 98.5796 23.3666V34.9376H98.6062Z" fill="#231F20"/>
<path d="M122.732 21.2649C127.467 21.2649 130.42 24.5367 130.42 29.0853C130.42 33.7137 127.387 36.9589 122.653 36.9589C117.918 36.9589 114.965 33.6871 114.965 29.1385C114.992 24.5101 118.024 21.2649 122.732 21.2649ZM122.732 35.2299C126.164 35.2299 128.345 32.9955 128.345 29.1119C128.345 25.2017 126.111 22.9407 122.679 22.9407C119.248 22.9407 117.067 25.1751 117.067 29.0587C117.067 32.9955 119.301 35.2299 122.732 35.2299Z" fill="#231F20"/>
</svg>
