<?xml version="1.0" encoding="UTF-8" standalone="no"?>
<svg
   xmlns:dc="http://purl.org/dc/elements/1.1/"
   xmlns:cc="http://creativecommons.org/ns#"
   xmlns:rdf="http://www.w3.org/1999/02/22-rdf-syntax-ns#"
   xmlns:svg="http://www.w3.org/2000/svg"
   xmlns="http://www.w3.org/2000/svg"
   version="1.1"
   id="svg10602"
   viewBox="0 0 502.00001 111.06769"
   height="111.06769"
   width="502">
  <defs
     id="defs10604">
    <clipPath
       id="clipPath10558"
       clipPathUnits="userSpaceOnUse">
      <path
         id="path10560"
         d="M 0,0 612,0 612,792 0,792 0,0 Z" />
    </clipPath>
    <clipPath
       id="clipPath10526"
       clipPathUnits="userSpaceOnUse">
      <path
         id="path10528"
         d="M 0,0 612,0 612,792 0,792 0,0 Z" />
    </clipPath>
  </defs>
  <metadata
     id="metadata10607">
    <rdf:RDF>
      <cc:Work
         rdf:about="">
        <dc:format>image/svg+xml</dc:format>
        <dc:type
           rdf:resource="http://purl.org/dc/dcmitype/StillImage" />
        <dc:title></dc:title>
      </cc:Work>
    </rdf:RDF>
  </metadata>
  <g
     transform="translate(-138.93025,-562.92574)"
     id="layer1">
    <g
       id="g10522"
       transform="matrix(1.9522739,0,0,-1.9522739,-208.19416,1643.4559)">
      <g
         clip-path="url(#clipPath10526)"
         id="g10524">
        <g
           transform="translate(282.5433,518.7392)"
           id="g10530">
          <path
             id="path10532"
             style="opacity:1;fill:#292f32;fill-opacity:1;fill-rule:nonzero;stroke:none"
             d="m 0,0 c 0,-1.053 1.223,-2.278 2.274,-2.278 l 15.585,0.01 -3.488,5.616 -9.028,0 0,21.604 -5.341,0 L 0,0 Z" />
        </g>
        <g
           transform="translate(225.3824,529.4284)"
           id="g10534">
          <path
             id="path10536"
             style="opacity:1;fill:#292f32;fill-opacity:1;fill-rule:nonzero;stroke:none"
             d="m 0,0 c 0,12.995 -10.536,23.532 -23.533,23.532 -12.996,0 -23.532,-10.537 -23.532,-23.532 0,-12.996 10.536,-23.533 23.532,-23.533 1.382,0 2.695,0.129 4.012,0.357 l -0.04,-9.159 6.618,0 0,11.395 C -5.3,-17.05 0,-9.161 0,0 m -12.943,-10.981 0,7.577 -6.618,-1.89 0.007,-9.391 c -1.27,-0.345 -2.6,-0.558 -3.979,-0.558 -8.418,0 -15.243,6.824 -15.243,15.243 0,8.417 6.825,15.242 15.243,15.242 8.419,0 15.243,-6.825 15.243,-15.242 0,-4.309 -1.783,-8.205 -4.653,-10.981" />
        </g>
        <g
           transform="translate(247.0897,516.4584)"
           id="g10538">
          <path
             id="path10540"
             style="opacity:1;fill:#292f32;fill-opacity:1;fill-rule:nonzero;stroke:none"
             d="m 0,0 -15.378,0 c -1.053,0 -2.291,1.221 -2.291,2.274 l -0.011,24.959 5.342,0 0,-21.604 9.265,0 0,21.604 5.343,0 L 2.275,2.274 C 2.275,1.221 1.053,0 0,0" />
        </g>
        <g
           transform="translate(318.8165,542.6867)"
           id="g10542">
          <path
             id="path10544"
             style="opacity:1;fill:#292f32;fill-opacity:1;fill-rule:nonzero;stroke:none"
             d="m 0,0 c -2.135,1.251 -4.638,1.972 -7.293,1.972 -7.974,0 -14.44,-6.465 -14.44,-14.439 0,-7.977 6.466,-14.443 14.44,-14.443 2.492,0 4.875,0.65 6.922,1.762 l -2.606,4.689 c -1.286,-0.699 -2.749,-1.101 -4.316,-1.101 -5.022,0 -9.093,4.071 -9.093,9.093 0,5.02 4.071,9.091 9.093,9.091 1.696,0 3.29,-0.48 4.649,-1.289 L 0,0 Z" />
        </g>
        <g
           transform="translate(331.1869,544.5827)"
           id="g10546">
          <path
             id="path10548"
             style="opacity:1;fill:#292f32;fill-opacity:1;fill-rule:nonzero;stroke:none"
             d="m 0,0 c -7.974,0 -14.428,-6.502 -14.428,-14.477 0,-7.975 6.454,-14.402 14.428,-14.402 7.977,0 14.443,6.466 14.443,14.439 C 14.443,-6.464 7.977,0 0,0 m 0,-23.531 c -5.019,0 -9.08,4.034 -9.08,9.054 0,5.02 4.061,9.129 9.08,9.129 5.022,0 9.096,-4.071 9.096,-9.092 0,-5.021 -4.074,-9.091 -9.096,-9.091" />
        </g>
      </g>
    </g>
    <g
       transform="matrix(1.9522739,0,0,-1.9522739,316.18526,582.11406)"
       id="g10550">
      <path
         id="path10552"
         style="opacity:1;fill:#292f32;fill-opacity:1;fill-rule:nonzero;stroke:none"
         d="m 0,0 -5.294,0 -11.913,-27.04 5.672,0 2.799,5.959 12.348,-0.003 0.253,-0.572 2.376,-5.384 5.672,0 L 0,0 Z m -6.951,-16.648 4.296,9.771 4.311,-9.771 -8.607,0 z" />
    </g>
    <g
       id="g10554"
       transform="matrix(1.9522739,0,0,-1.9522739,-208.19416,1643.4559)">
      <g
         clip-path="url(#clipPath10558)"
         id="g10556">
        <g
           transform="translate(431.5439,519.8065)"
           id="g10562">
          <path
             id="path10564"
             style="opacity:1;fill:#292f32;fill-opacity:1;fill-rule:nonzero;stroke:none"
             d="m 0,0 -9.782,22.572 c -0.585,1.088 -1.589,1.59 -3.011,1.59 -1.419,0 -2.423,-0.502 -3.008,-1.59 L -22.992,6.02 -30.183,22.572 c -0.582,1.088 -1.586,1.59 -3.008,1.59 -1.422,0 -2.426,-0.502 -3.011,-1.59 l -7.191,-16.59 -7.188,16.59 c -0.585,1.088 -1.589,1.59 -3.008,1.59 -1.422,0 -2.426,-0.502 -3.011,-1.59 L -63.791,6.02 -70.979,22.572 c -0.588,1.088 -1.59,1.59 -3.011,1.59 -1.422,0 -2.424,-0.502 -3.011,-1.59 L -86.783,0 c -1.346,-3.532 3.513,-5.35 5.1,-2.508 l 7.693,17.975 7.69,-17.975 c 1.005,-1.84 4.098,-1.757 5.018,0 l 7.693,17.975 7.69,-17.975 c 0.505,-0.903 1.339,-1.291 2.198,-1.347 0.107,-0.017 0.204,-0.022 0.308,-0.027 0.107,0.005 0.207,0.01 0.311,0.027 0.859,0.056 1.696,0.444 2.2,1.347 l 7.691,17.975 7.691,-17.975 c 0.919,-1.757 4.012,-1.84 5.014,0 l 7.693,17.975 7.691,-17.975 C -3.51,-5.35 1.344,-3.532 0,0" />
        </g>
        <g
           transform="translate(431.236,543.4595)"
           id="g10566">
          <path
             id="path10568"
             style="opacity:1;fill:#292f32;fill-opacity:1;fill-rule:nonzero;stroke:none"
             d="m 0,0 c -1.737,0 -3.207,-1.337 -3.207,-3.149 0,-1.829 1.47,-3.166 3.207,-3.166 1.72,0 3.193,1.337 3.193,3.166 C 3.193,-1.337 1.72,0 0,0 m 0,-5.789 c -1.446,0 -2.572,1.119 -2.572,2.64 0,1.494 1.126,2.623 2.572,2.623 1.429,0 2.557,-1.129 2.557,-2.623 0,-1.521 -1.128,-2.64 -2.557,-2.64 m 1.453,3.416 c 0,0.718 -0.425,1.036 -1.286,1.036 l -1.385,0 0,-3.641 0.548,0 0,1.578 0.636,0 0.961,-1.578 0.618,0 -1.035,1.603 c 0.533,0.067 0.943,0.351 0.943,1.002 m -2.123,-0.559 0,1.127 0.753,0 c 0.385,0 0.793,-0.084 0.793,-0.535 0,-0.559 -0.415,-0.592 -0.886,-0.592 l -0.66,0 z" />
        </g>
      </g>
    </g>
  </g>
</svg>
