<svg xmlns="http://www.w3.org/2000/svg" viewBox="0 0 738 171">
  <path d="M58 37c-9 0-11 4-11 12v14h23l-2 23H47v69H19V86H0V63h19V49c0-23 9-35 35-35h16v21zM72 106c0-26 12-45 38-45 14 0 22 7 26 16V63h27v92h-27v-14c-4 9-13 16-26 16-26 0-38-19-38-45zm28 6c0 14 5 23 18 23s17-8 17-21v-9c0-13-6-21-17-21s-18 9-18 23zM221 61c11 0 21 2 27 6l-6 20a44 44 0 0 0-19-4c-15 0-22 9-22 24v5c0 15 7 24 22 24a44 44 0 0 0 19-4l6 20c-6 4-16 6-27 6-33 0-48-18-48-46v-4c0-29 15-47 48-47zM251 113v-8c0-26 15-43 45-43s41 17 41 43v15h-58c1 13 6 18 22 18s21-2 30-6l5 19c-7 4-22 7-36 7-36-1-49-18-49-45zm28-12h34v-2c0-10-4-18-16-18s-18 7-18 20zM440 112c0 26-12 45-38 45-14 0-24-7-27-16v14h-26V17l28-3v61c4-8 13-15 26-15 26 0 38 19 38 45zm-28-6c0-13-5-23-18-23s-18 8-18 21v10c0 13 6 21 18 21s18-10 18-23zM450 111v-5c0-26 15-46 46-46s46 19 46 46v5c0 26-15 46-46 46s-46-19-46-46zm64-7c0-12-5-22-18-22s-18 10-18 22v9c0 12 5 22 18 22s18-10 18-22zM550 111v-5c0-26 15-46 46-46s46 19 46 46v5c0 26-15 46-46 46s-46-19-46-46zm64-7c0-12-5-22-18-22s-18 10-18 22v9c0 12 5 22 18 22s18-10 18-22zM680 107l27-44h30l-29 45 30 47h-29l-29-45v45h-28V17l28-3z" fill="#4767ab"/>
</svg>
