<svg 
 xmlns="http://www.w3.org/2000/svg"
 xmlns:xlink="http://www.w3.org/1999/xlink"
 width="1107px" height="420px">
<path fill-rule="evenodd"  fill="rgb(69, 69, 69)"
 d="M1039.323,310.343 C998.524,310.343 972.924,282.143 972.924,242.744 C972.924,202.745 999.124,174.745 1039.923,174.745 C1080.722,174.745 1106.322,202.945 1106.322,242.344 C1106.322,282.343 1080.122,310.343 1039.323,310.343 ZM1039.323,189.545 C1009.723,189.545 990.924,208.944 990.924,242.344 C990.924,276.143 1010.123,295.543 1039.923,295.543 C1069.522,295.543 1088.322,276.143 1088.322,242.744 C1088.322,208.944 1069.122,189.545 1039.323,189.545 ZM848.525,308.743 C836.525,308.743 826.725,307.743 821.725,306.143 C816.725,304.543 815.925,301.743 815.925,296.143 C815.925,296.143 815.925,189.545 815.925,189.545 C815.925,183.145 817.525,180.345 825.325,178.745 C831.125,177.545 840.925,176.745 852.125,176.745 C873.124,176.745 890.924,179.545 904.924,189.345 C918.724,198.945 929.323,215.744 929.323,241.944 C929.323,270.344 916.924,286.743 902.924,295.943 C886.724,306.543 866.324,308.743 848.525,308.743 ZM893.724,202.145 C883.524,194.345 870.524,191.545 852.925,191.545 C840.525,191.545 833.325,192.945 833.325,192.945 C833.325,192.945 833.325,292.943 833.325,292.943 C833.325,292.943 839.925,293.943 851.325,293.943 C869.124,293.943 911.324,291.543 911.324,243.144 C911.324,222.944 903.924,209.944 893.724,202.145 ZM695.527,310.343 C654.727,310.343 629.128,282.143 629.128,242.744 C629.128,202.745 655.327,174.745 696.127,174.745 C736.926,174.745 762.526,202.945 762.526,242.344 C762.526,282.343 736.326,310.343 695.527,310.343 ZM695.527,189.545 C665.927,189.545 647.127,208.944 647.127,242.344 C647.127,276.143 666.327,295.543 696.127,295.543 C725.726,295.543 744.526,276.143 744.526,242.744 C744.526,208.944 725.326,189.545 695.527,189.545 ZM589.927,193.545 C589.927,193.545 554.927,193.545 554.927,193.545 C554.927,193.545 554.927,299.143 554.927,299.143 C554.927,301.943 554.927,303.943 553.727,305.743 C552.527,307.543 549.727,308.743 546.327,308.743 C542.727,308.743 539.927,307.543 538.727,305.743 C537.527,303.943 537.527,301.943 537.527,299.143 C537.527,299.143 537.527,193.545 537.527,193.545 C537.527,193.545 502.528,193.545 502.528,193.545 C499.928,193.545 497.928,193.345 496.128,192.145 C494.528,190.945 493.528,188.945 493.528,185.945 C493.528,182.745 494.528,180.745 496.128,179.545 C497.928,178.345 499.928,178.145 502.528,178.145 C502.528,178.145 589.927,178.145 589.927,178.145 C592.527,178.145 594.527,178.345 596.326,179.545 C597.926,180.745 598.926,182.745 598.926,185.745 C598.926,188.945 597.926,190.945 596.326,192.145 C594.527,193.345 592.527,193.545 589.927,193.545 Z"/>
<path fill-rule="evenodd"  fill="rgb(0, 200, 2)"
 d="M210.000,0.000 C325.980,0.000 420.000,94.020 420.000,210.000 C420.000,325.980 325.980,420.000 210.000,420.000 C94.020,420.000 -0.000,325.980 -0.000,210.000 C-0.000,94.020 94.020,0.000 210.000,0.000 Z"/>
<path fill-rule="evenodd"  fill="rgb(255, 255, 255)"
 d="M302.840,116.051 C302.840,116.051 252.427,293.735 252.427,293.735 C249.122,304.755 244.439,310.815 229.838,310.815 C217.166,310.815 211.657,306.132 211.657,298.143 C211.657,295.664 212.207,292.909 213.034,290.154 C213.034,290.154 263.722,112.470 263.722,112.470 C267.028,101.175 271.711,95.390 286.036,95.390 C298.984,95.390 304.493,100.073 304.493,107.787 C304.493,110.541 303.667,113.296 302.840,116.051 ZM157.937,293.735 C154.632,304.755 149.949,310.815 135.348,310.815 C122.676,310.815 117.166,306.132 117.166,298.143 C117.166,295.664 117.717,292.909 118.544,290.154 C118.544,290.154 169.232,112.470 169.232,112.470 C172.538,101.175 177.221,95.390 191.546,95.390 C204.493,95.390 210.003,100.073 210.003,107.787 C210.003,110.541 209.177,113.296 208.350,116.051 C208.350,116.051 157.937,293.735 157.937,293.735 Z"/>
</svg>