<?xml version="1.0" encoding="UTF-8" ?>
<!DOCTYPE svg PUBLIC "-//W3C//DTD SVG 1.1//EN" "http://www.w3.org/Graphics/SVG/1.1/DTD/svg11.dtd">
<svg width="1404pt" height="238pt" viewBox="0 0 1404 238" version="1.1" xmlns="http://www.w3.org/2000/svg">
<path fill="#fefdfd" d=" M 0.00 0.00 L 1404.00 0.00 L 1404.00 238.00 L 0.00 238.00 L 0.00 0.00 Z" />
<path fill="#e32a22" d=" M 77.40 35.52 C 102.30 23.15 132.71 22.72 157.98 34.30 C 128.11 64.51 97.88 94.35 67.96 124.52 C 94.70 124.44 121.44 124.51 148.18 124.48 C 141.49 131.67 134.33 138.42 127.44 145.43 C 117.82 155.76 107.41 165.33 97.76 175.65 C 94.73 178.59 91.91 181.77 88.65 184.47 C 96.39 168.99 104.82 153.85 112.81 138.50 C 93.35 138.53 73.88 138.51 54.41 138.51 C 49.67 121.32 51.81 102.27 60.81 86.82 C 72.68 65.70 96.75 52.08 121.01 53.26 C 123.83 50.53 126.70 47.84 129.27 44.86 C 113.08 42.39 96.18 45.89 81.94 53.86 C 67.93 61.69 56.50 74.08 49.83 88.69 C 41.33 106.87 40.71 128.49 47.88 147.21 C 64.65 147.24 81.42 147.22 98.19 147.22 C 88.99 165.14 79.35 182.83 69.97 200.67 C 51.33 189.46 36.88 171.50 29.82 150.93 C 22.84 130.77 23.00 108.21 30.25 88.15 C 38.39 65.39 55.70 46.13 77.40 35.52 Z" />
<path fill="#e32a22" d=" M 167.99 39.64 C 188.32 51.96 203.67 72.23 209.89 95.19 C 215.46 115.44 214.06 137.56 205.80 156.88 C 197.11 177.53 180.80 194.89 160.65 204.71 C 135.74 217.24 105.19 217.65 79.88 205.99 C 86.17 199.56 92.71 193.37 98.83 186.79 C 110.07 175.37 121.61 164.26 132.68 152.67 C 144.88 140.46 157.17 128.32 169.16 115.90 C 142.41 115.62 115.65 115.84 88.90 115.79 C 103.13 101.38 117.46 87.06 131.94 72.90 C 137.81 67.32 143.14 61.14 149.34 55.94 C 141.39 71.25 133.23 86.46 125.12 101.69 C 144.53 101.79 163.94 101.80 183.34 101.68 C 187.25 115.12 186.79 129.82 181.98 142.97 C 175.64 160.82 161.29 175.56 143.67 182.48 C 135.07 186.06 125.70 187.22 116.45 187.28 C 113.56 189.87 110.95 192.76 108.22 195.51 C 124.21 197.76 140.91 194.81 155.08 187.04 C 171.08 178.44 183.76 163.88 190.14 146.88 C 196.71 129.70 196.60 110.13 189.95 93.00 C 173.18 93.00 156.42 93.00 139.66 93.00 C 149.10 75.21 158.48 57.39 167.99 39.64 Z" />
<path fill="#4b5059" d=" M 309.45 51.59 C 324.68 49.52 340.72 53.62 352.93 63.00 C 355.35 64.75 357.72 67.73 356.51 70.89 C 354.83 74.53 352.06 77.53 349.89 80.87 C 348.37 82.82 347.25 85.33 344.92 86.43 C 341.71 87.26 339.36 84.54 336.99 82.90 C 330.29 77.63 321.45 74.90 312.96 76.17 C 305.06 77.42 298.24 84.82 298.95 93.03 C 299.09 98.49 303.26 102.62 307.29 105.77 C 317.15 113.26 328.35 119.06 337.04 128.02 C 342.14 133.29 346.25 139.72 347.88 146.94 C 351.06 160.68 346.96 175.91 337.16 186.10 C 327.43 196.40 312.92 201.07 298.98 200.80 C 284.30 201.00 270.04 194.54 259.48 184.54 C 257.70 182.95 257.97 180.25 259.34 178.50 C 262.43 174.18 265.19 169.62 268.45 165.43 C 270.22 163.30 273.33 164.31 275.00 166.02 C 281.64 171.83 289.98 176.20 298.98 176.26 C 306.04 176.61 313.22 172.68 316.46 166.35 C 319.49 160.68 318.70 153.33 314.80 148.26 C 309.12 140.69 300.39 136.47 292.96 130.92 C 284.04 124.56 275.72 116.39 272.29 105.72 C 268.31 92.83 271.38 78.16 279.58 67.53 C 286.67 58.23 297.99 52.91 309.45 51.59 Z" />
<path fill="#4b5059" d=" M 439.68 53.63 C 441.07 49.89 447.96 49.83 448.57 54.11 C 461.22 100.44 473.92 146.76 486.55 193.10 C 487.52 195.60 485.68 198.75 482.91 198.72 C 476.59 198.83 470.25 198.77 463.92 198.75 C 461.63 198.95 459.28 197.35 459.01 194.99 C 457.21 187.19 455.44 179.39 453.76 171.57 C 436.57 171.47 419.38 171.47 402.19 171.57 C 398.48 178.99 394.53 186.29 390.74 193.67 C 389.46 196.73 386.45 199.05 383.04 198.78 C 376.45 198.67 369.85 198.97 363.27 198.64 C 360.67 197.98 360.55 194.67 361.93 192.80 C 387.82 146.39 413.74 100.00 439.68 53.63 Z" />
<path fill="#4b5059" d=" M 721.58 51.77 C 741.11 48.56 762.51 55.26 775.12 70.87 C 776.32 72.34 776.32 74.60 775.00 76.01 C 771.92 79.59 768.25 82.58 764.95 85.94 C 763.53 87.30 762.10 88.96 760.03 89.19 C 757.74 89.60 756.11 87.69 754.53 86.40 C 747.86 80.48 738.94 77.28 730.05 77.27 C 719.93 77.45 710.20 81.94 702.87 88.79 C 690.32 100.15 683.73 117.28 684.01 134.06 C 684.38 143.94 686.94 154.10 693.08 162.03 C 698.00 168.58 705.84 173.03 714.09 173.32 C 724.60 173.93 734.65 169.12 742.46 162.40 C 744.43 160.76 747.08 158.35 749.73 160.22 C 753.79 164.54 757.22 169.45 761.02 174.01 C 763.13 176.11 762.21 179.48 760.14 181.22 C 753.77 187.09 746.64 192.29 738.63 195.70 C 723.80 202.13 706.37 202.64 691.29 196.73 C 678.46 191.69 667.97 181.52 661.84 169.25 C 654.00 153.89 652.77 135.90 655.72 119.11 C 658.69 101.69 666.80 84.98 679.51 72.59 C 690.78 61.33 705.79 53.90 721.58 51.77 Z" />
<path fill="#e32a22" d=" M 1094.73 53.62 C 1096.18 50.02 1103.03 49.78 1103.62 54.07 C 1115.81 100.02 1127.92 145.99 1140.11 191.95 C 1141.03 194.28 1140.45 197.55 1137.88 198.52 C 1134.62 199.05 1131.29 198.75 1128.01 198.77 C 1126.20 199.01 1124.41 197.85 1124.23 195.98 C 1121.49 184.73 1118.80 173.48 1116.03 162.25 C 1094.52 162.29 1073.00 162.19 1051.48 162.30 C 1045.71 173.55 1039.96 184.82 1034.09 196.03 C 1031.86 200.55 1025.90 198.24 1021.93 198.79 C 1018.69 199.66 1016.27 195.94 1018.24 193.27 C 1043.62 146.67 1069.26 100.19 1094.73 53.62 Z" />
<path fill="#e32a22" d=" M 1331.59 51.77 C 1344.91 49.63 1359.03 52.23 1370.41 59.59 C 1372.60 61.01 1375.73 62.86 1374.94 65.98 C 1373.85 69.16 1371.77 71.99 1369.45 74.38 C 1366.77 76.57 1363.83 73.94 1361.56 72.51 C 1352.52 66.32 1340.70 63.17 1330.06 66.81 C 1318.01 70.64 1309.56 84.06 1312.52 96.57 C 1314.55 105.01 1321.70 110.87 1328.79 115.19 C 1337.55 120.25 1346.78 124.77 1354.47 131.47 C 1359.61 135.93 1364.03 141.49 1366.15 148.04 C 1369.08 157.09 1368.46 167.13 1365.03 175.96 C 1361.10 185.99 1352.49 193.88 1342.40 197.49 C 1326.18 203.33 1306.82 201.86 1292.84 191.28 C 1289.27 188.50 1285.64 185.69 1282.77 182.18 C 1280.52 179.37 1283.92 176.64 1285.66 174.67 C 1287.53 172.93 1289.86 169.54 1292.76 171.23 C 1296.26 173.71 1298.99 177.14 1302.51 179.63 C 1309.44 184.96 1318.44 187.21 1327.10 186.56 C 1334.52 185.96 1341.86 182.37 1346.23 176.22 C 1352.19 167.85 1352.34 155.45 1345.59 147.47 C 1334.30 134.07 1315.95 129.66 1304.32 116.66 C 1298.72 110.55 1295.73 102.25 1295.96 93.98 C 1295.58 82.37 1300.04 70.47 1308.54 62.44 C 1314.79 56.47 1323.09 52.99 1331.59 51.77 Z" />
<path fill="#4b5059" d=" M 529.32 53.35 C 536.56 53.07 543.83 53.27 551.09 53.25 C 553.55 53.01 554.75 55.91 554.15 57.97 C 550.03 87.01 545.91 116.06 541.77 145.10 C 541.16 151.59 541.05 158.65 544.52 164.43 C 547.10 168.91 551.86 171.81 556.90 172.66 C 565.64 174.26 575.48 172.25 581.95 165.86 C 587.72 160.12 590.40 152.05 591.46 144.15 C 595.53 115.25 599.68 86.37 603.77 57.47 C 603.96 55.38 605.57 53.15 607.87 53.26 C 614.88 53.21 621.91 53.18 628.93 53.27 C 631.16 53.19 632.31 55.85 631.84 57.76 C 628.22 83.18 624.64 108.61 620.99 134.02 C 619.58 143.30 618.82 152.79 615.48 161.64 C 610.91 174.58 602.06 186.16 590.15 193.12 C 577.40 200.56 561.77 202.58 547.43 199.38 C 534.77 196.58 523.39 188.05 517.75 176.31 C 512.75 166.42 512.04 154.89 513.77 144.09 C 517.92 115.39 521.93 86.67 526.04 57.96 C 526.13 55.95 527.40 54.05 529.32 53.35 Z" />
<path fill="#4b5059" d=" M 813.86 57.80 C 813.97 55.60 815.47 53.09 817.96 53.25 C 843.31 53.19 868.67 53.27 894.02 53.21 C 895.72 52.96 898.07 53.92 897.99 55.92 C 897.87 61.68 896.43 67.32 895.83 73.04 C 895.64 75.23 894.60 78.15 892.01 78.20 C 874.11 78.33 856.20 78.20 838.30 78.26 C 836.78 89.59 835.06 100.89 833.60 112.24 C 847.75 112.21 861.90 112.26 876.04 112.21 C 877.35 112.27 878.96 111.99 879.87 113.23 C 881.32 115.26 880.33 117.78 880.16 120.01 C 879.36 124.65 878.91 129.33 878.02 133.95 C 877.62 135.87 875.88 137.57 873.84 137.49 C 859.23 137.54 844.62 137.49 830.02 137.51 C 828.34 149.52 826.36 161.50 825.01 173.56 C 842.66 173.47 860.32 173.42 877.97 173.57 C 880.30 173.38 881.44 175.95 880.99 177.92 C 880.34 183.66 879.55 189.39 878.69 195.10 C 878.41 197.27 876.27 198.98 874.10 198.75 C 848.71 198.78 823.32 198.78 797.93 198.75 C 795.89 199.05 794.14 197.01 794.60 195.04 C 800.98 149.29 807.44 103.55 813.86 57.80 Z" />
<path fill="#e32a22" d=" M 947.14 57.92 C 947.32 56.03 948.33 54.13 950.16 53.37 C 953.72 53.07 957.32 53.17 960.90 53.29 C 963.13 53.34 964.19 56.00 963.65 57.92 C 957.66 100.10 951.64 142.28 945.73 184.48 C 963.34 184.56 980.96 184.37 998.57 184.56 C 1002.30 184.90 1001.56 189.40 1001.12 191.99 C 1001.03 194.95 999.70 199.07 996.03 198.77 C 974.69 198.79 953.34 198.77 932.01 198.78 C 930.46 198.94 928.88 198.37 928.18 196.93 C 927.63 193.96 928.51 190.98 928.85 188.05 C 934.95 144.67 941.03 101.29 947.14 57.92 Z" />
<path fill="#e32a22" d=" M 1184.62 58.13 C 1184.77 55.80 1186.30 53.09 1188.97 53.24 C 1200.31 53.18 1211.67 53.24 1223.02 53.22 C 1228.91 53.30 1234.94 52.73 1240.66 54.51 C 1249.40 56.83 1257.03 63.11 1260.74 71.40 C 1265.75 82.25 1264.63 95.21 1259.80 105.91 C 1255.98 114.43 1248.67 120.67 1240.85 125.41 C 1249.50 129.93 1256.54 138.15 1258.06 147.97 C 1259.58 158.49 1257.39 169.63 1251.74 178.66 C 1243.90 191.54 1228.75 198.44 1214.01 198.76 C 1198.99 198.79 1183.97 198.79 1168.96 198.76 C 1166.38 199.11 1164.89 196.25 1165.56 194.03 C 1171.87 148.72 1178.30 103.43 1184.62 58.13 Z" />
<path fill="#fefdfd" d=" M 1199.31 67.83 C 1208.87 67.71 1218.43 67.80 1227.99 67.77 C 1233.45 67.71 1239.23 69.93 1242.33 74.61 C 1246.55 80.76 1246.54 88.73 1245.34 95.81 C 1243.91 104.46 1238.78 113.02 1230.43 116.47 C 1226.84 118.13 1222.84 118.37 1218.97 118.24 C 1210.03 118.18 1201.10 118.28 1192.17 118.19 C 1194.56 101.41 1197.05 84.64 1199.31 67.83 Z" />
<path fill="#fefdfd" d=" M 1059.40 148.99 C 1071.39 126.30 1082.94 103.36 1095.16 80.79 C 1098.17 89.29 1099.54 98.31 1101.90 107.01 C 1105.31 121.00 1108.59 135.02 1112.05 149.00 C 1094.50 149.00 1076.95 149.01 1059.40 148.99 Z" />
<path fill="#fefdfd" d=" M 414.66 149.00 C 422.25 133.99 429.49 118.80 437.37 103.94 C 440.52 118.97 443.79 133.98 447.05 148.99 C 436.25 149.01 425.46 149.00 414.66 149.00 Z" />
<path fill="#fefdfd" d=" M 1182.64 184.48 C 1184.99 167.32 1187.39 150.15 1189.85 133.00 C 1199.57 133.00 1209.29 132.99 1219.01 133.00 C 1227.17 132.90 1235.26 137.76 1238.63 145.26 C 1245.79 161.06 1234.59 182.61 1216.97 184.42 C 1205.53 184.59 1194.08 184.43 1182.64 184.48 Z" />
</svg>
