<?xml version="1.0" encoding="UTF-8" standalone="no"?>
<svg
   xmlns:dc="http://purl.org/dc/elements/1.1/"
   xmlns:cc="http://creativecommons.org/ns#"
   xmlns:rdf="http://www.w3.org/1999/02/22-rdf-syntax-ns#"
   xmlns:svg="http://www.w3.org/2000/svg"
   xmlns="http://www.w3.org/2000/svg"
   viewBox="0 0 400.48001 202.37334"
   height="202.37334"
   width="400.48001"
   xml:space="preserve"
   id="svg2"
   version="1.1"><metadata
     id="metadata8"><rdf:RDF><cc:Work
         rdf:about=""><dc:format>image/svg+xml</dc:format><dc:type
           rdf:resource="http://purl.org/dc/dcmitype/StillImage" /></cc:Work></rdf:RDF></metadata><defs
     id="defs6" /><g
     transform="matrix(1.3333333,0,0,-1.3333333,0,202.37333)"
     id="g10"><g
       transform="scale(0.1)"
       id="g12"><g
         transform="scale(10)"
         id="g14"><text
           id="text20"
           style="font-variant:normal;font-weight:normal;font-size:16.88089943px;font-family:QualcommOfficeSemibold;-inkscape-font-specification:QualcommOfficeSemibold;writing-mode:lr-tb;fill:#231f20;fill-opacity:1;fill-rule:nonzero;stroke:none"
           transform="matrix(1,0,0,-1,172.214,45.757)"><tspan
             id="tspan16"
             y="0"
             x="0 10.955106 20.864285 31.448608 39.567745 49.57756 60.381336 72.991371">QUALCOMM</tspan><tspan
             id="tspan18"
             y="15.1922"
             x="-58.3391 -48.632584 -39.922039 -29.911665 -18.905317 -8.2359781 2.5677977 10.687912 21.575624 32.058014 36.193836 44.903793 53.81691 57.3619 60.940014 65.075836 75.744568 85.602959">TECHNOLOGIES, INC.</tspan></text>
</g><path
         id="path22"
         style="fill:#264391;fill-opacity:1;fill-rule:nonzero;stroke:none"
         d="m 1295.78,822.98 c 0,-9.035 10.49,-19.57 19.55,-19.57 l 133.74,0.094 -29.95,48.238 h -77.48 V 1037.2 h -45.86 V 822.98" /><path
         id="path24"
         style="fill:#264391;fill-opacity:1;fill-rule:nonzero;stroke:none"
         d="m 805.043,914.738 c 0,111.582 -90.438,202.002 -201.98,202.002 -111.575,0 -202.043,-90.42 -202.043,-202.002 0,-111.593 90.468,-202.004 202.043,-202.004 11.855,0 23.148,1.145 34.437,3.082 l -0.312,-78.652 h 56.757 v 97.816 c 65.629,33.368 111.098,101.129 111.098,179.758 M 693.945,820.465 V 885.5 l -56.757,-16.223 0.07,-80.582 c -10.914,-2.949 -22.356,-4.793 -34.195,-4.793 -72.239,0 -130.86,58.571 -130.86,130.836 0,72.235 58.621,130.862 130.86,130.862 72.242,0 130.792,-58.627 130.792,-130.862 0,-37.023 -15.226,-70.433 -39.91,-94.273" /><path
         id="path26"
         style="fill:#264391;fill-opacity:1;fill-rule:nonzero;stroke:none"
         d="M 991.406,803.41 H 859.441 c -9.066,0 -19.679,10.488 -19.679,19.52 l -0.098,214.23 h 45.824 V 851.703 h 79.528 v 185.457 h 45.894 l 0.03,-214.23 c 0,-9.032 -10.5,-19.52 -19.534,-19.52" /><path
         id="path28"
         style="fill:#264391;fill-opacity:1;fill-rule:nonzero;stroke:none"
         d="m 1607.13,1028.57 c -18.3,10.75 -39.83,16.92 -62.57,16.92 -68.47,0 -124.02,-55.474 -124.02,-124.017 0,-68.426 55.55,-123.914 124.02,-123.914 21.34,0 41.85,5.586 59.41,15.097 l -22.4,40.285 c -11.05,-6.035 -23.56,-9.496 -37.01,-9.496 -43.11,0 -78.13,34.942 -78.13,78.028 0,43.164 35.02,78.015 78.13,78.015 14.55,0 28.23,-4.008 39.91,-10.965 l 22.66,40.047" /><path
         id="path30"
         style="fill:#264391;fill-opacity:1;fill-rule:nonzero;stroke:none"
         d="m 1713.32,1044.84 c -68.45,0 -123.91,-55.789 -123.91,-124.313 0,-68.422 55.46,-123.597 123.91,-123.597 68.51,0 123.96,55.484 123.96,123.945 0,68.48 -55.45,123.965 -123.96,123.965 m 0,-202.059 c -43.1,0 -77.95,34.664 -77.95,77.746 0,43.114 34.85,78.34 77.95,78.34 43.1,0 78.07,-34.89 78.07,-77.992 0,-43.09 -34.97,-78.094 -78.07,-78.094" /><path
         id="path32"
         style="fill:#264391;fill-opacity:1;fill-rule:nonzero;stroke:none"
         d="m 1176.06,1036.77 h -45.47 L 1028.33,804.645 h 48.74 l 24.01,51.156 h 106 l 2.18,-4.93 20.37,-46.226 h 48.7 z m -59.69,-142.895 36.92,83.852 36.98,-83.852 h -73.9" /><path
         id="path34"
         style="fill:#264391;fill-opacity:1;fill-rule:nonzero;stroke:none"
         d="m 2574.84,832.145 -83.99,193.775 c -5.01,9.3 -13.61,13.65 -25.87,13.65 -12.17,0 -20.75,-4.35 -25.77,-13.65 l -61.72,-142.096 -61.77,142.096 c -4.99,9.3 -13.64,13.65 -25.8,13.65 -12.27,0 -20.78,-4.35 -25.86,-13.65 l -61.73,-142.443 -61.72,142.443 c -4.99,9.3 -13.63,13.65 -25.83,13.65 -12.19,0 -20.82,-4.35 -25.83,-13.65 l -61.69,-142.096 -61.79,142.096 c -4.98,9.3 -13.62,13.65 -25.82,13.65 -12.17,0 -20.77,-4.35 -25.86,-13.65 l -83.96,-193.775 c -11.52,-30.317 30.17,-45.961 43.79,-21.547 l 66.03,154.343 66.08,-154.343 c 8.57,-15.778 35.14,-15.051 43,0 l 66.05,154.343 66.03,-154.343 c 4.26,-7.754 11.47,-11.106 18.81,-11.539 0.93,-0.18 1.82,-0.231 2.71,-0.274 0.89,0.043 1.75,0.094 2.67,0.274 7.36,0.433 14.58,3.785 18.86,11.539 l 66.06,154.343 66.02,-154.343 c 7.84,-15.051 34.46,-15.778 43.03,0 l 66.01,154.343 66.03,-154.343 c 13.69,-24.414 55.36,-8.77 43.83,21.547" /><path
         id="path36"
         style="fill:#264391;fill-opacity:1;fill-rule:nonzero;stroke:none"
         d="m 2572.21,1035.19 c -14.95,0 -27.51,-11.47 -27.51,-27.05 0,-15.679 12.56,-27.156 27.51,-27.156 14.76,0 27.38,11.477 27.38,27.156 0,15.58 -12.62,27.05 -27.38,27.05 m 0,-49.706 c -12.46,0 -22.11,9.59 -22.11,22.656 0,12.86 9.65,22.54 22.11,22.54 12.25,0 21.92,-9.68 21.92,-22.54 0,-13.066 -9.67,-22.656 -21.92,-22.656 m 12.45,29.356 c 0,6.16 -3.63,8.88 -11.06,8.88 h -11.81 v -31.259 h 4.64 v 13.549 h 5.47 l 8.24,-13.549 h 5.28 l -8.82,13.729 c 4.53,0.59 8.06,3.04 8.06,8.65 m -18.23,-4.82 v 9.69 h 6.46 c 3.3,0 6.82,-0.75 6.82,-4.6 0,-4.84 -3.61,-5.09 -7.62,-5.09 h -5.66" /></g></g></svg>