<?xml version="1.0" encoding="UTF-8" standalone="no"?>
<svg
   xmlns:dc="http://purl.org/dc/elements/1.1/"
   xmlns:cc="http://creativecommons.org/ns#"
   xmlns:rdf="http://www.w3.org/1999/02/22-rdf-syntax-ns#"
   xmlns:svg="http://www.w3.org/2000/svg"
   xmlns="http://www.w3.org/2000/svg"
   viewBox="0 0 365.84 365.85333"
   height="365.85333"
   width="365.84"
   xml:space="preserve"
   id="svg2"
   version="1.1"><metadata
     id="metadata8"><rdf:RDF><cc:Work
         rdf:about=""><dc:format>image/svg+xml</dc:format><dc:type
           rdf:resource="http://purl.org/dc/dcmitype/StillImage" /></cc:Work></rdf:RDF></metadata><defs
     id="defs6" /><g
     transform="matrix(1.3333333,0,0,-1.3333333,0,365.85333)"
     id="g10"><g
       transform="scale(0.1)"
       id="g12"><path
         id="path14"
         style="fill:#cd1e25;fill-opacity:1;fill-rule:nonzero;stroke:none"
         d="M 1371.95,2743.88 C 614.285,2743.88 0,2129.65 0,1371.95 0,810.18 337.809,327.578 821.199,115.391 c -3.859,95.8 -0.691,210.8 23.879,315.031 26.375,111.379 176.532,747.558 176.532,747.558 0,0 -43.837,87.59 -43.837,217.07 0,203.3 117.847,355.14 264.587,355.14 124.79,0 185.08,-93.73 185.08,-205.96 0,-125.45 -80.01,-313.09 -121.16,-486.88 -34.37,-145.53 72.97,-264.229 216.54,-264.229 259.93,0 435,333.849 435,729.409 0,300.68 -202.52,525.74 -570.86,525.74 -416.159,0 -675.421,-310.35 -675.421,-657.01 0,-119.52 35.242,-203.82 90.441,-269.08 25.383,-29.98 28.911,-42.05 19.719,-76.47 -6.578,-25.24 -21.695,-86.011 -27.949,-110.101 -9.137,-34.738 -37.285,-47.16 -68.691,-34.328 -191.68,78.25 -280.957,288.159 -280.957,524.129 0,389.72 328.679,857.02 980.508,857.02 523.79,0 868.53,-379.03 868.53,-785.9 0,-538.178 -299.2,-940.249 -740.24,-940.249 -148.12,0 -287.45,80.071 -335.17,171 0,0 -79.65,-316.09 -96.52,-377.133 C 1092.13,244.371 1035.19,138.66 983.129,56.2617 1106.52,19.8281 1236.86,0 1371.95,0 c 757.6,0 1371.86,614.238 1371.86,1371.95 0,757.7 -614.26,1371.93 -1371.86,1371.93" /></g></g></svg>