<?xml version="1.0" encoding="utf-8"?>
<!-- Generator: Adobe Illustrator 17.0.0, SVG Export Plug-In . SVG Version: 6.00 Build 0)  -->
<!DOCTYPE svg PUBLIC "-//W3C//DTD SVG 1.1//EN" "http://www.w3.org/Graphics/SVG/1.1/DTD/svg11.dtd">
<svg version="1.1" id="Layer_1" xmlns="http://www.w3.org/2000/svg" xmlns:xlink="http://www.w3.org/1999/xlink" x="0px" y="0px"
	width="250.5px" height="63.75px" viewBox="0 0 250.5 63.75" enable-background="new 0 0 250.5 63.75" xml:space="preserve">
<polyline fill="none" points="-100.503,87.791 200.938,87.791 200.938,-25.125 -100.503,-25.125 "/>
<polyline fill="none" points="-100.503,-25.125 200.938,-25.125 200.938,87.791 -100.503,87.791 "/>
<polyline fill="none" points="-100.503,-25.125 200.938,-25.125 200.938,87.791 -100.503,87.791 "/>
<polyline fill="none" points="-31.553,-20.515 270.438,-20.515 270.438,93.015 -31.553,93.015 "/>
<polyline fill="none" points="-101.053,7.604 200.938,7.604 200.938,121.134 -101.053,121.134 "/>
<path fill="#3B5999" d="M133.673,30.653c-2.029,0-3.49,0.664-4.973,1.34v15.309c1.422,0.139,2.232,0.139,3.582,0.139
	c4.869,0,5.535-2.229,5.535-5.336V34.79C137.817,32.497,137.056,30.653,133.673,30.653 M101.345,29.817
	c-3.378,0-4.147,1.851-4.147,4.144v1.287h8.292v-1.287C105.489,31.669,104.719,29.817,101.345,29.817 M38.719,45.755
	c0,1.812,0.856,2.754,2.748,2.754c2.03,0,3.23-0.66,4.712-1.34V43.54h-4.438C39.641,43.54,38.719,43.929,38.719,45.755
	M165.122,30.653c-3.383,0-4.555,1.844-4.555,4.137v8.379c0,2.301,1.172,4.148,4.555,4.148c3.373,0,4.555-1.848,4.555-4.148V34.79
	C169.677,32.497,168.495,30.653,165.122,30.653 M22.139,55.146h-9.943V31.108H7.225v-8.285h4.971v-4.973
	c0-6.758,2.806-10.777,10.775-10.777h6.637v8.285h-4.146c-3.103,0-3.309,1.158-3.309,3.318l-0.013,4.147h7.517l-0.88,8.285h-6.637
	V55.146z M56.127,55.208h-8.288l-0.357-2.094c-3.786,2.094-7.164,2.434-9.391,2.434c-6.08,0-9.315-4.055-9.315-9.664
	c0-6.615,3.775-8.977,10.529-8.977h6.874v-1.43c0-3.379-0.388-4.369-5.588-4.369h-8.504l0.832-8.285h9.294
	c11.412,0,13.914,3.602,13.914,12.721V55.208z M84.311,31.716c-5.158-0.883-6.639-1.078-9.12-1.078
	c-4.458,0-5.805,0.984-5.805,4.762v7.152c0,3.781,1.347,4.766,5.805,4.766c2.481,0,3.962-0.195,9.12-1.082v8.078
	c-4.518,1.014-7.461,1.279-9.948,1.279c-10.678,0-14.92-5.607-14.92-13.709v-5.803c0-8.107,4.242-13.725,14.92-13.725
	c2.487,0,5.43,0.269,9.948,1.282V31.716z M115.433,41.884H97.197v0.668c0,3.781,1.348,4.766,5.804,4.766
	c4.008,0,6.452-0.195,11.6-1.082v8.078c-4.964,1.014-7.55,1.279-12.424,1.279c-10.678,0-14.924-5.607-14.924-13.709v-6.635
	c0-7.086,3.152-12.893,14.092-12.893c10.942,0,14.088,5.738,14.088,12.893V41.884z M147.761,42.036
	c0,7.83-2.24,13.541-15.814,13.541c-4.898,0-7.777-0.432-13.188-1.264V9.561l9.941-1.655v15.653c2.148-0.798,4.93-1.202,7.461-1.202
	c9.945,0,11.6,4.453,11.6,11.605V42.036z M179.63,42.208c0,6.754-2.793,13.305-14.475,13.305c-11.689,0-14.533-6.551-14.533-13.305
	v-6.521c0-6.756,2.844-13.308,14.533-13.308c11.682,0,14.475,6.552,14.475,13.308V42.208z M211.474,42.208
	c0,6.754-2.795,13.305-14.473,13.305c-11.69,0-14.535-6.551-14.535-13.305v-6.521c0-6.756,2.846-13.308,14.535-13.308
	c11.678,0,14.473,6.552,14.473,13.308V42.208z M244.159,55.146H233.38l-9.113-15.191v15.191h-9.943V9.561l9.943-1.655v29.346
	l9.113-14.428h10.779l-9.951,15.744L244.159,55.146z M196.966,30.653c-3.377,0-4.549,1.844-4.549,4.137v8.379
	c0,2.301,1.172,4.148,4.549,4.148c3.373,0,4.566-1.848,4.566-4.148V34.79C201.532,32.497,200.339,30.653,196.966,30.653"/>
</svg>
