<?xml version="1.0" encoding="utf-8"?>
<!-- Generator: Adobe Illustrator 18.0.0, SVG Export Plug-In . SVG Version: 6.00 Build 0)  -->
<!DOCTYPE svg PUBLIC "-//W3C//DTD SVG 1.1//EN" "http://www.w3.org/Graphics/SVG/1.1/DTD/svg11.dtd">
<svg version="1.1" id="Layer_1" xmlns="http://www.w3.org/2000/svg" xmlns:xlink="http://www.w3.org/1999/xlink" x="0px" y="0px"
	 viewBox="0 0 288 76.2" enable-background="new 0 0 288 76.2" xml:space="preserve">
<path d="M45.7,44.6c0,1.2-1,2.1-2.1,2.1H28.7c-1.2,0-2.1-1-2.1-2.1V29.8c0-1.2,1-2.1,2.1-2.1h14.8c1.2,0,2.1,1,2.1,2.1V44.6z
	 M58.4,55.7c0,2-1.7,3.7-3.7,3.7H17.6c-2,0-3.7-1.7-3.7-3.7V18.6c0-2,1.7-3.7,3.7-3.7h37.1c2,0,3.7,1.7,3.7,3.7V55.7z M59.4,2.2
	H12.8C6.4,2.2,1.2,7.5,1.2,13.9v46.6c0,6.4,5.2,11.7,11.7,11.7h46.6c6.4,0,11.7-5.2,11.7-11.7V13.9C71.1,7.5,65.9,2.2,59.4,2.2"/>
<path d="M103.5,60.1c-4.1,0-8.1-1.6-10.9-4.4c-2.5-2.5-3.9-5.7-3.9-9.1h4.2c0,2.3,0.9,4.5,2.7,6.2c2,2,4.9,3.2,8,3.2h0
	c5.9,0,10.6-4.1,10.6-9.1c0-3.8-2.1-6.8-12.3-9.1c-4.1-1-6.9-2.2-8.8-4c-2-1.9-2.9-4.5-2.9-7.8c0-6.6,5.9-11.9,13.1-11.9
	c3.5,0,6.7,1.2,9.2,3.4c2.6,2.2,4,5.3,4,8.5h-4.2c0-4.2-4-7.7-9-7.7c-4.9,0-8.9,3.5-8.9,7.7c0,3.8,1.3,6.1,8.5,7.7
	c7.7,1.8,15.5,4.7,15.5,13.2c0,3.6-1.6,7-4.4,9.5C111.1,58.8,107.4,60.1,103.5,60.1L103.5,60.1z"/>
<path d="M140.4,30.4c-7.5,0-13,5.6-13,13.1c0,7.4,5.6,12.9,13,12.9c7.2,0,12.7-5.9,12.7-12.9C153.1,36.4,147.6,30.4,140.4,30.4
	 M152.9,72.1V53.7h-0.1c-2.7,4.2-7.4,6.3-12.3,6.3c-9.5,0-17-7.1-17-16.7c0-9.5,7.7-16.6,17-16.6c4.9,0,9.6,2.1,12.3,6.4h0.1v-5.6
	h4.1v44.5H152.9z"/>
<path d="M215.2,30.4c-7.5,0-13,5.6-13,13.1c0,7.4,5.6,12.9,13,12.9c7.2,0,12.7-5.9,12.7-12.9C227.9,36.4,222.4,30.4,215.2,30.4
	 M227.7,59.3v-5.6h-0.1c-2.8,4.2-7.4,6.3-12.4,6.3c-9.5,0-17-7.1-17-16.7c0-9.5,7.7-16.6,17-16.6c5,0,9.6,2.1,12.4,6.4h0.1v-5.6h4.1
	v31.7H227.7z"/>
<path d="M243.9,40.7v18.6h-4.1V27.5h4.1v4.6h0.1c1.7-4.1,4.8-5.1,8.9-5.4V31C247.4,31.5,243.9,35,243.9,40.7"/>
<path d="M271.1,30.4c-6.3,0-11.4,4.6-12.4,10.8h24.8C282.4,35,277.5,30.4,271.1,30.4 M287.6,44.9h-28.9c0.3,6.3,6.1,11.5,12.3,11.5
	c4.9,0,9.6-2.8,11.4-7.5h4.3c-2.3,6.6-8.6,11.1-15.6,11.1c-9.2,0-16.5-7.5-16.5-16.6c0-9,7.4-16.7,16.5-16.7c9.3,0,16.6,7.8,16.6,17
	C287.7,44.1,287.6,44.5,287.6,44.9"/>
<path d="M188.4,59.3v-5h-0.1c-1.9,3.9-6,5.7-10.2,5.7c-4.1,0-8.3-1.5-11-4.8c-2.3-2.9-2.8-6.7-2.8-10.3V27.4h4.1V45
	c0,6.6,2.4,11.4,9.7,11.4c2.7,0,4.8-0.7,6.8-2.6c2.8-2.7,3.3-5.8,3.3-9.6V27.4h4.1v31.9H188.4z"/>
</svg>
