<?xml version="1.0" encoding="utf-8"?>
<!-- Generator: Adobe Illustrator 18.0.0, SVG Export Plug-In . SVG Version: 6.00 Build 0)  -->
<!DOCTYPE svg PUBLIC "-//W3C//DTD SVG 1.1//EN" "http://www.w3.org/Graphics/SVG/1.1/DTD/svg11.dtd">
<svg version="1.1" id="Layer_1" xmlns="http://www.w3.org/2000/svg" xmlns:xlink="http://www.w3.org/1999/xlink" x="0px" y="0px"
	 viewBox="0 0 500 450" enable-background="new 0 0 500 450" xml:space="preserve">
<g id="layer1" transform="translate(23.21242,-349.16388)" inkscape:groupmode="layer" inkscape:label="Basic">
	<g id="g3307">
		
			<path id="path3640" inkscape:connector-curvature="0" sodipodi:nodetypes="csssssssssssssssssccccccsssssssssssccc" fill="#1B4EED" d="
			M87.4,498.3c0.4-0.8-11.6-8.7-28.3-11.6c-14.6-2.5-32.8-2.9-48.3,5.3c-3.9,2.1-6.8,4-9.5,6.1c-7.4,5.6-11.1,11-14.2,15.4
			c-3.2,4.6-5.7,11.5-6.7,14.7c-1.2,3.8-1.5,7.5-2,11.5c-0.4,2.6-0.3,5.4-0.2,8.3c0.3,6.5,1.7,13.6,4.8,20.1
			c2.3,4.9,5.4,9.5,8.3,13.7c4.8,6.8,12.7,11.3,17.4,13.6c3.6,1.9,8.1,3.9,15.8,5.2c8.7,1.4,21.5,1.4,42.1-1.8
			c5.7-0.9,11.9-2.8,18.9-4.2c0.6-0.1,0.9-0.3,1.4-0.4c0.4-0.1,0.8,0,0.8-0.4c-0.4-9.1-0.3-19.3-0.1-23.9c0-0.7,0.2-2.9,0.2-3.8
			c0-0.8,0.4-0.7,0.9-1.1l4.3-4.2l-33.3-0.5l-11.7,6.6l23.2-1v25.7c0,0-9.4,3.9-21.9,3.6c-9.2-0.2-20.3-2.3-31.1-10.4
			C1.4,572.2-4.5,554.7-4.6,542c0-6.4-0.2-11.3,0.3-13.3c0.4-1.8,1.2-6.2,3.1-11c2.6-6.5,7-13.2,15.1-18.7c5-3.4,11.7-6.5,19.6-7.2
			c9.1-0.8,15.5,0.2,20.9,2.3c13.2,5.1,15.9,9.5,17.8,11c0.1,0.1,0.5,0.4,0.4,0.6c-0.2,0.3-0.2,0.6-0.3,0.7
			c-0.8,1.5-3.2,5.5-3.2,5.5l5-0.5L87.4,498.3L87.4,498.3z"/>
		<path id="path7733" inkscape:connector-curvature="0" sodipodi:nodetypes="ccsscsssccssscc" fill="#EE2B35" d="M137.9,521
			c-1.9,0-3,0.2-3,0.2c1.6-0.4-38.1,4.4-34.3,43.5c1.1,10.9,6.2,17.7,12.1,22.5c12.1,10,28.8,9.8,28.8,9.8
			c5.8,0.3,21.2-4.7,30.1-17.6c4.5-6.5,8.3-14.4,6.4-26.1c-1.8-11.2-6.7-18.6-12.3-23.5C155.9,521.6,143.5,520.8,137.9,521
			L137.9,521z M135.8,526.3c7.6,0,20.7,3.6,24.8,26.8c5.8,32.5-9,35.5-12.4,37.2c-4.5,2.3-24.8,4.4-32.1-28.9
			c-7.1-32.8,15.1-34.4,13.9-34.3C130,527,132.4,526.3,135.8,526.3L135.8,526.3z"/>
		
			<path id="path8122" inkscape:connector-curvature="0" sodipodi:nodetypes="csscscscscsssssssssssccccccscscccsssssssc" fill="#1643EC" d="
			M310.4,522.8c-1.4,0-4.7,0.1-8.7,0.8c-9.4,1.7-22.3,7.9-26,20.8c-5.7,19.9,8.9,27.9,8.9,27.9s5.1,3,7.2,3.6
			c6.4,1.8,13.1,0.9,13.1,0.9s-2.7,8.9,2.7,15.2c1.3,1.5,0.4,1.6,0.4,1.6s-23.6-0.6-34.8,11.3c-11.2,11.9-5.1,22.8-5.1,22.8
			s5.9,14.3,31.1,15c25.4,0.7,41.1-14.3,42.5-25.7c0.7-5.7-0.1-11-2.9-15.7c-2.8-4.5-7.6-8.5-12.2-12.3c-2.9-2.4-4.9-3.6-6.2-5
			c-1.2-1.3-1.4-2.9-1.4-4.2c0.1-1.7,1-3.9,4-7.4c5.6-6.4,7-5.6,10.3-10.5c1-1.4,1.7-3.6,2.8-6.7c0.6-1.9,0.5-3.9,0.5-5.7
			c0-3.9-0.9-7.7-2.5-10.9c-2.9-5.9-8-9.7-8-10h8.8l10-5.8l-33.7-0.1C311.2,522.8,310.9,522.8,310.4,522.8z M303.2,528.3
			c5.1,0,12.8,2.7,17.5,16.6c7.9,23.8-8.7,27.4-8.7,27.4s-19,2.9-22.5-18.2c-3.6-21.6,5.1-22.7,8.5-24.8
			C298,529.2,300.1,528.3,303.2,528.3z M313.7,598.4c0,0,15.2,9.3,16.6,16.1c1.6,7.6,1.7,13.2-9.9,19.3c-3.4,1.8-9.4,2-13.2,2
			c-9.3,0-16.3-3.5-19.7-5.3c-1.8-0.9-11.8-12.2-4.4-22.2c1.9-2.5,3.9-3.6,5.8-4.9c4.1-2.7,8.1-4,15.6-4.7
			C307.1,598.4,310.4,598.6,313.7,598.4z"/>
		<path id="path8279" inkscape:connector-curvature="0" sodipodi:nodetypes="cccscsccccscc" fill="#00B817" d="M343.1,487.9
			l11.8-5.7l22.4,0.1c0,0-6,2.9-6.5,7.4c-0.5,4.5,0,93,0,93c0.1,2.3-0.9,5.1,5.4,5.7c7.8,0.8,9.1,0.9,9.1,0.9l-5.5,4.1l-29.3-0.2
			l3.2-3.4c0,0,1.7-1.3,1.6-7c-0.1-5.6-0.2-94.9-0.2-94.9L343.1,487.9L343.1,487.9z"/>
		<path id="path8363" inkscape:connector-curvature="0" sodipodi:nodetypes="cssssscscccssccssscsscssc" fill="#EE2B34" d="
			M426.4,520.8c-0.6,0-3.1-0.3-3.7-0.2c-21.4,1.6-31.2,13.7-34.5,24.8c-3.3,11.1-0.6,27.2,4,34.4c4.6,7.2,14.3,16.1,29.7,16.4
			c15.4,0.3,23.6-7,28.7-12.1c0.3-0.3,0.6-1,0.6-1s-9.7,5.5-19.6,5.4c-10.7-0.1-27.4-10.5-31.5-32.3c4-0.3,7.4-0.5,11.8-0.4
			l37.5-15.4c0,0-0.9-4.9-4.7-9.7c-2.4-3-6.2-5.9-10.6-7.8C431.3,521.5,430.2,521.6,426.4,520.8z M416.8,525.9c0.5,0,1,0,1.5,0
			c3,0.1,5.4,0.7,7.6,2.1c1.5,0.9,2.6,2.3,4.4,3.8c3.4,2.9,3.3,6.7,3.3,6.7c-0.1,0.9,0.7,2-1.2,3.2c-4.9,3-15.2,7-23.9,10.5
			c-2.9,1.2-5.9,2.2-8,3.3c0,0-1.8-10.1,1.2-18.4c1.6-4.5,5-8.3,9.6-10.1C413.7,526.2,415.3,526,416.8,525.9L416.8,525.9z"/>
		<path id="path7733-4" inkscape:connector-curvature="0" sodipodi:nodetypes="ccsscsssccssscc" fill="#FCB110" d="M225.1,520.8
			c-1.9,0-3,0.2-3,0.2c1.6-0.4-38.1,4.4-34.3,43.5c1.1,10.9,6.2,17.7,12.1,22.5c12.1,10,28.8,9.8,28.8,9.8
			c5.8,0.3,21.2-4.7,30.1-17.6c4.5-6.5,8.3-14.4,6.4-26.1c-1.8-11.2-6.7-18.6-12.3-23.5C243.1,521.4,230.7,520.6,225.1,520.8z
			 M223,526.1c7.6,0,20.7,3.6,24.8,26.8c5.8,32.5-9,35.5-12.4,37.2c-4.5,2.3-24.8,4.4-32.1-28.9c-7.1-32.8,15.1-34.4,13.9-34.3
			C217.2,526.8,219.6,526.1,223,526.1L223,526.1z"/>
		<path id="polyline222" inkscape:connector-curvature="0" d="M471.6,530.8v-10.1h0l-3.1,10.1h-0.9l-3.1-10.1h0v10.1h-1.1v-11h1.9
			l2.8,8.9h0l2.8-8.9h1.9v11 M458,520.8v10h-1.2v-10h-3.3v-1h7.8v1"/>
	</g>
</g>
</svg>
