<svg width="320" height="120" xmlns="http://www.w3.org/2000/svg">
 <metadata id="metadata8">image/svg+xml</metadata>

 <g>
  <title>background</title>
  <rect fill="none" id="canvas_background" height="122" width="322" y="-1" x="-1"/>
 </g>
 <g>
  <title>Layer 1</title>
  <g id="g10" transform="matrix(1.3333333,0,0,-1.3333333,0,202.37333) ">
   <g id="g12" transform="translate(-33.75,35.25) scale(0.10000000149011612) ">
    <g id="g14" transform="translate(0,7.5) scale(10) ">
     <text x="1.5" y="-1.5" font-weight="normal" font-size="16.880899px" font-family="QualcommOfficeSemibold" fill="#231f20" fill-rule="nonzero" transform="matrix(1,0,0,-1,172.214,45.757) " id="text20">
      <tspan x="0 10.955106 20.864285 31.448608 39.567745 49.57756 60.381336 72.991371" y="0" id="tspan16">QUALCOMM</tspan>
      <tspan x="-58.3391 -48.632584 -39.922039 -29.911665 -18.905317 -8.2359781 2.5677977 10.687912 21.575624 32.058014 36.193836 44.903793 53.81691 57.3619 60.940014 65.075836 75.744568 85.602959" y="14.4422" id="tspan18">TECHNOLOGIES, INC.</tspan>
     </text>
    </g>
    <path fill="#264391" fill-rule="nonzero" d="m1310.78,845.48c0,-9.035 10.49,-19.57 19.55,-19.57l133.74,0.094l-29.95,48.238l-77.48,0l0,185.458l-45.86,0l0,-214.22" id="path22"/>
    <path fill="#264391" fill-rule="nonzero" d="m820.043,937.238c0,111.582 -90.438,202.002 -201.98,202.002c-111.575,0 -202.043,-90.42 -202.043,-202.002c0,-111.593 90.468,-202.004 202.043,-202.004c11.855,0 23.148,1.145 34.437,3.082l-0.312,-78.652l56.757,0l0,97.816c65.629,33.368 111.098,101.129 111.098,179.758m-111.098,-94.273l0,65.035l-56.757,-16.223l0.07,-80.582c-10.914,-2.949 -22.356,-4.793 -34.195,-4.793c-72.239,0 -130.86,58.571 -130.86,130.836c0,72.235 58.621,130.862 130.86,130.862c72.242,0 130.792,-58.627 130.792,-130.862c0,-37.023 -15.226,-70.433 -39.91,-94.273" id="path24"/>
    <path fill="#264391" fill-rule="nonzero" d="m1006.406,825.91l-131.965,0c-9.066,0 -19.679,10.488 -19.679,19.52l-0.098,214.23l45.824,0l0,-185.457l79.528,0l0,185.457l45.894,0l0.03,-214.23c0,-9.032 -10.5,-19.52 -19.534,-19.52" id="path26"/>
    <path fill="#264391" fill-rule="nonzero" d="m1622.13,1051.07c-18.3,10.75 -39.83,16.92 -62.57,16.92c-68.47,0 -124.02,-55.474 -124.02,-124.017c0,-68.426 55.55,-123.914 124.02,-123.914c21.34,0 41.85,5.586 59.41,15.097l-22.4,40.285c-11.05,-6.035 -23.56,-9.496 -37.01,-9.496c-43.11,0 -78.13,34.942 -78.13,78.028c0,43.164 35.02,78.015 78.13,78.015c14.55,0 28.23,-4.008 39.91,-10.965l22.66,40.047" id="path28"/>
    <path fill="#264391" fill-rule="nonzero" d="m1728.32,1067.34c-68.45,0 -123.91,-55.789 -123.91,-124.313c0,-68.422 55.46,-123.597 123.91,-123.597c68.51,0 123.96,55.484 123.96,123.945c0,68.48 -55.45,123.965 -123.96,123.965m0,-202.059c-43.1,0 -77.95,34.664 -77.95,77.746c0,43.114 34.85,78.34 77.95,78.34c43.1,0 78.07,-34.89 78.07,-77.992c0,-43.09 -34.97,-78.094 -78.07,-78.094" id="path30"/>
    <path fill="#264391" fill-rule="nonzero" d="m1191.06,1059.27l-45.47,0l-102.26,-232.125l48.74,0l24.01,51.156l106,0l2.18,-4.93l20.37,-46.226l48.7,0l-102.27,232.125zm-59.69,-142.895l36.92,83.852l36.98,-83.852l-73.9,0" id="path32"/>
    <path fill="#264391" fill-rule="nonzero" d="m2589.84,854.645l-83.99,193.775c-5.01,9.3 -13.61,13.65 -25.87,13.65c-12.17,0 -20.75,-4.35 -25.77,-13.65l-61.72,-142.096l-61.77,142.096c-4.99,9.3 -13.64,13.65 -25.8,13.65c-12.27,0 -20.78,-4.35 -25.86,-13.65l-61.73,-142.443l-61.72,142.443c-4.99,9.3 -13.63,13.65 -25.83,13.65c-12.19,0 -20.82,-4.35 -25.83,-13.65l-61.69,-142.096l-61.79,142.096c-4.98,9.3 -13.62,13.65 -25.82,13.65c-12.17,0 -20.77,-4.35 -25.86,-13.65l-83.96,-193.775c-11.52,-30.317 30.17,-45.961 43.79,-21.547l66.03,154.343l66.08,-154.343c8.57,-15.778 35.14,-15.051 43,0l66.05,154.343l66.03,-154.343c4.26,-7.754 11.47,-11.106 18.81,-11.539c0.93,-0.18 1.82,-0.231 2.71,-0.274c0.89,0.043 1.75,0.094 2.67,0.274c7.36,0.433 14.58,3.785 18.86,11.539l66.06,154.343l66.02,-154.343c7.84,-15.051 34.46,-15.778 43.03,0l66.01,154.343l66.03,-154.343c13.69,-24.414 55.36,-8.77 43.83,21.547" id="path34"/>
    <path fill="#264391" fill-rule="nonzero" d="m2587.21,1057.69c-14.95,0 -27.51,-11.47 -27.51,-27.05c0,-15.679 12.56,-27.156 27.51,-27.156c14.76,0 27.38,11.477 27.38,27.156c0,15.58 -12.62,27.05 -27.38,27.05m0,-49.706c-12.46,0 -22.11,9.59 -22.11,22.656c0,12.86 9.65,22.54 22.11,22.54c12.25,0 21.92,-9.68 21.92,-22.54c0,-13.066 -9.67,-22.656 -21.92,-22.656m12.45,29.356c0,6.16 -3.63,8.88 -11.06,8.88l-11.81,0l0,-31.259l4.64,0l0,13.549l5.47,0l8.24,-13.549l5.28,0l-8.82,13.729c4.53,0.59 8.06,3.04 8.06,8.65m-18.23,-4.82l0,9.69l6.46,0c3.3,0 6.82,-0.75 6.82,-4.6c0,-4.84 -3.61,-5.09 -7.62,-5.09l-5.66,0" id="path36"/>
   </g>
  </g>
 </g>
</svg>