<svg id="svg" version="1.1" width="400" height="364.3333333333333" xmlns="http://www.w3.org/2000/svg" xmlns:xlink="http://www.w3.org/1999/xlink" style="display: block;"><g id="svgg"><path id="path0" d="M53.496 191.417 L 48.833 196.167 53.583 191.504 C 56.196 188.940,58.333 186.803,58.333 186.754 C 58.333 186.516,57.827 187.004,53.496 191.417 " stroke="none" fill="#00007f" fill-rule="evenodd"></path><path id="path1" d="M307.212 20.378 C 281.874 23.632,260.690 50.934,264.444 75.496 C 264.724 77.327,264.913 78.865,264.863 78.914 C 264.814 78.964,261.937 75.788,258.470 71.858 C 254.519 67.378,251.927 64.703,251.526 64.689 C 250.395 64.649,244.709 70.795,242.910 74.000 C 238.210 82.376,237.905 91.494,242.020 100.593 C 242.541 101.744,242.808 102.588,242.615 102.468 C 242.421 102.348,239.106 99.631,235.247 96.428 L 228.231 90.606 217.782 101.051 C 212.035 106.796,207.333 111.646,207.333 111.830 C 207.333 112.013,213.071 117.908,220.083 124.929 C 231.046 135.905,232.506 137.478,230.500 136.155 C 211.538 123.644,189.995 125.826,172.920 141.987 C 154.641 159.285,151.633 182.195,164.876 203.242 L 166.087 205.167 164.627 203.807 C 152.740 192.740,140.102 189.315,126.833 193.563 C 112.816 198.051,100.634 213.460,101.060 226.164 L 101.167 229.334 79.833 208.014 L 58.500 186.694 46.901 198.097 C 40.522 204.369,35.310 209.650,35.318 209.834 C 35.326 210.017,54.496 229.330,77.917 252.750 L 120.501 295.333 143.657 295.333 L 166.813 295.333 149.464 277.917 C 127.220 255.586,124.146 251.756,122.669 244.539 C 121.196 237.342,128.001 228.517,135.000 228.547 C 142.141 228.578,147.019 232.342,171.510 256.723 L 189.519 274.651 201.008 263.159 L 212.497 251.666 199.165 238.304 C 186.917 226.029,186.023 225.058,188.167 226.359 C 207.496 238.091,227.923 236.701,245.648 222.446 C 256.204 213.958,269.815 196.571,269.658 191.777 C 269.633 191.031,252.213 179.925,251.858 180.430 C 251.661 180.710,250.270 182.715,248.767 184.886 C 234.235 205.872,222.046 211.165,210.742 201.398 L 209.316 200.167 231.158 178.335 L 252.999 156.502 266.833 170.333 L 280.666 184.163 292.667 172.167 C 299.267 165.569,304.667 160.022,304.667 159.842 C 304.667 159.661,296.439 151.261,286.382 141.174 C 265.580 120.308,264.613 119.147,262.640 112.658 C 260.623 106.023,262.689 97.661,267.827 91.667 C 270.216 88.880,270.262 88.881,271.800 91.746 C 279.257 105.639,294.311 118.795,308.123 123.488 C 326.716 129.807,343.909 124.782,361.125 108.000 C 369.332 99.999,378.027 87.648,377.995 84.034 C 377.991 83.557,359.443 71.740,359.191 72.054 C 359.141 72.116,358.302 73.367,357.326 74.833 C 342.525 97.075,328.762 103.568,317.570 93.590 L 315.973 92.167 337.961 70.193 L 359.949 48.219 356.447 44.360 C 339.841 26.059,323.804 18.247,307.212 20.378 M309.742 47.661 C 312.167 48.568,315.132 50.407,318.024 52.798 L 320.401 54.762 310.131 65.036 C 298.342 76.829,300.006 76.036,296.578 71.500 C 290.465 63.411,290.170 57.815,295.549 52.005 C 300.144 47.042,304.513 45.705,309.742 47.661 M203.000 156.864 C 205.575 158.104,210.122 161.351,211.309 162.798 C 211.744 163.327,192.222 183.667,191.279 183.667 C 190.755 183.667,186.500 177.384,185.222 174.723 C 179.666 163.160,191.463 151.310,203.000 156.864 " stroke="none" fill="#393e47" fill-rule="evenodd"></path><path id="path2" d="M22.000 295.251 C 22.000 295.389,32.988 306.489,46.418 319.918 L 70.835 344.333 95.500 319.667 L 120.165 295.000 71.082 295.000 C 44.087 295.000,22.000 295.113,22.000 295.251 " stroke="none" fill="#65c1c2" fill-rule="evenodd"></path><path id="path3" d="M92.999 322.250 L 77.500 337.833 93.083 322.335 C 101.654 313.810,108.667 306.798,108.667 306.751 C 108.667 306.517,107.404 307.765,92.999 322.250 " stroke="none" fill="#00ffff" fill-rule="evenodd"></path><path id="path4" d="M114.163 301.083 L 108.500 306.833 114.250 301.170 C 117.412 298.056,120.000 295.468,120.000 295.420 C 120.000 295.183,119.424 295.741,114.163 301.083 " stroke="none" fill="#7fffff" fill-rule="evenodd"></path></g></svg>