<?xml version="1.0" encoding="utf-8"?>
<!-- Generator: Adobe Illustrator 13.0.0, SVG Export Plug-In . SVG Version: 6.00 Build 14948)  -->
<!DOCTYPE svg PUBLIC "-//W3C//DTD SVG 1.1//EN" "http://www.w3.org/Graphics/SVG/1.1/DTD/svg11.dtd">
<svg version="1.1" id="Layer_1" xmlns="http://www.w3.org/2000/svg" xmlns:xlink="http://www.w3.org/1999/xlink" x="0px" y="0px"
	 width="300px" height="300px" viewBox="0 0 300 300" enable-background="new 0 0 300 300" xml:space="preserve">
<path d="M276.142,22.237h1.739c2.144,0,3.9-0.711,3.9-2.591c0-1.414-1.037-2.723-3.76-2.723c-0.852,0-1.432,0-1.88,0.062V22.237z
	 M276.142,31.371h-2.916V15.175c1.353-0.193,2.715-0.457,4.857-0.457c2.591,0,4.207,0.527,5.243,1.309
	c0.905,0.711,1.423,1.8,1.423,3.364c0,2.073-1.361,3.425-3.1,3.882v0.123c1.414,0.264,2.318,1.555,2.644,3.961
	c0.387,2.529,0.711,3.487,0.975,4.014h-2.978c-0.387-0.527-0.72-2.011-1.045-4.137c-0.316-1.958-1.414-2.731-3.426-2.731h-1.678
	V31.371z M278.795,10.836c-6.412,0-11.594,5.375-11.594,12.112s5.182,12.112,11.655,12.112c6.411,0.07,11.532-5.375,11.532-12.112
	s-5.121-12.112-11.532-12.112H278.795z M278.856,8.377c8.019,0,14.431,6.482,14.431,14.51c0,8.16-6.412,14.633-14.492,14.633
	c-8.09,0-14.633-6.473-14.633-14.633c0-8.028,6.543-14.51,14.633-14.51H278.856z"/>
<path d="M70.941,268.111l-2.433-14.412c-0.694-4.154-1.581-10.646-2.257-15.143h-0.264c-0.711,4.531-1.704,11.207-2.433,15.178
	l-2.618,14.377H70.941z M59.629,277.502l-3.162,15.994H44.786l14.571-66.541h14.316l13.236,66.541H75.167l-3.092-15.994H59.629z"/>
<path d="M113.496,263.773c0-0.887,0-1.924-0.176-2.873c-0.465-3.285-2.213-6.244-5.024-6.244c-4.822,0-6.596,6.947-6.596,15.072
	c0,9.336,2.529,14.65,6.429,14.65c1.783,0,3.838-0.914,4.954-4.832c0.272-0.781,0.413-1.826,0.413-3.047V263.773z M125.485,225.189
	v54.508c0,4.32,0.22,9.635,0.396,13.789h-10.355l-0.676-5.543h-0.246c-1.739,3.418-5.524,6.324-10.048,6.324
	c-9.916,0-14.834-10.943-14.834-24.76c0-16.836,7.333-25.023,15.326-25.023c4.181,0,6.886,2.047,8.248,5.008h0.202v-24.303H125.485z
	"/>
<path d="M150.455,285.072c4.576,0,5.709-8.625,5.709-15.766c0-6.789-1.133-15.635-5.91-15.635c-5.06,0-6.123,8.846-6.123,15.635
	c0,8.195,1.335,15.766,6.218,15.766H150.455z M150.227,294.268c-11.049,0-17.979-8.871-17.979-24.75
	c0-17.33,8.897-25.033,18.26-25.033c10.9,0,17.733,9.303,17.733,24.752c0,19.85-10.706,25.031-17.917,25.031H150.227z"/>
<path d="M186.932,276.271c0,1.203,0.22,2.328,0.475,3.082c1.203,4.033,3.241,5.025,4.874,5.025c4.638,0,6.509-5.877,6.509-15.275
	c0-8.555-1.977-14.447-6.562-14.447c-2.274,0-4.189,2.469-4.848,5.121c-0.229,0.834-0.448,2.133-0.448,3.029V276.271z
	 M174.942,225.189h11.989v25.119h0.193c2.362-3.707,5.507-5.824,10.074-5.824c9.038,0,13.579,10.277,13.579,23.715
	c0,16.979-6.772,26.068-15.547,26.068c-4.181,0-6.965-1.854-9.477-6.551H185.5l-0.667,5.77h-10.294
	c0.176-3.996,0.403-9.469,0.403-13.789V225.189z"/>
<path d="M239.508,264.783c0.062-6.771-1.924-11.516-5.727-11.516c-4.339,0-6.184,6.352-6.315,11.516H239.508z M227.422,273.26
	c0.141,8.721,4.726,11.559,10.417,11.559c3.609,0,6.701-0.801,8.985-1.66l1.616,8.625c-3.18,1.369-8.09,2.23-12.798,2.23
	c-12.867,0-19.894-8.793-19.894-23.811c0-16.117,8.151-25.797,18.796-25.797c10.285,0,15.985,8.555,15.985,22.52
	c0,3.197-0.132,4.998-0.343,6.402L227.422,273.26z"/>
<polygon fill="#ED1C24" points="173.845,7.771 250.539,7.771 250.539,191.383 "/>
<polygon fill="#ED1C24" points="119.811,7.771 43.073,7.771 43.073,191.383 "/>
<polygon fill="#ED1C24" points="146.837,75.427 195.697,191.373 163.683,191.373 149.067,154.441 113.294,154.441 "/>
</svg>
