<?xml version="1.0" encoding="utf-8"?>
<!-- Generator: Adobe Illustrator 18.0.0, SVG Export Plug-In . SVG Version: 6.00 Build 0)  -->
<!DOCTYPE svg PUBLIC "-//W3C//DTD SVG 1.1//EN" "http://www.w3.org/Graphics/SVG/1.1/DTD/svg11.dtd">
<svg version="1.1" id="Layer_1" xmlns="http://www.w3.org/2000/svg" xmlns:xlink="http://www.w3.org/1999/xlink" x="0px" y="0px"
	 viewBox="0 0 500 500" enable-background="new 0 0 500 500" xml:space="preserve">
<path id="Blue_1_" fill="#3B5998" d="M471.8,499.3c15.2,0,27.5-12.3,27.5-27.5V28.2c0-15.2-12.3-27.5-27.5-27.5H28.2
	C13,0.7,0.7,13,0.7,28.2v443.6c0,15.2,12.3,27.5,27.5,27.5H471.8z"/>
<path id="f" fill="#FFFFFF" d="M344.7,499.3V306.2h64.8l9.7-75.3h-74.5v-48c0-21.8,6-36.6,37.3-36.6l39.8,0V79
	c-6.9-0.9-30.5-3-58.1-3c-57.5,0-96.8,35.1-96.8,99.5V231h-65v75.3h65v193.1H344.7z"/>
</svg>
