<?xml version="1.0" encoding="utf-8"?>
<!-- Generator: Adobe Illustrator 18.0.0, SVG Export Plug-In . SVG Version: 6.00 Build 0)  -->
<!DOCTYPE svg PUBLIC "-//W3C//DTD SVG 1.1//EN" "http://www.w3.org/Graphics/SVG/1.1/DTD/svg11.dtd">
<svg version="1.1" id="Layer_1" xmlns="http://www.w3.org/2000/svg" xmlns:xlink="http://www.w3.org/1999/xlink" x="0px" y="0px"
	 viewBox="0 0 504 144" enable-background="new 0 0 504 144" xml:space="preserve">
<path fill="#9A9187" d="M54.8,99.1c1.7,11.4,6.6,13.3,6.6,15.6c0,4.9,0.6,8.6-1.2,15.4h19.2c-2.5-5.1-0.9-17.5-0.9-17.5
	c6.6-4.5,7.9-12.6,10.7-16.5c2.8-3.9,4.7-3.9,7.3-6.3c2.6-2.5-3.1-3.2-6.2-2c-3.1,1.1-5.6,6.8-7.3,6.3c-1.6-0.5-2.8-5.7-2.1-8.4
	c0.7-2.7,4.9-16.1,6.4-20.1c1.4-4.1-3.3-3.6-3.8-2c-0.5,1.6-5.5,11-6.9,14.9c-1.4,3.9-2.4,3.5-2.6,0.4c-0.2-2.3-0.2-16.1,0-20.4
	c0.2-4.3-4.2-3.6-4.6-1.1c-0.5,2.5-1.4,18.8-1.9,21.3c-0.5,2.5-1.2,3.4-1.9,1.1c-0.7-2.3-4.2-15.4-4.6-17.7
	c-0.5-2.3-3.8-1.8-3.8,1.1c0,2.9,1.6,16.6,2.1,18.8c0.5,2.3-0.4,2.4-1.9,1c-1.6-1.5-5.3-8.2-6.7-10.5c-1.4-2.3-5.4-1.8-3.3,2.3
	C49.6,78.9,52.9,86.1,54.8,99.1"/>
<path fill="#9CB53B" d="M63.5,51.4c0,0-6.5-3.6-5-10.9c1.3-6.6,7.1-11.8,8.1-12.5c0,0,5.5,5.3,5.5,14c0,8.7-6.9,9.7-6.9,9.7
	s1.1-11.8,0.3-11.9C64.9,39.7,63.5,49.8,63.5,51.4"/>
<path fill="#9CB53B" d="M51.4,103.1c0,0,0.2,5.2-4.8,6.7c-4.5,1.4-9.8-0.4-10.7-0.8c0,0,1.1-5.1,6.4-8c5.3-2.9,8.5,1,8.5,1
	s-7.6,3.3-7.4,3.7C43.7,106.1,50.4,103.6,51.4,103.1"/>
<path fill="#9CB53B" d="M95.3,63.2c0,0-1.3-4.9,3.2-8c4-2.8,9.4-2.8,10.3-2.7c0,0-0.1,5.3-4.5,9.8c-4.4,4.5-8.3,1.8-8.3,1.8
	s6.5-5.6,6.2-6C101.9,57.8,96.1,62.3,95.3,63.2"/>
<path fill="#9CB53B" d="M88.9,78.9c0,0,3.5,4.8,9.8,2.4c5.7-2.1,9.9-7.7,10.5-8.6c0,0-4.9-3.7-12.5-2.3c-7.6,1.4-8.1,7.2-8.1,7.2
	s10.3-2.7,10.4-2.1C99,75.9,90.3,78.7,88.9,78.9"/>
<path fill="#9CB53B" d="M44.8,90.6c0,0,2.5-6.3-3.6-11c-5.5-4.2-13.4-5-14.7-4.9c0,0-0.6,7,5.3,13.5c5.9,6.5,11.9,3.5,11.9,3.5
	s-8.9-8.3-8.3-8.8C35.8,82.6,43.7,89.4,44.8,90.6"/>
<path fill="#9CB53B" d="M51.3,62.8c0,0-7.4-1.7-8.6-9c-1.1-6.6,2.5-12.9,3.2-14c0,0,6.3,2.1,9.3,10.2c3.1,8.1-2.4,12.4-2.4,12.4
	s-3-10.3-3.4-9.6C49.1,53.4,50.2,58.4,51.3,62.8"/>
<path fill="#9CB53B" d="M39.3,70.4c0,0-7.9,2.3-12.8-4C22,60.7,22.1,53,22.2,51.6c0,0,7-1.3,14.1,4.7c7.1,6,4.2,12.9,4.2,12.9
	s-8.2-8.1-8.3-7.2C32.3,62.7,35.9,66.8,39.3,70.4"/>
<path fill="#9CB53B" d="M79.1,56.8c0,0-3.1-7.3,2.4-12.8c5-4.9,12.5-5.7,13.8-5.8c0,0,2,6.6-3,14.1c-5,7.5-12,5.5-12,5.5
	s6.9-8.8,6.1-8.7C85.7,49.1,82.1,53.1,79.1,56.8"/>
<path fill="#9CB53B" d="M18.4,62.5c0,0-3-4.2-7.6-2.5c-4.3,1.5-7.2,6-7.5,6.8c0,0,4,3.4,9.8,2.7c5.8-0.8,5.8-5.5,5.8-5.5
	s-7.8,1.9-7.9,1C10.8,64.6,17.3,62.6,18.4,62.5"/>
<path fill="#9CB53B" d="M95,31c0,0,3.6,2.5,6.9-0.2c3-2.5,4-7,4-7.7c0,0-4.2-1.6-8.6,0.8c-4.4,2.3-3,6.1-3,6.1s5.7-3.9,6-3.1
	C100.5,27.1,95.9,30.6,95,31"/>
<path fill="#9CB53B" d="M64.2,23.9c0,0,1.9-3.2-0.6-5.8c-2.3-2.4-6.1-3-6.7-3c0,0-1.1,3.7,1.1,7.2c2.2,3.6,5.3,2.2,5.3,2.2
	s-3.6-4.6-3-4.9C60.6,19.6,63.8,23.2,64.2,23.9"/>
<path fill="#9CB53B" d="M38.7,30c0,0-3.7,0.3-4.9-3.1c-1.1-3.1,0.1-6.8,0.4-7.4c0,0,3.8,0.7,6,4.3c2.2,3.6-0.4,5.8-0.4,5.8
	s-2.5-5.3-3-4.9C36.5,24.9,38.3,29.4,38.7,30"/>
<path fill="#9CB53B" d="M113.3,59.5c0,0,3.6,4.4,8.7,2.2c4.6-2,7.5-7.3,7.9-8.2c0,0-4.7-3.5-11.1-2.2c-6.4,1.3-6,6.6-6,6.6
	s8.6-2.8,8.7-1.7C121.5,56.6,114.6,59.3,113.3,59.5"/>
<path fill="#9CB53B" d="M79.2,35.4c0,0-5-3.2-3.1-9c1.7-5.2,7-9,7.9-9.5c0,0,4,4.5,3.2,11.4c-0.8,6.9-6.6,7.4-6.6,7.4s2-9.4,1.4-9.5
	C81.4,26.1,79.3,34.1,79.2,35.4"/>
<path fill="#9CB53B" d="M102.4,43.7c0,0-1-4.8,3.4-7c4-2,9.3-1.1,10.1-0.9c0,0-0.3,4.9-4.8,8.4c-4.5,3.5-8.1,0.4-8.1,0.4
	s6.6-4.2,6.3-4.6C109,39.7,103.2,43,102.4,43.7"/>
<path fill="#9CB53B" d="M32.7,96.3c0,0-1.9-4-6.5-3.3c-4.1,0.7-7.6,4.1-8.1,4.7c0,0,3,3.4,8.3,3.6c5.3,0.2,6.4-4,6.4-4
	s-7.3,0.4-7.3,0C25.4,96.9,31.7,96.2,32.7,96.3"/>
<path fill="#9CB53B" d="M17.3,52.3c0,0,0.3-4.4-4.1-6c-4-1.4-8.6-0.1-9.4,0.2c0,0,0.9,4.4,5.5,7.2c4.6,2.7,7.5-0.4,7.5-0.4
	s-6.6-3.2-6.4-3.6C10.6,49.4,16.4,51.8,17.3,52.3"/>
<path fill="#9CB53B" d="M38.4,44.9c0,0-5.5,4.4-11.2,0.1c-5.2-3.9-7.5-11.2-7.7-12.4c0,0,6.5-2.8,14,0.7c7.4,3.5,5.8,10.2,5.8,10.2
	s-9.8-5.8-10.1-5.1C28.9,38.9,37,44.3,38.4,44.9"/>
<path fill="#9CB53B" d="M23.2,82c0,0-1.5,4.9-6.7,4.7c-4.7-0.2-9.1-3.6-9.8-4.3c0,0,2.8-4.4,8.7-5.4c5.9-1,7.7,3.7,7.7,3.7
	S14.9,81.4,15,82C15,82.3,22.1,82.2,23.2,82"/>
<path fill="#9CB53B" d="M115.1,71.5c0,0,2-3.6,6-2.5c3.7,1,6.5,4.4,6.9,5c0,0-2.9,3-7.7,2.7c-4.8-0.3-5.4-4.3-5.4-4.3s6.5,1,6.6,0.6
	C121.6,72.7,116,71.6,115.1,71.5"/>
<path fill="#9CB53B" d="M53.7,37.1c0,0-5.7,0.5-7.9-4.8c-2-4.8-0.7-10.6-0.3-11.5c0,0,5.8,1,9.5,6.5c3.8,5.5-0.1,9.2-0.1,9.2
	s-4.5-8-5-7.7C49.5,29,53,36,53.7,37.1"/>
<path fill="#25303C" d="M196.7,87.9h-8.9l-0.2,0.5L172.5,130h5.6c1.5,0,2.6-0.2,3.5-0.8c0.9-0.7,1.4-1.6,1.9-3l2.3-6.6h12.7l2.3,6.6
	c0.5,1.3,1,2.3,1.9,3c0.9,0.6,2.1,0.8,3.5,0.8h5.5L196.7,87.9z M192.2,99.4c0.3,1.1,0.6,2.4,1,3.4l3.2,9.2h-8.2l3.2-9.2
	C191.6,101.7,191.9,100.5,192.2,99.4"/>
<path fill="#25303C" d="M130.7,121.3l-0.7,0.3L130.7,121.3l-5.2-10.4c-0.7-1.4-1.4-2.2-2-2.6c0.5-0.5,1.3-1.3,2-2.6l9.8-17.8h-9.9
	l-8.4,15.6c-0.3,0.4-0.5,0.6-0.9,0.8c-0.4,0.1-1,0.2-1.7,0.2h-3.6V92.5c0-1.4-0.3-2.6-1.1-3.5c-0.8-0.8-2-1.2-3.5-1.2h-4.5v8.3v6.5
	V130h9.1v-17.7h3.1c0.8,0,1.5,0,1.9,0.2c0.5,0.1,0.7,0.3,1,0.8l6.6,13.3c0.7,1.4,1.5,2.3,2.5,2.8c1.1,0.5,2.3,0.6,3.8,0.6h5.5
	l-0.6-1.1C134.6,128.9,131.3,122.5,130.7,121.3"/>
<path fill="#25303C" d="M169.2,87.9h-3.6c-1.4,0-2.6,0.3-3.5,1.2c-0.8,0.8-1.2,2-1.2,3.5v12.6h-13.5V92.5c0-1.4-0.3-2.6-1.1-3.5
	c-0.8-0.8-2-1.2-3.5-1.2h-4.3v8.3v7.8v26h9V113H161V130h9v-25.5v-8.3v-8.3H169.2z"/>
<path fill="#25303C" d="M246.5,87.9h-3.6c-1.5,0-2.7,0.3-3.5,1.2c-0.8,0.8-1.1,2-1.1,3.5v18.6c0,0.6,0,1.3,0.1,2
	c-0.6-1.1-1.2-2.2-1.8-3.1l-13.4-22.1h-8.6v29.6v4.1v8.3h4.3h0c1.5,0,2.7-0.3,3.5-1.1c0.8-0.8,1.1-2,1.1-3.5v-18.5
	c0-0.6,0-1.3-0.1-2c0.6,1.1,1.2,2.2,1.8,3.1l13.4,22h8.6v-27.2v-6.5v-8.3H246.5z"/>
<path fill="#25303C" d="M266,88.2h4.5l15.9,41.8h-1.2c-3,0-3.8-0.6-4.9-3.4l-3.7-9.9H260l-3.8,9.9c-1.1,2.9-1.8,3.4-4.8,3.4h-1.2
	L266,88.2z M275.4,113l-5.5-14.9c-0.7-2-1.6-5.4-1.6-5.4h-0.1c0,0-0.9,3.4-1.6,5.4l-5.5,14.9H275.4z"/>
<path fill="#25303C" d="M337.4,88.2h4.5l15.9,41.8h-1.2c-3,0-3.8-0.6-4.9-3.4l-3.7-9.9h-16.6l-3.8,9.9c-1.1,2.9-1.8,3.4-4.8,3.4
	h-1.2L337.4,88.2z M346.8,113l-5.5-14.9c-0.7-2-1.6-5.4-1.6-5.4h-0.1c0,0-0.9,3.4-1.6,5.4l-5.5,14.9H346.8z"/>
<path fill="#25303C" d="M429.2,88.2h4.2l11.1,24.3c1,2.1,2.1,4.9,2.1,4.9h0.1c0,0,1.1-2.8,2-4.9l11.1-24.3h4.2l3.6,41.8h-1.2
	c-2.6,0-3.4-1.1-3.6-3.6l-2-25.4c-0.2-2.3-0.2-5.8-0.2-5.8h-0.1c0,0-1.1,3.7-2.1,5.8l-9.9,21.2h-3.7l-9.9-21.2
	c-1-2.1-2.2-5.9-2.2-5.9h-0.1c0,0,0,3.7-0.2,5.9l-2,25.4c-0.2,2.6-1.1,3.6-3.6,3.6h-1L429.2,88.2z"/>
<path fill="#25303C" d="M482,111.8l-14.6-23.6h1.2c2.9,0,3.9,0.4,5.7,3.3l7.1,11.8c1.3,2.2,2.6,4.7,2.6,4.7h0.1c0,0,1.2-2.5,2.6-4.7
	l7.1-11.8c1.8-2.9,2.9-3.3,5.7-3.3h1.2l-14.6,23.6V130H482V111.8z"/>
<path fill="#25303C" d="M317.5,98.3c-1.6-3.4-6.2-7.4-12.8-7.4c-9.3,0-16.4,7.3-16.4,17.4c0,10,7.1,18,16.6,18
	c4.5,0,8.2-1.5,10.4-3.2c2.7-2,5.6,0.3,5.6,0.3s-5.8,6.8-16.1,6.8c-12.2,0-20.9-9.7-20.9-21.9c0-12.1,8.9-21.3,20.6-21.3
	c5.9,0,13.3,2.6,16.1,8.9c1.3,2.9,1.5,4.2,1.5,4.2S318.6,100.6,317.5,98.3"/>
<path fill="#25303C" d="M373.3,88.2h-12.9v3.7v3.5v31c0,2.6,1.1,3.6,3.6,3.6h9.3c12.6,0,21-7.6,21-20.9
	C394.3,95.8,385.9,88.2,373.3,88.2 M372.9,126.3h-7c-0.8,0-1.3-0.4-1.3-1.3V91.8h8.3c10.2,0,17.1,6.1,17.1,17.2
	C390,120.2,383.2,126.3,372.9,126.3"/>
<path fill="#25303C" d="M417.9,126.3h-4.3h-10.4c-0.8,0-1.3-0.4-1.3-1.3v-14.2h15.7v-3.7h-15.7V91.8h10.6h3.6h5.2v-0.1
	c0-2.6-1.1-3.6-3.6-3.6h-20v3.7v4.8v29.7c0,2.6,1.1,3.6,3.6,3.6h18.1c2.6,0,3.6-1.1,3.6-3.6v-0.1H417.9z"/>
</svg>
