<?xml version="1.0" standalone="no"?>
<!DOCTYPE svg PUBLIC "-//W3C//DTD SVG 20010904//EN"
 "http://www.w3.org/TR/2001/REC-SVG-20010904/DTD/svg10.dtd">
<svg version="1.0" xmlns="http://www.w3.org/2000/svg"
 width="900.000000pt" height="900.000000pt" viewBox="0 0 900.000000 900.000000"
 preserveAspectRatio="xMidYMid meet">
<metadata>
Created by potrace 1.10, written by Peter Selinger 2001-2011
</metadata>
<g transform="translate(0.000000,900.000000) scale(0.100000,-0.100000)"
fill="#704f9b" stroke="none">
<path d="M6905 8755 c-33 -8 -92 -14 -132 -14 -39 -1 -84 -6 -100 -12 -15 -6
-77 -15 -138 -20 -60 -5 -164 -15 -230 -24 -106 -14 -205 -25 -475 -55 -142
-15 -275 -31 -385 -45 -60 -8 -180 -22 -265 -31 -85 -9 -177 -20 -204 -25 -27
-5 -81 -9 -120 -9 -39 0 -87 -5 -106 -11 -35 -10 -165 -24 -375 -37 -60 -4
-117 -12 -125 -17 -8 -5 -72 -12 -141 -16 -70 -4 -136 -12 -147 -18 -11 -6
-56 -11 -99 -11 -43 0 -100 -7 -127 -15 -27 -8 -86 -15 -130 -15 -45 -1 -99
-7 -121 -15 -22 -8 -74 -15 -115 -15 -42 0 -102 -7 -133 -15 -32 -8 -90 -15
-130 -15 -40 -1 -90 -7 -112 -15 -23 -8 -77 -15 -125 -15 -47 0 -107 -7 -134
-15 -27 -8 -79 -15 -115 -15 -36 -1 -95 -7 -131 -15 -36 -8 -93 -14 -127 -15
-34 0 -88 -7 -120 -15 -31 -8 -89 -15 -128 -15 -38 0 -86 -5 -105 -10 -19 -6
-82 -15 -140 -20 -120 -12 -295 -32 -490 -56 -74 -9 -151 -17 -170 -19 -18 -1
-36 -7 -38 -13 -2 -7 3 -43 12 -81 9 -39 16 -98 16 -133 0 -35 7 -85 15 -112
8 -27 15 -79 15 -115 0 -36 5 -84 10 -106 6 -22 15 -80 20 -130 5 -49 16 -146
24 -215 9 -69 20 -163 25 -210 5 -47 15 -119 20 -160 20 -136 32 -234 41 -330
6 -52 14 -122 19 -155 6 -33 17 -123 26 -200 9 -77 22 -189 30 -250 8 -60 26
-218 40 -350 14 -132 32 -285 40 -340 8 -55 19 -152 25 -215 6 -63 15 -141 21
-172 5 -32 14 -109 20 -170 5 -62 12 -120 14 -129 3 -8 10 -58 15 -110 15
-143 57 -489 85 -709 30 -236 46 -365 55 -445 5 -44 13 -114 19 -155 23 -161
32 -239 41 -330 6 -52 14 -122 20 -155 13 -85 40 -306 40 -332 0 -32 12 -35
82 -22 74 13 221 35 333 49 44 5 98 14 120 20 22 5 55 11 74 12 19 2 36 8 38
15 4 11 -175 199 -247 259 -55 46 -100 109 -122 171 -17 49 -19 74 -15 158 6
121 27 186 102 310 70 119 152 206 365 387 318 272 432 398 514 568 l41 85 -1
135 c0 208 -51 395 -137 512 -24 32 -37 28 -37 -13 0 -61 -44 -17 -95 95 -44
96 -94 164 -106 144 -5 -7 -9 -30 -9 -50 0 -20 -4 -39 -9 -43 -16 -9 -48 42
-55 86 -10 60 -15 64 -47 33 -21 -20 -30 -24 -33 -13 -22 68 -37 140 -42 206
-4 47 -21 125 -44 198 -50 160 -64 259 -65 450 0 157 0 160 22 163 12 2 45 -7
75 -20 48 -21 68 -23 203 -23 166 0 202 9 303 72 72 45 117 92 144 150 21 43
23 62 23 198 0 151 -4 180 -50 360 -41 159 -66 233 -157 463 -45 116 -46 117
-52 111 -5 -5 -1 -26 44 -194 101 -380 108 -602 24 -767 -53 -104 -232 -235
-367 -269 -85 -21 -213 16 -332 94 -70 47 -208 161 -248 206 -178 201 -287
410 -272 525 6 52 41 135 83 199 14 20 22 40 19 44 -4 3 -25 -1 -46 -9 -42
-17 -51 -15 -51 12 0 18 90 101 189 173 36 27 67 52 69 56 2 5 -6 11 -18 14
-51 13 -2 76 72 92 37 9 36 25 -1 25 -17 0 -33 4 -36 10 -8 12 39 60 59 60 8
0 27 6 43 14 15 8 44 21 63 29 92 39 118 51 230 100 109 49 136 58 203 71 115
22 207 -11 283 -100 133 -155 157 -176 265 -230 53 -27 165 -64 193 -64 10 0
56 18 102 40 93 44 143 64 223 86 41 11 69 28 116 73 77 71 176 133 217 135
40 1 45 -15 13 -52 -35 -42 -32 -58 8 -31 17 13 34 26 37 30 10 12 49 29 69
29 26 0 27 -20 1 -53 -35 -45 -22 -45 67 -1 49 24 94 44 101 44 26 0 25 -31
-3 -60 -14 -15 -23 -30 -18 -32 4 -3 66 -6 137 -7 71 -1 133 -4 136 -6 3 -2
39 1 79 6 96 13 170 54 246 134 73 77 72 75 120 154 87 140 147 183 296 210
60 11 139 -2 189 -31 158 -89 340 -270 464 -458 149 -226 240 -483 206 -584
-14 -43 -66 -86 -105 -86 -50 0 -149 58 -238 141 -203 188 -304 363 -376 646
-12 46 -30 97 -41 115 l-20 33 0 -30 c0 -17 4 -45 10 -63 5 -19 12 -92 15
-164 8 -165 40 -298 93 -382 23 -37 24 -42 12 -95 -17 -79 -18 -81 -32 -81 -7
0 -31 17 -53 38 -43 42 -218 162 -234 162 -6 0 56 -66 137 -147 161 -162 174
-177 250 -275 47 -62 122 -182 122 -195 0 -3 6 -19 14 -36 41 -91 76 -290 76
-428 0 -75 6 -90 82 -190 115 -150 223 -316 261 -400 48 -105 70 -271 56 -414
-9 -91 -33 -205 -50 -237 -5 -10 -9 -22 -9 -27 0 -16 -80 -179 -93 -189 -16
-12 -83 -26 -230 -48 -116 -17 -119 -17 -175 3 -64 23 -76 45 -49 98 23 43 48
107 44 111 -2 2 -59 -52 -128 -119 -221 -218 -366 -295 -575 -304 -194 -10
-342 31 -619 169 -122 61 -359 204 -455 276 -52 38 -64 26 -23 -21 70 -81 412
-365 486 -403 18 -10 27 -22 27 -39 0 -21 -6 -24 -42 -29 -211 -25 -320 -36
-357 -36 l-44 0 6 -91 c4 -50 11 -119 17 -153 10 -62 32 -227 50 -371 21 -163
40 -313 55 -430 9 -66 22 -174 31 -240 8 -66 22 -176 31 -245 9 -69 17 -150
17 -180 l1 -54 -45 -13 c-25 -7 -78 -14 -119 -16 l-74 -2 -32 90 c-117 328
-365 597 -616 668 -68 19 -185 37 -241 37 -42 -1 -42 -1 -18 -14 14 -8 41 -17
60 -21 19 -4 69 -21 110 -38 237 -96 417 -310 532 -632 74 -209 92 -297 92
-450 -1 -141 -17 -211 -76 -329 -102 -203 -283 -306 -538 -306 -118 0 -227 23
-312 66 -28 14 -53 23 -56 20 -10 -10 152 -161 193 -179 22 -10 51 -24 64 -30
16 -8 86 -12 205 -12 148 0 190 3 231 18 101 35 161 73 230 142 132 132 187
294 203 600 l7 140 35 11 c50 16 162 25 179 15 13 -9 23 -68 71 -418 7 -52 19
-98 27 -104 8 -8 30 -9 61 -5 59 9 259 33 425 51 70 8 162 19 205 24 42 6 138
18 212 26 74 9 167 20 205 26 39 5 113 14 165 19 52 6 147 17 210 24 63 8 176
22 250 31 74 9 187 23 250 31 63 8 156 19 205 24 50 5 119 14 155 19 36 6 106
15 155 21 50 6 146 18 215 27 69 8 143 17 165 19 22 2 90 11 150 19 61 8 151
19 200 25 50 6 126 16 169 21 44 5 82 12 85 14 7 7 3 91 -8 175 -15 113 -41
358 -71 660 -5 52 -14 133 -20 180 -14 116 -30 266 -40 380 -5 52 -13 136 -19
185 -6 50 -17 155 -26 235 -8 80 -20 188 -26 240 -5 52 -14 142 -19 200 -5 58
-14 143 -19 190 -6 47 -15 136 -22 197 -6 62 -17 117 -23 122 -7 6 -34 5 -73
-3 -59 -13 -63 -12 -82 8 -16 17 -21 41 -26 131 -4 61 -13 156 -21 211 -8 56
-14 128 -14 161 0 33 -5 85 -11 117 -6 32 -14 106 -19 165 -19 236 -31 359
-41 416 -6 33 -15 116 -20 185 -4 69 -13 152 -18 185 -6 33 -11 83 -11 110 0
28 -7 86 -15 130 -8 44 -14 124 -15 177 0 53 -5 109 -10 123 -6 15 -15 82 -20
149 -20 251 -39 436 -44 445 -4 5 -11 67 -16 138 -16 211 -30 353 -46 443 -8
47 -14 122 -14 168 0 93 6 89 -95 67z m463 -3747 c7 -7 12 -28 12 -47 0 -20 4
-70 10 -111 5 -41 15 -140 21 -220 6 -80 17 -217 25 -305 7 -88 18 -221 23
-295 6 -74 15 -187 20 -250 6 -63 18 -198 26 -300 8 -102 20 -237 25 -300 26
-298 32 -412 23 -421 -9 -9 -66 -22 -198 -45 -44 -7 -116 -20 -160 -29 -75
-14 -136 -26 -325 -60 -167 -30 -249 -45 -330 -60 -47 -9 -121 -22 -165 -30
-44 -8 -105 -18 -135 -24 -30 -6 -122 -22 -205 -36 -82 -14 -181 -32 -220 -40
-38 -7 -101 -19 -140 -25 -38 -6 -106 -17 -150 -25 -94 -18 -395 -71 -510 -91
-44 -7 -116 -21 -160 -29 -44 -9 -109 -20 -145 -26 -36 -5 -78 -14 -95 -19
-16 -5 -65 -12 -107 -16 l-77 -7 -5 37 c-3 20 -8 52 -11 71 -7 39 -30 235 -45
365 -5 47 -14 119 -20 160 -5 41 -17 129 -25 195 -8 66 -21 174 -29 240 -9 66
-20 161 -26 210 -5 50 -14 126 -19 170 -6 44 -20 159 -31 255 -12 96 -28 227
-36 290 -8 63 -17 147 -21 187 -7 88 -14 83 167 107 69 9 147 21 173 26 62 13
130 13 143 0 5 -5 72 -26 149 -45 132 -34 147 -36 260 -32 105 4 130 9 200 37
92 36 122 57 225 155 l75 72 95 17 c52 10 140 26 195 36 55 10 141 26 190 35
50 8 113 20 140 25 28 6 140 26 250 45 202 35 329 58 420 76 28 5 77 14 110
19 33 5 98 16 145 25 47 9 121 23 165 30 44 7 82 13 86 14 3 1 10 -4 17 -11z"/>
<path d="M7155 4538 c-26 -60 -101 -220 -172 -368 -173 -359 -225 -462 -238
-466 -7 -3 -138 77 -292 179 -153 101 -283 187 -290 191 -11 6 -66 -77 -133
-199 -12 -22 -90 -154 -173 -293 -84 -139 -157 -261 -162 -271 -32 -57 -39
-58 -142 -27 -307 93 -463 137 -472 132 -10 -6 -62 -85 -185 -278 -58 -91
-150 -233 -204 -315 -54 -81 -102 -153 -105 -160 -7 -11 8 -180 19 -217 5 -15
12 -17 38 -11 36 7 167 32 241 45 28 5 138 25 245 45 107 20 267 49 355 65
204 37 407 74 610 111 33 6 94 17 135 24 41 8 113 21 160 30 47 9 121 23 165
31 77 13 175 31 320 59 39 7 108 20 155 29 47 9 121 23 165 31 44 9 95 18 113
22 31 5 32 7 31 57 0 28 -4 89 -9 136 -5 47 -13 141 -19 210 -6 69 -15 168
-21 220 -6 52 -19 192 -30 310 -11 118 -24 251 -30 295 -5 44 -12 116 -15 160
-9 128 -27 265 -34 265 -4 0 -16 -19 -26 -42z"/>
<path d="M5438 6834 c-20 -6 -24 -29 -8 -39 6 -4 2 -22 -11 -48 -21 -40 -21
-42 -4 -95 21 -68 74 -159 116 -200 31 -31 36 -32 121 -33 48 -1 94 -2 101 -3
16 -1 21 76 8 164 -16 115 -62 187 -147 229 -44 22 -140 36 -176 25z"/>
<path d="M4235 6644 c-165 -40 -276 -111 -317 -204 -30 -68 -28 -179 6 -247
26 -53 90 -123 112 -123 12 0 36 8 89 31 60 26 130 44 264 71 69 13 86 34 101
118 15 82 1 167 -35 214 -27 36 -32 75 -13 106 7 10 9 22 5 26 -8 8 -184 15
-212 8z"/>
<path d="M5740 5719 c-121 -13 -300 -58 -365 -91 -51 -26 -69 -87 -43 -144 17
-37 127 -118 228 -167 78 -38 91 -41 169 -42 l83 0 48 52 c73 79 150 244 150
320 0 23 -8 42 -25 58 -21 22 -32 25 -97 24 -40 -1 -107 -5 -148 -10z"/>
<path d="M6815 1340 c-144 -22 -228 -62 -322 -154 -40 -39 -73 -78 -73 -87 0
-9 -7 -22 -15 -29 -8 -7 -15 -22 -15 -34 0 -12 -6 -30 -14 -41 -7 -11 -16 -38
-19 -60 -3 -22 -10 -58 -16 -80 -16 -61 -14 -219 4 -262 8 -19 15 -55 15 -78
0 -26 6 -48 15 -55 8 -7 15 -25 15 -41 0 -15 4 -30 9 -33 5 -3 19 -25 31 -48
32 -63 84 -123 136 -157 25 -17 49 -31 53 -31 5 0 14 -7 21 -15 7 -8 23 -15
35 -15 12 0 28 -7 35 -15 8 -9 30 -15 59 -15 25 0 64 -7 86 -15 52 -19 169
-19 231 0 27 8 70 15 95 15 29 0 51 6 59 15 7 8 23 15 35 15 12 0 28 7 35 15
7 8 20 15 29 15 9 0 29 14 45 30 16 17 33 30 37 30 8 0 77 92 97 130 24 45 52
124 52 147 0 12 7 48 15 80 19 73 19 222 0 293 -8 30 -15 69 -15 87 0 17 -4
35 -10 38 -5 3 -10 13 -10 21 0 33 -55 128 -107 184 -60 65 -134 106 -240 134
-74 20 -301 29 -388 16z m241 -155 c27 -8 59 -15 70 -15 12 0 27 -7 34 -15 7
-8 19 -15 27 -15 40 0 163 -140 163 -185 0 -8 8 -27 17 -42 25 -38 25 -373 0
-401 -10 -10 -17 -28 -17 -39 0 -11 -7 -26 -15 -33 -8 -7 -15 -19 -15 -27 0
-20 -96 -120 -135 -140 -16 -8 -46 -19 -65 -24 -19 -4 -54 -13 -78 -18 -41
-11 -52 -10 -224 16 -21 3 -42 11 -49 19 -6 8 -17 14 -24 14 -19 0 -135 112
-135 131 0 9 -7 22 -15 29 -8 7 -15 23 -15 35 0 13 -5 25 -12 27 -17 6 -28
149 -22 283 4 107 8 124 53 211 32 63 120 144 156 144 9 0 18 7 21 15 4 9 19
15 39 15 18 0 48 7 66 15 44 19 113 19 175 0z"/>
<path d="M8315 1335 c-110 -16 -137 -24 -230 -70 -70 -35 -165 -111 -165 -133
0 -5 -7 -12 -15 -16 -8 -3 -15 -14 -15 -24 0 -11 -7 -25 -15 -32 -8 -7 -15
-22 -15 -34 0 -12 -5 -27 -11 -33 -15 -15 -29 -115 -36 -243 -3 -78 0 -122 11
-167 9 -34 13 -68 10 -77 -3 -9 1 -27 10 -41 9 -13 16 -35 16 -48 0 -14 7 -30
15 -37 8 -7 15 -17 15 -22 0 -21 93 -128 141 -164 60 -44 117 -74 139 -74 9 0
25 -7 36 -15 10 -8 40 -15 65 -15 26 0 66 -7 89 -15 55 -19 200 -19 264 0 27
8 72 15 100 15 29 0 59 7 70 15 11 8 30 15 43 15 l23 0 -2 322 -3 323 -180 0
-180 0 -3 -27 c-2 -14 -10 -32 -18 -38 -8 -7 -14 -25 -14 -40 0 -16 -7 -30
-15 -34 -42 -16 -6 -26 103 -28 l117 -3 3 -145 c1 -80 0 -154 -2 -166 -10 -40
-150 -73 -236 -55 -25 5 -68 14 -96 20 -165 33 -281 171 -309 366 -22 153 7
321 68 398 43 54 89 97 103 97 6 0 17 7 24 15 7 8 23 15 35 15 12 0 28 7 35
15 7 8 29 15 49 15 20 1 54 7 76 15 52 19 149 19 211 0 27 -8 67 -15 89 -15
22 -1 51 -7 65 -15 14 -8 37 -14 53 -15 l27 0 0 79 0 78 -62 16 c-150 39 -315
46 -483 22z"/>
<path d="M92 714 l3 -625 370 1 c306 1 373 3 392 15 12 8 28 15 36 15 32 0
136 67 186 120 39 41 85 121 104 180 56 177 57 508 1 613 -8 15 -13 31 -10 36
3 5 -3 19 -14 31 -11 13 -20 29 -20 37 0 7 -4 13 -10 13 -5 0 -10 5 -10 10 0
16 -67 72 -114 96 -144 74 -153 76 -559 80 l-357 4 2 -626z m687 442 c10 -9
27 -16 38 -16 11 0 26 -7 33 -15 7 -8 18 -15 25 -15 22 0 82 -71 116 -137 l34
-67 0 -160 c0 -165 -6 -202 -47 -295 -27 -61 -114 -145 -185 -177 -56 -26 -66
-28 -260 -32 -176 -4 -206 -2 -228 12 l-25 16 0 438 c0 240 4 442 8 448 14 22
40 24 255 20 182 -3 221 -7 236 -20z"/>
<path d="M1830 1325 c0 -7 -7 -18 -15 -25 -8 -7 -15 -23 -15 -35 0 -12 -7 -28
-15 -35 -8 -7 -15 -23 -15 -35 0 -12 -7 -28 -15 -35 -8 -7 -15 -23 -15 -35 0
-13 -7 -25 -15 -29 -8 -3 -15 -14 -15 -25 0 -11 -8 -34 -17 -53 -9 -18 -22
-45 -30 -60 -7 -14 -13 -33 -13 -42 0 -9 -4 -24 -10 -34 -11 -20 -41 -91 -60
-142 -23 -62 -62 -154 -86 -203 -13 -27 -24 -53 -24 -59 0 -5 -13 -39 -30 -75
-16 -35 -30 -70 -30 -77 0 -8 -7 -19 -15 -26 -8 -7 -15 -19 -15 -27 0 -8 -6
-27 -13 -41 -8 -15 -22 -45 -32 -67 -9 -22 -21 -48 -26 -57 -5 -10 -9 -19 -9
-20 0 -2 47 -2 105 0 102 3 105 4 105 26 0 13 7 29 15 36 8 7 15 21 15 30 0
10 8 33 17 52 9 18 22 45 30 60 7 14 13 33 13 41 0 8 7 20 15 27 8 7 15 22 15
34 0 11 7 30 15 40 8 11 15 28 15 39 0 10 7 25 15 33 8 9 15 25 15 37 0 12 7
31 15 41 8 11 15 28 15 38 0 10 4 26 10 36 5 9 28 67 51 127 23 61 52 133 65
162 13 28 24 56 24 61 0 5 9 30 20 56 33 73 82 74 111 3 17 -44 56 -134 79
-182 10 -22 28 -65 40 -95 12 -30 28 -70 36 -88 17 -40 18 -78 2 -89 -7 -4
-69 -10 -138 -13 l-125 -5 -3 -30 c-2 -16 -9 -37 -16 -45 -7 -8 -16 -24 -18
-35 -3 -11 -9 -27 -12 -35 -5 -13 17 -15 171 -12 98 2 188 0 201 -3 12 -3 27
-16 32 -28 10 -22 16 -33 38 -72 7 -11 15 -27 18 -35 11 -29 37 -85 46 -100 4
-8 11 -22 14 -30 3 -8 14 -30 23 -48 l18 -34 102 0 c57 0 105 2 107 5 3 2 -2
10 -11 17 -8 7 -15 19 -15 26 0 7 -9 30 -19 51 -11 21 -45 97 -76 168 -31 72
-60 139 -65 150 -32 72 -56 131 -86 205 -19 47 -39 96 -45 110 -6 14 -18 41
-26 60 -8 19 -21 48 -29 63 -8 16 -14 37 -14 47 0 9 -7 23 -15 30 -8 7 -15 23
-15 35 0 12 -7 28 -15 35 -8 7 -15 21 -15 31 0 9 -7 24 -15 33 -8 8 -15 23
-15 34 0 11 -7 25 -15 32 -8 7 -15 19 -15 26 0 7 -9 31 -20 52 l-20 38 -120 1
c-92 1 -120 -2 -120 -12z"/>
<path d="M2550 1260 l0 -80 161 0 c91 0 169 -4 180 -10 18 -10 19 -27 19 -549
l0 -538 92 4 c51 2 95 6 97 9 7 7 8 50 10 595 l1 466 25 11 c17 8 87 12 191
12 l165 0 -3 78 -3 77 -467 2 -468 2 0 -79z"/>
<path d="M3951 1309 c-12 -15 -21 -35 -21 -43 0 -8 -8 -29 -17 -48 -30 -60
-33 -68 -49 -116 -8 -26 -21 -60 -29 -77 -28 -62 -65 -153 -65 -159 0 -4 -11
-33 -26 -64 -39 -88 -55 -124 -68 -157 -12 -29 -28 -66 -62 -143 -9 -20 -23
-49 -30 -64 -8 -14 -14 -33 -14 -41 0 -8 -7 -20 -15 -27 -8 -7 -15 -23 -15
-35 0 -12 -7 -28 -15 -35 -8 -7 -15 -23 -15 -35 0 -12 -7 -28 -15 -35 -8 -7
-15 -20 -15 -30 0 -10 -7 -23 -15 -30 -8 -7 -15 -23 -15 -36 0 -12 -4 -26 -10
-29 -25 -16 -3 -20 91 -17 83 3 101 6 105 20 3 9 12 32 20 50 8 17 20 47 28
65 30 71 48 113 62 140 8 16 14 37 14 47 0 9 7 23 15 30 8 7 15 23 15 35 0 12
7 28 15 35 8 7 15 21 15 32 0 11 7 26 15 34 8 9 15 26 15 38 0 13 7 29 15 36
8 7 15 23 15 35 0 12 7 28 15 35 8 7 15 22 15 34 0 11 7 30 15 40 8 11 15 28
15 37 0 10 6 30 14 46 8 15 26 60 41 98 45 117 53 133 76 140 26 8 56 -22 65
-67 4 -15 13 -33 20 -39 8 -6 14 -18 14 -26 0 -8 6 -27 14 -41 15 -27 46 -97
85 -187 12 -27 26 -58 31 -67 6 -10 10 -29 10 -43 0 -35 -26 -43 -140 -43 -52
-1 -105 -1 -117 -1 -16 -1 -25 -9 -29 -28 -4 -16 -12 -35 -19 -43 -7 -8 -15
-26 -17 -40 -3 -14 -8 -32 -12 -40 -5 -13 18 -15 180 -12 151 2 190 0 209 -12
22 -14 29 -27 79 -141 15 -33 33 -73 41 -88 8 -16 15 -35 15 -44 0 -8 9 -26
20 -40 19 -25 25 -26 125 -27 58 -1 105 2 105 5 0 4 -7 12 -15 19 -8 7 -15 18
-15 24 0 12 -70 180 -131 317 -16 36 -29 71 -29 77 0 12 -3 21 -33 80 -9 19
-17 39 -17 47 0 7 -7 18 -15 25 -8 7 -15 23 -15 36 0 12 -7 29 -15 38 -8 8
-15 21 -15 28 0 8 -7 23 -15 34 -8 10 -15 26 -15 35 0 9 -7 22 -15 29 -8 7
-15 23 -15 35 0 12 -7 28 -15 35 -8 7 -15 19 -15 27 0 8 -6 27 -14 41 -45 89
-76 159 -76 173 0 9 -7 22 -15 29 -8 7 -15 18 -15 24 0 7 -9 30 -20 51 l-20
40 -114 1 -114 2 -21 -29z"/>
<path d="M4985 1330 c-3 -5 -6 -285 -5 -622 l0 -613 367 -3 c298 -2 374 0 398
12 113 52 154 76 190 111 76 76 135 167 135 211 0 12 7 27 15 34 10 8 15 30
15 65 0 29 7 72 15 95 9 25 15 77 15 127 0 52 -6 97 -15 120 -8 19 -15 54 -15
77 0 23 -7 51 -15 62 -8 10 -15 27 -15 36 -1 60 -113 183 -208 229 -123 60
-136 61 -519 65 -211 2 -354 0 -358 -6z m676 -174 c13 -9 33 -16 45 -16 12 0
27 -7 34 -15 7 -8 16 -15 21 -15 15 0 103 -99 123 -138 10 -20 23 -59 29 -87
21 -97 9 -328 -20 -380 -7 -11 -14 -27 -18 -35 -21 -52 -98 -147 -130 -161
-11 -5 -40 -21 -65 -35 -44 -25 -52 -26 -255 -31 -205 -5 -211 -5 -233 16
l-22 22 2 442 3 441 25 8 c14 4 118 6 232 4 169 -3 211 -7 229 -20z"/>
</g>
</svg>
