<?xml version="1.0" encoding="UTF-8" standalone="no"?>
<!-- Created with Inkscape (http://www.inkscape.org/) -->
<svg xmlns:rdf="http://www.w3.org/1999/02/22-rdf-syntax-ns#" xmlns="http://www.w3.org/2000/svg" height="112.02" width="300" version="1.1" xmlns:cc="http://creativecommons.org/ns#" xmlns:dc="http://purl.org/dc/elements/1.1/" viewBox="0 0 281.25 105.01724">
 <title>Oath, Inc. logo</title>
 <metadata>
  <rdf:RDF>
   <cc:Work rdf:about="">
    <dc:format>image/svg+xml</dc:format>
    <dc:type rdf:resource="http://purl.org/dc/dcmitype/StillImage"/>
    <dc:title>Oath, Inc. logo</dc:title>
    <dc:date>2017-04-20</dc:date>
    <dc:creator>
     <cc:Agent>
      <dc:title>Oath, Inc.</dc:title>
     </cc:Agent>
    </dc:creator>
    <dc:publisher>
     <cc:Agent>
      <dc:title>Oath, Inc.</dc:title>
     </cc:Agent>
    </dc:publisher>
    <dc:source>https://www.blogcdn.com/www.oath.com/mediakit/PressKit_Oath.zip</dc:source>
    <dc:description>Oath, Inc. logo with tagline, converted from Encapsulated PostScript format found in official press kit.</dc:description>
   </cc:Work>
  </rdf:RDF>
 </metadata>
 <g transform="matrix(1.3636 0 0 1.3636 -410.6 -587.8)">
  <g transform="matrix(.94608 0 0 .94608 17.869 27.163)">
   <g fill="#1969bc">
    <path d="m517.41 482.09c0 5.8035-4.7048 10.508-10.508 10.508-5.8038 0-10.509-4.7048-10.509-10.508s4.7048-10.508 10.509-10.508c5.8035 0 10.508 4.7052 10.508 10.508"/>
    <path d="m517.41 455.32c0 5.8035-4.7048 10.508-10.508 10.508-5.8038 0-10.509-4.7048-10.509-10.508 0-5.8039 4.7048-10.508 10.509-10.508 5.8035 0 10.508 4.7042 10.508 10.508"/>
   </g>
   <path fill="#0a0603" d="m411.38 488.38c-0.1873-0.81043-0.31373-1.8726-0.37493-3.1838v-25.573c0-2.9971-0.49968-5.6517-1.499-7.9618-0.93649-2.3101-2.4038-4.2162-4.4025-5.7132-1.8121-1.3736-4.0272-2.3733-6.65-2.9971-2.4355-0.62578-5.3396-0.93783-8.7116-0.93783-3.6857 0-6.9009 0.46891-9.6485 1.4054-2.5613 0.87461-4.6834 2.0305-6.3694 3.466-1.8118 1.4987-3.185 3.278-4.1212 5.3386-0.87595 1.9378-1.3445 3.9667-1.4054 6.0895h13.394c0.24951-2.1556 1.092-3.7707 2.5305-4.85 1.2479-1.0111 3.1212-1.5208 5.6199-1.5208 2.372 0 4.1209 0.46924 5.2456 1.4074 1.1241 0.9415 1.686 2.2252 1.686 3.8503 0 1.6917-1.0004 2.9128-2.9974 3.6623-1.4372 0.50069-3.8098 1.0034-7.12 1.5024-0.8114 0.12609-1.6549 0.25118-2.5282 0.3756-2.4987 0.31305-4.8098 0.78196-6.932 1.4104-2.2486 0.68697-4.1847 1.5934-5.8079 2.7212-1.6251 1.191-2.9041 2.661-3.8406 4.4138-0.93682 1.8164-1.4054 3.9753-1.4054 6.4785 0 2.3779 0.40637 4.5054 1.2188 6.385 0.81073 1.8148 1.9345 3.348 3.372 4.6005 1.4355 1.2505 3.184 2.1904 5.2446 2.8176 2.0616 0.62202 4.2774 0.93437 6.6514 0.93437 3.4339 0 6.244-0.53001 8.4304-1.5916 2.3098-1.1224 4.246-2.7773 5.8075-4.9646h0.1873c0.12442 1.1241 0.31205 2.1241 0.56189 2.997 0.24917 1.0649 0.59299 1.8432 1.0305 2.3423h14.145v-0.656c-0.68798-0.37353-1.1241-1.1237-1.3114-2.2482m-14.34-14.24c0 2.6228-0.90571 4.7466-2.7165 6.3701-1.873 1.623-4.3416 2.4349-7.4002 2.4349-1.9987 0-3.6222-0.4058-4.8707-1.2175-1.2502-0.87454-1.8733-2.3101-1.8733-4.3094 0-1.8747 0.68564-3.3082 2.0603-4.3092 1.3117-0.87327 3.5279-1.6863 6.6504-2.4348 0.81139-0.1863 1.6077-0.37426 2.3897-0.56256 0.77963-0.18629 1.5131-0.4057 2.2011-0.65521 1.3733-0.43579 2.5596-0.90471 3.5593-1.4054zm37.937 5.1524c-0.43747-0.37564-0.74919-0.96733-0.93649-1.7793-0.18662-0.62517-0.28128-1.4071-0.28128-2.3416v-22.577h8.618v-9.2745h-8.618v-14.267h-14.238v14.267h-6.4627v9.2745h6.4627v25.667c0 0.87458 0.0314 1.7178 0.0933 2.5282 0.0619 1.3753 0.31205 2.6242 0.75019 3.7485 0.68598 1.7482 1.6857 3.1537 2.9971 4.2146 1.2482 1 2.7472 1.7502 4.4964 2.2492 1.8736 0.49868 3.9961 0.74822 6.3694 0.74822 2.1221 0 3.9018-0.0632 5.34-0.18629 1.373-0.12646 2.3416-0.28259 2.9034-0.46928v-10.585h-3.466c-1.7489 0-3.0907-0.4058-4.0282-1.2178m56.473-26.042c-0.74919-2.4352-1.9058-4.5276-3.466-6.2751-1.3118-1.4355-2.9034-2.5904-4.7771-3.465-2.1867-1.0609-4.6523-1.5934-7.4002-1.5934-3.372 0-6.1514 0.62543-8.337 1.873-2.1238 1.3111-4.0597 3.1536-5.8075 5.5269h-0.28128v-20.263h-14.612v62.228h14.612v-26.695c0-3.0603 0.78497-5.5587 2.3549-7.4942 1.6338-1.9362 3.7694-2.9041 6.4089-2.9041 2.7623 0 4.8035 0.96792 6.1229 2.9041 0.62745 0.87461 1.0669 1.9057 1.3188 3.0901 0.18763 1.1244 0.28128 2.3419 0.28128 3.6523v27.447h14.613v-31.286c0-2.4342-0.34483-4.6834-1.0308-6.7457m-159.27-26.32c-18.106 0-32.784 14.678-32.784 32.784 0 18.107 14.678 32.784 32.784 32.784s32.785-14.678 32.785-32.784-14.678-32.784-32.785-32.784m0 51.754c-9.9031 0-17.931-7.3266-17.931-18.837 0-11.509 8.0274-18.836 17.931-18.836 9.9029 0 17.931 7.3266 17.931 18.836 0 11.51-8.028 18.837-17.931 18.837"/>
   <g fill="#0a0603">
    <path d="m385.05 500.21-0.76089 2.4175h2.3101l-0.74785-2.4175c-0.0181-0.0446-0.0358-0.0933-0.0535-0.14642-0.0268-0.0713-0.0535-0.15589-0.0799-0.25386-0.0448-0.16933-0.0893-0.34282-0.13345-0.52115-0.0448-0.16893-0.0806-0.32034-0.10736-0.45389h-0.0264c-0.0181 0.0622-0.0381 0.13355-0.0602 0.21375-0.0221 0.08-0.0468 0.16017-0.0732 0.24014-0.0448 0.15154-0.0937 0.32503-0.14716 0.52115-0.0354 0.15141-0.0752 0.28456-0.12007 0.40028zm-4.1266 5.8627 3.4055-9.5481h2.3235l3.4322 9.5481h-2.377l-0.57426-1.8027h-3.3653l-0.57427 1.8027h-2.2703"/>
    <path d="m394.51 506.08-3.1646-9.5481h2.3502l1.4823 4.941c0.0622 0.19596 0.12007 0.40068 0.17359 0.61443 0.0355 0.15115 0.0712 0.28898 0.10669 0.41403 0.0445 0.15114 0.087 0.30673 0.12676 0.46717 0.0401 0.15994 0.0689 0.27593 0.087 0.34754h0.0267c0.0177-0.0716 0.0468-0.1876 0.087-0.34754 0.0398-0.16044 0.0823-0.31603 0.12676-0.46717 0.0351-0.12505 0.0712-0.26288 0.10669-0.41403 0.0181-0.0716 0.0358-0.14254 0.0535-0.21375 0.0355-0.13378 0.0756-0.26716 0.1204-0.40068l1.4686-4.941h2.2837l-3.1513 9.5481h-2.284"/>
    <path d="m402.56 500.55c-0.42743 0-0.75688 0.12476-0.98799 0.37366-0.23178 0.24078-0.38329 0.57457-0.45419 1.0017h2.7777c-0.0448-0.41847-0.18262-0.75213-0.41406-1.0017-0.24015-0.2489-0.54751-0.37366-0.92144-0.37366zm0.1067 5.729c-0.56959 0-1.0863-0.0981-1.5489-0.29408-0.45721-0.18657-0.84217-0.44944-1.1559-0.78768-0.28663-0.31158-0.51072-0.67219-0.67226-1.0819-0.16991-0.45386-0.25519-0.94354-0.25519-1.4686 0-0.51644 0.0853-1.0017 0.25519-1.4559 0.17893-0.44513 0.43011-0.8321 0.75286-1.1616 0.29567-0.29356 0.64049-0.52534 1.0352-0.69464 0.43614-0.19559 0.91675-0.29395 1.4425-0.29395 0.50704 0 0.95655 0.0802 1.3485 0.24051 0.36489 0.15144 0.68564 0.35185 0.96157 0.60139 0.4184 0.38292 0.72544 0.87688 0.92143 1.4822 0.18663 0.55186 0.27559 1.1663 0.2669 1.8425h-4.9276c0.0712 0.48105 0.23579 0.85966 0.494 1.1352 0.26689 0.27593 0.63212 0.41376 1.095 0.41376 0.30235 0 0.55186-0.0619 0.74785-0.1867 0.19566-0.12435 0.34282-0.30255 0.44082-0.53446h2.0432c-0.0716 0.31211-0.20035 0.60607-0.38731 0.88173-0.19599 0.27593-0.43647 0.51633-0.72109 0.72105-0.28529 0.20499-0.60102 0.36555-0.94819 0.48092-0.3562 0.107-0.7522 0.1603-1.1887 0.1603"/>
    <path d="m408.76 499.24v1.0679h0.0405c0.24851-0.4267 0.52042-0.72942 0.81408-0.90776 0.27592-0.17793 0.6144-0.26716 1.0151-0.26716 0.19565 0 0.33813 0.018 0.4271 0.0534v1.8031h-0.0535c-0.65889-0.0892-1.1796 0.0265-1.5623 0.34726-0.39198 0.32938-0.58764 0.86361-0.58764 1.6024v3.1382h-2.083v-6.8373h1.9897"/>
    <path d="m411.78 506.08v-6.8373h2.0833v6.8373zm0-7.8253v-1.7229h2.0833v1.7229h-2.08"/>
    <path d="m414.61 506.08v-1.5623l2.7646-3.0181c0.0351-0.0358 0.0756-0.0756 0.12007-0.12044 0.0532-0.0528 0.10235-0.10663 0.14716-0.16058 0.1067-0.11471 0.21339-0.23097 0.32041-0.34673v-0.0401c-0.1602 0.009-0.31171 0.0133-0.45419 0.0133h-2.564v-1.6024h5.5156v1.5626l-2.5108 2.7644-0.46758 0.48052c-0.11538 0.12452-0.23144 0.24954-0.34716 0.37392v0.0398h0.7746c0.0803-0.009 0.15151-0.0133 0.21372-0.0133h2.5372v1.6294h-6.0497"/>
    <path d="m424.48 504.78c0.48965 0 0.86826-0.19596 1.1355-0.58764 0.25787-0.38292 0.3873-0.89023 0.3873-1.5224 0-0.64083-0.12943-1.1526-0.3873-1.5355-0.26723-0.39195-0.64584-0.58765-1.1355-0.58765-0.50704 0-0.88564 0.1957-1.1348 0.58765-0.2582 0.38292-0.3873 0.89467-0.3873 1.5355 0 0.63222 0.1291 1.1395 0.3873 1.5224 0.24918 0.39168 0.62778 0.58764 1.1348 0.58764zm0 1.5087c-0.56958 0-1.0863-0.1023-1.5489-0.30702-0.41875-0.17795-0.77929-0.42278-1.0816-0.73412-0.33848-0.33852-0.59233-0.74351-0.76123-1.2158-0.16021-0.41808-0.24014-0.8718-0.24014-1.3619 0-0.54283 0.0933-1.0415 0.28027-1.4957 0.16891-0.41807 0.40905-0.78333 0.7211-1.0947 0.33813-0.33851 0.7435-0.60136 1.2154-0.78832 0.4271-0.16017 0.89869-0.24014 1.4151-0.24014 0.56992 0 1.0907 0.10231 1.5626 0.30703 0.41841 0.17834 0.77896 0.41844 1.0816 0.72143 0.29399 0.31135 0.52543 0.67661 0.69467 1.0947 0.19566 0.45416 0.29365 0.95284 0.29365 1.4957 0 0.53409-0.098 1.0332-0.29365 1.4957-0.16924 0.40971-0.40068 0.77029-0.69467 1.082-0.30268 0.31134-0.66323 0.55617-1.0816 0.73412-0.47192 0.20472-0.99267 0.30702-1.5626 0.30702"/>
    <path d="m430.81 499.24v0.93478h0.0398c0.26723-0.39168 0.57895-0.68133 0.93481-0.86829 0.32041-0.17753 0.70772-0.26716 1.1619-0.26716 0.37393 0 0.7124 0.0673 1.0148 0.20067 0.30268 0.14255 0.55654 0.33379 0.76123 0.57433 0.17793 0.20499 0.31606 0.44982 0.41406 0.73437 0.12475 0.32048 0.18696 0.67701 0.18696 1.0683v4.4603h-2.083v-4.0596c0-0.36529-0.0943-0.65888-0.28228-0.88136-0.18797-0.23138-0.46122-0.34714-0.81909-0.34714-0.39399 0-0.70771 0.15586-0.94016 0.46721-0.20603 0.2673-0.30904 0.60567-0.30904 1.0151v3.8058h-2.083v-6.8373h2.0031"/>
    <path d="m441.75 506.29c-0.56959 0-1.0813-0.0976-1.5358-0.29357-0.4271-0.18669-0.79233-0.43623-1.095-0.74757-0.32042-0.33852-0.56524-0.73448-0.73414-1.1886-0.16054-0.42748-0.24048-0.89037-0.24048-1.389 0-0.53383 0.089-1.0281 0.26724-1.4823 0.15987-0.41808 0.39165-0.78795 0.69433-1.108 0.32041-0.33851 0.70772-0.59667 1.1619-0.77501 0.4271-0.1688 0.89869-0.25345 1.4154-0.25345 0.46255 0 0.88564 0.0665 1.2686 0.20027 0.37392 0.12479 0.69868 0.30704 0.97461 0.54754 0.27593 0.24015 0.49433 0.52547 0.65454 0.85418 0.1602 0.30339 0.26255 0.63286 0.30736 0.98876h-2.0168c-0.0712-0.32951-0.21339-0.58741-0.42744-0.77461-0.18663-0.16933-0.4271-0.25385-0.72109-0.25385-0.48965 0-0.85889 0.18251-1.1081 0.54781-0.24048 0.36489-0.36055 0.86788-0.36055 1.5087 0 0.62346 0.12007 1.1178 0.36055 1.4824 0.24014 0.36526 0.60503 0.54754 1.095 0.54754 0.7211 0 1.1352-0.39168 1.2418-1.1753h2.01c-0.0268 0.36516-0.10669 0.70367-0.24048 1.0154-0.15151 0.3559-0.36489 0.66331-0.64082 0.92108-0.28496 0.25829-0.62343 0.45897-1.0151 0.60111-0.39198 0.15116-0.82778 0.22668-1.3087 0.22668"/>
    <path d="m449.06 504.78c0.48931 0 0.86792-0.19596 1.1352-0.58764 0.25787-0.38292 0.38731-0.89023 0.38731-1.5224 0-0.64083-0.12944-1.1526-0.38731-1.5355-0.26723-0.39195-0.64584-0.58765-1.1352-0.58765-0.50771 0-0.88598 0.1957-1.1355 0.58765-0.25786 0.38292-0.38696 0.89467-0.38696 1.5355 0 0.63222 0.1291 1.1395 0.38696 1.5224 0.24951 0.39168 0.62778 0.58764 1.1355 0.58764zm0 1.5087c-0.56992 0-1.0863-0.1023-1.5492-0.30702-0.41874-0.17795-0.77929-0.42278-1.0816-0.73412-0.33847-0.33852-0.59232-0.74351-0.76156-1.2158-0.15987-0.41808-0.23981-0.8718-0.23981-1.3619 0-0.54283 0.0933-1.0415 0.28028-1.4957 0.1689-0.41807 0.40904-0.78333 0.72109-1.0947 0.33847-0.33851 0.74317-0.60136 1.2154-0.78832 0.42711-0.16017 0.89869-0.24014 1.4154-0.24014 0.56958 0 1.0903 0.10231 1.5626 0.30703 0.41807 0.17834 0.77862 0.41844 1.0813 0.72143 0.29399 0.31135 0.52544 0.67661 0.69434 1.0947 0.19566 0.45416 0.29399 0.95284 0.29399 1.4957 0 0.53409-0.0983 1.0332-0.29399 1.4957-0.1689 0.40971-0.40035 0.77029-0.69434 1.082-0.30268 0.31134-0.66323 0.55617-1.0813 0.73412-0.47225 0.20472-0.99301 0.30702-1.5626 0.30702"/>
    <path d="m453.39 506.08v-6.8373h1.9897v0.96117h0.0405c0.22308-0.37352 0.51339-0.66276 0.87059-0.86789 0.32142-0.19559 0.71909-0.29395 1.1927-0.29395 0.46423 0 0.86625 0.1207 1.2054 0.36084 0.30402 0.20513 0.54082 0.48537 0.71005 0.8415h0.0268c0.2582-0.40931 0.56557-0.71243 0.92143-0.90839 0.36523-0.19559 0.76591-0.29395 1.202-0.29395 0.38295 0 0.71674 0.0626 1.0017 0.18696 0.29365 0.11639 0.53413 0.28559 0.72109 0.50807 0.19566 0.22275 0.34249 0.494 0.44082 0.81434 0.0709 0.23175 0.11572 0.48534 0.13311 0.76126 0.009 0.13342 0.0134 0.26653 0.0134 0.40072v4.3666h-2.083v-4.1263c0-0.37456-0.0846-0.65911-0.25385-0.8548-0.1602-0.20473-0.40503-0.30704-0.73414-0.30704-0.0358 0-0.0716 0.009-0.10702 0.0264-0.32075 0.0184-0.56992 0.15626-0.74785 0.41403-0.12475 0.18736-0.20469 0.41887-0.24048 0.6944-0.0177 0.12475-0.0267 0.25817-0.0267 0.40095v3.7523h-2.083v-4.1263c0-0.37456-0.0809-0.65911-0.24181-0.8548-0.17058-0.20473-0.42142-0.30704-0.75253-0.30704-0.33179 0-0.59166 0.12007-0.77996 0.36058-0.22409 0.2672-0.3358 0.61875-0.3358 1.0545v3.873h-2.083"/>
    <path d="m468.35 504.65c0.42911 0 0.76457-0.16957 1.0064-0.50901 0.25018-0.33954 0.37527-0.81274 0.37527-1.4202 0-0.60764-0.11639-1.0943-0.34884-1.4609-0.23279-0.36596-0.595-0.54911-1.0867-0.54911-0.24181 0-0.45219 0.0444-0.63079 0.13378-0.19699 0.0986-0.35787 0.24573-0.48329 0.44209-0.11639 0.16987-0.20536 0.37118-0.26824 0.60336-0.0625 0.25018-0.0933 0.52678-0.0933 0.83076 0 0.58962 0.12944 1.0583 0.38898 1.4067 0.2679 0.34858 0.64818 0.52246 1.1405 0.52246zm-3.5459 3.6857v-9.0939h1.9897v0.82046h0.0401c0.25017-0.32583 0.54885-0.58166 0.89668-0.76728 0.33045-0.16893 0.71909-0.25385 1.1656-0.25385 0.47259 0 0.90137 0.0984 1.285 0.29395 0.33914 0.1786 0.62912 0.42343 0.87059 0.73491 0.26791 0.3381 0.46858 0.7431 0.60236 1.2146 0.12509 0.42787 0.1873 0.88631 0.1873 1.3757 0 0.57888-0.0803 1.1-0.24081 1.5629-0.13378 0.4267-0.32576 0.78729-0.57594 1.0812-0.2592 0.30271-0.55787 0.53879-0.89701 0.70772-0.38363 0.18696-0.80806 0.28024-1.272 0.28024-0.42878 0-0.79902-0.0755-1.1117-0.22668-0.33011-0.16893-0.60671-0.40501-0.83013-0.70772h-0.0264v2.9776h-2.0833"/>
    <path d="m475.26 504.89c0.43647 0 0.78799-0.11563 1.0552-0.34714 0.25787-0.23174 0.38697-0.53446 0.38697-0.90839v-0.86828c-0.14248 0.072-0.31172 0.13823-0.50737 0.20067-0.098 0.0356-0.20269 0.0666-0.31373 0.0937-0.11171 0.0264-0.22475 0.0529-0.34048 0.08-0.44516 0.107-0.76122 0.22235-0.94818 0.34687-0.196 0.14278-0.29366 0.34713-0.29366 0.6143 0 0.28533 0.0886 0.49005 0.26723 0.61443 0.1776 0.11576 0.40905 0.17389 0.694 0.17389zm1.6559 1.1884c-0.0619-0.0712-0.11138-0.18226-0.14649-0.33407-0.0361-0.1245-0.0625-0.26691-0.0806-0.42709h-0.0264c-0.22275 0.3116-0.49868 0.54781-0.82779 0.70759-0.31205 0.15129-0.71273 0.2272-1.2024 0.2272-0.33848 0-0.6542-0.0448-0.94786-0.13352-0.29365-0.0892-0.54316-0.22276-0.74751-0.40201-0.20536-0.1782-0.36557-0.39703-0.48129-0.65585-0.11572-0.26756-0.17358-0.57091-0.17358-0.91009 0-0.35653 0.0669-0.66447 0.20067-0.9234 0.13345-0.24981 0.31606-0.45952 0.54751-0.62949 0.23111-0.16057 0.50737-0.28964 0.82812-0.38763 0.30235-0.0896 0.63179-0.1565 0.98799-0.20132 0.12475-0.0174 0.24449-0.0351 0.36055-0.0536 0.47192-0.0712 0.81005-0.14214 1.0147-0.21398 0.28496-0.10676 0.42711-0.28065 0.42711-0.52209 0-0.23175-0.0796-0.4148-0.23981-0.54885-0.16054-0.13378-0.41005-0.20067-0.74818-0.20067-0.3562 0-0.6231 0.0725-0.80103 0.21676-0.20536 0.15375-0.3251 0.38423-0.36055 0.69126h-1.9098c0.008-0.30272 0.0753-0.59196 0.20001-0.86789 0.13378-0.29399 0.32944-0.54757 0.58764-0.76116 0.24048-0.20472 0.54316-0.36934 0.90806-0.49413 0.39198-0.13378 0.85019-0.20027 1.3756-0.20027 0.48095 0 0.89467 0.0444 1.2418 0.13338 0.37392 0.089 0.69032 0.23151 0.94852 0.42751 0.28496 0.21372 0.494 0.48496 0.62745 0.8147 0.14248 0.32948 0.21372 0.70772 0.21372 1.1348v3.6456c0.009 0.18696 0.0267 0.3389 0.0535 0.45427 0.0268 0.16017 0.0886 0.26691 0.18663 0.32035v0.0937h-2.0164"/>
    <path d="m481.63 499.24v0.93478h0.0398c0.26724-0.39168 0.57862-0.68133 0.93515-0.86829 0.32008-0.17753 0.70771-0.26716 1.1616-0.26716 0.37426 0 0.71207 0.0673 1.0151 0.20067 0.30269 0.14255 0.55587 0.33379 0.7609 0.57433 0.17793 0.20499 0.31573 0.44982 0.41406 0.73437 0.12442 0.32048 0.18729 0.67701 0.18729 1.0683v4.4603h-2.0837v-4.0596c0-0.36529-0.094-0.65888-0.28195-0.88136-0.1883-0.23138-0.46122-0.34714-0.81942-0.34714-0.39366 0-0.70738 0.15586-0.93983 0.46721-0.20603 0.2673-0.30904 0.60567-0.30904 1.0151v3.8058h-2.083v-6.8373h2.0031"/>
    <path d="m487.05 508.33v-1.629h0.7211c0.32041 0 0.5562-0.0713 0.70771-0.21348 0.14215-0.13378 0.21372-0.32035 0.21372-0.56113 0-0.1509-0.0314-0.33355-0.0937-0.54755-0.0625-0.20472-0.15987-0.48496-0.29365-0.84086-0.0535-0.14238-0.11138-0.29827-0.17392-0.46757l-1.8559-4.8342h2.2034l0.94786 2.9509c0.0177 0.0628 0.0358 0.12947 0.0535 0.20067 0.0358 0.098 0.0672 0.20473 0.0937 0.32035 0.0535 0.18696 0.10234 0.3563 0.14682 0.50744 0.0268 0.10702 0.0512 0.20499 0.0732 0.29395 0.0221 0.089 0.0428 0.16489 0.0605 0.22683h0.0264c0.0354-0.1509 0.0756-0.32479 0.12041-0.52078 0.0354-0.15991 0.0799-0.32911 0.13311-0.50744 0.0448-0.18693 0.0936-0.36045 0.1475-0.52102l0.90805-2.9509h2.0964l-2.377 6.9574c-0.0358 0.098-0.0666 0.19126-0.0933 0.28063-0.10703 0.27592-0.21841 0.51645-0.33379 0.72104-0.16054 0.26692-0.33446 0.48536-0.52109 0.65455-0.19599 0.16892-0.42309 0.2886-0.68096 0.36058-0.25853 0.0796-0.56088 0.11968-0.90805 0.11968h-1.3221"/>
   </g>
  </g>
 </g>
</svg>
