<?xml version="1.0" encoding="utf-8"?>
<!-- Generator: Adobe Illustrator 18.0.0, SVG Export Plug-In . SVG Version: 6.00 Build 0)  -->
<!DOCTYPE svg PUBLIC "-//W3C//DTD SVG 1.1//EN" "http://www.w3.org/Graphics/SVG/1.1/DTD/svg11.dtd">
<svg version="1.1" id="Layer_1" xmlns="http://www.w3.org/2000/svg" xmlns:xlink="http://www.w3.org/1999/xlink" x="0px" y="0px"
	 viewBox="0 0 446 170" enable-background="new 0 0 446 170" xml:space="preserve">
<g id="BNackground" display="none">
</g>
<g id="Layer_1_1_">
	<g>
		<polygon fill="#007EE5" points="40.8,26.1 3,50.8 29.1,71.7 67.2,48.2 		"/>
		<polygon fill="#007EE5" points="3,92.6 40.8,117.3 67.2,95.2 29.1,71.7 		"/>
		<polygon fill="#007EE5" points="67.2,95.2 93.7,117.3 131.4,92.6 105.3,71.7 		"/>
		<polygon fill="#007EE5" points="131.4,50.8 93.7,26.1 67.2,48.2 105.3,71.7 		"/>
		<polygon fill="#007EE5" points="67.3,100 40.8,122 29.4,114.6 29.4,122.9 67.3,145.6 105.2,122.9 105.2,114.6 93.8,122 		"/>
	</g>
</g>
<g id="Layer_2">
	<g>
		<path fill="#007EE5" d="M150.7,117.3h17.5c5.1,0,12.3,0,18.2-4.6c7.2-5.5,10.9-16.6,10.9-29.1c0-32.7-20.7-32.8-30.8-32.8h-15.7
			V117.3z M165.3,62.3h2.5c5.9,0,14,0.7,14,21.1c0,21.7-8.2,22.4-14,22.4h-2.5V62.3z"/>
		<path fill="#007EE5" d="M202.2,68.2v49.1h13.7V96c0-3.8,0-15.1,10.1-15.1c0.5,0,1.1,0,2.3,0.2V67.8c-0.7-0.2-1.4-0.3-2.4-0.3
			c-8,0-10.4,8.4-11.6,12.6V68.2L202.2,68.2L202.2,68.2z"/>
		<path fill="#007EE5" d="M250.2,67.1c-14.7,0-20.1,10.3-20.1,25.6c0,15.8,5.8,25.6,20,25.6c14.4,0,20.1-9.9,20.1-25.6
			C270.2,77.3,264.8,67.1,250.2,67.1z M250.2,76.6c4.2,0,5.8,3.4,5.8,16c0,13.2-1.8,16-5.8,16c-4.1,0-5.9-3-5.9-16
			C244.3,80.6,245.7,76.6,250.2,76.6L250.2,76.6z"/>
		<path fill="#007EE5" d="M274.2,68.2v65.8h13.5v-20.2c1.5,1.6,4,4.3,9.4,4.3c15.7,0,16.7-18.9,16.7-25.9c0-8.3-1.6-15.9-6.4-20.8
			c-2.4-2.4-6.1-3.8-9.4-3.8c-6.7,0-9.4,4.9-11.1,8.1v-7.4C286.9,68.2,274.2,68.2,274.2,68.2z M287.7,87.9c0-4.4,0-11.4,6.2-11.4
			c5.3,0,5.7,6.9,5.7,15.5c0,10.4-0.5,16.4-6.1,16.4c-5.8,0-5.8-4.2-5.8-11.3L287.7,87.9L287.7,87.9z"/>
		<path fill="#007EE5" d="M317.8,50.8v66.5h8.1c1.1-3.5,1.6-4.5,2.6-6.4c1.2,2.5,3.5,7.4,11.4,7.4c2.6,0,5.3-0.5,8-1.9
			c9-4.7,9.6-19.4,9.6-24c0-11.9-3.8-24.9-15.9-24.9c-5.9,0-8.6,3.2-10.3,5.3V50.8H317.8z M331.3,85.5c0-2.5,0-5,1.6-6.9
			c1-1.3,2.6-2.1,4.4-2.1c3.9,0,6,3.3,6,16.2c0,12.7-1.9,16-6.2,16c-5.8,0-5.8-6.4-5.8-12L331.3,85.5L331.3,85.5z"/>
		<path fill="#007EE5" d="M381,67.1c-14.7,0-20.1,10.3-20.1,25.6c0,15.8,5.8,25.6,20,25.6c14.4,0,20.1-9.9,20.1-25.6
			C400.9,77.3,395.5,67.1,381,67.1z M381,76.6c4.2,0,5.8,3.4,5.8,16c0,13.2-1.8,16-5.8,16c-4.1,0-5.9-3-5.9-16c0-12.1,1.4-16,5.8-16
			H381z"/>
		<path fill="#007EE5" d="M400.4,68.2l12.7,24l-14.6,25.1h11.9l8.3-14.7l7.2,14.7h14.9l-14.7-27.5l12.7-21.6h-11.9l-6.3,11.4
			l-5.3-11.4L400.4,68.2L400.4,68.2z"/>
	</g>
	<g display="none">
		
			<line display="inline" fill="none" stroke="#377ABC" stroke-width="0.25" stroke-miterlimit="10" x1="14.7" y1="50.8" x2="457" y2="50.8"/>
		
			<line display="inline" fill="none" stroke="#377ABC" stroke-width="0.25" stroke-miterlimit="10" x1="14.7" y1="117.3" x2="457" y2="117.3"/>
	</g>
</g>
</svg>
