<?xml version="1.0" encoding="UTF-8" standalone="no"?>
<!-- Created with Inkscape (http://www.inkscape.org/) -->

<svg
   xmlns:dc="http://purl.org/dc/elements/1.1/"
   xmlns:cc="http://creativecommons.org/ns#"
   xmlns:rdf="http://www.w3.org/1999/02/22-rdf-syntax-ns#"
   xmlns:svg="http://www.w3.org/2000/svg"
   xmlns="http://www.w3.org/2000/svg"
   xmlns:sodipodi="http://sodipodi.sourceforge.net/DTD/sodipodi-0.dtd"
   xmlns:inkscape="http://www.inkscape.org/namespaces/inkscape"
   width="300"
   height="152.10638"
   id="svg2"
   version="1.1"
   inkscape:version="0.48.2 r9819"
   sodipodi:docname="New document 1">
  <defs
     id="defs4">
    <clipPath
       id="clipPath3035"
       clipPathUnits="userSpaceOnUse">
      <path
         id="path3037"
         d="m -0.30829,-8.20527 5.06393,0 0,9.7702 -5.06393,0 0,-9.7702 z"
         inkscape:connector-curvature="0" />
    </clipPath>
    <clipPath
       id="clipPath3025"
       clipPathUnits="userSpaceOnUse">
      <path
         id="path3027"
         d="m 0,0 593.99994,0 0,791.99994 L 0,791.99994 0,0 z"
         inkscape:connector-curvature="0" />
    </clipPath>
    <clipPath
       id="clipPath3017"
       clipPathUnits="userSpaceOnUse">
      <path
         id="path3019"
         d="m 0,650.2679 141.732,0 0,141.732 -141.732,0 0,-141.732 z"
         inkscape:connector-curvature="0" />
    </clipPath>
    <clipPath
       id="clipPath3150"
       clipPathUnits="userSpaceOnUse">
      <path
         id="path3152"
         d="m -0.38789,-0.47304 5.87003,0 0,9.9 -5.87003,0 0,-9.9 z"
         inkscape:connector-curvature="0" />
    </clipPath>
    <clipPath
       id="clipPath3140"
       clipPathUnits="userSpaceOnUse">
      <path
         id="path3142"
         d="m 0,0 593.99994,0 0,791.99994 L 0,791.99994 0,0 z"
         inkscape:connector-curvature="0" />
    </clipPath>
    <clipPath
       id="clipPath3132"
       clipPathUnits="userSpaceOnUse">
      <path
         id="path3134"
         d="m 1,0 117.842,0 0,119.5499 L 1,119.5499 1,0 z"
         inkscape:connector-curvature="0" />
    </clipPath>
    <clipPath
       id="clipPath3439"
       clipPathUnits="userSpaceOnUse">
      <path
         id="path3441"
         clip-rule="evenodd"
         d="m 50.441,691.8 99,0 0,-56.76 -99,0 0,56.76 z"
         inkscape:connector-curvature="0" />
    </clipPath>
  </defs>
  <sodipodi:namedview
     id="base"
     pagecolor="#ffffff"
     bordercolor="#666666"
     borderopacity="1.0"
     inkscape:pageopacity="0.0"
     inkscape:pageshadow="2"
     inkscape:zoom="0.98994949"
     inkscape:cx="201.87067"
     inkscape:cy="56.603745"
     inkscape:document-units="px"
     inkscape:current-layer="g3124"
     showgrid="false"
     fit-margin-top="0.2"
     fit-margin-left="0.2"
     fit-margin-right="0.2"
     fit-margin-bottom="0.2"
     inkscape:window-width="1290"
     inkscape:window-height="1036"
     inkscape:window-x="-9"
     inkscape:window-y="-20"
     inkscape:window-maximized="0" />
  <metadata
     id="metadata7">
    <rdf:RDF>
      <cc:Work
         rdf:about="">
        <dc:format>image/svg+xml</dc:format>
        <dc:type
           rdf:resource="http://purl.org/dc/dcmitype/StillImage" />
        <dc:title></dc:title>
      </cc:Work>
    </rdf:RDF>
  </metadata>
  <g
     inkscape:label="Layer 1"
     inkscape:groupmode="layer"
     id="layer1"
     transform="translate(-147.33445,-590.76931)">
    <g
       transform="matrix(1.25,0,0,-1.25,31.09375,1055.9341)"
       inkscape:label="14-intel-multicore"
       id="g3124">
      <g
         id="g3128"
         transform="matrix(3.2450564,0,0,3.2450564,-34.022126,102.25897)">
        <g
           clip-path="url(#clipPath3132)"
           id="g3130">
          <g
             id="g3136">
            <g
               clip-path="url(#clipPath3140)"
               id="g3138">
              <g
                 transform="matrix(101.192,0,0,80,39.251,37.843)"
                 id="g3144">
                <g
                   id="g3146">
                  <g
                     clip-path="url(#clipPath3150)"
                     id="g3148">
                    <path
                       id="path3154"
                       style="fill:#287ac7;fill-opacity:1;fill-rule:nonzero;stroke:none"
                       d="m -6e-4,0.2147 0.0511,0 0,0.2579 -0.0511,0 0,-0.2579 z"
                       inkscape:connector-curvature="0" />
                    <path
                       id="path3156"
                       style="fill:#287ac7;fill-opacity:1;fill-rule:nonzero;stroke:none"
                       d="m -6e-4,0.5067 0.0511,0 0,0.0592 -0.0511,0 0,-0.0592 z"
                       inkscape:connector-curvature="0" />
                    <path
                       id="path3158"
                       style="fill:#287ac7;fill-opacity:1;fill-rule:nonzero;stroke:none"
                       d="m 0.1398,0.2147 -0.0516,0 0,0.258 0.0521,0 0,-0.0388 c 0,0 0.0146,0.0449 0.0576,0.0449 0.0452,0 0.0694,-0.0422 0.0705,-0.0817 l 0,-0.1824 -0.0522,0 0,0.1613 c 0,0.0082 -0.0081,0.0422 -0.0371,0.0415 C 0.15,0.4169 0.1398,0.3876 0.1398,0.3719"
                       inkscape:connector-curvature="0" />
                    <path
                       id="path3160"
                       style="fill:#287ac7;fill-opacity:1;fill-rule:nonzero;stroke:none"
                       d="m 0.4938,0.3202 c -0.0452,0 -0.0484,-0.0558 -0.0484,-0.0558 l 0.0947,0 c 0,0 -0.0022,0.0558 -0.0463,0.0558 l 0,0.0524 c 0.0818,0 0.0993,-0.1061 0.0995,-0.1165 10e-5,-0.0041 0.0042,-0.0044 0.0043,10e-5 l 0,0.3097 0.0512,0 0,-0.3512 -0.2034,0 c 0,0 0.0054,-0.0619 0.0484,-0.0619 0.0344,0 0.0414,0.0334 0.0414,0.0334 l 0.0522,0 c 0,-0.0075 -0.018,-0.0878 -0.0936,-0.0878 -0.0818,0 -0.1033,0.1037 -0.1033,0.1126 l -0.028,0 c -0.05,7e-4 -0.0511,0.0425 -0.0511,0.0534 l 0,0.1572 -0.0333,0 0,0.0511 0.0333,0 0,0.0932 0.0511,0 0,-0.0932 0.0382,0 0,-0.0511 -0.0382,0 c 0,0 0,-0.1211 0,-0.13 0,-0.0222 0.0154,-0.0272 0.0261,-0.0272 l 0.003,0 c 5e-4,0.0163 0.0207,0.1082 0.1022,0.1082"
                       inkscape:connector-curvature="0" />
                    <path
                       id="path3162"
                       style="fill:#287ac7;fill-opacity:1;fill-rule:nonzero;stroke:none"
                       d="m 0.7063,0.2188 c 0.0103,0 0.0184,0.0102 0.0184,0.024 0,0.0137 -0.0081,0.0239 -0.0184,0.0239 l 0,0.0048 c 0.0124,0 0.023,-0.0122 0.023,-0.0287 0,-0.0166 -0.0106,-0.0288 -0.023,-0.0288"
                       inkscape:connector-curvature="0" />
                    <path
                       id="path3164"
                       style="fill:#287ac7;fill-opacity:1;fill-rule:nonzero;stroke:none"
                       d="m 0.7126,0.2503 c 0,0.0041 -0.0029,0.0048 -0.0057,0.0048 l -0.0054,0 0,-0.0103 0.0048,0 c 0.0033,0 0.0063,4e-4 0.0063,0.0055 0,10e-5 0.0042,0 0.0042,0 0,-0.006 -0.003,-0.0089 -0.0068,-0.0095 l 0.0074,-0.0146 -0.0044,0 -0.0069,0.0144 -0.0046,0 0,-0.0144 -0.004,0 0,0.0331 0.01,0 c 0.0062,0 0.0093,-0.0025 0.0093,-0.009"
                       inkscape:connector-curvature="0" />
                    <path
                       id="path3166"
                       style="fill:#287ac7;fill-opacity:1;fill-rule:nonzero;stroke:none"
                       d="m 0.7063,0.214 c -0.0124,0 -0.023,0.0122 -0.023,0.0289 0,0.0165 0.0106,0.0286 0.023,0.0286 l 0,-0.0047 C 0.696,0.2668 0.6879,0.2565 0.6879,0.2429 0.6879,0.229 0.696,0.2188 0.7063,0.2188"
                       inkscape:connector-curvature="0" />
                  </g>
                </g>
              </g>
            </g>
          </g>
        </g>
      </g>
    </g>
  </g>
</svg>
