<?xml version="1.0" encoding="utf-8"?>
<!-- Generator: Adobe Illustrator 18.0.0, SVG Export Plug-In . SVG Version: 6.00 Build 0)  -->
<!DOCTYPE svg PUBLIC "-//W3C//DTD SVG 1.1//EN" "http://www.w3.org/Graphics/SVG/1.1/DTD/svg11.dtd">
<svg version="1.1" xmlns="http://www.w3.org/2000/svg" xmlns:xlink="http://www.w3.org/1999/xlink" x="0px" y="0px"
	 viewBox="0 0 1107 420" enable-background="new 0 0 1107 420" xml:space="preserve">
<g id="Layer_1" display="none">
	<path display="inline" fill="#454545" d="M1039.3,310.3c-40.8,0-66.4-28.2-66.4-67.6c0-40,26.2-68,67-68
		c40.8,0,66.4,28.2,66.4,67.6C1106.3,282.3,1080.1,310.3,1039.3,310.3z M1039.3,189.5c-29.6,0-48.4,19.4-48.4,52.8
		c0,33.8,19.2,53.2,49,53.2c29.6,0,48.4-19.4,48.4-52.8C1088.3,208.9,1069.1,189.5,1039.3,189.5z M848.5,308.7
		c-12,0-21.8-1-26.8-2.6s-5.8-4.4-5.8-10V189.5c0-6.4,1.6-9.2,9.4-10.8c5.8-1.2,15.6-2,26.8-2c21,0,38.8,2.8,52.8,12.6
		c13.8,9.6,24.4,26.4,24.4,52.6c0,28.4-12.4,44.8-26.4,54C886.7,306.5,866.3,308.7,848.5,308.7z M893.7,202.1
		c-10.2-7.8-23.2-10.6-40.8-10.6c-12.4,0-19.6,1.4-19.6,1.4v100c0,0,6.6,1,18,1c17.8,0,60-2.4,60-50.8
		C911.3,222.9,903.9,209.9,893.7,202.1z M695.5,310.3c-40.8,0-66.4-28.2-66.4-67.6c0-40,26.2-68,67-68c40.8,0,66.4,28.2,66.4,67.6
		C762.5,282.3,736.3,310.3,695.5,310.3z M695.5,189.5c-29.6,0-48.4,19.4-48.4,52.8c0,33.8,19.2,53.2,49,53.2
		c29.6,0,48.4-19.4,48.4-52.8C744.5,208.9,725.3,189.5,695.5,189.5z M589.9,193.5h-35v105.6c0,2.8,0,4.8-1.2,6.6c-1.2,1.8-4,3-7.4,3
		c-3.6,0-6.4-1.2-7.6-3c-1.2-1.8-1.2-3.8-1.2-6.6V193.5h-35c-2.6,0-4.6-0.2-6.4-1.4c-1.6-1.2-2.6-3.2-2.6-6.2c0-3.2,1-5.2,2.6-6.4
		c1.8-1.2,3.8-1.4,6.4-1.4h87.4c2.6,0,4.6,0.2,6.4,1.4c1.6,1.2,2.6,3.2,2.6,6.2c0,3.2-1,5.2-2.6,6.4
		C594.5,193.3,592.5,193.5,589.9,193.5z"/>
	<path display="inline" fill="#00C802" d="M210,0c116,0,210,94,210,210s-94,210-210,210S0,326,0,210S94,0,210,0z"/>
	<path display="inline" fill="#FFFFFF" d="M302.8,116.1l-50.4,177.7c-3.3,11-8,17.1-22.6,17.1c-12.7,0-18.2-4.7-18.2-12.7
		c0-2.5,0.6-5.2,1.4-8l50.7-177.7c3.3-11.3,8-17.1,22.3-17.1c12.9,0,18.5,4.7,18.5,12.4C304.5,110.5,303.7,113.3,302.8,116.1z
		 M157.9,293.7c-3.3,11-8,17.1-22.6,17.1c-12.7,0-18.2-4.7-18.2-12.7c0-2.5,0.6-5.2,1.4-8l50.7-177.7c3.3-11.3,8-17.1,22.3-17.1
		c12.9,0,18.5,4.7,18.5,12.4c0,2.8-0.8,5.5-1.7,8.3L157.9,293.7z"/>
</g>
<g id="Layer_2">
	<circle fill="#00C802" cx="211.4" cy="209.2" r="209"/>
	<g>
		<path fill="#FFFFFF" d="M160,291.1c-3.2,10.8-7.8,16.8-22.2,16.8c-12.5,0-17.9-4.6-17.9-12.5c0-2.4,0.5-5.1,1.4-7.8L171.1,113
			c3.2-11.1,7.8-16.8,21.9-16.8c12.7,0,18.1,4.6,18.1,12.2c0,2.7-0.8,5.4-1.6,8.1L160,291.1z"/>
		<path fill="#FFFFFF" d="M255.6,291.1c-3.2,10.8-7.8,16.8-22.2,16.8c-12.5,0-17.9-4.6-17.9-12.5c0-2.4,0.5-5.1,1.4-7.8L266.7,113
			c3.2-11.1,7.8-16.8,21.9-16.8c12.7,0,18.1,4.6,18.1,12.2c0,2.7-0.8,5.4-1.6,8.1L255.6,291.1z"/>
	</g>
	<g>
		<path fill="#454545" d="M554.8,281.6c0,2.7,0,4.6-1.2,6.4c-1.2,1.7-3.9,2.9-7.2,2.9c-3.5,0-6.2-1.2-7.3-2.9
			c-1.2-1.7-1.2-3.7-1.2-6.4V179.5h-33.8c-2.5,0-4.4-0.2-6.2-1.4c-1.5-1.2-2.5-3.1-2.5-6c0-3.1,1-5,2.5-6.2c1.7-1.2,3.7-1.4,6.2-1.4
			h84.5c2.5,0,4.4,0.2,6.2,1.4c1.5,1.2,2.5,3.1,2.5,6c0,3.1-1,5-2.5,6.2c-1.7,1.2-3.7,1.4-6.2,1.4h-33.8V281.6z"/>
		<path fill="#454545" d="M705.3,161.3c39.4,0,64.2,27.3,64.2,65.3c0,38.7-25.3,65.7-64.8,65.7c-39.4,0-64.2-27.3-64.2-65.3
			C640.5,188.4,665.8,161.3,705.3,161.3z M705.3,278.1c28.6,0,46.8-18.8,46.8-51c0-32.7-18.6-51.4-47.4-51.4
			c-28.6,0-46.8,18.8-46.8,51C657.9,259.4,676.4,278.1,705.3,278.1z"/>
		<path fill="#454545" d="M899.9,278.5c-15.7,10.2-35.4,12.4-52.6,12.4c-11.6,0-21.1-1-25.9-2.5c-4.8-1.5-5.6-4.3-5.6-9.7v-103
			c0-6.2,1.5-8.9,9.1-10.4c5.6-1.2,15.1-1.9,25.9-1.9c20.3,0,37.5,2.7,51,12.2c13.3,9.3,23.6,25.5,23.6,50.8
			C925.5,253.8,913.5,269.6,899.9,278.5z M832.7,275.6c0,0,6.4,1,17.4,1c17.2,0,58-2.3,58-49.1c0-19.5-7.2-32.1-17-39.6
			c-9.9-7.5-22.4-10.2-39.4-10.2c-12,0-18.9,1.4-18.9,1.4V275.6z"/>
		<path fill="#454545" d="M1028.3,161.3c39.4,0,64.2,27.3,64.2,65.3c0,38.7-25.3,65.7-64.8,65.7c-39.4,0-64.2-27.3-64.2-65.3
			C963.6,188.4,988.9,161.3,1028.3,161.3z M1028.3,278.1c28.6,0,46.8-18.8,46.8-51c0-32.7-18.6-51.4-47.4-51.4
			c-28.6,0-46.8,18.8-46.8,51C981,259.4,999.5,278.1,1028.3,278.1z"/>
	</g>
</g>
</svg>
