<?xml version="1.0" encoding="utf-8"?>
<!-- Generator: Adobe Illustrator 18.0.0, SVG Export Plug-In . SVG Version: 6.00 Build 0)  -->
<!DOCTYPE svg PUBLIC "-//W3C//DTD SVG 1.1//EN" "http://www.w3.org/Graphics/SVG/1.1/DTD/svg11.dtd">
<svg version="1.1" id="Layer_1" xmlns="http://www.w3.org/2000/svg" xmlns:xlink="http://www.w3.org/1999/xlink" x="0px" y="0px"
	 viewBox="0 0 461 244" enable-background="new 0 0 461 244" xml:space="preserve">
<g>
	<path fill="#2AACE3" d="M237.5,72.3c-32.9,0-61.4,18.5-75.8,45.6c-14.4-27.1-43-45.6-75.9-45.6c-19.3,0-37.1,6.4-51.5,17.2V17.1
		C34.1,7.8,26.5,0.3,17.1,0.3S0.2,7.8,0,17.1v142.4h0C0.8,206.3,38.9,244,85.8,244c32.9,0,61.5-18.5,75.9-45.6
		c14.4,27.1,43,45.6,75.8,45.6c47.4,0,85.9-38.4,85.9-85.9C323.4,110.7,284.9,72.3,237.5,72.3 M85.8,209.6
		c-28.4,0-51.5-23-51.5-51.5c0-28.4,23.1-51.5,51.5-51.5c28.4,0,51.5,23,51.5,51.5C137.3,186.6,114.3,209.6,85.8,209.6 M237.5,209.6
		c-28.4,0-51.5-23-51.5-51.5c0-28.4,23.1-51.5,51.5-51.5c28.4,0,51.5,23,51.5,51.5C289,186.6,266,209.6,237.5,209.6"/>
	<path fill="#2AACE3" d="M456.6,215.3L409.9,158l46.7-57.4c5.9-7.6,4.2-18.1-3.9-23.7c-8.2-5.7-19.6-4.2-25.9,3.1v0l-40.2,49.3
		L346.4,80v0c-6.3-7.3-17.8-8.8-25.9-3.1c-8.1,5.6-9.8,16.2-3.9,23.7h0l46.6,57.4l-46.6,57.2h0c-5.9,7.6-4.2,18.1,3.9,23.8
		c8.1,5.6,19.7,4.2,25.9-3.1l40.2-49.2l40.1,49.2c6.3,7.4,17.8,8.8,25.9,3.1C460.8,233.4,462.5,222.8,456.6,215.3"/>
</g>
</svg>
