<?xml version="1.0" encoding="utf-8"?>
<!-- Generator: Adobe Illustrator 18.0.0, SVG Export Plug-In . SVG Version: 6.00 Build 0)  -->
<!DOCTYPE svg PUBLIC "-//W3C//DTD SVG 1.1//EN" "http://www.w3.org/Graphics/SVG/1.1/DTD/svg11.dtd">
<svg version="1.1" id="Layer_1" xmlns="http://www.w3.org/2000/svg" xmlns:xlink="http://www.w3.org/1999/xlink" 
	 viewBox="0 0 500 165" xml:space="preserve">
<path id="path3640" fill="#1B4EED" d="M111.1,16.2c0.4-0.8-11.6-8.6-28.3-11.5C68.3,2.1,50.3,1.7,34.7,10c-3.9,2.1-6.7,4.2-9.4,6.2
	C18,22,14.1,27.3,11.1,31.6c-3.2,4.8-5.8,11.5-6.6,14.7c-1.2,3.9-1.5,7.4-2,11.5c-0.4,2.5-0.3,5.5-0.2,8.1C2.5,72.3,4,79.6,7,86
	c2.3,5.1,5.5,9.4,8.2,13.7c4.9,6.7,12.8,11.2,17.3,13.7c3.7,1.9,8,4.1,15.8,5.3c8.6,1.4,21.5,1.4,42.1-1.8
	c5.8-0.9,11.9-2.7,18.9-4.4c0.6-0.1,0.9-0.3,1.4-0.4c0.4-0.1,0.8-0.1,0.8-0.4c-0.4-9-0.3-19.2-0.1-23.8c0-0.7,0.2-2.8,0.2-3.8
	c0-0.8,0.4-0.7,0.9-1.1l4.4-4.4l-33.1-0.4l-11.5,6.5l23-0.9v25.6c0,0-9.3,4.1-21.9,3.7c-9.1-0.2-20.3-2.3-31.1-10.4
	C25.6,90,19.8,72.4,19.7,59.8c-0.1-6.4-0.2-11.2,0.3-13.3c0.5-1.8,1.2-6.3,3-10.9c2.6-6.4,6.9-13.2,15.1-18.8
	c5.1-3.3,11.6-6.4,19.4-7.1c9-0.8,15.5,0.2,20.8,2.3c13.3,5.3,15.9,9.3,17.9,10.9c0.1,0.1,0.5,0.4,0.4,0.6c-0.2,0.3-0.2,0.6-0.3,0.7
	c-0.8,1.5-3.2,5.6-3.2,5.6l5.2-0.5L111.1,16.2L111.1,16.2z"/>
<path id="path7733" fill="#EE2B35" d="M161.5,39c-1.9,0.1-2.9,0.2-2.9,0.2c1.5-0.4-38.1,4.5-34.2,43.4c1.1,10.9,6.3,17.8,12,22.4
	c12.2,9.8,28.9,9.7,28.9,9.7c6,0.3,21.1-4.8,30.1-17.6c4.6-6.4,8.1-14.4,6.3-26.1c-1.8-11.2-6.6-18.7-12.4-23.3
	C179.7,39.5,167.2,38.8,161.5,39L161.5,39z M159.4,44.1c7.5,0,20.6,3.7,24.8,26.7c5.9,32.4-8.9,35.3-12.4,37.1
	c-4.7,2.3-24.8,4.5-32-29c-7-32.8,15.1-34.3,13.9-34.2C153.8,44.9,156.2,44.1,159.4,44.1L159.4,44.1z"/>
<path id="path8122" fill="#1643EC" d="M333.8,40.8c-1.4,0-4.9,0.1-8.6,0.8c-9.3,1.7-22.3,7.8-26,20.7c-5.8,19.8,8.8,27.8,8.8,27.8
	s5.2,3,7.1,3.7c6.3,1.8,13.1,0.9,13.1,0.9s-2.6,8.8,2.7,15.3c1.3,1.5,0.4,1.5,0.4,1.5s-23.5-0.6-34.6,11.2
	c-11.1,11.8-5.2,22.7-5.2,22.7s6,14.3,31.2,15c25.4,0.7,41.1-14.3,42.4-25.6c0.7-5.8-0.1-11-2.9-15.7c-2.8-4.7-7.4-8.4-12.3-12.3
	c-2.9-2.3-5.1-3.6-6.3-5.1c-1.2-1.3-1.4-2.9-1.3-4.4c0.1-1.7,0.9-3.9,4.2-7.3c5.7-6.4,6.9-5.8,10.2-10.4c1-1.4,1.7-3.6,2.8-6.6
	c0.6-1.9,0.5-3.9,0.5-5.8c0-4.1-0.9-7.6-2.5-10.8c-2.9-6-7.9-9.6-8-9.8h8.7l9.8-5.9l-33.5-0.1C334.6,40.8,334.3,40.8,333.8,40.8z
	 M326.6,46.2c5.3,0.1,12.9,2.6,17.5,16.5c7.9,23.7-8.6,27.4-8.6,27.4s-18.9,2.9-22.5-18.3c-3.6-21.5,5.2-22.6,8.4-24.8
	C321.3,47.1,323.6,46.2,326.6,46.2z M337.1,116.3c0,0,15.1,9.2,16.5,16.1c1.6,7.6,1.7,13.2-9.7,19.1c-3.4,1.8-9.3,2-13.2,2
	c-9.1,0.1-16.3-3.6-19.6-5.5c-1.8-0.9-11.8-12.2-4.5-22.1c1.8-2.5,4.1-3.7,5.9-5.1c4.2-2.7,8-4.2,15.6-4.8
	C330.6,116.3,333.8,116.5,337.1,116.3z"/>
<path id="path8279" fill="#00B817" d="M366.5,5.9L378.3,0l22.3,0.1c0,0-6.1,2.9-6.4,7.3c-0.5,4.7,0,93,0,93c0.1,2.3-0.9,5.2,5.5,5.8
	c7.7,0.8,9,0.9,9,0.9l-5.6,4.3l-29.3-0.2l3.1-3.4c0,0,1.7-1.3,1.6-6.9C378.6,95,378.5,6,378.5,6L366.5,5.9L366.5,5.9z"/>
<path id="path8363" fill="#EE2B34" d="M449.5,38.8c-0.5,0-3-0.3-3.7-0.2c-21.3,1.6-31.2,13.8-34.4,24.8c-3.3,11-0.6,27.1,4.2,34.2
	c4.8,7.1,14.4,16.1,29.7,16.4c15.3,0.3,23.5-7,28.8-12.2c0.4-0.4,0.6-1.1,0.6-1.1s-9.6,5.6-19.4,5.5c-10.6-0.1-27.4-10.5-31.5-32.2
	c4.2-0.3,7.3-0.5,11.8-0.5L472.8,58c0,0-0.9-5-4.8-9.5c-2.3-3-6.3-6-10.6-7.7C454.5,39.5,453.4,39.5,449.5,38.8z M440,43.7
	c0.5,0,1,0,1.5,0c2.9,0.1,5.5,0.7,7.5,2.1c1.5,0.9,2.6,2.3,4.5,3.9c3.3,2.9,3.2,6.6,3.2,6.6c-0.1,0.8,0.7,1.9-1.2,3.1
	c-5,3-15.3,6.9-23.8,10.5c-2.8,1.2-6,2.2-7.9,3.2c0,0-1.8-10,1.2-18.5c1.6-4.6,5.1-8.2,9.5-10C436.9,44,438.5,43.8,440,43.7
	L440,43.7z"/>
<path id="path7733-4" fill="#FCB110" d="M248.6,38.8c-1.9,0.1-2.9,0.2-2.9,0.2c1.5-0.4-38.1,4.5-34.2,43.4
	c1.1,10.9,6.3,17.8,12,22.4c12.2,9.8,28.9,9.7,28.9,9.7c6,0.3,21.1-4.8,30.1-17.6c4.6-6.4,8.1-14.4,6.3-26.1
	c-1.8-11.2-6.6-18.7-12.4-23.3C266.7,39.4,254.3,38.6,248.6,38.8z M246.7,43.9c7.5,0,20.6,3.7,24.8,26.7
	c5.9,32.4-8.9,35.3-12.4,37.1c-4.7,2.3-24.8,4.5-32-29c-7-32.8,15.1-34.3,13.9-34.2C240.8,44.7,243.2,43.9,246.7,43.9L246.7,43.9z"
	/>
<path id="polyline222" d="M494.8,48.7v-10h-0.1l-3,10h-0.9l-3-10h-0.1v10h-1.1v-11h1.9l2.8,8.8h0.1l2.8-8.8h1.9v11 M481.1,38.8v9.8
	h-1.2v-9.8h-3.3v-1h7.7v1"/>
</svg>
