<?xml version="1.0" encoding="UTF-8" standalone="no"?>
<!-- Created with Inkscape (http://www.inkscape.org/) -->

<svg
   xmlns:dc="http://purl.org/dc/elements/1.1/"
   xmlns:cc="http://creativecommons.org/ns#"
   xmlns:rdf="http://www.w3.org/1999/02/22-rdf-syntax-ns#"
   xmlns:svg="http://www.w3.org/2000/svg"
   xmlns="http://www.w3.org/2000/svg"
   xmlns:xlink="http://www.w3.org/1999/xlink"
   xmlns:sodipodi="http://sodipodi.sourceforge.net/DTD/sodipodi-0.dtd"
   xmlns:inkscape="http://www.inkscape.org/namespaces/inkscape"
   width="853.46771"
   height="290.50366"
   id="svg2"
   version="1.1"
   inkscape:version="0.48.4 r9939"
   sodipodi:docname="Google-Logo.svg"
   style="display:inline">
  <defs
     id="defs4">
    <linearGradient
       inkscape:collect="always"
       id="linearGradient7721">
      <stop
         style="stop-color:#000000;stop-opacity:1;"
         offset="0"
         id="stop7723" />
      <stop
         style="stop-color:#000000;stop-opacity:0;"
         offset="1"
         id="stop7725" />
    </linearGradient>
    <linearGradient
       id="linearGradient7673">
      <stop
         style="stop-color:#ffffff;stop-opacity:1"
         offset="0"
         id="stop7675" />
      <stop
         style="stop-color:#ffffff;stop-opacity:1;"
         offset="1"
         id="stop7677" />
    </linearGradient>
    <linearGradient
       id="linearGradient3645">
      <stop
         style="stop-color:#ffffff;stop-opacity:1;"
         offset="0"
         id="stop3647" />
      <stop
         style="stop-color:#000000;stop-opacity:0.94736842"
         offset="1"
         id="stop3649" />
    </linearGradient>
    <linearGradient
       inkscape:collect="always"
       xlink:href="#linearGradient3645"
       id="linearGradient3653"
       x1="154.81558"
       y1="495.32358"
       x2="155.53278"
       y2="513.04901"
       gradientUnits="userSpaceOnUse" />
    <linearGradient
       inkscape:collect="always"
       xlink:href="#linearGradient7673"
       id="linearGradient7681"
       x1="45.22744"
       y1="538.96661"
       x2="124.44469"
       y2="559.14996"
       gradientUnits="userSpaceOnUse"
       gradientTransform="translate(-110.63173,17.600503)" />
    <linearGradient
       inkscape:collect="always"
       xlink:href="#linearGradient7721"
       id="linearGradient7727"
       x1="165.77869"
       y1="530.64087"
       x2="165.77869"
       y2="504.18362"
       gradientUnits="userSpaceOnUse"
       gradientTransform="translate(0.81967213,36.458185)" />
  </defs>
  <sodipodi:namedview
     id="base"
     pagecolor="#ffffff"
     bordercolor="#666666"
     borderopacity="1.0"
     inkscape:pageopacity="0.0"
     inkscape:pageshadow="2"
     inkscape:zoom="0.79543181"
     inkscape:cx="356.80037"
     inkscape:cy="46.654381"
     inkscape:document-units="px"
     inkscape:current-layer="layer1"
     showgrid="false"
     inkscape:window-width="1366"
     inkscape:window-height="716"
     inkscape:window-x="0"
     inkscape:window-y="27"
     inkscape:window-maximized="1"
     fit-margin-left="10"
     fit-margin-right="10"
     fit-margin-bottom="10"
     fit-margin-top="10" />
  <metadata
     id="metadata7">
    <rdf:RDF>
      <cc:Work
         rdf:about="">
        <dc:format>image/svg+xml</dc:format>
        <dc:type
           rdf:resource="http://purl.org/dc/dcmitype/StillImage" />
        <dc:title />
      </cc:Work>
    </rdf:RDF>
  </metadata>
  <g
     inkscape:label="Basic"
     inkscape:groupmode="layer"
     id="layer1"
     style="display:inline"
     transform="translate(23.21242,-349.16388)">
    <g
       id="g3307">
      <path
         inkscape:connector-curvature="0"
         sodipodi:nodetypes="csssssssssssssssssccccccsssssssssssccc"
         id="path3640"
         d="m 170.8463,386.37858 c 0.68663,-1.28993 -19.59859,-14.67911 -47.61981,-19.47704 -24.546768,-4.20302 -55.226309,-4.89691 -81.376094,8.92376 -6.544437,3.45886 -11.469305,6.78158 -16.020554,10.2299 -12.399978,9.39505 -18.7650806,18.62039 -23.9024856,25.93293 -5.448467,7.7553 -9.5536635,19.40839 -11.2553232,24.70957 -2.0740222,6.4612 -2.4909142,12.68627 -3.4322932,19.35301 -0.612967,4.34097 -0.495379,9.03629 -0.270739,13.93744 0.503401,10.98309 2.885474,22.9542 8.1084387,33.93548 3.93623182,8.27593 9.0767073,16.03972 14.0408015,23.08827 8.1170768,11.52549 21.4504088,18.9793 29.2485478,22.99373 6.119077,3.15006 13.710711,6.56377 26.642155,8.69193 14.666851,2.41377 36.305616,2.36091 70.952756,-3.0595 9.58734,-1.49991 20.07835,-4.64972 31.81082,-7.06686 0.97585,-0.20105 1.58062,-0.51983 2.3551,-0.72125 0.72,-0.18726 1.36075,-0.0733 1.33543,-0.60327 -0.73358,-15.35438 -0.46645,-32.55765 -0.15874,-40.28243 0.0468,-1.17508 0.3287,-4.81031 0.34184,-6.34764 0.0117,-1.37154 0.72733,-1.20703 1.45425,-1.8405 l 7.17213,-7.06967 -56.14755,-0.81967 -19.67213,11.06558 39.03689,-1.63935 0,43.34016 c 0,0 -15.8357,6.60014 -36.98551,6.14758 -15.559914,-0.33295 -34.273397,-3.9239 -52.358752,-17.52052 -28.382774,-21.33826 -38.336636,-50.88911 -38.500085,-72.22562 -0.08233,-10.74741 -0.364852,-18.97129 0.48779,-22.44652 0.751001,-3.06096 1.960559,-10.49547 5.201832,-18.53474 4.395588,-10.9023 11.8329,-22.24825 25.529645,-31.57686 8.4002,-5.72123 19.692554,-11.02765 32.998031,-12.18348 15.309769,-1.32994 26.129019,0.39919 35.172799,3.91282 22.30147,8.66444 26.7675,15.94297 29.99114,18.47447 0.15872,0.12464 0.87662,0.65627 0.61368,1.03683 -0.31511,0.45606 -0.35409,0.95639 -0.50504,1.22925 -1.41879,2.56449 -5.43651,9.26057 -5.43651,9.26057 l 8.50409,-0.92214 22.64345,-21.92622 z"
         style="fill:#1b4eed;fill-opacity:1;stroke:none" />
      <path
         inkscape:connector-curvature="0"
         sodipodi:nodetypes="ccsscsssccssscc"
         id="path7733"
         d="m 255.79814,424.5625 c -3.16029,0.082 -5.03125,0.34375 -5.03125,0.34375 2.63909,-0.60346 -64.26562,7.42653 -57.78125,73.34375 1.81212,18.42123 10.50602,29.7853 20.30874,37.85619 20.46291,16.84778 48.55089,16.55211 48.55089,16.55211 9.85343,0.46659 35.72313,-7.84019 50.67354,-29.64948 7.54876,-11.01194 13.92531,-24.22657 10.77933,-44.00882 -3.00231,-18.87886 -11.25172,-31.41278 -20.75,-39.53125 -16.27153,-13.90776 -37.26912,-15.15217 -46.75,-14.90625 z m -3.40625,8.9375 c 12.80581,0.0329 34.82143,6.10618 41.8125,45.09375 9.8232,54.7817 -15.17814,59.77513 -20.90625,62.6875 -7.60839,3.86837 -41.87916,7.3728 -54.09375,-48.75 -12.04844,-55.35938 25.52756,-58.02001 23.375,-57.78125 0,0 3.99168,-1.26497 9.8125,-1.25 z"
         style="fill:#ee2b35;fill-opacity:1;stroke:none" />
      <path
         inkscape:connector-curvature="0"
         sodipodi:nodetypes="csscscscscsssssssssssccccccscscccsssssssc"
         id="path8122"
         d="m 546.64189,427.6875 c -2.39049,-8.9e-4 -7.99974,0.13398 -14.6875,1.34375 -15.80704,2.8594 -37.66017,13.29503 -43.84375,35.03125 -9.56333,33.61656 15.0625,46.96875 15.0625,46.96875 0,0 8.62565,5.0683 12.1875,6.0625 10.7047,2.98797 22.09375,1.59375 22.09375,1.59375 0,0 -4.54113,15.03534 4.5625,25.65625 2.17348,2.53573 0.59375,2.625 0.59375,2.625 0,0 -39.78814,-1.0273 -58.625,18.96875 -18.83686,19.99605 -8.625,38.40625 -8.625,38.40625 0,0 9.87005,24.0649 52.46875,25.28125 42.78799,1.22176 69.25119,-24.12098 71.5625,-43.25 1.16176,-9.61504 -0.15199,-18.62246 -4.96875,-26.5 -4.68484,-7.66179 -12.73495,-14.25758 -20.59375,-20.6875 -4.88312,-3.99529 -8.27968,-6.04648 -10.46875,-8.34375 -2.06806,-2.17028 -2.41695,-4.96545 -2.34375,-7.0625 0.10223,-2.92861 1.64529,-6.52013 6.78125,-12.46875 9.36966,-10.85221 11.74513,-9.50129 17.40625,-17.625 1.69717,-2.43544 2.94559,-5.98852 4.6875,-11.28125 1.04942,-3.18863 0.87493,-6.48902 0.875,-9.5625 1.6e-4,-6.64497 -1.5956,-12.97529 -4.25,-18.3125 -4.93287,-9.91854 -13.40034,-16.35724 -13.5625,-16.84375 l 14.84375,0 16.8125,-9.84375 -56.71875,-0.15625 c 0,0 -0.45317,3e-4 -1.25,0 z m -12.1875,9.21875 c 8.65148,0.0594 21.64918,4.54129 29.4375,27.90625 13.36498,40.09498 -14.625,46.21875 -14.625,46.21875 0,0 -32.07301,4.93896 -37.96875,-30.71875 -6.00583,-36.32353 8.62087,-38.28844 14.34375,-41.875 0,0 3.62161,-1.56691 8.8125,-1.53125 z m 17.71875,118.125 c 0,0 25.53601,15.65215 27.9375,27.125 2.69061,12.85408 2.8717,22.21612 -16.625,32.46875 -5.75553,3.02663 -15.85735,3.37912 -22.21875,3.40625 -15.63565,0.0667 -27.44523,-5.95182 -33.28125,-8.96875 -3.03295,-1.56789 -19.87818,-20.48428 -7.40625,-37.40625 3.1372,-4.25656 6.61353,-6.14366 9.84375,-8.3125 6.87438,-4.61559 13.62228,-6.76556 26.34375,-7.875 4.23123,-0.36901 9.86959,-0.0583 15.40625,-0.4375 z"
         style="fill:#1643ec;fill-opacity:1;stroke:none;display:inline" />
      <path
         inkscape:connector-curvature="0"
         sodipodi:nodetypes="cccscsccccscc"
         id="path8279"
         d="m 601.69643,368.82304 19.93485,-9.65916 37.81455,0.20552 c 0,0 -10.07018,4.93233 -10.89223,12.53634 -0.82206,7.60402 0,156.80709 0,156.80709 0.21047,3.90476 -1.52321,8.52882 9.04261,9.55639 13.19299,1.28307 15.41354,1.54136 15.41354,1.54136 l -9.24813,6.98747 -49.32333,-0.41103 5.34336,-5.75439 c 0,0 2.8772,-2.26065 2.67168,-11.71429 -0.20551,-9.45363 -0.30827,-159.99255 -0.30827,-159.99255 l -20.44863,-0.10275 z"
         style="fill:#00b817;fill-opacity:1;stroke:none" />
      <path
         inkscape:connector-curvature="0"
         sodipodi:nodetypes="cssssscscccssccssscsscssc"
         id="path8363"
         d="m 742.14574,424.35226 c -0.94278,0.004 -5.22954,-0.47601 -6.24958,-0.39754 -36.02015,2.77078 -52.64594,23.1727 -58.1875,41.8125 -5.54156,18.6398 -1.02732,45.84682 6.78125,57.9375 7.80856,12.09068 24.18042,27.18372 50.125,27.6875 25.94459,0.50378 39.82374,-11.85501 48.375,-20.40625 0.56675,-0.56675 1,-1.75 1,-1.75 0,0 -16.35916,9.24552 -33,9.0625 -18.01841,-0.19817 -46.18206,-17.6872 -53.125,-54.40625 6.7694,-0.53539 12.43719,-0.88303 19.875,-0.75 l 63.25,-25.9375 c 0,0 -1.53234,-8.23613 -7.9375,-16.34375 -4.00236,-5.06617 -10.52043,-9.92585 -17.875,-13.1875 -4.90146,-2.17373 -6.68409,-2.09097 -13.03167,-3.32121 z m -16.15583,8.57121 c 0.83872,-0.0172 1.66434,0.006 2.46875,0.0312 4.98585,0.15552 9.108,1.17002 12.78125,3.53125 2.46043,1.5816 4.44501,3.91196 7.375,6.46875 5.66485,4.94331 5.53125,11.34375 5.53125,11.34375 -0.10026,1.44571 1.18943,3.34042 -2.0625,5.34375 -8.23072,5.07044 -25.68259,11.75648 -40.25,17.75 -4.82533,1.98531 -9.90029,3.67147 -13.46875,5.5 0,0 -2.9721,-16.99767 2,-31.03125 2.65726,-7.50002 8.3786,-13.99035 16.25,-16.96875 4.04709,-1.53135 6.85883,-1.91725 9.375,-1.96875 z"
         style="fill:#ee2b34;fill-opacity:1;stroke:none;display:inline" />
      <path
         inkscape:connector-curvature="0"
         sodipodi:nodetypes="ccsscsssccssscc"
         id="path7733-4"
         d="m 402.76157,424.25327 c -3.16029,0.082 -5.03125,0.34375 -5.03125,0.34375 2.63909,-0.60346 -64.26562,7.42653 -57.78125,73.34375 1.81212,18.42123 10.50602,29.7853 20.30874,37.85619 20.46291,16.84778 48.55089,16.55211 48.55089,16.55211 9.85343,0.46659 35.72313,-7.84019 50.67354,-29.64948 7.54876,-11.01194 13.92531,-24.22657 10.77933,-44.00882 -3.00231,-18.87886 -11.25172,-31.41278 -20.75,-39.53125 -16.27153,-13.90776 -37.26912,-15.15217 -46.75,-14.90625 z m -3.40625,8.9375 c 12.80581,0.0329 34.82143,6.10618 41.8125,45.09375 9.8232,54.7817 -15.17814,59.77513 -20.90625,62.6875 -7.60839,3.86837 -41.87916,7.3728 -54.09375,-48.75 -12.04844,-55.35938 25.52756,-58.02001 23.375,-57.78125 0,0 3.99168,-1.26497 9.8125,-1.25 z"
         style="fill:#fcb110;fill-opacity:1;stroke:none;display:inline" />
      <path
         d="m 648.5,77.395 0,13.562 -0.06,0 -4.16,-13.562 -1.26,0 -4.18,13.562 -0.06,0 0,-13.562 -1.47,0 0,14.835 2.54,0 3.77,-11.992 0.05,0 3.72,11.992 2.58,0 0,-14.835 m -19.79,13.437 0,-13.437 -1.64,0 0,13.437 -4.44,0 0,1.395 10.52,0 0,-1.395"
         style="font-style:normal;font-variant:normal;font-weight:normal;font-stretch:normal;letter-spacing:normal;word-spacing:normal;text-anchor:start;fill:#000000;fill-opacity:1;fill-rule:nonzero;stroke:#d9d9d9;stroke-width:0;stroke-linecap:butt;stroke-linejoin:miter;stroke-miterlimit:10.43299961;stroke-opacity:1;stroke-dashoffset:0"
         transform="matrix(1.2533369,0,0,-1.2533369,5.547129,538.11828)"
         id="polyline222"
         inkscape:connector-curvature="0" />
    </g>
  </g>
</svg>
